M48
; DRILL file {KiCad 8.0.4-1.fc40} date 2024-08-13T13:21:28-0500
; FORMAT={-:-/ absolute / inch / decimal}
; #@! TF.CreationDate,2024-08-13T13:21:28-05:00
; #@! TF.GenerationSoftware,Kicad,Pcbnew,8.0.4-1.fc40
; #@! TF.FileFunction,Plated,1,2,PTH
FMAT,2
INCH
; #@! TA.AperFunction,Plated,PTH,ViaDrill
T1C0.0118
; #@! TA.AperFunction,Plated,PTH,ComponentDrill
T2C0.0315
; #@! TA.AperFunction,Plated,PTH,ComponentDrill
T3C0.0374
; #@! TA.AperFunction,Plated,PTH,ComponentDrill
T4C0.0394
; #@! TA.AperFunction,Plated,PTH,ComponentDrill
T5C0.0433
; #@! TA.AperFunction,Plated,PTH,ComponentDrill
T6C0.1260
%
G90
G05
T1
X5.882Y-3.588
X6.061Y-3.8
X6.086Y-3.56
X6.17Y-3.899
X6.306Y-4.164
X6.408Y-4.271
X6.524Y-4.208
T2
X5.9607Y-3.7429
X5.9607Y-3.8429
X5.9607Y-3.9429
X5.9607Y-4.0429
X6.2607Y-3.7429
X6.2607Y-3.8429
X6.2607Y-3.9429
X6.2607Y-4.0429
T3
X5.1866Y-3.8993
X5.285Y-3.8993
X5.3834Y-3.8993
T4
X5.2858Y-3.5993
X5.3842Y-3.5993
X6.239Y-4.383
X6.3374Y-4.383
T5
X5.135Y-4.14
X5.135Y-4.54
X6.604Y-4.3764
X6.604Y-4.5536
X6.86Y-4.3764
X6.86Y-4.5536
T6
X5.732Y-3.84
M30
