%TF.GenerationSoftware,KiCad,Pcbnew,8.0.4-1.fc40*%
%TF.CreationDate,2024-08-13T21:32:37-05:00*%
%TF.ProjectId,K9QW_ATTiny_CW_Keyer,4b395157-5f41-4545-9469-6e795f43575f,rev?*%
%TF.SameCoordinates,Original*%
%TF.FileFunction,Legend,Bot*%
%TF.FilePolarity,Positive*%
%FSLAX46Y46*%
G04 Gerber Fmt 4.6, Leading zero omitted, Abs format (unit mm)*
G04 Created by KiCad (PCBNEW 8.0.4-1.fc40) date 2024-08-13 21:32:37*
%MOMM*%
%LPD*%
G01*
G04 APERTURE LIST*
%ADD10C,0.100000*%
%ADD11C,0.150000*%
%ADD12C,0.120000*%
G04 APERTURE END LIST*
D10*
X165358144Y-115309152D02*
X165358144Y-116118676D01*
X165358144Y-116118676D02*
X165405763Y-116213914D01*
X165405763Y-116213914D02*
X165453382Y-116261533D01*
X165453382Y-116261533D02*
X165548620Y-116309152D01*
X165548620Y-116309152D02*
X165691477Y-116309152D01*
X165691477Y-116309152D02*
X165786715Y-116261533D01*
X165358144Y-115928200D02*
X165453382Y-115975819D01*
X165453382Y-115975819D02*
X165643858Y-115975819D01*
X165643858Y-115975819D02*
X165739096Y-115928200D01*
X165739096Y-115928200D02*
X165786715Y-115880580D01*
X165786715Y-115880580D02*
X165834334Y-115785342D01*
X165834334Y-115785342D02*
X165834334Y-115499628D01*
X165834334Y-115499628D02*
X165786715Y-115404390D01*
X165786715Y-115404390D02*
X165739096Y-115356771D01*
X165739096Y-115356771D02*
X165643858Y-115309152D01*
X165643858Y-115309152D02*
X165453382Y-115309152D01*
X165453382Y-115309152D02*
X165358144Y-115356771D01*
X164881953Y-115975819D02*
X164881953Y-115309152D01*
X164881953Y-114975819D02*
X164929572Y-115023438D01*
X164929572Y-115023438D02*
X164881953Y-115071057D01*
X164881953Y-115071057D02*
X164834334Y-115023438D01*
X164834334Y-115023438D02*
X164881953Y-114975819D01*
X164881953Y-114975819D02*
X164881953Y-115071057D01*
X164548620Y-115309152D02*
X164167668Y-115309152D01*
X164405763Y-114975819D02*
X164405763Y-115832961D01*
X164405763Y-115832961D02*
X164358144Y-115928200D01*
X164358144Y-115928200D02*
X164262906Y-115975819D01*
X164262906Y-115975819D02*
X164167668Y-115975819D01*
X163834334Y-115975819D02*
X163834334Y-114975819D01*
X163405763Y-115975819D02*
X163405763Y-115452009D01*
X163405763Y-115452009D02*
X163453382Y-115356771D01*
X163453382Y-115356771D02*
X163548620Y-115309152D01*
X163548620Y-115309152D02*
X163691477Y-115309152D01*
X163691477Y-115309152D02*
X163786715Y-115356771D01*
X163786715Y-115356771D02*
X163834334Y-115404390D01*
X162501001Y-115309152D02*
X162501001Y-115975819D01*
X162929572Y-115309152D02*
X162929572Y-115832961D01*
X162929572Y-115832961D02*
X162881953Y-115928200D01*
X162881953Y-115928200D02*
X162786715Y-115975819D01*
X162786715Y-115975819D02*
X162643858Y-115975819D01*
X162643858Y-115975819D02*
X162548620Y-115928200D01*
X162548620Y-115928200D02*
X162501001Y-115880580D01*
X162024810Y-115975819D02*
X162024810Y-114975819D01*
X162024810Y-115356771D02*
X161929572Y-115309152D01*
X161929572Y-115309152D02*
X161739096Y-115309152D01*
X161739096Y-115309152D02*
X161643858Y-115356771D01*
X161643858Y-115356771D02*
X161596239Y-115404390D01*
X161596239Y-115404390D02*
X161548620Y-115499628D01*
X161548620Y-115499628D02*
X161548620Y-115785342D01*
X161548620Y-115785342D02*
X161596239Y-115880580D01*
X161596239Y-115880580D02*
X161643858Y-115928200D01*
X161643858Y-115928200D02*
X161739096Y-115975819D01*
X161739096Y-115975819D02*
X161929572Y-115975819D01*
X161929572Y-115975819D02*
X162024810Y-115928200D01*
X161120048Y-115880580D02*
X161072429Y-115928200D01*
X161072429Y-115928200D02*
X161120048Y-115975819D01*
X161120048Y-115975819D02*
X161167667Y-115928200D01*
X161167667Y-115928200D02*
X161120048Y-115880580D01*
X161120048Y-115880580D02*
X161120048Y-115975819D01*
X160215287Y-115928200D02*
X160310525Y-115975819D01*
X160310525Y-115975819D02*
X160501001Y-115975819D01*
X160501001Y-115975819D02*
X160596239Y-115928200D01*
X160596239Y-115928200D02*
X160643858Y-115880580D01*
X160643858Y-115880580D02*
X160691477Y-115785342D01*
X160691477Y-115785342D02*
X160691477Y-115499628D01*
X160691477Y-115499628D02*
X160643858Y-115404390D01*
X160643858Y-115404390D02*
X160596239Y-115356771D01*
X160596239Y-115356771D02*
X160501001Y-115309152D01*
X160501001Y-115309152D02*
X160310525Y-115309152D01*
X160310525Y-115309152D02*
X160215287Y-115356771D01*
X159643858Y-115975819D02*
X159739096Y-115928200D01*
X159739096Y-115928200D02*
X159786715Y-115880580D01*
X159786715Y-115880580D02*
X159834334Y-115785342D01*
X159834334Y-115785342D02*
X159834334Y-115499628D01*
X159834334Y-115499628D02*
X159786715Y-115404390D01*
X159786715Y-115404390D02*
X159739096Y-115356771D01*
X159739096Y-115356771D02*
X159643858Y-115309152D01*
X159643858Y-115309152D02*
X159501001Y-115309152D01*
X159501001Y-115309152D02*
X159405763Y-115356771D01*
X159405763Y-115356771D02*
X159358144Y-115404390D01*
X159358144Y-115404390D02*
X159310525Y-115499628D01*
X159310525Y-115499628D02*
X159310525Y-115785342D01*
X159310525Y-115785342D02*
X159358144Y-115880580D01*
X159358144Y-115880580D02*
X159405763Y-115928200D01*
X159405763Y-115928200D02*
X159501001Y-115975819D01*
X159501001Y-115975819D02*
X159643858Y-115975819D01*
X158881953Y-115975819D02*
X158881953Y-115309152D01*
X158881953Y-115404390D02*
X158834334Y-115356771D01*
X158834334Y-115356771D02*
X158739096Y-115309152D01*
X158739096Y-115309152D02*
X158596239Y-115309152D01*
X158596239Y-115309152D02*
X158501001Y-115356771D01*
X158501001Y-115356771D02*
X158453382Y-115452009D01*
X158453382Y-115452009D02*
X158453382Y-115975819D01*
X158453382Y-115452009D02*
X158405763Y-115356771D01*
X158405763Y-115356771D02*
X158310525Y-115309152D01*
X158310525Y-115309152D02*
X158167668Y-115309152D01*
X158167668Y-115309152D02*
X158072429Y-115356771D01*
X158072429Y-115356771D02*
X158024810Y-115452009D01*
X158024810Y-115452009D02*
X158024810Y-115975819D01*
X156834335Y-114928200D02*
X157691477Y-116213914D01*
X156120049Y-115928200D02*
X156215287Y-115975819D01*
X156215287Y-115975819D02*
X156405763Y-115975819D01*
X156405763Y-115975819D02*
X156501001Y-115928200D01*
X156501001Y-115928200D02*
X156548620Y-115832961D01*
X156548620Y-115832961D02*
X156548620Y-115452009D01*
X156548620Y-115452009D02*
X156501001Y-115356771D01*
X156501001Y-115356771D02*
X156405763Y-115309152D01*
X156405763Y-115309152D02*
X156215287Y-115309152D01*
X156215287Y-115309152D02*
X156120049Y-115356771D01*
X156120049Y-115356771D02*
X156072430Y-115452009D01*
X156072430Y-115452009D02*
X156072430Y-115547247D01*
X156072430Y-115547247D02*
X156548620Y-115642485D01*
X155739096Y-115309152D02*
X155548620Y-115975819D01*
X155548620Y-115975819D02*
X155358144Y-115499628D01*
X155358144Y-115499628D02*
X155167668Y-115975819D01*
X155167668Y-115975819D02*
X154977192Y-115309152D01*
X154643858Y-115928200D02*
X154548620Y-115975819D01*
X154548620Y-115975819D02*
X154358144Y-115975819D01*
X154358144Y-115975819D02*
X154262906Y-115928200D01*
X154262906Y-115928200D02*
X154215287Y-115832961D01*
X154215287Y-115832961D02*
X154215287Y-115785342D01*
X154215287Y-115785342D02*
X154262906Y-115690104D01*
X154262906Y-115690104D02*
X154358144Y-115642485D01*
X154358144Y-115642485D02*
X154501001Y-115642485D01*
X154501001Y-115642485D02*
X154596239Y-115594866D01*
X154596239Y-115594866D02*
X154643858Y-115499628D01*
X154643858Y-115499628D02*
X154643858Y-115452009D01*
X154643858Y-115452009D02*
X154596239Y-115356771D01*
X154596239Y-115356771D02*
X154501001Y-115309152D01*
X154501001Y-115309152D02*
X154358144Y-115309152D01*
X154358144Y-115309152D02*
X154262906Y-115356771D01*
X153358144Y-115975819D02*
X153358144Y-115452009D01*
X153358144Y-115452009D02*
X153405763Y-115356771D01*
X153405763Y-115356771D02*
X153501001Y-115309152D01*
X153501001Y-115309152D02*
X153691477Y-115309152D01*
X153691477Y-115309152D02*
X153786715Y-115356771D01*
X153358144Y-115928200D02*
X153453382Y-115975819D01*
X153453382Y-115975819D02*
X153691477Y-115975819D01*
X153691477Y-115975819D02*
X153786715Y-115928200D01*
X153786715Y-115928200D02*
X153834334Y-115832961D01*
X153834334Y-115832961D02*
X153834334Y-115737723D01*
X153834334Y-115737723D02*
X153786715Y-115642485D01*
X153786715Y-115642485D02*
X153691477Y-115594866D01*
X153691477Y-115594866D02*
X153453382Y-115594866D01*
X153453382Y-115594866D02*
X153358144Y-115547247D01*
X152881953Y-115309152D02*
X152881953Y-115975819D01*
X152881953Y-115404390D02*
X152834334Y-115356771D01*
X152834334Y-115356771D02*
X152739096Y-115309152D01*
X152739096Y-115309152D02*
X152596239Y-115309152D01*
X152596239Y-115309152D02*
X152501001Y-115356771D01*
X152501001Y-115356771D02*
X152453382Y-115452009D01*
X152453382Y-115452009D02*
X152453382Y-115975819D01*
X151548620Y-115975819D02*
X151548620Y-114975819D01*
X151548620Y-115928200D02*
X151643858Y-115975819D01*
X151643858Y-115975819D02*
X151834334Y-115975819D01*
X151834334Y-115975819D02*
X151929572Y-115928200D01*
X151929572Y-115928200D02*
X151977191Y-115880580D01*
X151977191Y-115880580D02*
X152024810Y-115785342D01*
X152024810Y-115785342D02*
X152024810Y-115499628D01*
X152024810Y-115499628D02*
X151977191Y-115404390D01*
X151977191Y-115404390D02*
X151929572Y-115356771D01*
X151929572Y-115356771D02*
X151834334Y-115309152D01*
X151834334Y-115309152D02*
X151643858Y-115309152D01*
X151643858Y-115309152D02*
X151548620Y-115356771D01*
X150929572Y-115975819D02*
X151024810Y-115928200D01*
X151024810Y-115928200D02*
X151072429Y-115880580D01*
X151072429Y-115880580D02*
X151120048Y-115785342D01*
X151120048Y-115785342D02*
X151120048Y-115499628D01*
X151120048Y-115499628D02*
X151072429Y-115404390D01*
X151072429Y-115404390D02*
X151024810Y-115356771D01*
X151024810Y-115356771D02*
X150929572Y-115309152D01*
X150929572Y-115309152D02*
X150786715Y-115309152D01*
X150786715Y-115309152D02*
X150691477Y-115356771D01*
X150691477Y-115356771D02*
X150643858Y-115404390D01*
X150643858Y-115404390D02*
X150596239Y-115499628D01*
X150596239Y-115499628D02*
X150596239Y-115785342D01*
X150596239Y-115785342D02*
X150643858Y-115880580D01*
X150643858Y-115880580D02*
X150691477Y-115928200D01*
X150691477Y-115928200D02*
X150786715Y-115975819D01*
X150786715Y-115975819D02*
X150929572Y-115975819D01*
X150167667Y-115975819D02*
X150167667Y-115309152D01*
X150167667Y-115499628D02*
X150120048Y-115404390D01*
X150120048Y-115404390D02*
X150072429Y-115356771D01*
X150072429Y-115356771D02*
X149977191Y-115309152D01*
X149977191Y-115309152D02*
X149881953Y-115309152D01*
X148834334Y-114928200D02*
X149691476Y-116213914D01*
X148548619Y-115690104D02*
X148072429Y-115690104D01*
X148643857Y-115975819D02*
X148310524Y-114975819D01*
X148310524Y-114975819D02*
X147977191Y-115975819D01*
X147786714Y-114975819D02*
X147215286Y-114975819D01*
X147501000Y-115975819D02*
X147501000Y-114975819D01*
X147024809Y-114975819D02*
X146453381Y-114975819D01*
X146739095Y-115975819D02*
X146739095Y-114975819D01*
X146120047Y-115975819D02*
X146120047Y-115309152D01*
X146120047Y-114975819D02*
X146167666Y-115023438D01*
X146167666Y-115023438D02*
X146120047Y-115071057D01*
X146120047Y-115071057D02*
X146072428Y-115023438D01*
X146072428Y-115023438D02*
X146120047Y-114975819D01*
X146120047Y-114975819D02*
X146120047Y-115071057D01*
X145643857Y-115309152D02*
X145643857Y-115975819D01*
X145643857Y-115404390D02*
X145596238Y-115356771D01*
X145596238Y-115356771D02*
X145501000Y-115309152D01*
X145501000Y-115309152D02*
X145358143Y-115309152D01*
X145358143Y-115309152D02*
X145262905Y-115356771D01*
X145262905Y-115356771D02*
X145215286Y-115452009D01*
X145215286Y-115452009D02*
X145215286Y-115975819D01*
X144834333Y-115309152D02*
X144596238Y-115975819D01*
X144358143Y-115309152D02*
X144596238Y-115975819D01*
X144596238Y-115975819D02*
X144691476Y-116213914D01*
X144691476Y-116213914D02*
X144739095Y-116261533D01*
X144739095Y-116261533D02*
X144834333Y-116309152D01*
X143834333Y-115404390D02*
X143929571Y-115356771D01*
X143929571Y-115356771D02*
X143977190Y-115309152D01*
X143977190Y-115309152D02*
X144024809Y-115213914D01*
X144024809Y-115213914D02*
X144024809Y-115166295D01*
X144024809Y-115166295D02*
X143977190Y-115071057D01*
X143977190Y-115071057D02*
X143929571Y-115023438D01*
X143929571Y-115023438D02*
X143834333Y-114975819D01*
X143834333Y-114975819D02*
X143643857Y-114975819D01*
X143643857Y-114975819D02*
X143548619Y-115023438D01*
X143548619Y-115023438D02*
X143501000Y-115071057D01*
X143501000Y-115071057D02*
X143453381Y-115166295D01*
X143453381Y-115166295D02*
X143453381Y-115213914D01*
X143453381Y-115213914D02*
X143501000Y-115309152D01*
X143501000Y-115309152D02*
X143548619Y-115356771D01*
X143548619Y-115356771D02*
X143643857Y-115404390D01*
X143643857Y-115404390D02*
X143834333Y-115404390D01*
X143834333Y-115404390D02*
X143929571Y-115452009D01*
X143929571Y-115452009D02*
X143977190Y-115499628D01*
X143977190Y-115499628D02*
X144024809Y-115594866D01*
X144024809Y-115594866D02*
X144024809Y-115785342D01*
X144024809Y-115785342D02*
X143977190Y-115880580D01*
X143977190Y-115880580D02*
X143929571Y-115928200D01*
X143929571Y-115928200D02*
X143834333Y-115975819D01*
X143834333Y-115975819D02*
X143643857Y-115975819D01*
X143643857Y-115975819D02*
X143548619Y-115928200D01*
X143548619Y-115928200D02*
X143501000Y-115880580D01*
X143501000Y-115880580D02*
X143453381Y-115785342D01*
X143453381Y-115785342D02*
X143453381Y-115594866D01*
X143453381Y-115594866D02*
X143501000Y-115499628D01*
X143501000Y-115499628D02*
X143548619Y-115452009D01*
X143548619Y-115452009D02*
X143643857Y-115404390D01*
X142548619Y-114975819D02*
X143024809Y-114975819D01*
X143024809Y-114975819D02*
X143072428Y-115452009D01*
X143072428Y-115452009D02*
X143024809Y-115404390D01*
X143024809Y-115404390D02*
X142929571Y-115356771D01*
X142929571Y-115356771D02*
X142691476Y-115356771D01*
X142691476Y-115356771D02*
X142596238Y-115404390D01*
X142596238Y-115404390D02*
X142548619Y-115452009D01*
X142548619Y-115452009D02*
X142501000Y-115547247D01*
X142501000Y-115547247D02*
X142501000Y-115785342D01*
X142501000Y-115785342D02*
X142548619Y-115880580D01*
X142548619Y-115880580D02*
X142596238Y-115928200D01*
X142596238Y-115928200D02*
X142691476Y-115975819D01*
X142691476Y-115975819D02*
X142929571Y-115975819D01*
X142929571Y-115975819D02*
X143024809Y-115928200D01*
X143024809Y-115928200D02*
X143072428Y-115880580D01*
X142310524Y-116071057D02*
X141548619Y-116071057D01*
X140739095Y-115880580D02*
X140786714Y-115928200D01*
X140786714Y-115928200D02*
X140929571Y-115975819D01*
X140929571Y-115975819D02*
X141024809Y-115975819D01*
X141024809Y-115975819D02*
X141167666Y-115928200D01*
X141167666Y-115928200D02*
X141262904Y-115832961D01*
X141262904Y-115832961D02*
X141310523Y-115737723D01*
X141310523Y-115737723D02*
X141358142Y-115547247D01*
X141358142Y-115547247D02*
X141358142Y-115404390D01*
X141358142Y-115404390D02*
X141310523Y-115213914D01*
X141310523Y-115213914D02*
X141262904Y-115118676D01*
X141262904Y-115118676D02*
X141167666Y-115023438D01*
X141167666Y-115023438D02*
X141024809Y-114975819D01*
X141024809Y-114975819D02*
X140929571Y-114975819D01*
X140929571Y-114975819D02*
X140786714Y-115023438D01*
X140786714Y-115023438D02*
X140739095Y-115071057D01*
X140405761Y-114975819D02*
X140167666Y-115975819D01*
X140167666Y-115975819D02*
X139977190Y-115261533D01*
X139977190Y-115261533D02*
X139786714Y-115975819D01*
X139786714Y-115975819D02*
X139548619Y-114975819D01*
X139405762Y-116071057D02*
X138643857Y-116071057D01*
X138405761Y-115975819D02*
X138405761Y-114975819D01*
X137834333Y-115975819D02*
X138262904Y-115404390D01*
X137834333Y-114975819D02*
X138405761Y-115547247D01*
X137024809Y-115928200D02*
X137120047Y-115975819D01*
X137120047Y-115975819D02*
X137310523Y-115975819D01*
X137310523Y-115975819D02*
X137405761Y-115928200D01*
X137405761Y-115928200D02*
X137453380Y-115832961D01*
X137453380Y-115832961D02*
X137453380Y-115452009D01*
X137453380Y-115452009D02*
X137405761Y-115356771D01*
X137405761Y-115356771D02*
X137310523Y-115309152D01*
X137310523Y-115309152D02*
X137120047Y-115309152D01*
X137120047Y-115309152D02*
X137024809Y-115356771D01*
X137024809Y-115356771D02*
X136977190Y-115452009D01*
X136977190Y-115452009D02*
X136977190Y-115547247D01*
X136977190Y-115547247D02*
X137453380Y-115642485D01*
X136643856Y-115309152D02*
X136405761Y-115975819D01*
X136167666Y-115309152D02*
X136405761Y-115975819D01*
X136405761Y-115975819D02*
X136500999Y-116213914D01*
X136500999Y-116213914D02*
X136548618Y-116261533D01*
X136548618Y-116261533D02*
X136643856Y-116309152D01*
X135405761Y-115928200D02*
X135500999Y-115975819D01*
X135500999Y-115975819D02*
X135691475Y-115975819D01*
X135691475Y-115975819D02*
X135786713Y-115928200D01*
X135786713Y-115928200D02*
X135834332Y-115832961D01*
X135834332Y-115832961D02*
X135834332Y-115452009D01*
X135834332Y-115452009D02*
X135786713Y-115356771D01*
X135786713Y-115356771D02*
X135691475Y-115309152D01*
X135691475Y-115309152D02*
X135500999Y-115309152D01*
X135500999Y-115309152D02*
X135405761Y-115356771D01*
X135405761Y-115356771D02*
X135358142Y-115452009D01*
X135358142Y-115452009D02*
X135358142Y-115547247D01*
X135358142Y-115547247D02*
X135834332Y-115642485D01*
X134929570Y-115975819D02*
X134929570Y-115309152D01*
X134929570Y-115499628D02*
X134881951Y-115404390D01*
X134881951Y-115404390D02*
X134834332Y-115356771D01*
X134834332Y-115356771D02*
X134739094Y-115309152D01*
X134739094Y-115309152D02*
X134643856Y-115309152D01*
X166291534Y-88899016D02*
X165815344Y-88899016D01*
X166386772Y-89184731D02*
X166053439Y-88184731D01*
X166053439Y-88184731D02*
X165720106Y-89184731D01*
X165529629Y-88184731D02*
X164958201Y-88184731D01*
X165243915Y-89184731D02*
X165243915Y-88184731D01*
X164767724Y-88184731D02*
X164196296Y-88184731D01*
X164482010Y-89184731D02*
X164482010Y-88184731D01*
X163862962Y-89184731D02*
X163862962Y-88518064D01*
X163862962Y-88184731D02*
X163910581Y-88232350D01*
X163910581Y-88232350D02*
X163862962Y-88279969D01*
X163862962Y-88279969D02*
X163815343Y-88232350D01*
X163815343Y-88232350D02*
X163862962Y-88184731D01*
X163862962Y-88184731D02*
X163862962Y-88279969D01*
X163386772Y-88518064D02*
X163386772Y-89184731D01*
X163386772Y-88613302D02*
X163339153Y-88565683D01*
X163339153Y-88565683D02*
X163243915Y-88518064D01*
X163243915Y-88518064D02*
X163101058Y-88518064D01*
X163101058Y-88518064D02*
X163005820Y-88565683D01*
X163005820Y-88565683D02*
X162958201Y-88660921D01*
X162958201Y-88660921D02*
X162958201Y-89184731D01*
X162577248Y-88518064D02*
X162339153Y-89184731D01*
X162101058Y-88518064D02*
X162339153Y-89184731D01*
X162339153Y-89184731D02*
X162434391Y-89422826D01*
X162434391Y-89422826D02*
X162482010Y-89470445D01*
X162482010Y-89470445D02*
X162577248Y-89518064D01*
X161577248Y-88613302D02*
X161672486Y-88565683D01*
X161672486Y-88565683D02*
X161720105Y-88518064D01*
X161720105Y-88518064D02*
X161767724Y-88422826D01*
X161767724Y-88422826D02*
X161767724Y-88375207D01*
X161767724Y-88375207D02*
X161720105Y-88279969D01*
X161720105Y-88279969D02*
X161672486Y-88232350D01*
X161672486Y-88232350D02*
X161577248Y-88184731D01*
X161577248Y-88184731D02*
X161386772Y-88184731D01*
X161386772Y-88184731D02*
X161291534Y-88232350D01*
X161291534Y-88232350D02*
X161243915Y-88279969D01*
X161243915Y-88279969D02*
X161196296Y-88375207D01*
X161196296Y-88375207D02*
X161196296Y-88422826D01*
X161196296Y-88422826D02*
X161243915Y-88518064D01*
X161243915Y-88518064D02*
X161291534Y-88565683D01*
X161291534Y-88565683D02*
X161386772Y-88613302D01*
X161386772Y-88613302D02*
X161577248Y-88613302D01*
X161577248Y-88613302D02*
X161672486Y-88660921D01*
X161672486Y-88660921D02*
X161720105Y-88708540D01*
X161720105Y-88708540D02*
X161767724Y-88803778D01*
X161767724Y-88803778D02*
X161767724Y-88994254D01*
X161767724Y-88994254D02*
X161720105Y-89089492D01*
X161720105Y-89089492D02*
X161672486Y-89137112D01*
X161672486Y-89137112D02*
X161577248Y-89184731D01*
X161577248Y-89184731D02*
X161386772Y-89184731D01*
X161386772Y-89184731D02*
X161291534Y-89137112D01*
X161291534Y-89137112D02*
X161243915Y-89089492D01*
X161243915Y-89089492D02*
X161196296Y-88994254D01*
X161196296Y-88994254D02*
X161196296Y-88803778D01*
X161196296Y-88803778D02*
X161243915Y-88708540D01*
X161243915Y-88708540D02*
X161291534Y-88660921D01*
X161291534Y-88660921D02*
X161386772Y-88613302D01*
X160291534Y-88184731D02*
X160767724Y-88184731D01*
X160767724Y-88184731D02*
X160815343Y-88660921D01*
X160815343Y-88660921D02*
X160767724Y-88613302D01*
X160767724Y-88613302D02*
X160672486Y-88565683D01*
X160672486Y-88565683D02*
X160434391Y-88565683D01*
X160434391Y-88565683D02*
X160339153Y-88613302D01*
X160339153Y-88613302D02*
X160291534Y-88660921D01*
X160291534Y-88660921D02*
X160243915Y-88756159D01*
X160243915Y-88756159D02*
X160243915Y-88994254D01*
X160243915Y-88994254D02*
X160291534Y-89089492D01*
X160291534Y-89089492D02*
X160339153Y-89137112D01*
X160339153Y-89137112D02*
X160434391Y-89184731D01*
X160434391Y-89184731D02*
X160672486Y-89184731D01*
X160672486Y-89184731D02*
X160767724Y-89137112D01*
X160767724Y-89137112D02*
X160815343Y-89089492D01*
X158482010Y-89089492D02*
X158529629Y-89137112D01*
X158529629Y-89137112D02*
X158672486Y-89184731D01*
X158672486Y-89184731D02*
X158767724Y-89184731D01*
X158767724Y-89184731D02*
X158910581Y-89137112D01*
X158910581Y-89137112D02*
X159005819Y-89041873D01*
X159005819Y-89041873D02*
X159053438Y-88946635D01*
X159053438Y-88946635D02*
X159101057Y-88756159D01*
X159101057Y-88756159D02*
X159101057Y-88613302D01*
X159101057Y-88613302D02*
X159053438Y-88422826D01*
X159053438Y-88422826D02*
X159005819Y-88327588D01*
X159005819Y-88327588D02*
X158910581Y-88232350D01*
X158910581Y-88232350D02*
X158767724Y-88184731D01*
X158767724Y-88184731D02*
X158672486Y-88184731D01*
X158672486Y-88184731D02*
X158529629Y-88232350D01*
X158529629Y-88232350D02*
X158482010Y-88279969D01*
X158148676Y-88184731D02*
X157910581Y-89184731D01*
X157910581Y-89184731D02*
X157720105Y-88470445D01*
X157720105Y-88470445D02*
X157529629Y-89184731D01*
X157529629Y-89184731D02*
X157291534Y-88184731D01*
X156148676Y-89184731D02*
X156148676Y-88184731D01*
X155577248Y-89184731D02*
X156005819Y-88613302D01*
X155577248Y-88184731D02*
X156148676Y-88756159D01*
X154767724Y-89137112D02*
X154862962Y-89184731D01*
X154862962Y-89184731D02*
X155053438Y-89184731D01*
X155053438Y-89184731D02*
X155148676Y-89137112D01*
X155148676Y-89137112D02*
X155196295Y-89041873D01*
X155196295Y-89041873D02*
X155196295Y-88660921D01*
X155196295Y-88660921D02*
X155148676Y-88565683D01*
X155148676Y-88565683D02*
X155053438Y-88518064D01*
X155053438Y-88518064D02*
X154862962Y-88518064D01*
X154862962Y-88518064D02*
X154767724Y-88565683D01*
X154767724Y-88565683D02*
X154720105Y-88660921D01*
X154720105Y-88660921D02*
X154720105Y-88756159D01*
X154720105Y-88756159D02*
X155196295Y-88851397D01*
X154386771Y-88518064D02*
X154148676Y-89184731D01*
X153910581Y-88518064D02*
X154148676Y-89184731D01*
X154148676Y-89184731D02*
X154243914Y-89422826D01*
X154243914Y-89422826D02*
X154291533Y-89470445D01*
X154291533Y-89470445D02*
X154386771Y-89518064D01*
X153148676Y-89137112D02*
X153243914Y-89184731D01*
X153243914Y-89184731D02*
X153434390Y-89184731D01*
X153434390Y-89184731D02*
X153529628Y-89137112D01*
X153529628Y-89137112D02*
X153577247Y-89041873D01*
X153577247Y-89041873D02*
X153577247Y-88660921D01*
X153577247Y-88660921D02*
X153529628Y-88565683D01*
X153529628Y-88565683D02*
X153434390Y-88518064D01*
X153434390Y-88518064D02*
X153243914Y-88518064D01*
X153243914Y-88518064D02*
X153148676Y-88565683D01*
X153148676Y-88565683D02*
X153101057Y-88660921D01*
X153101057Y-88660921D02*
X153101057Y-88756159D01*
X153101057Y-88756159D02*
X153577247Y-88851397D01*
X152672485Y-89184731D02*
X152672485Y-88518064D01*
X152672485Y-88708540D02*
X152624866Y-88613302D01*
X152624866Y-88613302D02*
X152577247Y-88565683D01*
X152577247Y-88565683D02*
X152482009Y-88518064D01*
X152482009Y-88518064D02*
X152386771Y-88518064D01*
X151291532Y-88803778D02*
X150529628Y-88803778D01*
X148720104Y-89184731D02*
X149053437Y-88708540D01*
X149291532Y-89184731D02*
X149291532Y-88184731D01*
X149291532Y-88184731D02*
X148910580Y-88184731D01*
X148910580Y-88184731D02*
X148815342Y-88232350D01*
X148815342Y-88232350D02*
X148767723Y-88279969D01*
X148767723Y-88279969D02*
X148720104Y-88375207D01*
X148720104Y-88375207D02*
X148720104Y-88518064D01*
X148720104Y-88518064D02*
X148767723Y-88613302D01*
X148767723Y-88613302D02*
X148815342Y-88660921D01*
X148815342Y-88660921D02*
X148910580Y-88708540D01*
X148910580Y-88708540D02*
X149291532Y-88708540D01*
X147910580Y-89137112D02*
X148005818Y-89184731D01*
X148005818Y-89184731D02*
X148196294Y-89184731D01*
X148196294Y-89184731D02*
X148291532Y-89137112D01*
X148291532Y-89137112D02*
X148339151Y-89041873D01*
X148339151Y-89041873D02*
X148339151Y-88660921D01*
X148339151Y-88660921D02*
X148291532Y-88565683D01*
X148291532Y-88565683D02*
X148196294Y-88518064D01*
X148196294Y-88518064D02*
X148005818Y-88518064D01*
X148005818Y-88518064D02*
X147910580Y-88565683D01*
X147910580Y-88565683D02*
X147862961Y-88660921D01*
X147862961Y-88660921D02*
X147862961Y-88756159D01*
X147862961Y-88756159D02*
X148339151Y-88851397D01*
X147529627Y-88518064D02*
X147291532Y-89184731D01*
X147291532Y-89184731D02*
X147053437Y-88518064D01*
X145720103Y-88184731D02*
X145624865Y-88184731D01*
X145624865Y-88184731D02*
X145529627Y-88232350D01*
X145529627Y-88232350D02*
X145482008Y-88279969D01*
X145482008Y-88279969D02*
X145434389Y-88375207D01*
X145434389Y-88375207D02*
X145386770Y-88565683D01*
X145386770Y-88565683D02*
X145386770Y-88803778D01*
X145386770Y-88803778D02*
X145434389Y-88994254D01*
X145434389Y-88994254D02*
X145482008Y-89089492D01*
X145482008Y-89089492D02*
X145529627Y-89137112D01*
X145529627Y-89137112D02*
X145624865Y-89184731D01*
X145624865Y-89184731D02*
X145720103Y-89184731D01*
X145720103Y-89184731D02*
X145815341Y-89137112D01*
X145815341Y-89137112D02*
X145862960Y-89089492D01*
X145862960Y-89089492D02*
X145910579Y-88994254D01*
X145910579Y-88994254D02*
X145958198Y-88803778D01*
X145958198Y-88803778D02*
X145958198Y-88565683D01*
X145958198Y-88565683D02*
X145910579Y-88375207D01*
X145910579Y-88375207D02*
X145862960Y-88279969D01*
X145862960Y-88279969D02*
X145815341Y-88232350D01*
X145815341Y-88232350D02*
X145720103Y-88184731D01*
X166243915Y-90794675D02*
X166243915Y-89794675D01*
X166243915Y-89794675D02*
X165862963Y-89794675D01*
X165862963Y-89794675D02*
X165767725Y-89842294D01*
X165767725Y-89842294D02*
X165720106Y-89889913D01*
X165720106Y-89889913D02*
X165672487Y-89985151D01*
X165672487Y-89985151D02*
X165672487Y-90128008D01*
X165672487Y-90128008D02*
X165720106Y-90223246D01*
X165720106Y-90223246D02*
X165767725Y-90270865D01*
X165767725Y-90270865D02*
X165862963Y-90318484D01*
X165862963Y-90318484D02*
X166243915Y-90318484D01*
X164672487Y-90699436D02*
X164720106Y-90747056D01*
X164720106Y-90747056D02*
X164862963Y-90794675D01*
X164862963Y-90794675D02*
X164958201Y-90794675D01*
X164958201Y-90794675D02*
X165101058Y-90747056D01*
X165101058Y-90747056D02*
X165196296Y-90651817D01*
X165196296Y-90651817D02*
X165243915Y-90556579D01*
X165243915Y-90556579D02*
X165291534Y-90366103D01*
X165291534Y-90366103D02*
X165291534Y-90223246D01*
X165291534Y-90223246D02*
X165243915Y-90032770D01*
X165243915Y-90032770D02*
X165196296Y-89937532D01*
X165196296Y-89937532D02*
X165101058Y-89842294D01*
X165101058Y-89842294D02*
X164958201Y-89794675D01*
X164958201Y-89794675D02*
X164862963Y-89794675D01*
X164862963Y-89794675D02*
X164720106Y-89842294D01*
X164720106Y-89842294D02*
X164672487Y-89889913D01*
X163910582Y-90270865D02*
X163767725Y-90318484D01*
X163767725Y-90318484D02*
X163720106Y-90366103D01*
X163720106Y-90366103D02*
X163672487Y-90461341D01*
X163672487Y-90461341D02*
X163672487Y-90604198D01*
X163672487Y-90604198D02*
X163720106Y-90699436D01*
X163720106Y-90699436D02*
X163767725Y-90747056D01*
X163767725Y-90747056D02*
X163862963Y-90794675D01*
X163862963Y-90794675D02*
X164243915Y-90794675D01*
X164243915Y-90794675D02*
X164243915Y-89794675D01*
X164243915Y-89794675D02*
X163910582Y-89794675D01*
X163910582Y-89794675D02*
X163815344Y-89842294D01*
X163815344Y-89842294D02*
X163767725Y-89889913D01*
X163767725Y-89889913D02*
X163720106Y-89985151D01*
X163720106Y-89985151D02*
X163720106Y-90080389D01*
X163720106Y-90080389D02*
X163767725Y-90175627D01*
X163767725Y-90175627D02*
X163815344Y-90223246D01*
X163815344Y-90223246D02*
X163910582Y-90270865D01*
X163910582Y-90270865D02*
X164243915Y-90270865D01*
X162482010Y-90794675D02*
X162482010Y-89794675D01*
X162482010Y-90175627D02*
X162386772Y-90128008D01*
X162386772Y-90128008D02*
X162196296Y-90128008D01*
X162196296Y-90128008D02*
X162101058Y-90175627D01*
X162101058Y-90175627D02*
X162053439Y-90223246D01*
X162053439Y-90223246D02*
X162005820Y-90318484D01*
X162005820Y-90318484D02*
X162005820Y-90604198D01*
X162005820Y-90604198D02*
X162053439Y-90699436D01*
X162053439Y-90699436D02*
X162101058Y-90747056D01*
X162101058Y-90747056D02*
X162196296Y-90794675D01*
X162196296Y-90794675D02*
X162386772Y-90794675D01*
X162386772Y-90794675D02*
X162482010Y-90747056D01*
X161672486Y-90128008D02*
X161434391Y-90794675D01*
X161196296Y-90128008D02*
X161434391Y-90794675D01*
X161434391Y-90794675D02*
X161529629Y-91032770D01*
X161529629Y-91032770D02*
X161577248Y-91080389D01*
X161577248Y-91080389D02*
X161672486Y-91128008D01*
X160053438Y-90270865D02*
X159720105Y-90270865D01*
X159577248Y-90794675D02*
X160053438Y-90794675D01*
X160053438Y-90794675D02*
X160053438Y-89794675D01*
X160053438Y-89794675D02*
X159577248Y-89794675D01*
X158720105Y-90794675D02*
X158720105Y-89794675D01*
X158720105Y-90747056D02*
X158815343Y-90794675D01*
X158815343Y-90794675D02*
X159005819Y-90794675D01*
X159005819Y-90794675D02*
X159101057Y-90747056D01*
X159101057Y-90747056D02*
X159148676Y-90699436D01*
X159148676Y-90699436D02*
X159196295Y-90604198D01*
X159196295Y-90604198D02*
X159196295Y-90318484D01*
X159196295Y-90318484D02*
X159148676Y-90223246D01*
X159148676Y-90223246D02*
X159101057Y-90175627D01*
X159101057Y-90175627D02*
X159005819Y-90128008D01*
X159005819Y-90128008D02*
X158815343Y-90128008D01*
X158815343Y-90128008D02*
X158720105Y-90175627D01*
X158339152Y-90128008D02*
X158148676Y-90794675D01*
X158148676Y-90794675D02*
X157958200Y-90318484D01*
X157958200Y-90318484D02*
X157767724Y-90794675D01*
X157767724Y-90794675D02*
X157577248Y-90128008D01*
X156767724Y-90794675D02*
X156767724Y-90270865D01*
X156767724Y-90270865D02*
X156815343Y-90175627D01*
X156815343Y-90175627D02*
X156910581Y-90128008D01*
X156910581Y-90128008D02*
X157101057Y-90128008D01*
X157101057Y-90128008D02*
X157196295Y-90175627D01*
X156767724Y-90747056D02*
X156862962Y-90794675D01*
X156862962Y-90794675D02*
X157101057Y-90794675D01*
X157101057Y-90794675D02*
X157196295Y-90747056D01*
X157196295Y-90747056D02*
X157243914Y-90651817D01*
X157243914Y-90651817D02*
X157243914Y-90556579D01*
X157243914Y-90556579D02*
X157196295Y-90461341D01*
X157196295Y-90461341D02*
X157101057Y-90413722D01*
X157101057Y-90413722D02*
X156862962Y-90413722D01*
X156862962Y-90413722D02*
X156767724Y-90366103D01*
X156291533Y-90794675D02*
X156291533Y-90128008D01*
X156291533Y-90318484D02*
X156243914Y-90223246D01*
X156243914Y-90223246D02*
X156196295Y-90175627D01*
X156196295Y-90175627D02*
X156101057Y-90128008D01*
X156101057Y-90128008D02*
X156005819Y-90128008D01*
X155243914Y-90794675D02*
X155243914Y-89794675D01*
X155243914Y-90747056D02*
X155339152Y-90794675D01*
X155339152Y-90794675D02*
X155529628Y-90794675D01*
X155529628Y-90794675D02*
X155624866Y-90747056D01*
X155624866Y-90747056D02*
X155672485Y-90699436D01*
X155672485Y-90699436D02*
X155720104Y-90604198D01*
X155720104Y-90604198D02*
X155720104Y-90318484D01*
X155720104Y-90318484D02*
X155672485Y-90223246D01*
X155672485Y-90223246D02*
X155624866Y-90175627D01*
X155624866Y-90175627D02*
X155529628Y-90128008D01*
X155529628Y-90128008D02*
X155339152Y-90128008D01*
X155339152Y-90128008D02*
X155243914Y-90175627D01*
X154053437Y-90747056D02*
X153910580Y-90794675D01*
X153910580Y-90794675D02*
X153672485Y-90794675D01*
X153672485Y-90794675D02*
X153577247Y-90747056D01*
X153577247Y-90747056D02*
X153529628Y-90699436D01*
X153529628Y-90699436D02*
X153482009Y-90604198D01*
X153482009Y-90604198D02*
X153482009Y-90508960D01*
X153482009Y-90508960D02*
X153529628Y-90413722D01*
X153529628Y-90413722D02*
X153577247Y-90366103D01*
X153577247Y-90366103D02*
X153672485Y-90318484D01*
X153672485Y-90318484D02*
X153862961Y-90270865D01*
X153862961Y-90270865D02*
X153958199Y-90223246D01*
X153958199Y-90223246D02*
X154005818Y-90175627D01*
X154005818Y-90175627D02*
X154053437Y-90080389D01*
X154053437Y-90080389D02*
X154053437Y-89985151D01*
X154053437Y-89985151D02*
X154005818Y-89889913D01*
X154005818Y-89889913D02*
X153958199Y-89842294D01*
X153958199Y-89842294D02*
X153862961Y-89794675D01*
X153862961Y-89794675D02*
X153624866Y-89794675D01*
X153624866Y-89794675D02*
X153482009Y-89842294D01*
X152624866Y-90794675D02*
X152624866Y-90270865D01*
X152624866Y-90270865D02*
X152672485Y-90175627D01*
X152672485Y-90175627D02*
X152767723Y-90128008D01*
X152767723Y-90128008D02*
X152958199Y-90128008D01*
X152958199Y-90128008D02*
X153053437Y-90175627D01*
X152624866Y-90747056D02*
X152720104Y-90794675D01*
X152720104Y-90794675D02*
X152958199Y-90794675D01*
X152958199Y-90794675D02*
X153053437Y-90747056D01*
X153053437Y-90747056D02*
X153101056Y-90651817D01*
X153101056Y-90651817D02*
X153101056Y-90556579D01*
X153101056Y-90556579D02*
X153053437Y-90461341D01*
X153053437Y-90461341D02*
X152958199Y-90413722D01*
X152958199Y-90413722D02*
X152720104Y-90413722D01*
X152720104Y-90413722D02*
X152624866Y-90366103D01*
X152148675Y-90128008D02*
X152148675Y-90794675D01*
X152148675Y-90223246D02*
X152101056Y-90175627D01*
X152101056Y-90175627D02*
X152005818Y-90128008D01*
X152005818Y-90128008D02*
X151862961Y-90128008D01*
X151862961Y-90128008D02*
X151767723Y-90175627D01*
X151767723Y-90175627D02*
X151720104Y-90270865D01*
X151720104Y-90270865D02*
X151720104Y-90794675D01*
X150815342Y-90794675D02*
X150815342Y-89794675D01*
X150815342Y-90747056D02*
X150910580Y-90794675D01*
X150910580Y-90794675D02*
X151101056Y-90794675D01*
X151101056Y-90794675D02*
X151196294Y-90747056D01*
X151196294Y-90747056D02*
X151243913Y-90699436D01*
X151243913Y-90699436D02*
X151291532Y-90604198D01*
X151291532Y-90604198D02*
X151291532Y-90318484D01*
X151291532Y-90318484D02*
X151243913Y-90223246D01*
X151243913Y-90223246D02*
X151196294Y-90175627D01*
X151196294Y-90175627D02*
X151101056Y-90128008D01*
X151101056Y-90128008D02*
X150910580Y-90128008D01*
X150910580Y-90128008D02*
X150815342Y-90175627D01*
X150196294Y-90794675D02*
X150291532Y-90747056D01*
X150291532Y-90747056D02*
X150339151Y-90699436D01*
X150339151Y-90699436D02*
X150386770Y-90604198D01*
X150386770Y-90604198D02*
X150386770Y-90318484D01*
X150386770Y-90318484D02*
X150339151Y-90223246D01*
X150339151Y-90223246D02*
X150291532Y-90175627D01*
X150291532Y-90175627D02*
X150196294Y-90128008D01*
X150196294Y-90128008D02*
X150053437Y-90128008D01*
X150053437Y-90128008D02*
X149958199Y-90175627D01*
X149958199Y-90175627D02*
X149910580Y-90223246D01*
X149910580Y-90223246D02*
X149862961Y-90318484D01*
X149862961Y-90318484D02*
X149862961Y-90604198D01*
X149862961Y-90604198D02*
X149910580Y-90699436D01*
X149910580Y-90699436D02*
X149958199Y-90747056D01*
X149958199Y-90747056D02*
X150053437Y-90794675D01*
X150053437Y-90794675D02*
X150196294Y-90794675D01*
X149434389Y-90794675D02*
X149434389Y-90128008D01*
X149434389Y-90318484D02*
X149386770Y-90223246D01*
X149386770Y-90223246D02*
X149339151Y-90175627D01*
X149339151Y-90175627D02*
X149243913Y-90128008D01*
X149243913Y-90128008D02*
X149148675Y-90128008D01*
X148767722Y-90747056D02*
X148767722Y-90794675D01*
X148767722Y-90794675D02*
X148815341Y-90889913D01*
X148815341Y-90889913D02*
X148862960Y-90937532D01*
X147577246Y-90794675D02*
X147577246Y-89794675D01*
X147005818Y-90794675D02*
X147434389Y-90223246D01*
X147005818Y-89794675D02*
X147577246Y-90366103D01*
X146529627Y-90794675D02*
X146339151Y-90794675D01*
X146339151Y-90794675D02*
X146243913Y-90747056D01*
X146243913Y-90747056D02*
X146196294Y-90699436D01*
X146196294Y-90699436D02*
X146101056Y-90556579D01*
X146101056Y-90556579D02*
X146053437Y-90366103D01*
X146053437Y-90366103D02*
X146053437Y-89985151D01*
X146053437Y-89985151D02*
X146101056Y-89889913D01*
X146101056Y-89889913D02*
X146148675Y-89842294D01*
X146148675Y-89842294D02*
X146243913Y-89794675D01*
X146243913Y-89794675D02*
X146434389Y-89794675D01*
X146434389Y-89794675D02*
X146529627Y-89842294D01*
X146529627Y-89842294D02*
X146577246Y-89889913D01*
X146577246Y-89889913D02*
X146624865Y-89985151D01*
X146624865Y-89985151D02*
X146624865Y-90223246D01*
X146624865Y-90223246D02*
X146577246Y-90318484D01*
X146577246Y-90318484D02*
X146529627Y-90366103D01*
X146529627Y-90366103D02*
X146434389Y-90413722D01*
X146434389Y-90413722D02*
X146243913Y-90413722D01*
X146243913Y-90413722D02*
X146148675Y-90366103D01*
X146148675Y-90366103D02*
X146101056Y-90318484D01*
X146101056Y-90318484D02*
X146053437Y-90223246D01*
X144958199Y-90889913D02*
X145053437Y-90842294D01*
X145053437Y-90842294D02*
X145148675Y-90747056D01*
X145148675Y-90747056D02*
X145291532Y-90604198D01*
X145291532Y-90604198D02*
X145386770Y-90556579D01*
X145386770Y-90556579D02*
X145482008Y-90556579D01*
X145434389Y-90794675D02*
X145529627Y-90747056D01*
X145529627Y-90747056D02*
X145624865Y-90651817D01*
X145624865Y-90651817D02*
X145672484Y-90461341D01*
X145672484Y-90461341D02*
X145672484Y-90128008D01*
X145672484Y-90128008D02*
X145624865Y-89937532D01*
X145624865Y-89937532D02*
X145529627Y-89842294D01*
X145529627Y-89842294D02*
X145434389Y-89794675D01*
X145434389Y-89794675D02*
X145243913Y-89794675D01*
X145243913Y-89794675D02*
X145148675Y-89842294D01*
X145148675Y-89842294D02*
X145053437Y-89937532D01*
X145053437Y-89937532D02*
X145005818Y-90128008D01*
X145005818Y-90128008D02*
X145005818Y-90461341D01*
X145005818Y-90461341D02*
X145053437Y-90651817D01*
X145053437Y-90651817D02*
X145148675Y-90747056D01*
X145148675Y-90747056D02*
X145243913Y-90794675D01*
X145243913Y-90794675D02*
X145434389Y-90794675D01*
X144672484Y-89794675D02*
X144434389Y-90794675D01*
X144434389Y-90794675D02*
X144243913Y-90080389D01*
X144243913Y-90080389D02*
X144053437Y-90794675D01*
X144053437Y-90794675D02*
X143815342Y-89794675D01*
X166291534Y-91499857D02*
X166243915Y-91452238D01*
X166243915Y-91452238D02*
X166148677Y-91404619D01*
X166148677Y-91404619D02*
X165910582Y-91404619D01*
X165910582Y-91404619D02*
X165815344Y-91452238D01*
X165815344Y-91452238D02*
X165767725Y-91499857D01*
X165767725Y-91499857D02*
X165720106Y-91595095D01*
X165720106Y-91595095D02*
X165720106Y-91690333D01*
X165720106Y-91690333D02*
X165767725Y-91833190D01*
X165767725Y-91833190D02*
X166339153Y-92404619D01*
X166339153Y-92404619D02*
X165720106Y-92404619D01*
X165101058Y-91404619D02*
X165005820Y-91404619D01*
X165005820Y-91404619D02*
X164910582Y-91452238D01*
X164910582Y-91452238D02*
X164862963Y-91499857D01*
X164862963Y-91499857D02*
X164815344Y-91595095D01*
X164815344Y-91595095D02*
X164767725Y-91785571D01*
X164767725Y-91785571D02*
X164767725Y-92023666D01*
X164767725Y-92023666D02*
X164815344Y-92214142D01*
X164815344Y-92214142D02*
X164862963Y-92309380D01*
X164862963Y-92309380D02*
X164910582Y-92357000D01*
X164910582Y-92357000D02*
X165005820Y-92404619D01*
X165005820Y-92404619D02*
X165101058Y-92404619D01*
X165101058Y-92404619D02*
X165196296Y-92357000D01*
X165196296Y-92357000D02*
X165243915Y-92309380D01*
X165243915Y-92309380D02*
X165291534Y-92214142D01*
X165291534Y-92214142D02*
X165339153Y-92023666D01*
X165339153Y-92023666D02*
X165339153Y-91785571D01*
X165339153Y-91785571D02*
X165291534Y-91595095D01*
X165291534Y-91595095D02*
X165243915Y-91499857D01*
X165243915Y-91499857D02*
X165196296Y-91452238D01*
X165196296Y-91452238D02*
X165101058Y-91404619D01*
X164386772Y-91499857D02*
X164339153Y-91452238D01*
X164339153Y-91452238D02*
X164243915Y-91404619D01*
X164243915Y-91404619D02*
X164005820Y-91404619D01*
X164005820Y-91404619D02*
X163910582Y-91452238D01*
X163910582Y-91452238D02*
X163862963Y-91499857D01*
X163862963Y-91499857D02*
X163815344Y-91595095D01*
X163815344Y-91595095D02*
X163815344Y-91690333D01*
X163815344Y-91690333D02*
X163862963Y-91833190D01*
X163862963Y-91833190D02*
X164434391Y-92404619D01*
X164434391Y-92404619D02*
X163815344Y-92404619D01*
X162958201Y-91737952D02*
X162958201Y-92404619D01*
X163196296Y-91357000D02*
X163434391Y-92071285D01*
X163434391Y-92071285D02*
X162815344Y-92071285D01*
X162434391Y-92023666D02*
X161672487Y-92023666D01*
X161005820Y-91404619D02*
X160910582Y-91404619D01*
X160910582Y-91404619D02*
X160815344Y-91452238D01*
X160815344Y-91452238D02*
X160767725Y-91499857D01*
X160767725Y-91499857D02*
X160720106Y-91595095D01*
X160720106Y-91595095D02*
X160672487Y-91785571D01*
X160672487Y-91785571D02*
X160672487Y-92023666D01*
X160672487Y-92023666D02*
X160720106Y-92214142D01*
X160720106Y-92214142D02*
X160767725Y-92309380D01*
X160767725Y-92309380D02*
X160815344Y-92357000D01*
X160815344Y-92357000D02*
X160910582Y-92404619D01*
X160910582Y-92404619D02*
X161005820Y-92404619D01*
X161005820Y-92404619D02*
X161101058Y-92357000D01*
X161101058Y-92357000D02*
X161148677Y-92309380D01*
X161148677Y-92309380D02*
X161196296Y-92214142D01*
X161196296Y-92214142D02*
X161243915Y-92023666D01*
X161243915Y-92023666D02*
X161243915Y-91785571D01*
X161243915Y-91785571D02*
X161196296Y-91595095D01*
X161196296Y-91595095D02*
X161148677Y-91499857D01*
X161148677Y-91499857D02*
X161101058Y-91452238D01*
X161101058Y-91452238D02*
X161005820Y-91404619D01*
X160101058Y-91833190D02*
X160196296Y-91785571D01*
X160196296Y-91785571D02*
X160243915Y-91737952D01*
X160243915Y-91737952D02*
X160291534Y-91642714D01*
X160291534Y-91642714D02*
X160291534Y-91595095D01*
X160291534Y-91595095D02*
X160243915Y-91499857D01*
X160243915Y-91499857D02*
X160196296Y-91452238D01*
X160196296Y-91452238D02*
X160101058Y-91404619D01*
X160101058Y-91404619D02*
X159910582Y-91404619D01*
X159910582Y-91404619D02*
X159815344Y-91452238D01*
X159815344Y-91452238D02*
X159767725Y-91499857D01*
X159767725Y-91499857D02*
X159720106Y-91595095D01*
X159720106Y-91595095D02*
X159720106Y-91642714D01*
X159720106Y-91642714D02*
X159767725Y-91737952D01*
X159767725Y-91737952D02*
X159815344Y-91785571D01*
X159815344Y-91785571D02*
X159910582Y-91833190D01*
X159910582Y-91833190D02*
X160101058Y-91833190D01*
X160101058Y-91833190D02*
X160196296Y-91880809D01*
X160196296Y-91880809D02*
X160243915Y-91928428D01*
X160243915Y-91928428D02*
X160291534Y-92023666D01*
X160291534Y-92023666D02*
X160291534Y-92214142D01*
X160291534Y-92214142D02*
X160243915Y-92309380D01*
X160243915Y-92309380D02*
X160196296Y-92357000D01*
X160196296Y-92357000D02*
X160101058Y-92404619D01*
X160101058Y-92404619D02*
X159910582Y-92404619D01*
X159910582Y-92404619D02*
X159815344Y-92357000D01*
X159815344Y-92357000D02*
X159767725Y-92309380D01*
X159767725Y-92309380D02*
X159720106Y-92214142D01*
X159720106Y-92214142D02*
X159720106Y-92023666D01*
X159720106Y-92023666D02*
X159767725Y-91928428D01*
X159767725Y-91928428D02*
X159815344Y-91880809D01*
X159815344Y-91880809D02*
X159910582Y-91833190D01*
D11*
X138336619Y-103759095D02*
X139146142Y-103759095D01*
X139146142Y-103759095D02*
X139241380Y-103806714D01*
X139241380Y-103806714D02*
X139289000Y-103854333D01*
X139289000Y-103854333D02*
X139336619Y-103949571D01*
X139336619Y-103949571D02*
X139336619Y-104140047D01*
X139336619Y-104140047D02*
X139289000Y-104235285D01*
X139289000Y-104235285D02*
X139241380Y-104282904D01*
X139241380Y-104282904D02*
X139146142Y-104330523D01*
X139146142Y-104330523D02*
X138336619Y-104330523D01*
X138431857Y-104759095D02*
X138384238Y-104806714D01*
X138384238Y-104806714D02*
X138336619Y-104901952D01*
X138336619Y-104901952D02*
X138336619Y-105140047D01*
X138336619Y-105140047D02*
X138384238Y-105235285D01*
X138384238Y-105235285D02*
X138431857Y-105282904D01*
X138431857Y-105282904D02*
X138527095Y-105330523D01*
X138527095Y-105330523D02*
X138622333Y-105330523D01*
X138622333Y-105330523D02*
X138765190Y-105282904D01*
X138765190Y-105282904D02*
X139336619Y-104711476D01*
X139336619Y-104711476D02*
X139336619Y-105330523D01*
X137898666Y-102798180D02*
X137946285Y-102845800D01*
X137946285Y-102845800D02*
X138089142Y-102893419D01*
X138089142Y-102893419D02*
X138184380Y-102893419D01*
X138184380Y-102893419D02*
X138327237Y-102845800D01*
X138327237Y-102845800D02*
X138422475Y-102750561D01*
X138422475Y-102750561D02*
X138470094Y-102655323D01*
X138470094Y-102655323D02*
X138517713Y-102464847D01*
X138517713Y-102464847D02*
X138517713Y-102321990D01*
X138517713Y-102321990D02*
X138470094Y-102131514D01*
X138470094Y-102131514D02*
X138422475Y-102036276D01*
X138422475Y-102036276D02*
X138327237Y-101941038D01*
X138327237Y-101941038D02*
X138184380Y-101893419D01*
X138184380Y-101893419D02*
X138089142Y-101893419D01*
X138089142Y-101893419D02*
X137946285Y-101941038D01*
X137946285Y-101941038D02*
X137898666Y-101988657D01*
X137041523Y-102226752D02*
X137041523Y-102893419D01*
X137279618Y-101845800D02*
X137517713Y-102560085D01*
X137517713Y-102560085D02*
X136898666Y-102560085D01*
X130858419Y-95591333D02*
X130382228Y-95258000D01*
X130858419Y-95019905D02*
X129858419Y-95019905D01*
X129858419Y-95019905D02*
X129858419Y-95400857D01*
X129858419Y-95400857D02*
X129906038Y-95496095D01*
X129906038Y-95496095D02*
X129953657Y-95543714D01*
X129953657Y-95543714D02*
X130048895Y-95591333D01*
X130048895Y-95591333D02*
X130191752Y-95591333D01*
X130191752Y-95591333D02*
X130286990Y-95543714D01*
X130286990Y-95543714D02*
X130334609Y-95496095D01*
X130334609Y-95496095D02*
X130382228Y-95400857D01*
X130382228Y-95400857D02*
X130382228Y-95019905D01*
X130858419Y-96543714D02*
X130858419Y-95972286D01*
X130858419Y-96258000D02*
X129858419Y-96258000D01*
X129858419Y-96258000D02*
X130001276Y-96162762D01*
X130001276Y-96162762D02*
X130096514Y-96067524D01*
X130096514Y-96067524D02*
X130144133Y-95972286D01*
X151794380Y-108341033D02*
X151842000Y-108293414D01*
X151842000Y-108293414D02*
X151889619Y-108150557D01*
X151889619Y-108150557D02*
X151889619Y-108055319D01*
X151889619Y-108055319D02*
X151842000Y-107912462D01*
X151842000Y-107912462D02*
X151746761Y-107817224D01*
X151746761Y-107817224D02*
X151651523Y-107769605D01*
X151651523Y-107769605D02*
X151461047Y-107721986D01*
X151461047Y-107721986D02*
X151318190Y-107721986D01*
X151318190Y-107721986D02*
X151127714Y-107769605D01*
X151127714Y-107769605D02*
X151032476Y-107817224D01*
X151032476Y-107817224D02*
X150937238Y-107912462D01*
X150937238Y-107912462D02*
X150889619Y-108055319D01*
X150889619Y-108055319D02*
X150889619Y-108150557D01*
X150889619Y-108150557D02*
X150937238Y-108293414D01*
X150937238Y-108293414D02*
X150984857Y-108341033D01*
X151889619Y-109293414D02*
X151889619Y-108721986D01*
X151889619Y-109007700D02*
X150889619Y-109007700D01*
X150889619Y-109007700D02*
X151032476Y-108912462D01*
X151032476Y-108912462D02*
X151127714Y-108817224D01*
X151127714Y-108817224D02*
X151175333Y-108721986D01*
X132805466Y-116716980D02*
X132853085Y-116764600D01*
X132853085Y-116764600D02*
X132995942Y-116812219D01*
X132995942Y-116812219D02*
X133091180Y-116812219D01*
X133091180Y-116812219D02*
X133234037Y-116764600D01*
X133234037Y-116764600D02*
X133329275Y-116669361D01*
X133329275Y-116669361D02*
X133376894Y-116574123D01*
X133376894Y-116574123D02*
X133424513Y-116383647D01*
X133424513Y-116383647D02*
X133424513Y-116240790D01*
X133424513Y-116240790D02*
X133376894Y-116050314D01*
X133376894Y-116050314D02*
X133329275Y-115955076D01*
X133329275Y-115955076D02*
X133234037Y-115859838D01*
X133234037Y-115859838D02*
X133091180Y-115812219D01*
X133091180Y-115812219D02*
X132995942Y-115812219D01*
X132995942Y-115812219D02*
X132853085Y-115859838D01*
X132853085Y-115859838D02*
X132805466Y-115907457D01*
X132472132Y-115812219D02*
X131853085Y-115812219D01*
X131853085Y-115812219D02*
X132186418Y-116193171D01*
X132186418Y-116193171D02*
X132043561Y-116193171D01*
X132043561Y-116193171D02*
X131948323Y-116240790D01*
X131948323Y-116240790D02*
X131900704Y-116288409D01*
X131900704Y-116288409D02*
X131853085Y-116383647D01*
X131853085Y-116383647D02*
X131853085Y-116621742D01*
X131853085Y-116621742D02*
X131900704Y-116716980D01*
X131900704Y-116716980D02*
X131948323Y-116764600D01*
X131948323Y-116764600D02*
X132043561Y-116812219D01*
X132043561Y-116812219D02*
X132329275Y-116812219D01*
X132329275Y-116812219D02*
X132424513Y-116764600D01*
X132424513Y-116764600D02*
X132472132Y-116716980D01*
X139060133Y-112942019D02*
X139060133Y-113656304D01*
X139060133Y-113656304D02*
X139107752Y-113799161D01*
X139107752Y-113799161D02*
X139202990Y-113894400D01*
X139202990Y-113894400D02*
X139345847Y-113942019D01*
X139345847Y-113942019D02*
X139441085Y-113942019D01*
X138583942Y-113942019D02*
X138583942Y-112942019D01*
X138583942Y-112942019D02*
X138202990Y-112942019D01*
X138202990Y-112942019D02*
X138107752Y-112989638D01*
X138107752Y-112989638D02*
X138060133Y-113037257D01*
X138060133Y-113037257D02*
X138012514Y-113132495D01*
X138012514Y-113132495D02*
X138012514Y-113275352D01*
X138012514Y-113275352D02*
X138060133Y-113370590D01*
X138060133Y-113370590D02*
X138107752Y-113418209D01*
X138107752Y-113418209D02*
X138202990Y-113465828D01*
X138202990Y-113465828D02*
X138583942Y-113465828D01*
X137679180Y-112942019D02*
X137060133Y-112942019D01*
X137060133Y-112942019D02*
X137393466Y-113322971D01*
X137393466Y-113322971D02*
X137250609Y-113322971D01*
X137250609Y-113322971D02*
X137155371Y-113370590D01*
X137155371Y-113370590D02*
X137107752Y-113418209D01*
X137107752Y-113418209D02*
X137060133Y-113513447D01*
X137060133Y-113513447D02*
X137060133Y-113751542D01*
X137060133Y-113751542D02*
X137107752Y-113846780D01*
X137107752Y-113846780D02*
X137155371Y-113894400D01*
X137155371Y-113894400D02*
X137250609Y-113942019D01*
X137250609Y-113942019D02*
X137536323Y-113942019D01*
X137536323Y-113942019D02*
X137631561Y-113894400D01*
X137631561Y-113894400D02*
X137679180Y-113846780D01*
X135446419Y-94924666D02*
X136160704Y-94924666D01*
X136160704Y-94924666D02*
X136303561Y-94877047D01*
X136303561Y-94877047D02*
X136398800Y-94781809D01*
X136398800Y-94781809D02*
X136446419Y-94638952D01*
X136446419Y-94638952D02*
X136446419Y-94543714D01*
X136446419Y-95400857D02*
X135446419Y-95400857D01*
X135446419Y-95400857D02*
X135446419Y-95781809D01*
X135446419Y-95781809D02*
X135494038Y-95877047D01*
X135494038Y-95877047D02*
X135541657Y-95924666D01*
X135541657Y-95924666D02*
X135636895Y-95972285D01*
X135636895Y-95972285D02*
X135779752Y-95972285D01*
X135779752Y-95972285D02*
X135874990Y-95924666D01*
X135874990Y-95924666D02*
X135922609Y-95877047D01*
X135922609Y-95877047D02*
X135970228Y-95781809D01*
X135970228Y-95781809D02*
X135970228Y-95400857D01*
X136446419Y-96924666D02*
X136446419Y-96353238D01*
X136446419Y-96638952D02*
X135446419Y-96638952D01*
X135446419Y-96638952D02*
X135589276Y-96543714D01*
X135589276Y-96543714D02*
X135684514Y-96448476D01*
X135684514Y-96448476D02*
X135732133Y-96353238D01*
D12*
%TO.C,U2*%
X139479200Y-111066400D02*
X139149200Y-110826400D01*
X139479200Y-110586400D01*
X139479200Y-111066400D01*
G36*
X139479200Y-111066400D02*
G01*
X139149200Y-110826400D01*
X139479200Y-110586400D01*
X139479200Y-111066400D01*
G37*
X137989200Y-105786400D02*
X139249200Y-105786400D01*
X139249200Y-105786400D02*
X139249200Y-109546400D01*
X133689200Y-105786400D02*
X132429200Y-105786400D01*
X132429200Y-105786400D02*
X132429200Y-109546400D01*
%TO.C,C4*%
X134842533Y-101928600D02*
X135135067Y-101928600D01*
X134842533Y-102948600D02*
X135135067Y-102948600D01*
%TO.C,R1*%
X131227300Y-95503276D02*
X131227300Y-96012724D01*
X132272300Y-95503276D02*
X132272300Y-96012724D01*
%TO.C,C1*%
X151919400Y-106063167D02*
X151919400Y-105770633D01*
X150899400Y-106063167D02*
X150899400Y-105770633D01*
%TO.C,C3*%
X133148800Y-114039867D02*
X133148800Y-113747333D01*
X132128800Y-114039867D02*
X132128800Y-113747333D01*
%TO.C,JP3*%
X133778800Y-113787200D02*
X133778800Y-113187200D01*
X135878800Y-114487200D02*
X134478800Y-114487200D01*
X134478800Y-112487200D02*
X135878800Y-112487200D01*
X136578800Y-113187200D02*
X136578800Y-113787200D01*
X134478800Y-114487200D02*
G75*
G02*
X133778800Y-113787200I-1J699999D01*
G01*
X133778800Y-113187200D02*
G75*
G02*
X134478800Y-112487200I699999J1D01*
G01*
X136578800Y-113787200D02*
G75*
G02*
X135878800Y-114487200I-700000J0D01*
G01*
X135878800Y-112487200D02*
G75*
G02*
X136578800Y-113187200I0J-700000D01*
G01*
%TO.C,JP1*%
X135239000Y-96458000D02*
G75*
G02*
X134539000Y-97158000I-699999J-1D01*
G01*
X133939000Y-97158000D02*
G75*
G02*
X133239000Y-96458000I-1J699999D01*
G01*
X134539000Y-94358000D02*
G75*
G02*
X135239000Y-95058000I0J-700000D01*
G01*
X133239000Y-95058000D02*
G75*
G02*
X133939000Y-94358000I700000J0D01*
G01*
X134539000Y-97158000D02*
X133939000Y-97158000D01*
X135239000Y-95058000D02*
X135239000Y-96458000D01*
X133239000Y-96458000D02*
X133239000Y-95058000D01*
X133939000Y-94358000D02*
X134539000Y-94358000D01*
%TD*%
M02*
