%TF.GenerationSoftware,KiCad,Pcbnew,8.0.4-1.fc40*%
%TF.CreationDate,2024-08-13T13:21:07-05:00*%
%TF.ProjectId,K9QW_ATTiny_CW_Keyer,4b395157-5f41-4545-9469-6e795f43575f,rev?*%
%TF.SameCoordinates,Original*%
%TF.FileFunction,Copper,L2,Bot*%
%TF.FilePolarity,Positive*%
%FSLAX46Y46*%
G04 Gerber Fmt 4.6, Leading zero omitted, Abs format (unit mm)*
G04 Created by KiCad (PCBNEW 8.0.4-1.fc40) date 2024-08-13 13:21:07*
%MOMM*%
%LPD*%
G01*
G04 APERTURE LIST*
G04 Aperture macros list*
%AMRoundRect*
0 Rectangle with rounded corners*
0 $1 Rounding radius*
0 $2 $3 $4 $5 $6 $7 $8 $9 X,Y pos of 4 corners*
0 Add a 4 corners polygon primitive as box body*
4,1,4,$2,$3,$4,$5,$6,$7,$8,$9,$2,$3,0*
0 Add four circle primitives for the rounded corners*
1,1,$1+$1,$2,$3*
1,1,$1+$1,$4,$5*
1,1,$1+$1,$6,$7*
1,1,$1+$1,$8,$9*
0 Add four rect primitives between the rounded corners*
20,1,$1+$1,$2,$3,$4,$5,0*
20,1,$1+$1,$4,$5,$6,$7,0*
20,1,$1+$1,$6,$7,$8,$9,0*
20,1,$1+$1,$8,$9,$2,$3,0*%
%AMFreePoly0*
4,1,19,0.500000,-0.750000,0.000000,-0.750000,0.000000,-0.744911,-0.071157,-0.744911,-0.207708,-0.704816,-0.327430,-0.627875,-0.420627,-0.520320,-0.479746,-0.390866,-0.500000,-0.250000,-0.500000,0.250000,-0.479746,0.390866,-0.420627,0.520320,-0.327430,0.627875,-0.207708,0.704816,-0.071157,0.744911,0.000000,0.744911,0.000000,0.750000,0.500000,0.750000,0.500000,-0.750000,0.500000,-0.750000,
$1*%
%AMFreePoly1*
4,1,19,0.000000,0.744911,0.071157,0.744911,0.207708,0.704816,0.327430,0.627875,0.420627,0.520320,0.479746,0.390866,0.500000,0.250000,0.500000,-0.250000,0.479746,-0.390866,0.420627,-0.520320,0.327430,-0.627875,0.207708,-0.704816,0.071157,-0.744911,0.000000,-0.744911,0.000000,-0.750000,-0.500000,-0.750000,-0.500000,0.750000,0.000000,0.750000,0.000000,0.744911,0.000000,0.744911,
$1*%
G04 Aperture macros list end*
%TA.AperFunction,EtchedComponent*%
%ADD10C,0.000000*%
%TD*%
%TA.AperFunction,SMDPad,CuDef*%
%ADD11FreePoly0,270.000000*%
%TD*%
%TA.AperFunction,SMDPad,CuDef*%
%ADD12FreePoly1,270.000000*%
%TD*%
%TA.AperFunction,ComponentPad*%
%ADD13O,2.200000X2.200000*%
%TD*%
%TA.AperFunction,ComponentPad*%
%ADD14R,2.200000X2.200000*%
%TD*%
%TA.AperFunction,ComponentPad*%
%ADD15O,1.700000X1.950000*%
%TD*%
%TA.AperFunction,ComponentPad*%
%ADD16RoundRect,0.250000X-0.600000X-0.725000X0.600000X-0.725000X0.600000X0.725000X-0.600000X0.725000X0*%
%TD*%
%TA.AperFunction,ComponentPad*%
%ADD17C,3.600000*%
%TD*%
%TA.AperFunction,ConnectorPad*%
%ADD18C,6.400000*%
%TD*%
%TA.AperFunction,ComponentPad*%
%ADD19O,1.700000X2.000000*%
%TD*%
%TA.AperFunction,ComponentPad*%
%ADD20RoundRect,0.250000X-0.600000X-0.750000X0.600000X-0.750000X0.600000X0.750000X-0.600000X0.750000X0*%
%TD*%
%TA.AperFunction,ComponentPad*%
%ADD21C,2.000000*%
%TD*%
%TA.AperFunction,ComponentPad*%
%ADD22O,1.600000X1.600000*%
%TD*%
%TA.AperFunction,ComponentPad*%
%ADD23R,1.600000X1.600000*%
%TD*%
%TA.AperFunction,ViaPad*%
%ADD24C,0.600000*%
%TD*%
%TA.AperFunction,Conductor*%
%ADD25C,0.200000*%
%TD*%
G04 APERTURE END LIST*
D10*
%TA.AperFunction,EtchedComponent*%
%TO.C,JP4*%
G36*
X163063200Y-106665600D02*
G01*
X162463200Y-106665600D01*
X162463200Y-106165600D01*
X163063200Y-106165600D01*
X163063200Y-106665600D01*
G37*
%TD.AperFunction*%
%TD*%
D11*
%TO.P,JP4,1,A*%
%TO.N,SIDETONE*%
X162763200Y-105765600D03*
D12*
%TO.P,JP4,2,B*%
%TO.N,Net-(J4-Pin_1)*%
X162763200Y-107065600D03*
%TD*%
D13*
%TO.P,D1,2,A*%
%TO.N,Net-(D1-A)*%
X130429000Y-105156000D03*
D14*
%TO.P,D1,1,K*%
%TO.N,Net-(D1-K)*%
X130429000Y-115316000D03*
%TD*%
D15*
%TO.P,SW1,3,C*%
%TO.N,VDC*%
X136739000Y-99043000D03*
%TO.P,SW1,2,B*%
%TO.N,Net-(JP1-A)*%
X134239000Y-99043000D03*
D16*
%TO.P,SW1,1,A*%
%TO.N,Net-(SW1-A)*%
X131739000Y-99043000D03*
%TD*%
D17*
%TO.P,J5,1,Pin_1*%
%TO.N,GND*%
X145593000Y-97536000D03*
D18*
X145593000Y-97536000D03*
%TD*%
D19*
%TO.P,J1,2,Pin_2*%
%TO.N,GND*%
X136759000Y-91423000D03*
D20*
%TO.P,J1,1,Pin_1*%
%TO.N,VDC*%
X134259000Y-91423000D03*
%TD*%
D21*
%TO.P,SW2,1,1*%
%TO.N,COMMAND*%
X167742800Y-111161000D03*
X174242800Y-111161000D03*
%TO.P,SW2,2,2*%
%TO.N,GND*%
X167742800Y-115661000D03*
X174242800Y-115661000D03*
%TD*%
D19*
%TO.P,J4,2,Pin_2*%
%TO.N,GND*%
X160970600Y-111328200D03*
D20*
%TO.P,J4,1,Pin_1*%
%TO.N,Net-(J4-Pin_1)*%
X158470600Y-111328200D03*
%TD*%
D22*
%TO.P,U1,8,VCC*%
%TO.N,VCC*%
X151401000Y-102688400D03*
%TO.P,U1,7,PB2*%
%TO.N,COMMAND*%
X151401000Y-100148400D03*
%TO.P,U1,6,PB1*%
%TO.N,SIDETONE*%
X151401000Y-97608400D03*
%TO.P,U1,5,AREF/PB0*%
%TO.N,KEY*%
X151401000Y-95068400D03*
%TO.P,U1,4,GND*%
%TO.N,GND*%
X159021000Y-95068400D03*
%TO.P,U1,3,XTAL2/PB4*%
%TO.N,DIT*%
X159021000Y-97608400D03*
%TO.P,U1,2,XTAL1/PB3*%
%TO.N,DAH*%
X159021000Y-100148400D03*
D23*
%TO.P,U1,1,~{RESET}/PB5*%
%TO.N,Net-(U1-~{RESET}{slash}PB5)*%
X159021000Y-102688400D03*
%TD*%
D24*
%TO.N,SIDETONE*%
X160172400Y-105765600D03*
%TO.N,GND*%
X149402800Y-91135200D03*
X154584400Y-90424000D03*
X165709600Y-106883200D03*
X153949400Y-96520000D03*
%TO.N,Net-(J4-Pin_1)*%
X162763200Y-108483400D03*
%TO.N,GND*%
X156718000Y-99034600D03*
%TD*%
D25*
%TO.N,Net-(J4-Pin_1)*%
X162763200Y-107065600D02*
X162763200Y-108483400D01*
%TO.N,SIDETONE*%
X160172400Y-105765600D02*
X162763200Y-105765600D01*
%TO.N,COMMAND*%
X151401000Y-100148400D02*
X153375314Y-100148400D01*
X153375314Y-100148400D02*
X164387914Y-111161000D01*
X164387914Y-111161000D02*
X167742800Y-111161000D01*
%TO.N,SIDETONE*%
X160172400Y-105765600D02*
X159558200Y-105765600D01*
X159558200Y-105765600D02*
X151401000Y-97608400D01*
%TO.N,GND*%
X166913600Y-115661000D02*
X167742800Y-115661000D01*
%TD*%
%TA.AperFunction,Conductor*%
%TO.N,GND*%
G36*
X176668980Y-86608883D02*
G01*
X176684278Y-86611926D01*
X176728933Y-86630411D01*
X176730085Y-86631180D01*
X176731555Y-86632162D01*
X176765837Y-86666444D01*
X176766462Y-86667379D01*
X176767588Y-86669066D01*
X176786072Y-86713713D01*
X176789116Y-86729018D01*
X176791500Y-86753210D01*
X176791500Y-86813002D01*
X176791501Y-86813025D01*
X176791569Y-90508252D01*
X176771886Y-90575292D01*
X176719083Y-90621047D01*
X176649924Y-90630992D01*
X176586368Y-90601968D01*
X176564466Y-90577143D01*
X176545140Y-90548219D01*
X176545136Y-90548214D01*
X176405785Y-90408863D01*
X176405781Y-90408860D01*
X176241920Y-90299371D01*
X176241907Y-90299364D01*
X176059839Y-90223950D01*
X176059829Y-90223947D01*
X175866543Y-90185500D01*
X175866541Y-90185500D01*
X175669459Y-90185500D01*
X175669457Y-90185500D01*
X175476170Y-90223947D01*
X175476160Y-90223950D01*
X175294092Y-90299364D01*
X175294079Y-90299371D01*
X175130218Y-90408860D01*
X175130214Y-90408863D01*
X174990863Y-90548214D01*
X174990860Y-90548218D01*
X174881371Y-90712079D01*
X174881364Y-90712092D01*
X174805950Y-90894160D01*
X174805947Y-90894170D01*
X174767500Y-91087456D01*
X174767500Y-91087459D01*
X174767500Y-91284541D01*
X174767500Y-91284543D01*
X174767499Y-91284543D01*
X174805947Y-91477829D01*
X174805950Y-91477839D01*
X174881364Y-91659907D01*
X174881371Y-91659920D01*
X174990860Y-91823781D01*
X174990863Y-91823785D01*
X175130214Y-91963136D01*
X175130218Y-91963139D01*
X175294079Y-92072628D01*
X175294092Y-92072635D01*
X175476160Y-92148049D01*
X175476165Y-92148051D01*
X175476169Y-92148051D01*
X175476170Y-92148052D01*
X175669456Y-92186500D01*
X175669459Y-92186500D01*
X175866543Y-92186500D01*
X175996582Y-92160632D01*
X176059835Y-92148051D01*
X176241914Y-92072632D01*
X176405782Y-91963139D01*
X176545139Y-91823782D01*
X176564491Y-91794818D01*
X176618101Y-91750013D01*
X176687426Y-91741304D01*
X176750454Y-91771457D01*
X176787175Y-91830900D01*
X176791594Y-91863706D01*
X176791805Y-103208605D01*
X176772122Y-103275645D01*
X176719319Y-103321400D01*
X176650160Y-103331345D01*
X176586604Y-103302321D01*
X176564702Y-103277496D01*
X176545140Y-103248219D01*
X176545136Y-103248214D01*
X176405785Y-103108863D01*
X176405781Y-103108860D01*
X176241920Y-102999371D01*
X176241907Y-102999364D01*
X176059839Y-102923950D01*
X176059829Y-102923947D01*
X175866543Y-102885500D01*
X175866541Y-102885500D01*
X175669459Y-102885500D01*
X175669457Y-102885500D01*
X175476170Y-102923947D01*
X175476160Y-102923950D01*
X175294092Y-102999364D01*
X175294079Y-102999371D01*
X175130218Y-103108860D01*
X175130214Y-103108863D01*
X174990863Y-103248214D01*
X174990860Y-103248218D01*
X174881371Y-103412079D01*
X174881364Y-103412092D01*
X174805950Y-103594160D01*
X174805947Y-103594170D01*
X174767500Y-103787456D01*
X174767500Y-103787459D01*
X174767500Y-103984541D01*
X174767500Y-103984543D01*
X174767499Y-103984543D01*
X174805947Y-104177829D01*
X174805950Y-104177839D01*
X174881364Y-104359907D01*
X174881371Y-104359920D01*
X174990860Y-104523781D01*
X174990863Y-104523785D01*
X175130214Y-104663136D01*
X175130218Y-104663139D01*
X175294079Y-104772628D01*
X175294092Y-104772635D01*
X175476160Y-104848049D01*
X175476165Y-104848051D01*
X175476169Y-104848051D01*
X175476170Y-104848052D01*
X175669456Y-104886500D01*
X175669459Y-104886500D01*
X175866543Y-104886500D01*
X175996582Y-104860632D01*
X176059835Y-104848051D01*
X176200655Y-104789721D01*
X176241907Y-104772635D01*
X176241907Y-104772634D01*
X176241914Y-104772632D01*
X176405782Y-104663139D01*
X176545139Y-104523782D01*
X176564728Y-104494463D01*
X176618338Y-104449660D01*
X176687663Y-104440951D01*
X176750691Y-104471105D01*
X176787411Y-104530547D01*
X176791830Y-104563353D01*
X176792064Y-117149560D01*
X176792063Y-117149582D01*
X176792066Y-117209382D01*
X176789684Y-117233575D01*
X176786644Y-117248861D01*
X176768133Y-117293557D01*
X176766390Y-117296166D01*
X176732166Y-117330390D01*
X176729557Y-117332133D01*
X176684861Y-117350644D01*
X176669575Y-117353684D01*
X176645382Y-117356066D01*
X176624016Y-117356064D01*
X176591701Y-117356063D01*
X176591699Y-117356063D01*
X176583648Y-117356063D01*
X176583586Y-117356067D01*
X174667987Y-117356067D01*
X174600948Y-117336382D01*
X174555193Y-117283578D01*
X174545249Y-117214420D01*
X174574274Y-117150864D01*
X174627724Y-117114786D01*
X174847403Y-117039369D01*
X174847414Y-117039364D01*
X175066028Y-116921057D01*
X175066031Y-116921055D01*
X175112856Y-116884609D01*
X174413034Y-116184787D01*
X174455092Y-116173518D01*
X174580508Y-116101110D01*
X174682910Y-115998708D01*
X174755318Y-115873292D01*
X174766587Y-115831234D01*
X175466234Y-116530882D01*
X175566531Y-116377369D01*
X175666387Y-116149717D01*
X175727412Y-115908738D01*
X175727414Y-115908729D01*
X175747941Y-115661005D01*
X175747941Y-115660994D01*
X175727414Y-115413270D01*
X175727412Y-115413261D01*
X175666387Y-115172282D01*
X175566531Y-114944630D01*
X175466234Y-114791116D01*
X174766587Y-115490764D01*
X174755318Y-115448708D01*
X174682910Y-115323292D01*
X174580508Y-115220890D01*
X174455092Y-115148482D01*
X174413035Y-115137212D01*
X175112857Y-114437390D01*
X175112856Y-114437389D01*
X175066029Y-114400943D01*
X174847414Y-114282635D01*
X174847403Y-114282630D01*
X174612293Y-114201916D01*
X174367093Y-114161000D01*
X174118507Y-114161000D01*
X173873306Y-114201916D01*
X173638196Y-114282630D01*
X173638190Y-114282632D01*
X173419561Y-114400949D01*
X173372742Y-114437388D01*
X173372742Y-114437390D01*
X174072565Y-115137212D01*
X174030508Y-115148482D01*
X173905092Y-115220890D01*
X173802690Y-115323292D01*
X173730282Y-115448708D01*
X173719012Y-115490764D01*
X173019364Y-114791116D01*
X172919067Y-114944632D01*
X172819212Y-115172282D01*
X172758187Y-115413261D01*
X172758185Y-115413270D01*
X172737659Y-115660994D01*
X172737659Y-115661005D01*
X172758185Y-115908729D01*
X172758187Y-115908738D01*
X172819212Y-116149717D01*
X172919066Y-116377364D01*
X173019364Y-116530882D01*
X173719012Y-115831234D01*
X173730282Y-115873292D01*
X173802690Y-115998708D01*
X173905092Y-116101110D01*
X174030508Y-116173518D01*
X174072565Y-116184787D01*
X173372742Y-116884609D01*
X173419568Y-116921055D01*
X173419570Y-116921056D01*
X173638185Y-117039364D01*
X173638196Y-117039369D01*
X173857876Y-117114786D01*
X173914891Y-117155171D01*
X173941022Y-117219971D01*
X173927971Y-117288611D01*
X173879882Y-117339299D01*
X173817613Y-117356067D01*
X168167987Y-117356067D01*
X168100948Y-117336382D01*
X168055193Y-117283578D01*
X168045249Y-117214420D01*
X168074274Y-117150864D01*
X168127724Y-117114786D01*
X168347403Y-117039369D01*
X168347414Y-117039364D01*
X168566028Y-116921057D01*
X168566031Y-116921055D01*
X168612856Y-116884609D01*
X167913034Y-116184787D01*
X167955092Y-116173518D01*
X168080508Y-116101110D01*
X168182910Y-115998708D01*
X168255318Y-115873292D01*
X168266587Y-115831235D01*
X168966234Y-116530882D01*
X169066531Y-116377369D01*
X169166387Y-116149717D01*
X169227412Y-115908738D01*
X169227414Y-115908729D01*
X169247941Y-115661005D01*
X169247941Y-115660994D01*
X169227414Y-115413270D01*
X169227412Y-115413261D01*
X169166387Y-115172282D01*
X169066531Y-114944630D01*
X168966234Y-114791116D01*
X168266587Y-115490764D01*
X168255318Y-115448708D01*
X168182910Y-115323292D01*
X168080508Y-115220890D01*
X167955092Y-115148482D01*
X167913035Y-115137212D01*
X168612857Y-114437390D01*
X168612856Y-114437389D01*
X168566029Y-114400943D01*
X168347414Y-114282635D01*
X168347403Y-114282630D01*
X168112293Y-114201916D01*
X167867093Y-114161000D01*
X167618507Y-114161000D01*
X167373306Y-114201916D01*
X167138196Y-114282630D01*
X167138190Y-114282632D01*
X166919561Y-114400949D01*
X166872742Y-114437388D01*
X166872742Y-114437390D01*
X167572565Y-115137212D01*
X167530508Y-115148482D01*
X167405092Y-115220890D01*
X167302690Y-115323292D01*
X167230282Y-115448708D01*
X167219012Y-115490764D01*
X166519364Y-114791116D01*
X166419067Y-114944632D01*
X166319212Y-115172282D01*
X166258187Y-115413261D01*
X166258185Y-115413270D01*
X166237659Y-115660994D01*
X166237659Y-115661005D01*
X166258185Y-115908729D01*
X166258187Y-115908738D01*
X166319212Y-116149717D01*
X166419066Y-116377364D01*
X166519364Y-116530882D01*
X167219012Y-115831234D01*
X167230282Y-115873292D01*
X167302690Y-115998708D01*
X167405092Y-116101110D01*
X167530508Y-116173518D01*
X167572565Y-116184787D01*
X166872742Y-116884609D01*
X166919568Y-116921055D01*
X166919570Y-116921056D01*
X167138185Y-117039364D01*
X167138196Y-117039369D01*
X167357876Y-117114786D01*
X167414891Y-117155171D01*
X167441022Y-117219971D01*
X167427971Y-117288611D01*
X167379882Y-117339299D01*
X167317613Y-117356067D01*
X127200414Y-117356067D01*
X127200351Y-117356063D01*
X127192300Y-117356063D01*
X127192299Y-117356063D01*
X127159987Y-117356064D01*
X127138617Y-117356066D01*
X127114424Y-117353684D01*
X127099138Y-117350644D01*
X127054442Y-117332133D01*
X127051833Y-117330390D01*
X127017609Y-117296166D01*
X127015866Y-117293557D01*
X126997356Y-117248865D01*
X126994313Y-117233565D01*
X126991933Y-117209386D01*
X126991937Y-117155701D01*
X126991936Y-117155699D01*
X126991937Y-117146680D01*
X126991934Y-117146626D01*
X126991938Y-116916498D01*
X126991989Y-114168135D01*
X128828500Y-114168135D01*
X128828500Y-116463870D01*
X128828501Y-116463876D01*
X128834908Y-116523483D01*
X128885202Y-116658328D01*
X128885206Y-116658335D01*
X128971452Y-116773544D01*
X128971455Y-116773547D01*
X129086664Y-116859793D01*
X129086671Y-116859797D01*
X129221517Y-116910091D01*
X129221516Y-116910091D01*
X129228444Y-116910835D01*
X129281127Y-116916500D01*
X131576872Y-116916499D01*
X131636483Y-116910091D01*
X131771331Y-116859796D01*
X131886546Y-116773546D01*
X131972796Y-116658331D01*
X132023091Y-116523483D01*
X132029500Y-116463873D01*
X132029499Y-114168128D01*
X132023091Y-114108517D01*
X131972796Y-113973669D01*
X131972795Y-113973668D01*
X131972793Y-113973664D01*
X131886547Y-113858455D01*
X131886544Y-113858452D01*
X131771335Y-113772206D01*
X131771328Y-113772202D01*
X131636482Y-113721908D01*
X131636483Y-113721908D01*
X131576883Y-113715501D01*
X131576881Y-113715500D01*
X131576873Y-113715500D01*
X131576864Y-113715500D01*
X129281129Y-113715500D01*
X129281123Y-113715501D01*
X129221516Y-113721908D01*
X129086671Y-113772202D01*
X129086664Y-113772206D01*
X128971455Y-113858452D01*
X128971452Y-113858455D01*
X128885206Y-113973664D01*
X128885202Y-113973671D01*
X128834908Y-114108517D01*
X128829266Y-114161000D01*
X128828501Y-114168123D01*
X128828500Y-114168135D01*
X126991989Y-114168135D01*
X126992056Y-110528183D01*
X157120100Y-110528183D01*
X157120100Y-112128201D01*
X157120101Y-112128218D01*
X157130600Y-112230996D01*
X157130601Y-112230999D01*
X157143107Y-112268738D01*
X157185786Y-112397534D01*
X157277888Y-112546856D01*
X157401944Y-112670912D01*
X157551266Y-112763014D01*
X157717803Y-112818199D01*
X157820591Y-112828700D01*
X159120608Y-112828699D01*
X159223397Y-112818199D01*
X159389934Y-112763014D01*
X159539256Y-112670912D01*
X159663312Y-112546856D01*
X159755414Y-112397534D01*
X159755414Y-112397531D01*
X159759048Y-112391641D01*
X159810995Y-112344916D01*
X159879958Y-112333693D01*
X159944040Y-112361536D01*
X159952268Y-112369056D01*
X160091135Y-112507923D01*
X160091140Y-112507927D01*
X160263042Y-112632820D01*
X160452382Y-112729295D01*
X160654471Y-112794957D01*
X160720600Y-112805431D01*
X160720600Y-111761212D01*
X160777607Y-111794125D01*
X160904774Y-111828200D01*
X161036426Y-111828200D01*
X161163593Y-111794125D01*
X161220600Y-111761212D01*
X161220600Y-112805430D01*
X161286726Y-112794957D01*
X161286729Y-112794957D01*
X161488817Y-112729295D01*
X161678157Y-112632820D01*
X161850059Y-112507927D01*
X161850064Y-112507923D01*
X162000323Y-112357664D01*
X162000327Y-112357659D01*
X162125220Y-112185757D01*
X162221695Y-111996417D01*
X162287357Y-111794330D01*
X162287357Y-111794327D01*
X162320600Y-111584446D01*
X162320600Y-111578200D01*
X161403612Y-111578200D01*
X161436525Y-111521193D01*
X161470600Y-111394026D01*
X161470600Y-111262374D01*
X161436525Y-111135207D01*
X161403612Y-111078200D01*
X162320600Y-111078200D01*
X162320600Y-111071953D01*
X162287357Y-110862072D01*
X162287357Y-110862069D01*
X162221695Y-110659982D01*
X162125220Y-110470642D01*
X162000327Y-110298740D01*
X162000323Y-110298735D01*
X161850064Y-110148476D01*
X161850059Y-110148472D01*
X161678157Y-110023579D01*
X161488815Y-109927103D01*
X161286724Y-109861441D01*
X161220600Y-109850968D01*
X161220600Y-110895188D01*
X161163593Y-110862275D01*
X161036426Y-110828200D01*
X160904774Y-110828200D01*
X160777607Y-110862275D01*
X160720600Y-110895188D01*
X160720600Y-109850968D01*
X160720599Y-109850968D01*
X160654475Y-109861441D01*
X160452384Y-109927103D01*
X160263042Y-110023579D01*
X160091141Y-110148471D01*
X159952268Y-110287344D01*
X159890945Y-110320828D01*
X159821253Y-110315844D01*
X159765320Y-110273972D01*
X159759048Y-110264758D01*
X159663312Y-110109544D01*
X159539257Y-109985489D01*
X159539256Y-109985488D01*
X159389934Y-109893386D01*
X159223397Y-109838201D01*
X159223395Y-109838200D01*
X159120610Y-109827700D01*
X157820598Y-109827700D01*
X157820581Y-109827701D01*
X157717803Y-109838200D01*
X157717800Y-109838201D01*
X157551268Y-109893385D01*
X157551263Y-109893387D01*
X157401942Y-109985489D01*
X157277889Y-110109542D01*
X157185787Y-110258863D01*
X157185785Y-110258868D01*
X157180780Y-110273972D01*
X157130601Y-110425403D01*
X157130601Y-110425404D01*
X157130600Y-110425404D01*
X157120100Y-110528183D01*
X126992056Y-110528183D01*
X126992156Y-105156000D01*
X128823551Y-105156000D01*
X128843317Y-105407151D01*
X128902126Y-105652110D01*
X128998533Y-105884859D01*
X129130160Y-106099653D01*
X129130161Y-106099656D01*
X129130164Y-106099659D01*
X129293776Y-106291224D01*
X129425536Y-106403758D01*
X129485343Y-106454838D01*
X129485346Y-106454839D01*
X129700140Y-106586466D01*
X129932889Y-106682873D01*
X130177852Y-106741683D01*
X130429000Y-106761449D01*
X130680148Y-106741683D01*
X130925111Y-106682873D01*
X131157859Y-106586466D01*
X131372659Y-106454836D01*
X131564224Y-106291224D01*
X131727836Y-106099659D01*
X131859466Y-105884859D01*
X131955873Y-105652111D01*
X132014683Y-105407148D01*
X132034449Y-105156000D01*
X132014683Y-104904852D01*
X131955873Y-104659889D01*
X131899496Y-104523782D01*
X131859466Y-104427140D01*
X131727839Y-104212346D01*
X131727838Y-104212343D01*
X131665416Y-104139257D01*
X131564224Y-104020776D01*
X131437571Y-103912604D01*
X131372656Y-103857161D01*
X131372653Y-103857160D01*
X131157859Y-103725533D01*
X130925110Y-103629126D01*
X130680151Y-103570317D01*
X130429000Y-103550551D01*
X130177848Y-103570317D01*
X129932889Y-103629126D01*
X129700140Y-103725533D01*
X129485346Y-103857160D01*
X129485343Y-103857161D01*
X129293776Y-104020776D01*
X129130161Y-104212343D01*
X129130160Y-104212346D01*
X128998533Y-104427140D01*
X128902126Y-104659889D01*
X128843317Y-104904848D01*
X128823551Y-105156000D01*
X126992156Y-105156000D01*
X126992284Y-98267983D01*
X130388500Y-98267983D01*
X130388500Y-99818001D01*
X130388501Y-99818018D01*
X130399000Y-99920796D01*
X130399001Y-99920799D01*
X130444894Y-100059294D01*
X130454186Y-100087334D01*
X130546288Y-100236656D01*
X130670344Y-100360712D01*
X130819666Y-100452814D01*
X130986203Y-100507999D01*
X131088991Y-100518500D01*
X132389008Y-100518499D01*
X132491797Y-100507999D01*
X132658334Y-100452814D01*
X132807656Y-100360712D01*
X132931712Y-100236656D01*
X133023814Y-100087334D01*
X133023814Y-100087331D01*
X133027178Y-100081879D01*
X133079126Y-100035154D01*
X133148088Y-100023931D01*
X133212170Y-100051774D01*
X133220398Y-100059294D01*
X133359213Y-100198109D01*
X133531179Y-100323048D01*
X133531181Y-100323049D01*
X133531184Y-100323051D01*
X133720588Y-100419557D01*
X133922757Y-100485246D01*
X134132713Y-100518500D01*
X134132714Y-100518500D01*
X134345286Y-100518500D01*
X134345287Y-100518500D01*
X134555243Y-100485246D01*
X134757412Y-100419557D01*
X134946816Y-100323051D01*
X134968789Y-100307086D01*
X135118786Y-100198109D01*
X135118788Y-100198106D01*
X135118792Y-100198104D01*
X135269104Y-100047792D01*
X135388683Y-99883204D01*
X135444011Y-99840540D01*
X135513624Y-99834561D01*
X135575420Y-99867166D01*
X135589313Y-99883199D01*
X135653358Y-99971350D01*
X135708896Y-100047792D01*
X135859213Y-100198109D01*
X136031179Y-100323048D01*
X136031181Y-100323049D01*
X136031184Y-100323051D01*
X136220588Y-100419557D01*
X136422757Y-100485246D01*
X136632713Y-100518500D01*
X136632714Y-100518500D01*
X136845286Y-100518500D01*
X136845287Y-100518500D01*
X137055243Y-100485246D01*
X137257412Y-100419557D01*
X137446816Y-100323051D01*
X137468789Y-100307086D01*
X137618786Y-100198109D01*
X137618788Y-100198106D01*
X137618792Y-100198104D01*
X137769104Y-100047792D01*
X137769106Y-100047788D01*
X137769109Y-100047786D01*
X137894048Y-99875820D01*
X137894047Y-99875820D01*
X137894051Y-99875816D01*
X137990557Y-99686412D01*
X138056246Y-99484243D01*
X138089500Y-99274287D01*
X138089500Y-98811713D01*
X138056246Y-98601757D01*
X137990557Y-98399588D01*
X137894051Y-98210184D01*
X137894049Y-98210181D01*
X137894048Y-98210179D01*
X137769109Y-98038213D01*
X137618786Y-97887890D01*
X137446820Y-97762951D01*
X137257414Y-97666444D01*
X137257413Y-97666443D01*
X137257412Y-97666443D01*
X137055243Y-97600754D01*
X137055241Y-97600753D01*
X137055240Y-97600753D01*
X136893957Y-97575208D01*
X136845287Y-97567500D01*
X136632713Y-97567500D01*
X136584042Y-97575208D01*
X136422760Y-97600753D01*
X136220585Y-97666444D01*
X136031179Y-97762951D01*
X135859213Y-97887890D01*
X135708894Y-98038209D01*
X135708890Y-98038214D01*
X135589318Y-98202793D01*
X135533989Y-98245459D01*
X135464375Y-98251438D01*
X135402580Y-98218833D01*
X135388682Y-98202793D01*
X135269109Y-98038214D01*
X135269105Y-98038209D01*
X135118786Y-97887890D01*
X134946820Y-97762951D01*
X134757414Y-97666444D01*
X134757413Y-97666443D01*
X134757412Y-97666443D01*
X134555243Y-97600754D01*
X134555241Y-97600753D01*
X134555240Y-97600753D01*
X134393957Y-97575208D01*
X134345287Y-97567500D01*
X134132713Y-97567500D01*
X134084042Y-97575208D01*
X133922760Y-97600753D01*
X133720585Y-97666444D01*
X133531179Y-97762951D01*
X133359215Y-97887889D01*
X133220398Y-98026706D01*
X133159075Y-98060190D01*
X133089383Y-98055206D01*
X133033450Y-98013334D01*
X133027178Y-98004120D01*
X132931712Y-97849344D01*
X132807657Y-97725289D01*
X132807656Y-97725288D01*
X132658334Y-97633186D01*
X132491797Y-97578001D01*
X132491795Y-97578000D01*
X132389010Y-97567500D01*
X131088998Y-97567500D01*
X131088981Y-97567501D01*
X130986203Y-97578000D01*
X130986200Y-97578001D01*
X130819668Y-97633185D01*
X130819663Y-97633187D01*
X130670342Y-97725289D01*
X130546289Y-97849342D01*
X130454187Y-97998663D01*
X130454185Y-97998668D01*
X130449325Y-98013334D01*
X130399001Y-98165203D01*
X130399001Y-98165204D01*
X130399000Y-98165204D01*
X130388500Y-98267983D01*
X126992284Y-98267983D01*
X126992298Y-97535999D01*
X141887922Y-97535999D01*
X141887922Y-97536000D01*
X141908219Y-97923287D01*
X141968886Y-98306323D01*
X141968887Y-98306330D01*
X142069262Y-98680936D01*
X142208244Y-99042994D01*
X142384310Y-99388543D01*
X142595531Y-99713793D01*
X142804095Y-99971350D01*
X142804096Y-99971350D01*
X144298748Y-98476698D01*
X144372588Y-98578330D01*
X144550670Y-98756412D01*
X144652300Y-98830251D01*
X143157648Y-100324903D01*
X143157649Y-100324904D01*
X143415206Y-100533468D01*
X143740456Y-100744689D01*
X144086005Y-100920755D01*
X144448063Y-101059737D01*
X144822669Y-101160112D01*
X144822676Y-101160113D01*
X145205712Y-101220780D01*
X145592999Y-101241078D01*
X145593001Y-101241078D01*
X145980287Y-101220780D01*
X146363323Y-101160113D01*
X146363330Y-101160112D01*
X146737936Y-101059737D01*
X147099994Y-100920755D01*
X147445543Y-100744689D01*
X147770783Y-100533476D01*
X147770785Y-100533475D01*
X148028349Y-100324902D01*
X146533698Y-98830251D01*
X146635330Y-98756412D01*
X146813412Y-98578330D01*
X146887251Y-98476698D01*
X148381902Y-99971349D01*
X148590475Y-99713785D01*
X148590476Y-99713783D01*
X148801689Y-99388543D01*
X148977755Y-99042994D01*
X149116737Y-98680936D01*
X149217112Y-98306330D01*
X149217113Y-98306323D01*
X149277780Y-97923287D01*
X149298078Y-97536000D01*
X149298078Y-97535999D01*
X149277780Y-97148712D01*
X149217113Y-96765676D01*
X149217112Y-96765669D01*
X149116737Y-96391063D01*
X148977755Y-96029005D01*
X148801689Y-95683456D01*
X148590468Y-95358206D01*
X148381904Y-95100649D01*
X148381903Y-95100648D01*
X146887251Y-96595300D01*
X146813412Y-96493670D01*
X146635330Y-96315588D01*
X146533698Y-96241748D01*
X147707048Y-95068398D01*
X150095532Y-95068398D01*
X150095532Y-95068401D01*
X150115364Y-95295086D01*
X150115366Y-95295097D01*
X150174258Y-95514888D01*
X150174261Y-95514897D01*
X150270431Y-95721132D01*
X150270432Y-95721134D01*
X150400954Y-95907541D01*
X150561858Y-96068445D01*
X150561861Y-96068447D01*
X150748266Y-96198968D01*
X150805681Y-96225741D01*
X150806275Y-96226018D01*
X150858714Y-96272191D01*
X150877866Y-96339384D01*
X150857650Y-96406265D01*
X150806275Y-96450782D01*
X150748267Y-96477831D01*
X150748265Y-96477832D01*
X150561858Y-96608354D01*
X150400954Y-96769258D01*
X150270432Y-96955665D01*
X150270431Y-96955667D01*
X150174261Y-97161902D01*
X150174258Y-97161911D01*
X150115366Y-97381702D01*
X150115364Y-97381713D01*
X150095532Y-97608398D01*
X150095532Y-97608401D01*
X150115364Y-97835086D01*
X150115366Y-97835097D01*
X150174258Y-98054888D01*
X150174261Y-98054897D01*
X150270431Y-98261132D01*
X150270432Y-98261134D01*
X150400954Y-98447541D01*
X150561858Y-98608445D01*
X150561861Y-98608447D01*
X150748266Y-98738968D01*
X150785675Y-98756412D01*
X150806275Y-98766018D01*
X150858714Y-98812191D01*
X150877866Y-98879384D01*
X150857650Y-98946265D01*
X150806275Y-98990782D01*
X150748267Y-99017831D01*
X150748265Y-99017832D01*
X150561858Y-99148354D01*
X150400954Y-99309258D01*
X150270432Y-99495665D01*
X150270431Y-99495667D01*
X150174261Y-99701902D01*
X150174258Y-99701911D01*
X150115366Y-99921702D01*
X150115364Y-99921713D01*
X150095532Y-100148398D01*
X150095532Y-100148401D01*
X150115364Y-100375086D01*
X150115366Y-100375097D01*
X150174258Y-100594888D01*
X150174261Y-100594897D01*
X150270431Y-100801132D01*
X150270432Y-100801134D01*
X150400954Y-100987541D01*
X150561858Y-101148445D01*
X150601914Y-101176492D01*
X150748266Y-101278968D01*
X150771384Y-101289748D01*
X150806275Y-101306018D01*
X150858714Y-101352191D01*
X150877866Y-101419384D01*
X150857650Y-101486265D01*
X150806275Y-101530781D01*
X150806118Y-101530855D01*
X150748267Y-101557831D01*
X150748265Y-101557832D01*
X150561858Y-101688354D01*
X150400954Y-101849258D01*
X150270432Y-102035665D01*
X150270431Y-102035667D01*
X150174261Y-102241902D01*
X150174258Y-102241911D01*
X150115366Y-102461702D01*
X150115364Y-102461713D01*
X150095532Y-102688398D01*
X150095532Y-102688401D01*
X150115364Y-102915086D01*
X150115366Y-102915097D01*
X150174258Y-103134888D01*
X150174261Y-103134897D01*
X150270431Y-103341132D01*
X150270432Y-103341134D01*
X150400954Y-103527541D01*
X150561858Y-103688445D01*
X150561861Y-103688447D01*
X150748266Y-103818968D01*
X150954504Y-103915139D01*
X151174308Y-103974035D01*
X151336230Y-103988201D01*
X151400998Y-103993868D01*
X151401000Y-103993868D01*
X151401002Y-103993868D01*
X151457807Y-103988898D01*
X151627692Y-103974035D01*
X151847496Y-103915139D01*
X152053734Y-103818968D01*
X152240139Y-103688447D01*
X152401047Y-103527539D01*
X152531568Y-103341134D01*
X152627739Y-103134896D01*
X152686635Y-102915092D01*
X152706468Y-102688400D01*
X152686635Y-102461708D01*
X152627739Y-102241904D01*
X152531568Y-102035666D01*
X152401047Y-101849261D01*
X152401045Y-101849258D01*
X152240141Y-101688354D01*
X152053734Y-101557832D01*
X152053728Y-101557829D01*
X151995882Y-101530855D01*
X151995724Y-101530781D01*
X151943285Y-101484610D01*
X151924133Y-101417417D01*
X151944348Y-101350535D01*
X151995725Y-101306018D01*
X152053734Y-101278968D01*
X152240139Y-101148447D01*
X152401047Y-100987539D01*
X152531118Y-100801775D01*
X152585693Y-100758152D01*
X152632692Y-100748900D01*
X153075217Y-100748900D01*
X153142256Y-100768585D01*
X153162898Y-100785219D01*
X163903053Y-111525374D01*
X163903063Y-111525385D01*
X163907393Y-111529715D01*
X163907394Y-111529716D01*
X164019198Y-111641520D01*
X164106009Y-111691639D01*
X164106011Y-111691641D01*
X164156127Y-111720576D01*
X164156129Y-111720577D01*
X164308856Y-111761500D01*
X164308857Y-111761500D01*
X166286684Y-111761500D01*
X166353723Y-111781185D01*
X166399478Y-111833989D01*
X166400240Y-111835689D01*
X166418627Y-111877608D01*
X166554633Y-112085782D01*
X166554636Y-112085785D01*
X166723056Y-112268738D01*
X166919291Y-112421474D01*
X167137990Y-112539828D01*
X167373186Y-112620571D01*
X167618465Y-112661500D01*
X167867135Y-112661500D01*
X168112414Y-112620571D01*
X168347610Y-112539828D01*
X168566309Y-112421474D01*
X168762544Y-112268738D01*
X168930964Y-112085785D01*
X169066973Y-111877607D01*
X169166863Y-111649881D01*
X169227908Y-111408821D01*
X169248443Y-111161000D01*
X169248443Y-111160994D01*
X172737157Y-111160994D01*
X172737157Y-111161005D01*
X172757690Y-111408812D01*
X172757692Y-111408824D01*
X172818736Y-111649881D01*
X172918626Y-111877606D01*
X173054633Y-112085782D01*
X173054636Y-112085785D01*
X173223056Y-112268738D01*
X173419291Y-112421474D01*
X173637990Y-112539828D01*
X173873186Y-112620571D01*
X174118465Y-112661500D01*
X174367135Y-112661500D01*
X174612414Y-112620571D01*
X174847610Y-112539828D01*
X175066309Y-112421474D01*
X175262544Y-112268738D01*
X175430964Y-112085785D01*
X175566973Y-111877607D01*
X175666863Y-111649881D01*
X175727908Y-111408821D01*
X175748443Y-111161000D01*
X175741064Y-111071953D01*
X175727909Y-110913187D01*
X175727907Y-110913175D01*
X175666863Y-110672118D01*
X175566973Y-110444393D01*
X175430966Y-110236217D01*
X175409357Y-110212744D01*
X175262544Y-110053262D01*
X175066309Y-109900526D01*
X175066307Y-109900525D01*
X175066306Y-109900524D01*
X174847611Y-109782172D01*
X174847602Y-109782169D01*
X174612416Y-109701429D01*
X174367135Y-109660500D01*
X174118465Y-109660500D01*
X173873183Y-109701429D01*
X173637997Y-109782169D01*
X173637988Y-109782172D01*
X173419293Y-109900524D01*
X173223057Y-110053261D01*
X173054633Y-110236217D01*
X172918626Y-110444393D01*
X172818736Y-110672118D01*
X172757692Y-110913175D01*
X172757690Y-110913187D01*
X172737157Y-111160994D01*
X169248443Y-111160994D01*
X169241064Y-111071953D01*
X169227909Y-110913187D01*
X169227907Y-110913175D01*
X169166863Y-110672118D01*
X169066973Y-110444393D01*
X168930966Y-110236217D01*
X168909357Y-110212744D01*
X168762544Y-110053262D01*
X168566309Y-109900526D01*
X168566307Y-109900525D01*
X168566306Y-109900524D01*
X168347611Y-109782172D01*
X168347602Y-109782169D01*
X168112416Y-109701429D01*
X167867135Y-109660500D01*
X167618465Y-109660500D01*
X167373183Y-109701429D01*
X167137997Y-109782169D01*
X167137988Y-109782172D01*
X166919293Y-109900524D01*
X166723057Y-110053261D01*
X166554633Y-110236217D01*
X166418627Y-110444391D01*
X166400240Y-110486311D01*
X166355283Y-110539796D01*
X166288547Y-110560486D01*
X166286684Y-110560500D01*
X164688011Y-110560500D01*
X164620972Y-110540815D01*
X164600330Y-110524181D01*
X163315094Y-109238945D01*
X163281609Y-109177622D01*
X163286593Y-109107930D01*
X163315090Y-109063587D01*
X163393016Y-108985662D01*
X163488989Y-108832922D01*
X163548568Y-108662655D01*
X163568765Y-108483400D01*
X163548568Y-108304145D01*
X163548567Y-108304143D01*
X163548566Y-108304137D01*
X163488990Y-108133881D01*
X163488986Y-108133872D01*
X163474255Y-108110427D01*
X163455255Y-108043190D01*
X163475623Y-107976355D01*
X163512208Y-107940142D01*
X163617330Y-107872586D01*
X163725991Y-107778432D01*
X163725994Y-107778429D01*
X163820215Y-107669691D01*
X163897947Y-107548737D01*
X163957717Y-107417859D01*
X163998224Y-107279904D01*
X164018700Y-107137489D01*
X164018700Y-106565600D01*
X164013555Y-106493660D01*
X164007719Y-106473786D01*
X164002597Y-106456341D01*
X163998836Y-106403758D01*
X163999520Y-106399000D01*
X164018700Y-106265600D01*
X164018700Y-105693711D01*
X163998224Y-105551296D01*
X163957717Y-105413341D01*
X163897947Y-105282463D01*
X163823823Y-105167123D01*
X163823002Y-105165681D01*
X163820211Y-105161501D01*
X163725992Y-105052769D01*
X163725989Y-105052766D01*
X163617335Y-104958618D01*
X163617332Y-104958615D01*
X163533673Y-104904852D01*
X163496294Y-104880830D01*
X163496287Y-104880827D01*
X163496281Y-104880823D01*
X163371556Y-104823863D01*
X163367257Y-104821614D01*
X163227461Y-104780566D01*
X163227451Y-104780563D01*
X163099500Y-104762167D01*
X163085141Y-104760103D01*
X163085140Y-104760103D01*
X163028801Y-104760103D01*
X163028791Y-104760100D01*
X162977436Y-104760100D01*
X162548964Y-104760100D01*
X162497627Y-104760100D01*
X162497599Y-104760103D01*
X162441259Y-104760103D01*
X162307721Y-104779303D01*
X162307719Y-104779303D01*
X162298944Y-104780564D01*
X162160886Y-104821103D01*
X162030118Y-104880823D01*
X162030108Y-104880828D01*
X162030106Y-104880830D01*
X161996453Y-104902457D01*
X161909067Y-104958615D01*
X161909063Y-104958618D01*
X161800426Y-105052752D01*
X161800407Y-105052769D01*
X161800390Y-105052788D01*
X161740157Y-105122302D01*
X161681379Y-105160077D01*
X161646444Y-105165100D01*
X160754812Y-105165100D01*
X160687773Y-105145415D01*
X160677497Y-105138045D01*
X160674663Y-105135785D01*
X160674662Y-105135784D01*
X160555162Y-105060697D01*
X160521923Y-105039811D01*
X160351654Y-104980231D01*
X160351649Y-104980230D01*
X160172404Y-104960035D01*
X160172396Y-104960035D01*
X159993150Y-104980230D01*
X159993137Y-104980233D01*
X159822878Y-105039810D01*
X159822876Y-105039811D01*
X159819860Y-105041706D01*
X159817640Y-105042332D01*
X159816606Y-105042831D01*
X159816518Y-105042649D01*
X159752621Y-105060697D01*
X159685789Y-105040322D01*
X159666220Y-105024385D01*
X158842415Y-104200580D01*
X158808930Y-104139257D01*
X158813914Y-104069565D01*
X158855786Y-104013632D01*
X158921250Y-103989215D01*
X158930096Y-103988899D01*
X159868871Y-103988899D01*
X159868872Y-103988899D01*
X159909394Y-103984543D01*
X167767499Y-103984543D01*
X167805947Y-104177829D01*
X167805950Y-104177839D01*
X167881364Y-104359907D01*
X167881371Y-104359920D01*
X167990860Y-104523781D01*
X167990863Y-104523785D01*
X168130214Y-104663136D01*
X168130218Y-104663139D01*
X168294079Y-104772628D01*
X168294092Y-104772635D01*
X168476160Y-104848049D01*
X168476165Y-104848051D01*
X168476169Y-104848051D01*
X168476170Y-104848052D01*
X168669456Y-104886500D01*
X168669459Y-104886500D01*
X168866543Y-104886500D01*
X168996582Y-104860632D01*
X169059835Y-104848051D01*
X169200655Y-104789721D01*
X169241907Y-104772635D01*
X169241907Y-104772634D01*
X169241914Y-104772632D01*
X169405782Y-104663139D01*
X169545139Y-104523782D01*
X169654632Y-104359914D01*
X169730051Y-104177835D01*
X169742632Y-104114582D01*
X169768500Y-103984543D01*
X169768500Y-103787456D01*
X169730052Y-103594170D01*
X169730051Y-103594169D01*
X169730051Y-103594165D01*
X169702454Y-103527539D01*
X169654635Y-103412092D01*
X169654628Y-103412079D01*
X169545139Y-103248218D01*
X169545136Y-103248214D01*
X169405785Y-103108863D01*
X169405781Y-103108860D01*
X169241920Y-102999371D01*
X169241907Y-102999364D01*
X169059839Y-102923950D01*
X169059829Y-102923947D01*
X168866543Y-102885500D01*
X168866541Y-102885500D01*
X168669459Y-102885500D01*
X168669457Y-102885500D01*
X168476170Y-102923947D01*
X168476160Y-102923950D01*
X168294092Y-102999364D01*
X168294079Y-102999371D01*
X168130218Y-103108860D01*
X168130214Y-103108863D01*
X167990863Y-103248214D01*
X167990860Y-103248218D01*
X167881371Y-103412079D01*
X167881364Y-103412092D01*
X167805950Y-103594160D01*
X167805947Y-103594170D01*
X167767500Y-103787456D01*
X167767500Y-103787459D01*
X167767500Y-103984541D01*
X167767500Y-103984543D01*
X167767499Y-103984543D01*
X159909394Y-103984543D01*
X159928483Y-103982491D01*
X160063331Y-103932196D01*
X160178546Y-103845946D01*
X160264796Y-103730731D01*
X160315091Y-103595883D01*
X160321500Y-103536273D01*
X160321499Y-101840528D01*
X160315091Y-101780917D01*
X160280567Y-101688354D01*
X160264797Y-101646071D01*
X160264793Y-101646064D01*
X160178547Y-101530855D01*
X160178544Y-101530852D01*
X160063335Y-101444606D01*
X160063328Y-101444602D01*
X159928482Y-101394308D01*
X159928483Y-101394308D01*
X159893404Y-101390537D01*
X159828853Y-101363799D01*
X159789005Y-101306406D01*
X159786512Y-101236581D01*
X159822165Y-101176492D01*
X159835539Y-101165672D01*
X159843478Y-101160113D01*
X159860139Y-101148447D01*
X160021047Y-100987539D01*
X160151568Y-100801134D01*
X160247739Y-100594896D01*
X160306635Y-100375092D01*
X160326468Y-100148400D01*
X160306635Y-99921708D01*
X160250925Y-99713793D01*
X160247741Y-99701911D01*
X160247738Y-99701902D01*
X160151568Y-99495667D01*
X160151567Y-99495665D01*
X160143569Y-99484243D01*
X160021047Y-99309261D01*
X160021045Y-99309258D01*
X159860141Y-99148354D01*
X159673734Y-99017832D01*
X159673728Y-99017829D01*
X159615725Y-98990782D01*
X159563285Y-98944610D01*
X159544133Y-98877417D01*
X159564348Y-98810535D01*
X159615725Y-98766018D01*
X159636325Y-98756412D01*
X159673734Y-98738968D01*
X159860139Y-98608447D01*
X160021047Y-98447539D01*
X160151568Y-98261134D01*
X160247739Y-98054896D01*
X160306635Y-97835092D01*
X160326468Y-97608400D01*
X160323808Y-97578001D01*
X160306635Y-97381713D01*
X160306635Y-97381708D01*
X160261916Y-97214815D01*
X160247741Y-97161911D01*
X160247738Y-97161902D01*
X160151568Y-96955667D01*
X160151567Y-96955665D01*
X160021045Y-96769258D01*
X159860141Y-96608354D01*
X159673734Y-96477832D01*
X159673732Y-96477831D01*
X159615725Y-96450782D01*
X159615132Y-96450505D01*
X159562694Y-96404334D01*
X159543542Y-96337140D01*
X159563758Y-96270259D01*
X159615134Y-96225741D01*
X159673484Y-96198532D01*
X159859820Y-96068057D01*
X160020657Y-95907220D01*
X160151134Y-95720882D01*
X160247265Y-95514726D01*
X160247269Y-95514717D01*
X160299872Y-95318400D01*
X159336686Y-95318400D01*
X159341080Y-95314006D01*
X159393741Y-95222794D01*
X159421000Y-95121061D01*
X159421000Y-95015739D01*
X159393741Y-94914006D01*
X159341080Y-94822794D01*
X159336686Y-94818400D01*
X160299872Y-94818400D01*
X160299872Y-94818399D01*
X160247269Y-94622082D01*
X160247265Y-94622073D01*
X160151134Y-94415917D01*
X160020657Y-94229579D01*
X159859820Y-94068742D01*
X159673482Y-93938265D01*
X159467328Y-93842134D01*
X159271000Y-93789527D01*
X159271000Y-94752714D01*
X159266606Y-94748320D01*
X159175394Y-94695659D01*
X159073661Y-94668400D01*
X158968339Y-94668400D01*
X158866606Y-94695659D01*
X158775394Y-94748320D01*
X158771000Y-94752714D01*
X158771000Y-93789527D01*
X158574671Y-93842134D01*
X158368517Y-93938265D01*
X158182179Y-94068742D01*
X158021342Y-94229579D01*
X157890865Y-94415917D01*
X157794734Y-94622073D01*
X157794730Y-94622082D01*
X157742127Y-94818399D01*
X157742128Y-94818400D01*
X158705314Y-94818400D01*
X158700920Y-94822794D01*
X158648259Y-94914006D01*
X158621000Y-95015739D01*
X158621000Y-95121061D01*
X158648259Y-95222794D01*
X158700920Y-95314006D01*
X158705314Y-95318400D01*
X157742128Y-95318400D01*
X157794730Y-95514717D01*
X157794734Y-95514726D01*
X157890865Y-95720882D01*
X158021342Y-95907220D01*
X158182179Y-96068057D01*
X158368518Y-96198534D01*
X158368520Y-96198535D01*
X158426865Y-96225742D01*
X158479305Y-96271914D01*
X158498457Y-96339107D01*
X158478242Y-96405989D01*
X158426867Y-96450505D01*
X158368268Y-96477831D01*
X158368264Y-96477833D01*
X158181858Y-96608354D01*
X158020954Y-96769258D01*
X157890432Y-96955665D01*
X157890431Y-96955667D01*
X157794261Y-97161902D01*
X157794258Y-97161911D01*
X157735366Y-97381702D01*
X157735364Y-97381713D01*
X157715532Y-97608398D01*
X157715532Y-97608401D01*
X157735364Y-97835086D01*
X157735366Y-97835097D01*
X157794258Y-98054888D01*
X157794261Y-98054897D01*
X157890431Y-98261132D01*
X157890432Y-98261134D01*
X158020954Y-98447541D01*
X158181858Y-98608445D01*
X158181861Y-98608447D01*
X158368266Y-98738968D01*
X158405675Y-98756412D01*
X158426275Y-98766018D01*
X158478714Y-98812191D01*
X158497866Y-98879384D01*
X158477650Y-98946265D01*
X158426275Y-98990782D01*
X158368267Y-99017831D01*
X158368265Y-99017832D01*
X158181858Y-99148354D01*
X158020954Y-99309258D01*
X157890432Y-99495665D01*
X157890431Y-99495667D01*
X157794261Y-99701902D01*
X157794258Y-99701911D01*
X157735366Y-99921702D01*
X157735364Y-99921713D01*
X157715532Y-100148398D01*
X157715532Y-100148401D01*
X157735364Y-100375086D01*
X157735366Y-100375097D01*
X157794258Y-100594888D01*
X157794261Y-100594897D01*
X157890431Y-100801132D01*
X157890432Y-100801134D01*
X158020954Y-100987541D01*
X158181858Y-101148445D01*
X158206462Y-101165673D01*
X158250087Y-101220249D01*
X158257281Y-101289748D01*
X158225758Y-101352103D01*
X158165529Y-101387517D01*
X158148593Y-101390538D01*
X158113516Y-101394308D01*
X157978671Y-101444602D01*
X157978664Y-101444606D01*
X157863455Y-101530852D01*
X157863452Y-101530855D01*
X157777206Y-101646064D01*
X157777202Y-101646071D01*
X157726908Y-101780917D01*
X157720501Y-101840516D01*
X157720501Y-101840523D01*
X157720500Y-101840535D01*
X157720500Y-102779303D01*
X157700815Y-102846342D01*
X157648011Y-102892097D01*
X157578853Y-102902041D01*
X157515297Y-102873016D01*
X157508819Y-102866984D01*
X152692941Y-98051106D01*
X152659456Y-97989783D01*
X152660847Y-97931331D01*
X152686635Y-97835092D01*
X152706468Y-97608400D01*
X152703808Y-97578001D01*
X152686635Y-97381713D01*
X152686635Y-97381708D01*
X152641916Y-97214815D01*
X152627741Y-97161911D01*
X152627738Y-97161902D01*
X152531568Y-96955667D01*
X152531567Y-96955665D01*
X152401045Y-96769258D01*
X152240141Y-96608354D01*
X152053734Y-96477832D01*
X152053728Y-96477829D01*
X151995725Y-96450782D01*
X151943285Y-96404610D01*
X151924133Y-96337417D01*
X151944348Y-96270535D01*
X151995725Y-96226018D01*
X151996319Y-96225741D01*
X152053734Y-96198968D01*
X152240139Y-96068447D01*
X152401047Y-95907539D01*
X152531568Y-95721134D01*
X152627739Y-95514896D01*
X152686635Y-95295092D01*
X152706468Y-95068400D01*
X152686635Y-94841708D01*
X152627739Y-94621904D01*
X152531568Y-94415666D01*
X152401047Y-94229261D01*
X152401045Y-94229258D01*
X152240141Y-94068354D01*
X152053734Y-93937832D01*
X152053732Y-93937831D01*
X151847497Y-93841661D01*
X151847488Y-93841658D01*
X151627697Y-93782766D01*
X151627693Y-93782765D01*
X151627692Y-93782765D01*
X151627691Y-93782764D01*
X151627686Y-93782764D01*
X151401002Y-93762932D01*
X151400998Y-93762932D01*
X151174313Y-93782764D01*
X151174302Y-93782766D01*
X150954511Y-93841658D01*
X150954502Y-93841661D01*
X150748267Y-93937831D01*
X150748265Y-93937832D01*
X150561858Y-94068354D01*
X150400954Y-94229258D01*
X150270432Y-94415665D01*
X150270431Y-94415667D01*
X150174261Y-94621902D01*
X150174258Y-94621911D01*
X150115366Y-94841702D01*
X150115364Y-94841713D01*
X150095532Y-95068398D01*
X147707048Y-95068398D01*
X148028350Y-94747096D01*
X148028350Y-94747095D01*
X147770793Y-94538531D01*
X147445543Y-94327310D01*
X147099994Y-94151244D01*
X146737936Y-94012262D01*
X146363330Y-93911887D01*
X146363323Y-93911886D01*
X145980287Y-93851219D01*
X145593001Y-93830922D01*
X145592999Y-93830922D01*
X145205712Y-93851219D01*
X144822676Y-93911886D01*
X144822669Y-93911887D01*
X144448063Y-94012262D01*
X144086005Y-94151244D01*
X143740456Y-94327310D01*
X143415206Y-94538531D01*
X143157648Y-94747095D01*
X143157648Y-94747096D01*
X144652301Y-96241748D01*
X144550670Y-96315588D01*
X144372588Y-96493670D01*
X144298748Y-96595300D01*
X142804096Y-95100648D01*
X142804095Y-95100648D01*
X142595531Y-95358206D01*
X142384310Y-95683456D01*
X142208244Y-96029005D01*
X142069262Y-96391063D01*
X141968887Y-96765669D01*
X141968886Y-96765676D01*
X141908219Y-97148712D01*
X141887922Y-97535999D01*
X126992298Y-97535999D01*
X126992426Y-90622983D01*
X132908500Y-90622983D01*
X132908500Y-92223001D01*
X132908501Y-92223018D01*
X132919000Y-92325796D01*
X132919001Y-92325799D01*
X132953031Y-92428493D01*
X132974186Y-92492334D01*
X133066288Y-92641656D01*
X133190344Y-92765712D01*
X133339666Y-92857814D01*
X133506203Y-92912999D01*
X133608991Y-92923500D01*
X134909008Y-92923499D01*
X135011797Y-92912999D01*
X135178334Y-92857814D01*
X135327656Y-92765712D01*
X135451712Y-92641656D01*
X135543814Y-92492334D01*
X135543814Y-92492331D01*
X135547448Y-92486441D01*
X135599395Y-92439716D01*
X135668358Y-92428493D01*
X135732440Y-92456336D01*
X135740668Y-92463856D01*
X135879535Y-92602723D01*
X135879540Y-92602727D01*
X136051442Y-92727620D01*
X136240782Y-92824095D01*
X136442871Y-92889757D01*
X136509000Y-92900231D01*
X136509000Y-91856012D01*
X136566007Y-91888925D01*
X136693174Y-91923000D01*
X136824826Y-91923000D01*
X136951993Y-91888925D01*
X137009000Y-91856012D01*
X137009000Y-92900230D01*
X137075126Y-92889757D01*
X137075129Y-92889757D01*
X137277217Y-92824095D01*
X137466557Y-92727620D01*
X137638459Y-92602727D01*
X137638464Y-92602723D01*
X137788723Y-92452464D01*
X137788727Y-92452459D01*
X137913620Y-92280557D01*
X138010095Y-92091217D01*
X138075757Y-91889130D01*
X138075757Y-91889127D01*
X138109000Y-91679246D01*
X138109000Y-91673000D01*
X137192012Y-91673000D01*
X137224925Y-91615993D01*
X137259000Y-91488826D01*
X137259000Y-91357174D01*
X137239538Y-91284543D01*
X167767499Y-91284543D01*
X167805947Y-91477829D01*
X167805950Y-91477839D01*
X167881364Y-91659907D01*
X167881371Y-91659920D01*
X167990860Y-91823781D01*
X167990863Y-91823785D01*
X168130214Y-91963136D01*
X168130218Y-91963139D01*
X168294079Y-92072628D01*
X168294092Y-92072635D01*
X168476160Y-92148049D01*
X168476165Y-92148051D01*
X168476169Y-92148051D01*
X168476170Y-92148052D01*
X168669456Y-92186500D01*
X168669459Y-92186500D01*
X168866543Y-92186500D01*
X168996582Y-92160632D01*
X169059835Y-92148051D01*
X169241914Y-92072632D01*
X169405782Y-91963139D01*
X169545139Y-91823782D01*
X169654632Y-91659914D01*
X169730051Y-91477835D01*
X169768500Y-91284541D01*
X169768500Y-91087459D01*
X169768500Y-91087456D01*
X169730052Y-90894170D01*
X169730051Y-90894169D01*
X169730051Y-90894165D01*
X169730049Y-90894160D01*
X169654635Y-90712092D01*
X169654628Y-90712079D01*
X169545139Y-90548218D01*
X169545136Y-90548214D01*
X169405785Y-90408863D01*
X169405781Y-90408860D01*
X169241920Y-90299371D01*
X169241907Y-90299364D01*
X169059839Y-90223950D01*
X169059829Y-90223947D01*
X168866543Y-90185500D01*
X168866541Y-90185500D01*
X168669459Y-90185500D01*
X168669457Y-90185500D01*
X168476170Y-90223947D01*
X168476160Y-90223950D01*
X168294092Y-90299364D01*
X168294079Y-90299371D01*
X168130218Y-90408860D01*
X168130214Y-90408863D01*
X167990863Y-90548214D01*
X167990860Y-90548218D01*
X167881371Y-90712079D01*
X167881364Y-90712092D01*
X167805950Y-90894160D01*
X167805947Y-90894170D01*
X167767500Y-91087456D01*
X167767500Y-91087459D01*
X167767500Y-91284541D01*
X167767500Y-91284543D01*
X167767499Y-91284543D01*
X137239538Y-91284543D01*
X137224925Y-91230007D01*
X137192012Y-91173000D01*
X138109000Y-91173000D01*
X138109000Y-91166753D01*
X138075757Y-90956872D01*
X138075757Y-90956869D01*
X138010095Y-90754782D01*
X137913620Y-90565442D01*
X137788727Y-90393540D01*
X137788723Y-90393535D01*
X137638464Y-90243276D01*
X137638459Y-90243272D01*
X137466557Y-90118379D01*
X137277215Y-90021903D01*
X137075124Y-89956241D01*
X137009000Y-89945768D01*
X137009000Y-90989988D01*
X136951993Y-90957075D01*
X136824826Y-90923000D01*
X136693174Y-90923000D01*
X136566007Y-90957075D01*
X136509000Y-90989988D01*
X136509000Y-89945768D01*
X136508999Y-89945768D01*
X136442875Y-89956241D01*
X136240784Y-90021903D01*
X136051442Y-90118379D01*
X135879541Y-90243271D01*
X135740668Y-90382144D01*
X135679345Y-90415628D01*
X135609653Y-90410644D01*
X135553720Y-90368772D01*
X135547448Y-90359558D01*
X135451712Y-90204344D01*
X135327657Y-90080289D01*
X135327656Y-90080288D01*
X135178334Y-89988186D01*
X135011797Y-89933001D01*
X135011795Y-89933000D01*
X134909010Y-89922500D01*
X133608998Y-89922500D01*
X133608981Y-89922501D01*
X133506203Y-89933000D01*
X133506200Y-89933001D01*
X133339668Y-89988185D01*
X133339663Y-89988187D01*
X133190342Y-90080289D01*
X133066289Y-90204342D01*
X132974187Y-90353663D01*
X132974185Y-90353668D01*
X132969180Y-90368772D01*
X132919001Y-90520203D01*
X132919001Y-90520204D01*
X132919000Y-90520204D01*
X132908500Y-90622983D01*
X126992426Y-90622983D01*
X126992497Y-86818726D01*
X126992500Y-86818709D01*
X126992500Y-86753210D01*
X126994883Y-86729019D01*
X126997926Y-86713721D01*
X127016411Y-86669066D01*
X127016463Y-86668987D01*
X127018164Y-86666441D01*
X127052441Y-86632164D01*
X127055066Y-86630411D01*
X127099718Y-86611926D01*
X127115028Y-86608881D01*
X127139211Y-86606500D01*
X127192892Y-86606500D01*
X176591108Y-86606500D01*
X176644789Y-86606500D01*
X176668980Y-86608883D01*
G37*
%TD.AperFunction*%
%TD*%
M02*
