%TF.GenerationSoftware,KiCad,Pcbnew,8.0.4-1.fc40*%
%TF.CreationDate,2024-08-13T21:32:43-05:00*%
%TF.ProjectId,K9QW_ATTiny_CW_Keyer,4b395157-5f41-4545-9469-6e795f43575f,rev?*%
%TF.SameCoordinates,Original*%
%TF.FileFunction,Soldermask,Bot*%
%TF.FilePolarity,Negative*%
%FSLAX46Y46*%
G04 Gerber Fmt 4.6, Leading zero omitted, Abs format (unit mm)*
G04 Created by KiCad (PCBNEW 8.0.4-1.fc40) date 2024-08-13 21:32:43*
%MOMM*%
%LPD*%
G01*
G04 APERTURE LIST*
G04 Aperture macros list*
%AMRoundRect*
0 Rectangle with rounded corners*
0 $1 Rounding radius*
0 $2 $3 $4 $5 $6 $7 $8 $9 X,Y pos of 4 corners*
0 Add a 4 corners polygon primitive as box body*
4,1,4,$2,$3,$4,$5,$6,$7,$8,$9,$2,$3,0*
0 Add four circle primitives for the rounded corners*
1,1,$1+$1,$2,$3*
1,1,$1+$1,$4,$5*
1,1,$1+$1,$6,$7*
1,1,$1+$1,$8,$9*
0 Add four rect primitives between the rounded corners*
20,1,$1+$1,$2,$3,$4,$5,0*
20,1,$1+$1,$4,$5,$6,$7,0*
20,1,$1+$1,$6,$7,$8,$9,0*
20,1,$1+$1,$8,$9,$2,$3,0*%
%AMFreePoly0*
4,1,19,0.500000,-0.750000,0.000000,-0.750000,0.000000,-0.744911,-0.071157,-0.744911,-0.207708,-0.704816,-0.327430,-0.627875,-0.420627,-0.520320,-0.479746,-0.390866,-0.500000,-0.250000,-0.500000,0.250000,-0.479746,0.390866,-0.420627,0.520320,-0.327430,0.627875,-0.207708,0.704816,-0.071157,0.744911,0.000000,0.744911,0.000000,0.750000,0.500000,0.750000,0.500000,-0.750000,0.500000,-0.750000,
$1*%
%AMFreePoly1*
4,1,19,0.000000,0.744911,0.071157,0.744911,0.207708,0.704816,0.327430,0.627875,0.420627,0.520320,0.479746,0.390866,0.500000,0.250000,0.500000,-0.250000,0.479746,-0.390866,0.420627,-0.520320,0.327430,-0.627875,0.207708,-0.704816,0.071157,-0.744911,0.000000,-0.744911,0.000000,-0.750000,-0.500000,-0.750000,-0.500000,0.750000,0.000000,0.750000,0.000000,0.744911,0.000000,0.744911,
$1*%
G04 Aperture macros list end*
%ADD10R,2.200000X2.200000*%
%ADD11O,2.200000X2.200000*%
%ADD12C,2.000000*%
%ADD13R,2.000000X2.000000*%
%ADD14C,1.500000*%
%ADD15RoundRect,0.375000X0.375000X-0.625000X0.375000X0.625000X-0.375000X0.625000X-0.375000X-0.625000X0*%
%ADD16RoundRect,0.500000X1.400000X-0.500000X1.400000X0.500000X-1.400000X0.500000X-1.400000X-0.500000X0*%
%ADD17RoundRect,0.237500X0.300000X0.237500X-0.300000X0.237500X-0.300000X-0.237500X0.300000X-0.237500X0*%
%ADD18O,1.700000X1.950000*%
%ADD19RoundRect,0.250000X-0.600000X-0.725000X0.600000X-0.725000X0.600000X0.725000X-0.600000X0.725000X0*%
%ADD20RoundRect,0.237500X0.237500X-0.250000X0.237500X0.250000X-0.237500X0.250000X-0.237500X-0.250000X0*%
%ADD21RoundRect,0.237500X-0.237500X0.300000X-0.237500X-0.300000X0.237500X-0.300000X0.237500X0.300000X0*%
%ADD22C,3.600000*%
%ADD23C,6.400000*%
%ADD24O,1.700000X2.000000*%
%ADD25RoundRect,0.250000X-0.600000X-0.750000X0.600000X-0.750000X0.600000X0.750000X-0.600000X0.750000X0*%
%ADD26FreePoly0,0.000000*%
%ADD27FreePoly1,0.000000*%
%ADD28O,1.600000X1.600000*%
%ADD29R,1.600000X1.600000*%
%ADD30C,1.600000*%
%ADD31FreePoly1,90.000000*%
%ADD32FreePoly0,90.000000*%
G04 APERTURE END LIST*
D10*
%TO.C,D1*%
X130403600Y-108966000D03*
D11*
X130403600Y-105156000D03*
%TD*%
D12*
%TO.C,BZ1*%
X145796000Y-107928400D03*
D13*
X145796000Y-112928400D03*
%TD*%
D14*
%TO.C,J2*%
X175768000Y-91186000D03*
X168768000Y-91186000D03*
%TD*%
%TO.C,J3*%
X175768000Y-103886000D03*
X168768000Y-103886000D03*
%TD*%
D15*
%TO.C,U2*%
X133539200Y-110846400D03*
D16*
X135839200Y-104546400D03*
D15*
X135839200Y-110846400D03*
X138139200Y-110846400D03*
%TD*%
D17*
%TO.C,C4*%
X134126300Y-102438600D03*
X135851300Y-102438600D03*
%TD*%
D18*
%TO.C,SW1*%
X136739000Y-99043000D03*
X134239000Y-99043000D03*
D19*
X131739000Y-99043000D03*
%TD*%
D20*
%TO.C,R1*%
X131749800Y-96670500D03*
X131749800Y-94845500D03*
%TD*%
D21*
%TO.C,C1*%
X151409400Y-105054400D03*
X151409400Y-106779400D03*
%TD*%
%TO.C,C3*%
X132638800Y-113031100D03*
X132638800Y-114756100D03*
%TD*%
D22*
%TO.C,J4*%
X145593000Y-97536000D03*
D23*
X145593000Y-97536000D03*
%TD*%
D24*
%TO.C,J1*%
X136759000Y-91423000D03*
D25*
X134259000Y-91423000D03*
%TD*%
D26*
%TO.C,JP3*%
X134528800Y-113487200D03*
D27*
X135828800Y-113487200D03*
%TD*%
D12*
%TO.C,SW2*%
X167742800Y-111161000D03*
X174242800Y-111161000D03*
X167742800Y-115661000D03*
X174242800Y-115661000D03*
%TD*%
D28*
%TO.C,U1*%
X151401000Y-102688400D03*
X151401000Y-100148400D03*
X151401000Y-97608400D03*
X151401000Y-95068400D03*
X159021000Y-95068400D03*
X159021000Y-97608400D03*
X159021000Y-100148400D03*
D29*
X159021000Y-102688400D03*
%TD*%
D30*
%TO.C,C2*%
X130403600Y-115040088D03*
D29*
X130403600Y-113040088D03*
%TD*%
D31*
%TO.C,JP1*%
X134239000Y-95108000D03*
D32*
X134239000Y-96408000D03*
%TD*%
M02*
