%TF.GenerationSoftware,KiCad,Pcbnew,8.0.4-1.fc40*%
%TF.CreationDate,2024-08-14T09:28:18-05:00*%
%TF.ProjectId,K9QW_ATTiny_CW_Keyer,4b395157-5f41-4545-9469-6e795f43575f,rev?*%
%TF.SameCoordinates,Original*%
%TF.FileFunction,Copper,L1,Top*%
%TF.FilePolarity,Positive*%
%FSLAX46Y46*%
G04 Gerber Fmt 4.6, Leading zero omitted, Abs format (unit mm)*
G04 Created by KiCad (PCBNEW 8.0.4-1.fc40) date 2024-08-14 09:28:18*
%MOMM*%
%LPD*%
G01*
G04 APERTURE LIST*
G04 Aperture macros list*
%AMRoundRect*
0 Rectangle with rounded corners*
0 $1 Rounding radius*
0 $2 $3 $4 $5 $6 $7 $8 $9 X,Y pos of 4 corners*
0 Add a 4 corners polygon primitive as box body*
4,1,4,$2,$3,$4,$5,$6,$7,$8,$9,$2,$3,0*
0 Add four circle primitives for the rounded corners*
1,1,$1+$1,$2,$3*
1,1,$1+$1,$4,$5*
1,1,$1+$1,$6,$7*
1,1,$1+$1,$8,$9*
0 Add four rect primitives between the rounded corners*
20,1,$1+$1,$2,$3,$4,$5,0*
20,1,$1+$1,$4,$5,$6,$7,0*
20,1,$1+$1,$6,$7,$8,$9,0*
20,1,$1+$1,$8,$9,$2,$3,0*%
%AMFreePoly0*
4,1,19,0.500000,-0.750000,0.000000,-0.750000,0.000000,-0.744911,-0.071157,-0.744911,-0.207708,-0.704816,-0.327430,-0.627875,-0.420627,-0.520320,-0.479746,-0.390866,-0.500000,-0.250000,-0.500000,0.250000,-0.479746,0.390866,-0.420627,0.520320,-0.327430,0.627875,-0.207708,0.704816,-0.071157,0.744911,0.000000,0.744911,0.000000,0.750000,0.500000,0.750000,0.500000,-0.750000,0.500000,-0.750000,
$1*%
%AMFreePoly1*
4,1,19,0.000000,0.744911,0.071157,0.744911,0.207708,0.704816,0.327430,0.627875,0.420627,0.520320,0.479746,0.390866,0.500000,0.250000,0.500000,-0.250000,0.479746,-0.390866,0.420627,-0.520320,0.327430,-0.627875,0.207708,-0.704816,0.071157,-0.744911,0.000000,-0.744911,0.000000,-0.750000,-0.500000,-0.750000,-0.500000,0.750000,0.000000,0.750000,0.000000,0.744911,0.000000,0.744911,
$1*%
G04 Aperture macros list end*
%TA.AperFunction,EtchedComponent*%
%ADD10C,0.000000*%
%TD*%
%TA.AperFunction,SMDPad,CuDef*%
%ADD11RoundRect,0.237500X0.250000X0.237500X-0.250000X0.237500X-0.250000X-0.237500X0.250000X-0.237500X0*%
%TD*%
%TA.AperFunction,ComponentPad*%
%ADD12R,2.000000X2.000000*%
%TD*%
%TA.AperFunction,ComponentPad*%
%ADD13C,2.000000*%
%TD*%
%TA.AperFunction,SMDPad,CuDef*%
%ADD14RoundRect,0.150000X0.150000X-0.587500X0.150000X0.587500X-0.150000X0.587500X-0.150000X-0.587500X0*%
%TD*%
%TA.AperFunction,SMDPad,CuDef*%
%ADD15RoundRect,0.237500X-0.237500X0.300000X-0.237500X-0.300000X0.237500X-0.300000X0.237500X0.300000X0*%
%TD*%
%TA.AperFunction,SMDPad,CuDef*%
%ADD16R,1.200000X2.500000*%
%TD*%
%TA.AperFunction,SMDPad,CuDef*%
%ADD17RoundRect,0.237500X-0.237500X0.250000X-0.237500X-0.250000X0.237500X-0.250000X0.237500X0.250000X0*%
%TD*%
%TA.AperFunction,SMDPad,CuDef*%
%ADD18RoundRect,0.237500X-0.300000X-0.237500X0.300000X-0.237500X0.300000X0.237500X-0.300000X0.237500X0*%
%TD*%
%TA.AperFunction,SMDPad,CuDef*%
%ADD19RoundRect,0.150000X0.587500X0.150000X-0.587500X0.150000X-0.587500X-0.150000X0.587500X-0.150000X0*%
%TD*%
%TA.AperFunction,ComponentPad*%
%ADD20RoundRect,0.250000X-0.600000X-0.725000X0.600000X-0.725000X0.600000X0.725000X-0.600000X0.725000X0*%
%TD*%
%TA.AperFunction,ComponentPad*%
%ADD21O,1.700000X1.950000*%
%TD*%
%TA.AperFunction,SMDPad,CuDef*%
%ADD22RoundRect,0.237500X-0.250000X-0.237500X0.250000X-0.237500X0.250000X0.237500X-0.250000X0.237500X0*%
%TD*%
%TA.AperFunction,SMDPad,CuDef*%
%ADD23RoundRect,0.150000X-0.512500X-0.150000X0.512500X-0.150000X0.512500X0.150000X-0.512500X0.150000X0*%
%TD*%
%TA.AperFunction,ComponentPad*%
%ADD24R,2.200000X2.200000*%
%TD*%
%TA.AperFunction,ComponentPad*%
%ADD25O,2.200000X2.200000*%
%TD*%
%TA.AperFunction,SMDPad,CuDef*%
%ADD26RoundRect,0.150000X-0.150000X0.587500X-0.150000X-0.587500X0.150000X-0.587500X0.150000X0.587500X0*%
%TD*%
%TA.AperFunction,SMDPad,CuDef*%
%ADD27RoundRect,0.150000X-0.587500X-0.150000X0.587500X-0.150000X0.587500X0.150000X-0.587500X0.150000X0*%
%TD*%
%TA.AperFunction,SMDPad,CuDef*%
%ADD28FreePoly0,0.000000*%
%TD*%
%TA.AperFunction,SMDPad,CuDef*%
%ADD29FreePoly1,0.000000*%
%TD*%
%TA.AperFunction,ComponentPad*%
%ADD30C,3.600000*%
%TD*%
%TA.AperFunction,ConnectorPad*%
%ADD31C,6.400000*%
%TD*%
%TA.AperFunction,ComponentPad*%
%ADD32RoundRect,0.250000X-0.600000X-0.750000X0.600000X-0.750000X0.600000X0.750000X-0.600000X0.750000X0*%
%TD*%
%TA.AperFunction,ComponentPad*%
%ADD33O,1.700000X2.000000*%
%TD*%
%TA.AperFunction,ComponentPad*%
%ADD34R,1.600000X1.600000*%
%TD*%
%TA.AperFunction,ComponentPad*%
%ADD35O,1.600000X1.600000*%
%TD*%
%TA.AperFunction,ComponentPad*%
%ADD36C,1.600000*%
%TD*%
%TA.AperFunction,SMDPad,CuDef*%
%ADD37FreePoly0,180.000000*%
%TD*%
%TA.AperFunction,SMDPad,CuDef*%
%ADD38FreePoly1,180.000000*%
%TD*%
%TA.AperFunction,SMDPad,CuDef*%
%ADD39RoundRect,0.237500X0.287500X0.237500X-0.287500X0.237500X-0.287500X-0.237500X0.287500X-0.237500X0*%
%TD*%
%TA.AperFunction,SMDPad,CuDef*%
%ADD40RoundRect,0.237500X-0.287500X-0.237500X0.287500X-0.237500X0.287500X0.237500X-0.287500X0.237500X0*%
%TD*%
%TA.AperFunction,ViaPad*%
%ADD41C,0.600000*%
%TD*%
%TA.AperFunction,Conductor*%
%ADD42C,0.200000*%
%TD*%
%TA.AperFunction,Conductor*%
%ADD43C,1.000000*%
%TD*%
G04 APERTURE END LIST*
D10*
%TA.AperFunction,EtchedComponent*%
%TO.C,JP4*%
G36*
X155469400Y-114041200D02*
G01*
X154969400Y-114041200D01*
X154969400Y-113441200D01*
X155469400Y-113441200D01*
X155469400Y-114041200D01*
G37*
%TD.AperFunction*%
%TD*%
D11*
%TO.P,R10,1*%
%TO.N,Net-(BZ1-+)*%
X156131900Y-115824000D03*
%TO.P,R10,2*%
%TO.N,GND*%
X154306900Y-115824000D03*
%TD*%
D12*
%TO.P,BZ1,1,+*%
%TO.N,Net-(BZ1-+)*%
X145796000Y-112928400D03*
D13*
%TO.P,BZ1,2,-*%
%TO.N,GND*%
X145796000Y-107928400D03*
%TD*%
D14*
%TO.P,Q3,1,B*%
%TO.N,Net-(Q3-B)*%
X154839500Y-92275900D03*
%TO.P,Q3,2,E*%
%TO.N,GND*%
X156739500Y-92275900D03*
%TO.P,Q3,3,C*%
%TO.N,Net-(D2-K)*%
X155789500Y-90400900D03*
%TD*%
D11*
%TO.P,R7,1*%
%TO.N,Net-(U3-+)*%
X156131900Y-111658400D03*
%TO.P,R7,2*%
%TO.N,SIDETONE*%
X154306900Y-111658400D03*
%TD*%
D15*
%TO.P,C5,1*%
%TO.N,COMMAND*%
X149428200Y-100153300D03*
%TO.P,C5,2*%
%TO.N,GND*%
X149428200Y-101878300D03*
%TD*%
D16*
%TO.P,J2,R1*%
%TO.N,unconnected-(J2-PadR1)*%
X171168000Y-94436000D03*
%TO.P,J2,R2*%
%TO.N,unconnected-(J2-PadR2)*%
X174168000Y-94436000D03*
%TO.P,J2,S*%
%TO.N,GND*%
X166068000Y-87936000D03*
%TO.P,J2,T*%
%TO.N,Net-(Q2-C)*%
X167168000Y-94436000D03*
%TD*%
D17*
%TO.P,R2,1*%
%TO.N,Net-(D1-A)*%
X133477000Y-105157900D03*
%TO.P,R2,2*%
%TO.N,GND*%
X133477000Y-106982900D03*
%TD*%
D18*
%TO.P,C7,1*%
%TO.N,Net-(U3-+)*%
X160452900Y-111658400D03*
%TO.P,C7,2*%
%TO.N,GND*%
X162177900Y-111658400D03*
%TD*%
D19*
%TO.P,Q4,1,B*%
%TO.N,Net-(Q4-B)*%
X161948100Y-109458800D03*
%TO.P,Q4,2,E*%
%TO.N,GND*%
X161948100Y-107558800D03*
%TO.P,Q4,3,C*%
%TO.N,Net-(D3-K)*%
X160073100Y-108508800D03*
%TD*%
D15*
%TO.P,C8,1*%
%TO.N,DAH*%
X161262400Y-100143600D03*
%TO.P,C8,2*%
%TO.N,GND*%
X161262400Y-101868600D03*
%TD*%
D20*
%TO.P,SW1,1,A*%
%TO.N,Net-(SW1-A)*%
X131739000Y-99043000D03*
D21*
%TO.P,SW1,2,B*%
%TO.N,Net-(JP1-A)*%
X134239000Y-99043000D03*
%TO.P,SW1,3,C*%
%TO.N,VDC*%
X136739000Y-99043000D03*
%TD*%
D22*
%TO.P,R6,1*%
%TO.N,VCC*%
X168405800Y-97586800D03*
%TO.P,R6,2*%
%TO.N,Net-(D2-A)*%
X170230800Y-97586800D03*
%TD*%
D23*
%TO.P,U3,1,+*%
%TO.N,Net-(U3-+)*%
X160584300Y-113248400D03*
%TO.P,U3,2,V-*%
%TO.N,GND*%
X160584300Y-114198400D03*
%TO.P,U3,3,-*%
%TO.N,Net-(BZ1-+)*%
X160584300Y-115148400D03*
%TO.P,U3,4*%
X162859300Y-115148400D03*
%TO.P,U3,5,V+*%
%TO.N,VCC*%
X162859300Y-113248400D03*
%TD*%
D13*
%TO.P,SW2,1,1*%
%TO.N,COMMAND*%
X167742800Y-111161000D03*
X174242800Y-111161000D03*
%TO.P,SW2,2,2*%
%TO.N,GND*%
X167742800Y-115661000D03*
X174242800Y-115661000D03*
%TD*%
D11*
%TO.P,R9,1*%
%TO.N,Net-(D3-A)*%
X156131900Y-106934000D03*
%TO.P,R9,2*%
%TO.N,VCC*%
X154306900Y-106934000D03*
%TD*%
D24*
%TO.P,D1,1,K*%
%TO.N,Net-(D1-K)*%
X130403600Y-108966000D03*
D25*
%TO.P,D1,2,A*%
%TO.N,Net-(D1-A)*%
X130403600Y-105156000D03*
%TD*%
D26*
%TO.P,Q2,1,B*%
%TO.N,Net-(Q2-B)*%
X147289600Y-90424000D03*
%TO.P,Q2,2,E*%
%TO.N,GND*%
X145389600Y-90424000D03*
%TO.P,Q2,3,C*%
%TO.N,Net-(Q2-C)*%
X146339600Y-92299000D03*
%TD*%
D22*
%TO.P,R8,1*%
%TO.N,SIDETONE*%
X154306900Y-110083600D03*
%TO.P,R8,2*%
%TO.N,Net-(Q4-B)*%
X156131900Y-110083600D03*
%TD*%
D27*
%TO.P,Q1,1,G*%
%TO.N,Net-(D1-A)*%
X135699500Y-105157100D03*
%TO.P,Q1,2,S*%
%TO.N,Net-(D1-K)*%
X135699500Y-107057100D03*
%TO.P,Q1,3,D*%
%TO.N,Net-(JP1-A)*%
X137574500Y-106107100D03*
%TD*%
D18*
%TO.P,C9,1*%
%TO.N,DIT*%
X161298400Y-97634400D03*
%TO.P,C9,2*%
%TO.N,GND*%
X163023400Y-97634400D03*
%TD*%
D28*
%TO.P,JP4,1,A*%
%TO.N,SIDETONE*%
X154569400Y-113741200D03*
D29*
%TO.P,JP4,2,B*%
%TO.N,Net-(BZ1-+)*%
X155869400Y-113741200D03*
%TD*%
D11*
%TO.P,R4,1*%
%TO.N,KEY*%
X152728000Y-92303600D03*
%TO.P,R4,2*%
%TO.N,Net-(Q2-B)*%
X150903000Y-92303600D03*
%TD*%
D30*
%TO.P,J4,1,Pin_1*%
%TO.N,GND*%
X145593000Y-97536000D03*
D31*
X145593000Y-97536000D03*
%TD*%
D22*
%TO.P,R3,1*%
%TO.N,VCC*%
X154308800Y-105359200D03*
%TO.P,R3,2*%
%TO.N,Net-(U1-~{RESET}{slash}PB5)*%
X156133800Y-105359200D03*
%TD*%
D32*
%TO.P,J1,1,Pin_1*%
%TO.N,VDC*%
X134259000Y-91423000D03*
D33*
%TO.P,J1,2,Pin_2*%
%TO.N,GND*%
X136759000Y-91423000D03*
%TD*%
D22*
%TO.P,R5,1*%
%TO.N,KEY*%
X150877900Y-90424000D03*
%TO.P,R5,2*%
%TO.N,Net-(Q3-B)*%
X152702900Y-90424000D03*
%TD*%
D34*
%TO.P,U1,1,~{RESET}/PB5*%
%TO.N,Net-(U1-~{RESET}{slash}PB5)*%
X159021000Y-102688400D03*
D35*
%TO.P,U1,2,XTAL1/PB3*%
%TO.N,DAH*%
X159021000Y-100148400D03*
%TO.P,U1,3,XTAL2/PB4*%
%TO.N,DIT*%
X159021000Y-97608400D03*
%TO.P,U1,4,GND*%
%TO.N,GND*%
X159021000Y-95068400D03*
%TO.P,U1,5,AREF/PB0*%
%TO.N,KEY*%
X151401000Y-95068400D03*
%TO.P,U1,6,PB1*%
%TO.N,SIDETONE*%
X151401000Y-97608400D03*
%TO.P,U1,7,PB2*%
%TO.N,COMMAND*%
X151401000Y-100148400D03*
%TO.P,U1,8,VCC*%
%TO.N,VCC*%
X151401000Y-102688400D03*
%TD*%
D34*
%TO.P,C2,1*%
%TO.N,Net-(D1-K)*%
X130403600Y-113040088D03*
D36*
%TO.P,C2,2*%
%TO.N,GND*%
X130403600Y-115040088D03*
%TD*%
D37*
%TO.P,JP2,1,A*%
%TO.N,Net-(JP1-A)*%
X137175000Y-109474000D03*
D38*
%TO.P,JP2,2,B*%
%TO.N,Net-(D1-K)*%
X135875000Y-109474000D03*
%TD*%
D16*
%TO.P,J3,R1*%
%TO.N,DAH*%
X171168000Y-107136000D03*
%TO.P,J3,R2*%
%TO.N,unconnected-(J3-PadR2)*%
X174168000Y-107136000D03*
%TO.P,J3,S*%
%TO.N,GND*%
X166068000Y-100636000D03*
%TO.P,J3,T*%
%TO.N,DIT*%
X167168000Y-107136000D03*
%TD*%
D39*
%TO.P,D2,1,K*%
%TO.N,Net-(D2-K)*%
X174509400Y-97586800D03*
%TO.P,D2,2,A*%
%TO.N,Net-(D2-A)*%
X172759400Y-97586800D03*
%TD*%
D18*
%TO.P,C6,1*%
%TO.N,Net-(Q2-C)*%
X159868700Y-89306400D03*
%TO.P,C6,2*%
%TO.N,GND*%
X161593700Y-89306400D03*
%TD*%
D40*
%TO.P,D3,1,K*%
%TO.N,Net-(D3-K)*%
X154344400Y-108508800D03*
%TO.P,D3,2,A*%
%TO.N,Net-(D3-A)*%
X156094400Y-108508800D03*
%TD*%
D41*
%TO.N,GND*%
X158216600Y-108178600D03*
X157022800Y-99034600D03*
X153949400Y-96520000D03*
X160451800Y-98882200D03*
X162179000Y-110794800D03*
X154584400Y-90424000D03*
X152882600Y-106172000D03*
X159105600Y-110871000D03*
X149402800Y-91135200D03*
X165709600Y-106883200D03*
%TD*%
D42*
%TO.N,Net-(BZ1-+)*%
X156131900Y-115824000D02*
X155115900Y-114808000D01*
X155115900Y-114808000D02*
X147675600Y-114808000D01*
X147675600Y-114808000D02*
X145796000Y-112928400D01*
X156131900Y-115824000D02*
X156131900Y-114003700D01*
X156131900Y-114003700D02*
X155869400Y-113741200D01*
%TO.N,VCC*%
X154306900Y-105361100D02*
X154308800Y-105359200D01*
X154308800Y-105359200D02*
X154071800Y-105359200D01*
X161570848Y-108559600D02*
X159157848Y-106146600D01*
X157784800Y-93878400D02*
X155549600Y-96113600D01*
X154306900Y-106934000D02*
X154306900Y-105361100D01*
X167017729Y-97586800D02*
X163309329Y-93878400D01*
X162712400Y-108559600D02*
X161570848Y-108559600D01*
X164134800Y-109982000D02*
X162712400Y-108559600D01*
X153699200Y-102688400D02*
X151401000Y-102688400D01*
X151761200Y-102688400D02*
X151401000Y-102688400D01*
X154435800Y-105359200D02*
X154432000Y-105359200D01*
X162859300Y-113248400D02*
X164134800Y-111972900D01*
X168405800Y-97586800D02*
X167017729Y-97586800D01*
X154071800Y-105359200D02*
X151401000Y-102688400D01*
X154433900Y-105361100D02*
X154435800Y-105359200D01*
X155096200Y-106146600D02*
X154308800Y-105359200D01*
X159157848Y-106146600D02*
X155096200Y-106146600D01*
D43*
X151536400Y-102823800D02*
X151401000Y-102688400D01*
D42*
X163309329Y-93878400D02*
X157784800Y-93878400D01*
X154433600Y-105361400D02*
X154435800Y-105359200D01*
X155549600Y-96113600D02*
X155549600Y-100838000D01*
X164134800Y-111972900D02*
X164134800Y-109982000D01*
X155549600Y-100838000D02*
X153699200Y-102688400D01*
%TO.N,DIT*%
X159021000Y-97608400D02*
X161272400Y-97608400D01*
X167166800Y-107137200D02*
X167168000Y-107136000D01*
X161272400Y-97608400D02*
X161298400Y-97634400D01*
X167168000Y-107136000D02*
X165168000Y-105136000D01*
X165168000Y-105136000D02*
X165168000Y-101504000D01*
X165168000Y-101504000D02*
X161298400Y-97634400D01*
%TO.N,DAH*%
X161257600Y-100148400D02*
X161262400Y-100143600D01*
X159021000Y-100148400D02*
X161257600Y-100148400D01*
X163241914Y-100143600D02*
X161262400Y-100143600D01*
X169618000Y-108686000D02*
X166344000Y-108686000D01*
X171168000Y-107136000D02*
X169618000Y-108686000D01*
X164768000Y-101669686D02*
X163241914Y-100143600D01*
X166344000Y-108686000D02*
X164768000Y-107110000D01*
X164768000Y-107110000D02*
X164768000Y-101669686D01*
D43*
%TO.N,Net-(JP1-A)*%
X137175000Y-109474000D02*
X137175000Y-106506600D01*
X137175000Y-106506600D02*
X137574500Y-106107100D01*
X134239000Y-99043000D02*
X137574500Y-102378500D01*
X137574500Y-102378500D02*
X137574500Y-106107100D01*
D42*
%TO.N,Net-(D1-A)*%
X133475100Y-105156000D02*
X133477000Y-105157900D01*
D43*
X130405500Y-105157900D02*
X130403600Y-105156000D01*
X133477000Y-105157900D02*
X130405500Y-105157900D01*
X133477000Y-105157900D02*
X135698700Y-105157900D01*
X135698700Y-105157900D02*
X135699500Y-105157100D01*
D42*
%TO.N,COMMAND*%
X151401000Y-100148400D02*
X149433100Y-100148400D01*
X167742800Y-111161000D02*
X174242800Y-111161000D01*
X149433100Y-100148400D02*
X149428200Y-100153300D01*
%TO.N,Net-(D2-K)*%
X166719814Y-96723200D02*
X173645800Y-96723200D01*
X173645800Y-96723200D02*
X174509400Y-97586800D01*
X160397514Y-90400900D02*
X166719814Y-96723200D01*
X155789500Y-90400900D02*
X160397514Y-90400900D01*
%TO.N,Net-(Q2-B)*%
X150917000Y-92289600D02*
X150903000Y-92303600D01*
X149169200Y-92303600D02*
X147289600Y-90424000D01*
X150903000Y-92303600D02*
X149169200Y-92303600D01*
%TO.N,Net-(U1-~{RESET}{slash}PB5)*%
X156133800Y-105359200D02*
X156350200Y-105359200D01*
X156265400Y-105254400D02*
X156455000Y-105254400D01*
X156350200Y-105359200D02*
X159021000Y-102688400D01*
X158931600Y-102688400D02*
X159021000Y-102688400D01*
%TO.N,KEY*%
X151401000Y-93630600D02*
X152728000Y-92303600D01*
X152728000Y-92303600D02*
X152728000Y-92274100D01*
X151401000Y-95068400D02*
X151401000Y-93630600D01*
X152728000Y-92274100D02*
X150877900Y-90424000D01*
%TO.N,SIDETONE*%
X154696400Y-111920900D02*
X154433900Y-111658400D01*
X154306900Y-110083600D02*
X154306900Y-109956600D01*
X150668878Y-97608400D02*
X151401000Y-97608400D01*
X154569400Y-111920900D02*
X154306900Y-111658400D01*
X154569400Y-113741200D02*
X154569400Y-111920900D01*
X154306900Y-109956600D02*
X147574000Y-103223700D01*
X150470348Y-97608400D02*
X151401000Y-97608400D01*
X147574000Y-103223700D02*
X147574000Y-100703278D01*
X147574000Y-100703278D02*
X150668878Y-97608400D01*
X154306900Y-110083600D02*
X154306900Y-111658400D01*
%TO.N,Net-(D2-A)*%
X172759400Y-97586800D02*
X170230800Y-97586800D01*
D43*
%TO.N,Net-(D1-K)*%
X135875000Y-107232600D02*
X135699500Y-107057100D01*
X130911600Y-109474000D02*
X130403600Y-108966000D01*
X135875000Y-109474000D02*
X130911600Y-109474000D01*
X135875000Y-109474000D02*
X135875000Y-107232600D01*
D42*
%TO.N,Net-(Q3-B)*%
X152987600Y-90424000D02*
X154839500Y-92275900D01*
X152702900Y-90424000D02*
X152987600Y-90424000D01*
%TO.N,Net-(D3-K)*%
X155119400Y-109283800D02*
X154344400Y-108508800D01*
X160073100Y-108508800D02*
X159298100Y-109283800D01*
X159298100Y-109283800D02*
X155119400Y-109283800D01*
%TO.N,Net-(D3-A)*%
X156258900Y-108471300D02*
X156221400Y-108508800D01*
X156258900Y-108801500D02*
X156221400Y-108839000D01*
X156131900Y-108471300D02*
X156094400Y-108508800D01*
X156131900Y-106934000D02*
X156131900Y-108471300D01*
%TO.N,Net-(Q4-B)*%
X161323300Y-110083600D02*
X156131900Y-110083600D01*
X161948100Y-109458800D02*
X161323300Y-110083600D01*
%TO.N,Net-(Q2-C)*%
X146339600Y-89995948D02*
X146339600Y-92299000D01*
X147029148Y-89306400D02*
X146339600Y-89995948D01*
X167168000Y-94436000D02*
X164998300Y-94436000D01*
X159868700Y-89306400D02*
X147029148Y-89306400D01*
X164998300Y-94436000D02*
X159868700Y-89306400D01*
%TO.N,Net-(BZ1-+)*%
X160584300Y-115148400D02*
X157276600Y-115148400D01*
X162859300Y-115148400D02*
X160584300Y-115148400D01*
X157276600Y-115148400D02*
X155869400Y-113741200D01*
%TO.N,Net-(U3-+)*%
X160452900Y-111658400D02*
X156131900Y-111658400D01*
X160584300Y-113248400D02*
X160584300Y-111789800D01*
X160584300Y-111789800D02*
X160452900Y-111658400D01*
%TD*%
%TA.AperFunction,Conductor*%
%TO.N,GND*%
G36*
X163253529Y-109950995D02*
G01*
X163263544Y-109959979D01*
X163497981Y-110194416D01*
X163531466Y-110255739D01*
X163534300Y-110282097D01*
X163534300Y-111672802D01*
X163514615Y-111739841D01*
X163497981Y-111760483D01*
X163370413Y-111888051D01*
X163309090Y-111921536D01*
X163239398Y-111916552D01*
X163226714Y-111908400D01*
X162051900Y-111908400D01*
X161984861Y-111888715D01*
X161939106Y-111835911D01*
X161927900Y-111784400D01*
X161927900Y-111408400D01*
X162427900Y-111408400D01*
X163215399Y-111408400D01*
X163215399Y-111371760D01*
X163215398Y-111371745D01*
X163205080Y-111270747D01*
X163150853Y-111107099D01*
X163150848Y-111107088D01*
X163060347Y-110960365D01*
X163060344Y-110960361D01*
X162938438Y-110838455D01*
X162938434Y-110838452D01*
X162791711Y-110747951D01*
X162791700Y-110747946D01*
X162628052Y-110693719D01*
X162527054Y-110683400D01*
X162427900Y-110683400D01*
X162427900Y-111408400D01*
X161927900Y-111408400D01*
X161927900Y-110683399D01*
X161872098Y-110683400D01*
X161805059Y-110663716D01*
X161759303Y-110610913D01*
X161749359Y-110541754D01*
X161778383Y-110478198D01*
X161784390Y-110471745D01*
X161803820Y-110452316D01*
X161803821Y-110452313D01*
X161960517Y-110295617D01*
X162021840Y-110262134D01*
X162048197Y-110259300D01*
X162601286Y-110259300D01*
X162601294Y-110259300D01*
X162638169Y-110256398D01*
X162638171Y-110256397D01*
X162638173Y-110256397D01*
X162679791Y-110244305D01*
X162795998Y-110210544D01*
X162937465Y-110126881D01*
X163053681Y-110010665D01*
X163069131Y-109984539D01*
X163120197Y-109936857D01*
X163188939Y-109924351D01*
X163253529Y-109950995D01*
G37*
%TD.AperFunction*%
%TA.AperFunction,Conductor*%
G36*
X159613687Y-110703785D02*
G01*
X159659442Y-110756589D01*
X159669386Y-110825747D01*
X159640361Y-110889303D01*
X159634329Y-110895781D01*
X159570060Y-110960049D01*
X159570059Y-110960050D01*
X159546038Y-110998996D01*
X159494090Y-111045721D01*
X159440499Y-111057900D01*
X157094301Y-111057900D01*
X157027262Y-111038215D01*
X156988762Y-110998996D01*
X156964740Y-110960050D01*
X156963371Y-110958681D01*
X156962731Y-110957510D01*
X156960262Y-110954387D01*
X156960795Y-110953964D01*
X156929886Y-110897358D01*
X156934870Y-110827666D01*
X156960493Y-110787796D01*
X156960262Y-110787613D01*
X156962127Y-110785253D01*
X156963371Y-110783319D01*
X156964740Y-110781950D01*
X156988762Y-110743004D01*
X157040710Y-110696279D01*
X157094301Y-110684100D01*
X159546648Y-110684100D01*
X159613687Y-110703785D01*
G37*
%TD.AperFunction*%
%TA.AperFunction,Conductor*%
G36*
X158924790Y-106766785D02*
G01*
X158945432Y-106783419D01*
X159658632Y-107496619D01*
X159692117Y-107557942D01*
X159687133Y-107627634D01*
X159645261Y-107683567D01*
X159579797Y-107707984D01*
X159570951Y-107708300D01*
X159419898Y-107708300D01*
X159383032Y-107711201D01*
X159383026Y-107711202D01*
X159225206Y-107757054D01*
X159225203Y-107757055D01*
X159083737Y-107840717D01*
X159083729Y-107840723D01*
X158967523Y-107956929D01*
X158967517Y-107956937D01*
X158883855Y-108098403D01*
X158883854Y-108098406D01*
X158838002Y-108256226D01*
X158838001Y-108256232D01*
X158835100Y-108293098D01*
X158835100Y-108559300D01*
X158815415Y-108626339D01*
X158762611Y-108672094D01*
X158711100Y-108683300D01*
X157243900Y-108683300D01*
X157176861Y-108663615D01*
X157131106Y-108610811D01*
X157119900Y-108559300D01*
X157119899Y-108222131D01*
X157119898Y-108222112D01*
X157109574Y-108121047D01*
X157097795Y-108085500D01*
X157055308Y-107957284D01*
X156964740Y-107810450D01*
X156963371Y-107809081D01*
X156962731Y-107807910D01*
X156960262Y-107804787D01*
X156960795Y-107804364D01*
X156929886Y-107747758D01*
X156934870Y-107678066D01*
X156960493Y-107638196D01*
X156960262Y-107638013D01*
X156962127Y-107635653D01*
X156963371Y-107633719D01*
X156964740Y-107632350D01*
X157055308Y-107485516D01*
X157109574Y-107321753D01*
X157119900Y-107220677D01*
X157119899Y-106871099D01*
X157139583Y-106804061D01*
X157192387Y-106758306D01*
X157243899Y-106747100D01*
X158857751Y-106747100D01*
X158924790Y-106766785D01*
G37*
%TD.AperFunction*%
%TA.AperFunction,Conductor*%
G36*
X148477101Y-100751923D02*
G01*
X148533035Y-100793794D01*
X148539306Y-100803008D01*
X148607857Y-100914146D01*
X148607860Y-100914150D01*
X148622182Y-100928472D01*
X148655667Y-100989795D01*
X148650683Y-101059487D01*
X148622185Y-101103832D01*
X148608252Y-101117765D01*
X148517751Y-101264488D01*
X148517746Y-101264499D01*
X148463519Y-101428147D01*
X148453200Y-101529145D01*
X148453200Y-101628300D01*
X149554200Y-101628300D01*
X149621239Y-101647985D01*
X149666994Y-101700789D01*
X149678200Y-101752300D01*
X149678200Y-102915799D01*
X149714840Y-102915799D01*
X149714854Y-102915798D01*
X149815852Y-102905480D01*
X149963813Y-102856451D01*
X150033641Y-102854049D01*
X150093683Y-102889781D01*
X150122592Y-102942064D01*
X150174258Y-103134888D01*
X150174261Y-103134897D01*
X150270431Y-103341132D01*
X150270432Y-103341134D01*
X150400954Y-103527541D01*
X150561858Y-103688445D01*
X150561861Y-103688447D01*
X150748266Y-103818968D01*
X150954504Y-103915139D01*
X151174308Y-103974035D01*
X151336230Y-103988201D01*
X151400998Y-103993868D01*
X151401000Y-103993868D01*
X151401002Y-103993868D01*
X151457807Y-103988898D01*
X151627692Y-103974035D01*
X151723932Y-103948247D01*
X151793781Y-103949910D01*
X151843706Y-103980341D01*
X153284481Y-105421117D01*
X153317966Y-105482440D01*
X153320800Y-105508797D01*
X153320800Y-105645868D01*
X153320801Y-105645887D01*
X153331125Y-105746952D01*
X153361339Y-105838129D01*
X153385392Y-105910716D01*
X153467930Y-106044532D01*
X153475961Y-106057551D01*
X153476379Y-106057969D01*
X153476574Y-106058327D01*
X153480438Y-106063213D01*
X153479602Y-106063873D01*
X153509864Y-106119292D01*
X153504880Y-106188984D01*
X153478531Y-106229981D01*
X153478538Y-106229987D01*
X153478485Y-106230053D01*
X153476379Y-106233331D01*
X153474061Y-106235648D01*
X153383493Y-106382481D01*
X153383491Y-106382486D01*
X153371359Y-106419099D01*
X153329226Y-106546247D01*
X153329226Y-106546248D01*
X153329225Y-106546248D01*
X153318900Y-106647315D01*
X153318900Y-107220669D01*
X153318901Y-107220687D01*
X153329225Y-107321752D01*
X153352472Y-107391904D01*
X153377521Y-107467498D01*
X153383492Y-107485515D01*
X153383493Y-107485518D01*
X153397639Y-107508452D01*
X153471151Y-107627634D01*
X153474061Y-107632351D01*
X153475429Y-107633719D01*
X153476068Y-107634889D01*
X153478538Y-107638013D01*
X153478004Y-107638435D01*
X153508914Y-107695042D01*
X153503930Y-107764734D01*
X153478306Y-107804603D01*
X153478538Y-107804787D01*
X153476672Y-107807146D01*
X153475429Y-107809081D01*
X153474061Y-107810448D01*
X153469320Y-107818135D01*
X153383707Y-107956937D01*
X153379701Y-107963431D01*
X153377095Y-107961823D01*
X153339890Y-108003928D01*
X153272663Y-108022962D01*
X153205817Y-108002629D01*
X153186184Y-107986649D01*
X148210819Y-103011284D01*
X148177334Y-102949961D01*
X148174500Y-102923603D01*
X148174500Y-102227454D01*
X148453201Y-102227454D01*
X148463519Y-102328452D01*
X148517746Y-102492100D01*
X148517751Y-102492111D01*
X148608252Y-102638834D01*
X148608255Y-102638838D01*
X148730161Y-102760744D01*
X148730165Y-102760747D01*
X148876888Y-102851248D01*
X148876899Y-102851253D01*
X149040547Y-102905480D01*
X149141552Y-102915799D01*
X149178200Y-102915799D01*
X149178200Y-102128300D01*
X148453201Y-102128300D01*
X148453201Y-102227454D01*
X148174500Y-102227454D01*
X148174500Y-101003374D01*
X148194185Y-100936335D01*
X148210810Y-100915702D01*
X148346091Y-100780421D01*
X148407409Y-100746939D01*
X148477101Y-100751923D01*
G37*
%TD.AperFunction*%
%TA.AperFunction,Conductor*%
G36*
X165573703Y-106391384D02*
G01*
X165580181Y-106397416D01*
X166031181Y-106848416D01*
X166064666Y-106909739D01*
X166067500Y-106936097D01*
X166067500Y-107260902D01*
X166047815Y-107327941D01*
X165995011Y-107373696D01*
X165925853Y-107383640D01*
X165862297Y-107354615D01*
X165855819Y-107348583D01*
X165404819Y-106897583D01*
X165371334Y-106836260D01*
X165368500Y-106809902D01*
X165368500Y-106485097D01*
X165388185Y-106418058D01*
X165440989Y-106372303D01*
X165510147Y-106362359D01*
X165573703Y-106391384D01*
G37*
%TD.AperFunction*%
%TA.AperFunction,Conductor*%
G36*
X158700920Y-94822794D02*
G01*
X158648259Y-94914006D01*
X158621000Y-95015739D01*
X158621000Y-95121061D01*
X158648259Y-95222794D01*
X158700920Y-95314006D01*
X158705314Y-95318400D01*
X157742128Y-95318400D01*
X157794730Y-95514717D01*
X157794734Y-95514726D01*
X157890865Y-95720882D01*
X158021342Y-95907220D01*
X158182179Y-96068057D01*
X158368518Y-96198534D01*
X158368520Y-96198535D01*
X158426865Y-96225742D01*
X158479305Y-96271914D01*
X158498457Y-96339107D01*
X158478242Y-96405989D01*
X158426867Y-96450505D01*
X158368268Y-96477831D01*
X158368264Y-96477833D01*
X158181858Y-96608354D01*
X158020954Y-96769258D01*
X157890432Y-96955665D01*
X157890431Y-96955667D01*
X157794261Y-97161902D01*
X157794258Y-97161911D01*
X157735366Y-97381702D01*
X157735364Y-97381713D01*
X157715532Y-97608398D01*
X157715532Y-97608401D01*
X157735364Y-97835086D01*
X157735366Y-97835097D01*
X157794258Y-98054888D01*
X157794261Y-98054897D01*
X157890431Y-98261132D01*
X157890432Y-98261134D01*
X158020954Y-98447541D01*
X158181858Y-98608445D01*
X158213353Y-98630498D01*
X158368266Y-98738968D01*
X158405675Y-98756412D01*
X158426275Y-98766018D01*
X158478714Y-98812191D01*
X158497866Y-98879384D01*
X158477650Y-98946265D01*
X158426275Y-98990782D01*
X158368267Y-99017831D01*
X158368265Y-99017832D01*
X158181858Y-99148354D01*
X158020954Y-99309258D01*
X157890432Y-99495665D01*
X157890431Y-99495667D01*
X157794261Y-99701902D01*
X157794258Y-99701911D01*
X157735366Y-99921702D01*
X157735364Y-99921713D01*
X157715532Y-100148398D01*
X157715532Y-100148401D01*
X157735364Y-100375086D01*
X157735366Y-100375097D01*
X157794258Y-100594888D01*
X157794261Y-100594897D01*
X157890431Y-100801132D01*
X157890432Y-100801134D01*
X158020954Y-100987541D01*
X158181858Y-101148445D01*
X158206462Y-101165673D01*
X158250087Y-101220249D01*
X158257281Y-101289748D01*
X158225758Y-101352103D01*
X158165529Y-101387517D01*
X158148593Y-101390538D01*
X158113516Y-101394308D01*
X157978671Y-101444602D01*
X157978664Y-101444606D01*
X157863455Y-101530852D01*
X157863452Y-101530855D01*
X157777206Y-101646064D01*
X157777202Y-101646071D01*
X157726908Y-101780917D01*
X157720501Y-101840516D01*
X157720500Y-101840535D01*
X157720500Y-103088301D01*
X157700815Y-103155340D01*
X157684181Y-103175982D01*
X156512781Y-104347381D01*
X156451458Y-104380866D01*
X156425100Y-104383700D01*
X155834630Y-104383700D01*
X155834612Y-104383701D01*
X155733547Y-104394025D01*
X155569784Y-104448292D01*
X155569781Y-104448293D01*
X155422948Y-104538861D01*
X155308981Y-104652829D01*
X155247658Y-104686314D01*
X155177966Y-104681330D01*
X155133619Y-104652829D01*
X155019651Y-104538861D01*
X155019650Y-104538860D01*
X154872816Y-104448292D01*
X154709053Y-104394026D01*
X154709051Y-104394025D01*
X154607978Y-104383700D01*
X154009631Y-104383700D01*
X154006470Y-104383862D01*
X154006425Y-104382980D01*
X153941362Y-104370862D01*
X153909811Y-104347975D01*
X153491554Y-103929718D01*
X153062415Y-103500580D01*
X153028931Y-103439258D01*
X153033915Y-103369567D01*
X153075787Y-103313633D01*
X153141251Y-103289216D01*
X153150097Y-103288900D01*
X153612531Y-103288900D01*
X153612547Y-103288901D01*
X153620143Y-103288901D01*
X153778254Y-103288901D01*
X153778257Y-103288901D01*
X153930985Y-103247977D01*
X153981104Y-103219039D01*
X154067916Y-103168920D01*
X154179720Y-103057116D01*
X154179720Y-103057114D01*
X154189928Y-103046907D01*
X154189929Y-103046904D01*
X156030120Y-101206716D01*
X156109177Y-101069784D01*
X156150101Y-100917057D01*
X156150101Y-100758942D01*
X156150101Y-100751347D01*
X156150100Y-100751329D01*
X156150100Y-96413696D01*
X156169785Y-96346657D01*
X156186414Y-96326020D01*
X157657717Y-94854717D01*
X157719038Y-94821234D01*
X157745396Y-94818400D01*
X158705314Y-94818400D01*
X158700920Y-94822794D01*
G37*
%TD.AperFunction*%
%TA.AperFunction,Conductor*%
G36*
X160164456Y-91021085D02*
G01*
X160185098Y-91037719D01*
X162213598Y-93066219D01*
X162247083Y-93127542D01*
X162242099Y-93197234D01*
X162200227Y-93253167D01*
X162134763Y-93277584D01*
X162125917Y-93277900D01*
X157705743Y-93277900D01*
X157634822Y-93296903D01*
X157564972Y-93295240D01*
X157507110Y-93256077D01*
X157479606Y-93191848D01*
X157488932Y-93127872D01*
X157490783Y-93123593D01*
X157536599Y-92965895D01*
X157536600Y-92965889D01*
X157539499Y-92929049D01*
X157539500Y-92929034D01*
X157539500Y-92525900D01*
X156989500Y-92525900D01*
X156989500Y-93510695D01*
X156994993Y-93510263D01*
X157063370Y-93524628D01*
X157113126Y-93573680D01*
X157128464Y-93641845D01*
X157104514Y-93707482D01*
X157092401Y-93721562D01*
X156118305Y-94695659D01*
X155180886Y-95633078D01*
X155180884Y-95633080D01*
X155130508Y-95683456D01*
X155069081Y-95744882D01*
X155069080Y-95744884D01*
X155055813Y-95767864D01*
X154990023Y-95881815D01*
X154949099Y-96034543D01*
X154949099Y-96034545D01*
X154949099Y-96202646D01*
X154949100Y-96202659D01*
X154949100Y-100537902D01*
X154929415Y-100604941D01*
X154912781Y-100625583D01*
X153486784Y-102051581D01*
X153425461Y-102085066D01*
X153399103Y-102087900D01*
X152632692Y-102087900D01*
X152565653Y-102068215D01*
X152531119Y-102035025D01*
X152401047Y-101849261D01*
X152401045Y-101849258D01*
X152240141Y-101688354D01*
X152053734Y-101557832D01*
X152053728Y-101557829D01*
X151995882Y-101530855D01*
X151995724Y-101530781D01*
X151943285Y-101484610D01*
X151924133Y-101417417D01*
X151944348Y-101350535D01*
X151995725Y-101306018D01*
X152053734Y-101278968D01*
X152240139Y-101148447D01*
X152401047Y-100987539D01*
X152531568Y-100801134D01*
X152627739Y-100594896D01*
X152686635Y-100375092D01*
X152706468Y-100148400D01*
X152686635Y-99921708D01*
X152627739Y-99701904D01*
X152531568Y-99495666D01*
X152401047Y-99309261D01*
X152401045Y-99309258D01*
X152240141Y-99148354D01*
X152053734Y-99017832D01*
X152053728Y-99017829D01*
X151995725Y-98990782D01*
X151943285Y-98944610D01*
X151924133Y-98877417D01*
X151944348Y-98810535D01*
X151995725Y-98766018D01*
X152016325Y-98756412D01*
X152053734Y-98738968D01*
X152240139Y-98608447D01*
X152401047Y-98447539D01*
X152531568Y-98261134D01*
X152627739Y-98054896D01*
X152686635Y-97835092D01*
X152706468Y-97608400D01*
X152703808Y-97578001D01*
X152689117Y-97410077D01*
X152686635Y-97381708D01*
X152637691Y-97199047D01*
X152627741Y-97161911D01*
X152627738Y-97161902D01*
X152590891Y-97082884D01*
X152531568Y-96955666D01*
X152401047Y-96769261D01*
X152401045Y-96769258D01*
X152240141Y-96608354D01*
X152053734Y-96477832D01*
X152053728Y-96477829D01*
X151995725Y-96450782D01*
X151943285Y-96404610D01*
X151924133Y-96337417D01*
X151944348Y-96270535D01*
X151995725Y-96226018D01*
X151996319Y-96225741D01*
X152053734Y-96198968D01*
X152240139Y-96068447D01*
X152401047Y-95907539D01*
X152531568Y-95721134D01*
X152627739Y-95514896D01*
X152686635Y-95295092D01*
X152706468Y-95068400D01*
X152686635Y-94841708D01*
X152627739Y-94621904D01*
X152531568Y-94415666D01*
X152401047Y-94229261D01*
X152401045Y-94229258D01*
X152240141Y-94068354D01*
X152109658Y-93976990D01*
X152066033Y-93922414D01*
X152058839Y-93852915D01*
X152090361Y-93790560D01*
X152093073Y-93787761D01*
X152565416Y-93315417D01*
X152626739Y-93281933D01*
X152653097Y-93279099D01*
X153027170Y-93279099D01*
X153027176Y-93279099D01*
X153128253Y-93268774D01*
X153292016Y-93214508D01*
X153438850Y-93123940D01*
X153560840Y-93001950D01*
X153651408Y-92855116D01*
X153705674Y-92691353D01*
X153716000Y-92590277D01*
X153715999Y-92300994D01*
X153735683Y-92233957D01*
X153788487Y-92188202D01*
X153857646Y-92178258D01*
X153921201Y-92207283D01*
X153927680Y-92213315D01*
X154002681Y-92288316D01*
X154036166Y-92349639D01*
X154039000Y-92375997D01*
X154039000Y-92929101D01*
X154041901Y-92965967D01*
X154041902Y-92965973D01*
X154087754Y-93123793D01*
X154087755Y-93123796D01*
X154087756Y-93123798D01*
X154096224Y-93138116D01*
X154171417Y-93265262D01*
X154171423Y-93265270D01*
X154287629Y-93381476D01*
X154287633Y-93381479D01*
X154287635Y-93381481D01*
X154429102Y-93465144D01*
X154470724Y-93477236D01*
X154586926Y-93510997D01*
X154586929Y-93510997D01*
X154586931Y-93510998D01*
X154623806Y-93513900D01*
X154623814Y-93513900D01*
X155055186Y-93513900D01*
X155055194Y-93513900D01*
X155092069Y-93510998D01*
X155092071Y-93510997D01*
X155092073Y-93510997D01*
X155133691Y-93498905D01*
X155249898Y-93465144D01*
X155391365Y-93381481D01*
X155507581Y-93265265D01*
X155591244Y-93123798D01*
X155637098Y-92965969D01*
X155640000Y-92929094D01*
X155640000Y-92929049D01*
X155939500Y-92929049D01*
X155942399Y-92965889D01*
X155942400Y-92965895D01*
X155988216Y-93123593D01*
X155988217Y-93123596D01*
X156071814Y-93264952D01*
X156071821Y-93264961D01*
X156187938Y-93381078D01*
X156187947Y-93381085D01*
X156329301Y-93464681D01*
X156487014Y-93510500D01*
X156487011Y-93510500D01*
X156489498Y-93510695D01*
X156489500Y-93510695D01*
X156489500Y-92525900D01*
X155939500Y-92525900D01*
X155939500Y-92929049D01*
X155640000Y-92929049D01*
X155640000Y-91762900D01*
X155659685Y-91695861D01*
X155712489Y-91650106D01*
X155764000Y-91638900D01*
X155815500Y-91638900D01*
X155882539Y-91658585D01*
X155928294Y-91711389D01*
X155939500Y-91762900D01*
X155939500Y-92025900D01*
X157539500Y-92025900D01*
X157539500Y-91622765D01*
X157539499Y-91622750D01*
X157536600Y-91585910D01*
X157536599Y-91585904D01*
X157490783Y-91428206D01*
X157490782Y-91428203D01*
X157407185Y-91286847D01*
X157407178Y-91286838D01*
X157333421Y-91213081D01*
X157299936Y-91151758D01*
X157304920Y-91082066D01*
X157346792Y-91026133D01*
X157412256Y-91001716D01*
X157421102Y-91001400D01*
X160097417Y-91001400D01*
X160164456Y-91021085D01*
G37*
%TD.AperFunction*%
%TA.AperFunction,Conductor*%
G36*
X160337001Y-98228585D02*
G01*
X160375499Y-98267801D01*
X160415560Y-98332750D01*
X160537550Y-98454740D01*
X160684384Y-98545308D01*
X160848147Y-98599574D01*
X160949223Y-98609900D01*
X161373302Y-98609899D01*
X161440341Y-98629583D01*
X161460983Y-98646218D01*
X161716149Y-98901384D01*
X161749634Y-98962707D01*
X161744650Y-99032399D01*
X161702778Y-99088332D01*
X161637314Y-99112749D01*
X161615866Y-99112423D01*
X161549079Y-99105600D01*
X160975730Y-99105600D01*
X160975712Y-99105601D01*
X160874647Y-99115925D01*
X160710884Y-99170192D01*
X160710881Y-99170193D01*
X160564048Y-99260761D01*
X160442061Y-99382748D01*
X160442060Y-99382750D01*
X160376525Y-99488998D01*
X160324579Y-99535721D01*
X160270988Y-99547900D01*
X160252692Y-99547900D01*
X160185653Y-99528215D01*
X160151119Y-99495025D01*
X160021047Y-99309261D01*
X160021045Y-99309258D01*
X159860141Y-99148354D01*
X159673734Y-99017832D01*
X159673728Y-99017829D01*
X159615725Y-98990782D01*
X159563285Y-98944610D01*
X159544133Y-98877417D01*
X159564348Y-98810535D01*
X159615725Y-98766018D01*
X159636325Y-98756412D01*
X159673734Y-98738968D01*
X159860139Y-98608447D01*
X160021047Y-98447539D01*
X160151118Y-98261775D01*
X160205693Y-98218152D01*
X160252692Y-98208900D01*
X160269962Y-98208900D01*
X160337001Y-98228585D01*
G37*
%TD.AperFunction*%
%TA.AperFunction,Conductor*%
G36*
X149843166Y-89926585D02*
G01*
X149888921Y-89979389D01*
X149899485Y-90043503D01*
X149889900Y-90137315D01*
X149889900Y-90710669D01*
X149889901Y-90710687D01*
X149900225Y-90811752D01*
X149954492Y-90975515D01*
X149954493Y-90975518D01*
X150045061Y-91122351D01*
X150167049Y-91244339D01*
X150167054Y-91244343D01*
X150202168Y-91266001D01*
X150248894Y-91317948D01*
X150260117Y-91386910D01*
X150232274Y-91450993D01*
X150202175Y-91477075D01*
X150192155Y-91483255D01*
X150192149Y-91483260D01*
X150070159Y-91605250D01*
X150046138Y-91644196D01*
X149994190Y-91690921D01*
X149940599Y-91703100D01*
X149469297Y-91703100D01*
X149402258Y-91683415D01*
X149381616Y-91666781D01*
X148126419Y-90411584D01*
X148092934Y-90350261D01*
X148090100Y-90323903D01*
X148090100Y-90030900D01*
X148109785Y-89963861D01*
X148162589Y-89918106D01*
X148214100Y-89906900D01*
X149776127Y-89906900D01*
X149843166Y-89926585D01*
G37*
%TD.AperFunction*%
%TA.AperFunction,Conductor*%
G36*
X154932039Y-89926585D02*
G01*
X154977794Y-89979389D01*
X154989000Y-90030900D01*
X154989000Y-90913900D01*
X154969315Y-90980939D01*
X154916511Y-91026694D01*
X154865000Y-91037900D01*
X154623798Y-91037900D01*
X154586936Y-91040801D01*
X154586921Y-91040804D01*
X154554061Y-91050350D01*
X154484192Y-91050149D01*
X154431789Y-91018954D01*
X153727218Y-90314383D01*
X153693733Y-90253060D01*
X153690899Y-90226702D01*
X153690899Y-90137330D01*
X153690898Y-90137313D01*
X153681315Y-90043501D01*
X153694085Y-89974809D01*
X153741966Y-89923924D01*
X153804673Y-89906900D01*
X154865000Y-89906900D01*
X154932039Y-89926585D01*
G37*
%TD.AperFunction*%
%TA.AperFunction,Conductor*%
G36*
X164911039Y-86626185D02*
G01*
X164956794Y-86678989D01*
X164968000Y-86730500D01*
X164968000Y-87686000D01*
X167168000Y-87686000D01*
X167168000Y-86730500D01*
X167187685Y-86663461D01*
X167240489Y-86617706D01*
X167292000Y-86606500D01*
X176591108Y-86606500D01*
X176644789Y-86606500D01*
X176668980Y-86608883D01*
X176684278Y-86611926D01*
X176728933Y-86630411D01*
X176730085Y-86631180D01*
X176731555Y-86632162D01*
X176765837Y-86666444D01*
X176766462Y-86667379D01*
X176767588Y-86669066D01*
X176786072Y-86713713D01*
X176789116Y-86729018D01*
X176791500Y-86753210D01*
X176791500Y-86813002D01*
X176791501Y-86813025D01*
X176791569Y-90508252D01*
X176771886Y-90575292D01*
X176719083Y-90621047D01*
X176649924Y-90630992D01*
X176586368Y-90601968D01*
X176564466Y-90577143D01*
X176545140Y-90548219D01*
X176545136Y-90548214D01*
X176405785Y-90408863D01*
X176405781Y-90408860D01*
X176241920Y-90299371D01*
X176241907Y-90299364D01*
X176059839Y-90223950D01*
X176059829Y-90223947D01*
X175866543Y-90185500D01*
X175866541Y-90185500D01*
X175669459Y-90185500D01*
X175669457Y-90185500D01*
X175476170Y-90223947D01*
X175476160Y-90223950D01*
X175294092Y-90299364D01*
X175294079Y-90299371D01*
X175130218Y-90408860D01*
X175130214Y-90408863D01*
X174990863Y-90548214D01*
X174990860Y-90548218D01*
X174881371Y-90712079D01*
X174881364Y-90712092D01*
X174805950Y-90894160D01*
X174805947Y-90894170D01*
X174767500Y-91087456D01*
X174767500Y-91087459D01*
X174767500Y-91284541D01*
X174767500Y-91284543D01*
X174767499Y-91284543D01*
X174805947Y-91477829D01*
X174805950Y-91477839D01*
X174881364Y-91659907D01*
X174881371Y-91659920D01*
X174990860Y-91823781D01*
X174990863Y-91823785D01*
X175130214Y-91963136D01*
X175130218Y-91963139D01*
X175294079Y-92072628D01*
X175294092Y-92072635D01*
X175476160Y-92148049D01*
X175476165Y-92148051D01*
X175476169Y-92148051D01*
X175476170Y-92148052D01*
X175669456Y-92186500D01*
X175669459Y-92186500D01*
X175866543Y-92186500D01*
X175996582Y-92160632D01*
X176059835Y-92148051D01*
X176241914Y-92072632D01*
X176405782Y-91963139D01*
X176545139Y-91823782D01*
X176564491Y-91794818D01*
X176618101Y-91750013D01*
X176687426Y-91741304D01*
X176750454Y-91771457D01*
X176787175Y-91830900D01*
X176791594Y-91863706D01*
X176791805Y-103208605D01*
X176772122Y-103275645D01*
X176719319Y-103321400D01*
X176650160Y-103331345D01*
X176586604Y-103302321D01*
X176564702Y-103277496D01*
X176545140Y-103248219D01*
X176545136Y-103248214D01*
X176405785Y-103108863D01*
X176405781Y-103108860D01*
X176241920Y-102999371D01*
X176241907Y-102999364D01*
X176059839Y-102923950D01*
X176059829Y-102923947D01*
X175866543Y-102885500D01*
X175866541Y-102885500D01*
X175669459Y-102885500D01*
X175669457Y-102885500D01*
X175476170Y-102923947D01*
X175476160Y-102923950D01*
X175294092Y-102999364D01*
X175294079Y-102999371D01*
X175130218Y-103108860D01*
X175130214Y-103108863D01*
X174990863Y-103248214D01*
X174990860Y-103248218D01*
X174881371Y-103412079D01*
X174881364Y-103412092D01*
X174805950Y-103594160D01*
X174805947Y-103594170D01*
X174767500Y-103787456D01*
X174767500Y-103787459D01*
X174767500Y-103984541D01*
X174767500Y-103984543D01*
X174767499Y-103984543D01*
X174805947Y-104177829D01*
X174805950Y-104177839D01*
X174881364Y-104359907D01*
X174881371Y-104359920D01*
X174990860Y-104523781D01*
X174990863Y-104523785D01*
X175130214Y-104663136D01*
X175130218Y-104663139D01*
X175294079Y-104772628D01*
X175294092Y-104772635D01*
X175446837Y-104835903D01*
X175476165Y-104848051D01*
X175476169Y-104848051D01*
X175476170Y-104848052D01*
X175669456Y-104886500D01*
X175669459Y-104886500D01*
X175866543Y-104886500D01*
X175996582Y-104860632D01*
X176059835Y-104848051D01*
X176241914Y-104772632D01*
X176405782Y-104663139D01*
X176545139Y-104523782D01*
X176564728Y-104494463D01*
X176618338Y-104449660D01*
X176687663Y-104440951D01*
X176750691Y-104471105D01*
X176787411Y-104530547D01*
X176791830Y-104563353D01*
X176792064Y-117149560D01*
X176792063Y-117149582D01*
X176792066Y-117209382D01*
X176789684Y-117233575D01*
X176786644Y-117248861D01*
X176768133Y-117293557D01*
X176766390Y-117296166D01*
X176732166Y-117330390D01*
X176729557Y-117332133D01*
X176684861Y-117350644D01*
X176669575Y-117353684D01*
X176645382Y-117356066D01*
X176624016Y-117356064D01*
X176591701Y-117356063D01*
X176591699Y-117356063D01*
X176583648Y-117356063D01*
X176583586Y-117356067D01*
X174667987Y-117356067D01*
X174600948Y-117336382D01*
X174555193Y-117283578D01*
X174545249Y-117214420D01*
X174574274Y-117150864D01*
X174627724Y-117114786D01*
X174847403Y-117039369D01*
X174847414Y-117039364D01*
X175066028Y-116921057D01*
X175066031Y-116921055D01*
X175112856Y-116884609D01*
X174413034Y-116184787D01*
X174455092Y-116173518D01*
X174580508Y-116101110D01*
X174682910Y-115998708D01*
X174755318Y-115873292D01*
X174766587Y-115831234D01*
X175466234Y-116530882D01*
X175566531Y-116377369D01*
X175666387Y-116149717D01*
X175727412Y-115908738D01*
X175727414Y-115908729D01*
X175747941Y-115661005D01*
X175747941Y-115660994D01*
X175727414Y-115413270D01*
X175727412Y-115413261D01*
X175666387Y-115172282D01*
X175566531Y-114944630D01*
X175466234Y-114791116D01*
X174766587Y-115490764D01*
X174755318Y-115448708D01*
X174682910Y-115323292D01*
X174580508Y-115220890D01*
X174455092Y-115148482D01*
X174413035Y-115137212D01*
X175112857Y-114437390D01*
X175112856Y-114437389D01*
X175066029Y-114400943D01*
X174847414Y-114282635D01*
X174847403Y-114282630D01*
X174612293Y-114201916D01*
X174367093Y-114161000D01*
X174118507Y-114161000D01*
X173873306Y-114201916D01*
X173638196Y-114282630D01*
X173638190Y-114282632D01*
X173419561Y-114400949D01*
X173372742Y-114437388D01*
X173372742Y-114437390D01*
X174072565Y-115137212D01*
X174030508Y-115148482D01*
X173905092Y-115220890D01*
X173802690Y-115323292D01*
X173730282Y-115448708D01*
X173719012Y-115490764D01*
X173019364Y-114791116D01*
X172919067Y-114944632D01*
X172819212Y-115172282D01*
X172758187Y-115413261D01*
X172758185Y-115413270D01*
X172737659Y-115660994D01*
X172737659Y-115661005D01*
X172758185Y-115908729D01*
X172758187Y-115908738D01*
X172819212Y-116149717D01*
X172919066Y-116377364D01*
X173019364Y-116530882D01*
X173719012Y-115831234D01*
X173730282Y-115873292D01*
X173802690Y-115998708D01*
X173905092Y-116101110D01*
X174030508Y-116173518D01*
X174072565Y-116184787D01*
X173372742Y-116884609D01*
X173419568Y-116921055D01*
X173419570Y-116921056D01*
X173638185Y-117039364D01*
X173638196Y-117039369D01*
X173857876Y-117114786D01*
X173914891Y-117155171D01*
X173941022Y-117219971D01*
X173927971Y-117288611D01*
X173879882Y-117339299D01*
X173817613Y-117356067D01*
X168167987Y-117356067D01*
X168100948Y-117336382D01*
X168055193Y-117283578D01*
X168045249Y-117214420D01*
X168074274Y-117150864D01*
X168127724Y-117114786D01*
X168347403Y-117039369D01*
X168347414Y-117039364D01*
X168566028Y-116921057D01*
X168566031Y-116921055D01*
X168612856Y-116884609D01*
X167913034Y-116184787D01*
X167955092Y-116173518D01*
X168080508Y-116101110D01*
X168182910Y-115998708D01*
X168255318Y-115873292D01*
X168266587Y-115831235D01*
X168966234Y-116530882D01*
X169066531Y-116377369D01*
X169166387Y-116149717D01*
X169227412Y-115908738D01*
X169227414Y-115908729D01*
X169247941Y-115661005D01*
X169247941Y-115660994D01*
X169227414Y-115413270D01*
X169227412Y-115413261D01*
X169166387Y-115172282D01*
X169066531Y-114944630D01*
X168966234Y-114791116D01*
X168266587Y-115490764D01*
X168255318Y-115448708D01*
X168182910Y-115323292D01*
X168080508Y-115220890D01*
X167955092Y-115148482D01*
X167913035Y-115137212D01*
X168612857Y-114437390D01*
X168612856Y-114437389D01*
X168566029Y-114400943D01*
X168347414Y-114282635D01*
X168347403Y-114282630D01*
X168112293Y-114201916D01*
X167867093Y-114161000D01*
X167618507Y-114161000D01*
X167373306Y-114201916D01*
X167138196Y-114282630D01*
X167138190Y-114282632D01*
X166919561Y-114400949D01*
X166872742Y-114437388D01*
X166872742Y-114437390D01*
X167572565Y-115137212D01*
X167530508Y-115148482D01*
X167405092Y-115220890D01*
X167302690Y-115323292D01*
X167230282Y-115448708D01*
X167219012Y-115490764D01*
X166519364Y-114791116D01*
X166419067Y-114944632D01*
X166319212Y-115172282D01*
X166258187Y-115413261D01*
X166258185Y-115413270D01*
X166237659Y-115660994D01*
X166237659Y-115661005D01*
X166258185Y-115908729D01*
X166258187Y-115908738D01*
X166319212Y-116149717D01*
X166419066Y-116377364D01*
X166519364Y-116530882D01*
X167219012Y-115831234D01*
X167230282Y-115873292D01*
X167302690Y-115998708D01*
X167405092Y-116101110D01*
X167530508Y-116173518D01*
X167572565Y-116184787D01*
X166872742Y-116884609D01*
X166919568Y-116921055D01*
X166919570Y-116921056D01*
X167138185Y-117039364D01*
X167138196Y-117039369D01*
X167357876Y-117114786D01*
X167414891Y-117155171D01*
X167441022Y-117219971D01*
X167427971Y-117288611D01*
X167379882Y-117339299D01*
X167317613Y-117356067D01*
X127200414Y-117356067D01*
X127200351Y-117356063D01*
X127192300Y-117356063D01*
X127192299Y-117356063D01*
X127159987Y-117356064D01*
X127138617Y-117356066D01*
X127114424Y-117353684D01*
X127099138Y-117350644D01*
X127054442Y-117332133D01*
X127051833Y-117330390D01*
X127017609Y-117296166D01*
X127015866Y-117293557D01*
X126997356Y-117248865D01*
X126994313Y-117233565D01*
X126991933Y-117209386D01*
X126991937Y-117155701D01*
X126991936Y-117155699D01*
X126991937Y-117146680D01*
X126991934Y-117146626D01*
X126991939Y-116884609D01*
X126991973Y-115040085D01*
X129098634Y-115040085D01*
X129098634Y-115040090D01*
X129118458Y-115266687D01*
X129118460Y-115266698D01*
X129177330Y-115486405D01*
X129177335Y-115486419D01*
X129273463Y-115692566D01*
X129324574Y-115765560D01*
X130003600Y-115086534D01*
X130003600Y-115092749D01*
X130030859Y-115194482D01*
X130083520Y-115285694D01*
X130157994Y-115360168D01*
X130249206Y-115412829D01*
X130350939Y-115440088D01*
X130357153Y-115440088D01*
X129678126Y-116119113D01*
X129751113Y-116170220D01*
X129751121Y-116170224D01*
X129957268Y-116266352D01*
X129957282Y-116266357D01*
X130176989Y-116325227D01*
X130177000Y-116325229D01*
X130403598Y-116345054D01*
X130403602Y-116345054D01*
X130630199Y-116325229D01*
X130630210Y-116325227D01*
X130849917Y-116266357D01*
X130849931Y-116266352D01*
X131056078Y-116170224D01*
X131129071Y-116119112D01*
X131120613Y-116110654D01*
X153319401Y-116110654D01*
X153329719Y-116211652D01*
X153383946Y-116375300D01*
X153383951Y-116375311D01*
X153474452Y-116522034D01*
X153474455Y-116522038D01*
X153596361Y-116643944D01*
X153596365Y-116643947D01*
X153743088Y-116734448D01*
X153743099Y-116734453D01*
X153906747Y-116788680D01*
X154007751Y-116798999D01*
X154056899Y-116798998D01*
X154056900Y-116798998D01*
X154056900Y-116074000D01*
X153319401Y-116074000D01*
X153319401Y-116110654D01*
X131120613Y-116110654D01*
X130450047Y-115440088D01*
X130456261Y-115440088D01*
X130557994Y-115412829D01*
X130649206Y-115360168D01*
X130723680Y-115285694D01*
X130776341Y-115194482D01*
X130803600Y-115092749D01*
X130803600Y-115086535D01*
X131482624Y-115765559D01*
X131533736Y-115692566D01*
X131629864Y-115486419D01*
X131629869Y-115486405D01*
X131688739Y-115266698D01*
X131688741Y-115266687D01*
X131708566Y-115040090D01*
X131708566Y-115040085D01*
X131688741Y-114813488D01*
X131688739Y-114813477D01*
X131629869Y-114593770D01*
X131629865Y-114593761D01*
X131533734Y-114387606D01*
X131533730Y-114387600D01*
X131524788Y-114374828D01*
X131502461Y-114308622D01*
X131519473Y-114240855D01*
X131552054Y-114204439D01*
X131561146Y-114197634D01*
X131647396Y-114082419D01*
X131697691Y-113947571D01*
X131704100Y-113887961D01*
X131704099Y-112192216D01*
X131697691Y-112132605D01*
X131680228Y-112085785D01*
X131647397Y-111997759D01*
X131647393Y-111997752D01*
X131561147Y-111882543D01*
X131561144Y-111882540D01*
X131445935Y-111796294D01*
X131445928Y-111796290D01*
X131311082Y-111745996D01*
X131311083Y-111745996D01*
X131251483Y-111739589D01*
X131251481Y-111739588D01*
X131251473Y-111739588D01*
X131251464Y-111739588D01*
X129555729Y-111739588D01*
X129555723Y-111739589D01*
X129496116Y-111745996D01*
X129361271Y-111796290D01*
X129361264Y-111796294D01*
X129246055Y-111882540D01*
X129246052Y-111882543D01*
X129159806Y-111997752D01*
X129159802Y-111997759D01*
X129109508Y-112132605D01*
X129103101Y-112192204D01*
X129103101Y-112192211D01*
X129103100Y-112192223D01*
X129103100Y-113887958D01*
X129103101Y-113887964D01*
X129109508Y-113947571D01*
X129159802Y-114082416D01*
X129159806Y-114082423D01*
X129246052Y-114197632D01*
X129246053Y-114197632D01*
X129246054Y-114197634D01*
X129255145Y-114204439D01*
X129297016Y-114260370D01*
X129302002Y-114330062D01*
X129282413Y-114374824D01*
X129273471Y-114387595D01*
X129273468Y-114387600D01*
X129177334Y-114593761D01*
X129177330Y-114593770D01*
X129118460Y-114813477D01*
X129118458Y-114813488D01*
X129098634Y-115040085D01*
X126991973Y-115040085D01*
X126992117Y-107282054D01*
X132502001Y-107282054D01*
X132512319Y-107383052D01*
X132566546Y-107546700D01*
X132566551Y-107546711D01*
X132657052Y-107693434D01*
X132657055Y-107693438D01*
X132778961Y-107815344D01*
X132778965Y-107815347D01*
X132925688Y-107905848D01*
X132925699Y-107905853D01*
X133089347Y-107960080D01*
X133190352Y-107970399D01*
X133227000Y-107970399D01*
X133227000Y-107232900D01*
X132502001Y-107232900D01*
X132502001Y-107282054D01*
X126992117Y-107282054D01*
X126992157Y-105156000D01*
X128798151Y-105156000D01*
X128817917Y-105407151D01*
X128876726Y-105652110D01*
X128973133Y-105884859D01*
X129104760Y-106099653D01*
X129104761Y-106099656D01*
X129104764Y-106099659D01*
X129268376Y-106291224D01*
X129392711Y-106397416D01*
X129459943Y-106454838D01*
X129459946Y-106454839D01*
X129674740Y-106586466D01*
X129849770Y-106658965D01*
X129907489Y-106682873D01*
X130152452Y-106741683D01*
X130403600Y-106761449D01*
X130654748Y-106741683D01*
X130899711Y-106682873D01*
X131132459Y-106586466D01*
X131347259Y-106454836D01*
X131538824Y-106291224D01*
X131615141Y-106201867D01*
X131673646Y-106163676D01*
X131709430Y-106158400D01*
X132505172Y-106158400D01*
X132572211Y-106178085D01*
X132617966Y-106230889D01*
X132627910Y-106300047D01*
X132610711Y-106347497D01*
X132566548Y-106419094D01*
X132566546Y-106419099D01*
X132512319Y-106582747D01*
X132502000Y-106683745D01*
X132502000Y-106732900D01*
X133603000Y-106732900D01*
X133670039Y-106752585D01*
X133715794Y-106805389D01*
X133727000Y-106856900D01*
X133727000Y-107970399D01*
X133763640Y-107970399D01*
X133763654Y-107970398D01*
X133864652Y-107960080D01*
X134028300Y-107905853D01*
X134028311Y-107905848D01*
X134175034Y-107815347D01*
X134175038Y-107815344D01*
X134296943Y-107693439D01*
X134366287Y-107581016D01*
X134418235Y-107534292D01*
X134487198Y-107523069D01*
X134551280Y-107550913D01*
X134578557Y-107582991D01*
X134593914Y-107608959D01*
X134593923Y-107608970D01*
X134710129Y-107725176D01*
X134710133Y-107725179D01*
X134710135Y-107725181D01*
X134766503Y-107758517D01*
X134813621Y-107786382D01*
X134861304Y-107837451D01*
X134874500Y-107893114D01*
X134874500Y-108349500D01*
X134854815Y-108416539D01*
X134802011Y-108462294D01*
X134750500Y-108473500D01*
X132128099Y-108473500D01*
X132061060Y-108453815D01*
X132015305Y-108401011D01*
X132004099Y-108349500D01*
X132004099Y-107818129D01*
X132004098Y-107818123D01*
X132004097Y-107818116D01*
X131997691Y-107758517D01*
X131997145Y-107757054D01*
X131947397Y-107623671D01*
X131947393Y-107623664D01*
X131861147Y-107508455D01*
X131861144Y-107508452D01*
X131745935Y-107422206D01*
X131745928Y-107422202D01*
X131611082Y-107371908D01*
X131611083Y-107371908D01*
X131551483Y-107365501D01*
X131551481Y-107365500D01*
X131551473Y-107365500D01*
X131551464Y-107365500D01*
X129255729Y-107365500D01*
X129255723Y-107365501D01*
X129196116Y-107371908D01*
X129061271Y-107422202D01*
X129061264Y-107422206D01*
X128946055Y-107508452D01*
X128946052Y-107508455D01*
X128859806Y-107623664D01*
X128859802Y-107623671D01*
X128809508Y-107758517D01*
X128803399Y-107815344D01*
X128803101Y-107818123D01*
X128803100Y-107818135D01*
X128803100Y-110113870D01*
X128803101Y-110113876D01*
X128809508Y-110173483D01*
X128859802Y-110308328D01*
X128859806Y-110308335D01*
X128946052Y-110423544D01*
X128946055Y-110423547D01*
X129061264Y-110509793D01*
X129061271Y-110509797D01*
X129196117Y-110560091D01*
X129196116Y-110560091D01*
X129199921Y-110560500D01*
X129255727Y-110566500D01*
X131551472Y-110566499D01*
X131611083Y-110560091D01*
X131745931Y-110509796D01*
X131760040Y-110499234D01*
X131825504Y-110474816D01*
X131834352Y-110474500D01*
X135159437Y-110474500D01*
X135226476Y-110494185D01*
X135240639Y-110504786D01*
X135270909Y-110531015D01*
X135391857Y-110608744D01*
X135391863Y-110608747D01*
X135522741Y-110668517D01*
X135660696Y-110709024D01*
X135803111Y-110729500D01*
X135803114Y-110729500D01*
X136375000Y-110729500D01*
X136446940Y-110724355D01*
X136484259Y-110713396D01*
X136536841Y-110709636D01*
X136675000Y-110729500D01*
X136675003Y-110729500D01*
X137246886Y-110729500D01*
X137246889Y-110729500D01*
X137389304Y-110709024D01*
X137527259Y-110668517D01*
X137658137Y-110608747D01*
X137662364Y-110606031D01*
X137773475Y-110534624D01*
X137774915Y-110533804D01*
X137779098Y-110531011D01*
X137828017Y-110488620D01*
X137887832Y-110436791D01*
X137981986Y-110328130D01*
X138059770Y-110207094D01*
X138116742Y-110082342D01*
X138118986Y-110078053D01*
X138119498Y-110076308D01*
X138119499Y-110076308D01*
X138160035Y-109938256D01*
X138180497Y-109795941D01*
X138180497Y-109739601D01*
X138180500Y-109739590D01*
X138180500Y-109208426D01*
X138180497Y-109208399D01*
X138180497Y-109152062D01*
X138180496Y-109152055D01*
X138180489Y-109152009D01*
X138176762Y-109126079D01*
X138175500Y-109108434D01*
X138175500Y-107928394D01*
X144290859Y-107928394D01*
X144290859Y-107928405D01*
X144311385Y-108176129D01*
X144311387Y-108176138D01*
X144372412Y-108417117D01*
X144472266Y-108644764D01*
X144572564Y-108798282D01*
X145313037Y-108057809D01*
X145330075Y-108121393D01*
X145395901Y-108235407D01*
X145488993Y-108328499D01*
X145603007Y-108394325D01*
X145666590Y-108411362D01*
X144925942Y-109152009D01*
X144972768Y-109188455D01*
X144972770Y-109188456D01*
X145191385Y-109306764D01*
X145191396Y-109306769D01*
X145426506Y-109387483D01*
X145671707Y-109428400D01*
X145920293Y-109428400D01*
X146165493Y-109387483D01*
X146400603Y-109306769D01*
X146400614Y-109306764D01*
X146619228Y-109188457D01*
X146619231Y-109188455D01*
X146666056Y-109152009D01*
X145925409Y-108411362D01*
X145988993Y-108394325D01*
X146103007Y-108328499D01*
X146196099Y-108235407D01*
X146261925Y-108121393D01*
X146278962Y-108057810D01*
X147019434Y-108798282D01*
X147119731Y-108644769D01*
X147219587Y-108417117D01*
X147280612Y-108176138D01*
X147280614Y-108176129D01*
X147301141Y-107928405D01*
X147301141Y-107928394D01*
X147280614Y-107680670D01*
X147280612Y-107680661D01*
X147219587Y-107439682D01*
X147119731Y-107212030D01*
X147019434Y-107058516D01*
X146278962Y-107798989D01*
X146261925Y-107735407D01*
X146196099Y-107621393D01*
X146103007Y-107528301D01*
X145988993Y-107462475D01*
X145925410Y-107445437D01*
X146666057Y-106704790D01*
X146666056Y-106704789D01*
X146619229Y-106668343D01*
X146400614Y-106550035D01*
X146400603Y-106550030D01*
X146165493Y-106469316D01*
X145920293Y-106428400D01*
X145671707Y-106428400D01*
X145426506Y-106469316D01*
X145191396Y-106550030D01*
X145191390Y-106550032D01*
X144972761Y-106668349D01*
X144925942Y-106704788D01*
X144925942Y-106704790D01*
X145666590Y-107445437D01*
X145603007Y-107462475D01*
X145488993Y-107528301D01*
X145395901Y-107621393D01*
X145330075Y-107735407D01*
X145313037Y-107798989D01*
X144572564Y-107058516D01*
X144472267Y-107212032D01*
X144372412Y-107439682D01*
X144311387Y-107680661D01*
X144311385Y-107680670D01*
X144290859Y-107928394D01*
X138175500Y-107928394D01*
X138175500Y-107023676D01*
X138195185Y-106956637D01*
X138247989Y-106910882D01*
X138264887Y-106904605D01*
X138422398Y-106858844D01*
X138563865Y-106775181D01*
X138680081Y-106658965D01*
X138763744Y-106517498D01*
X138802970Y-106382484D01*
X138809597Y-106359673D01*
X138809598Y-106359667D01*
X138812499Y-106322801D01*
X138812500Y-106322794D01*
X138812500Y-105891406D01*
X138809598Y-105854531D01*
X138804834Y-105838135D01*
X138763745Y-105696706D01*
X138763744Y-105696703D01*
X138763744Y-105696702D01*
X138680081Y-105555235D01*
X138680079Y-105555233D01*
X138680076Y-105555229D01*
X138611319Y-105486472D01*
X138577834Y-105425149D01*
X138575000Y-105398791D01*
X138575000Y-102279958D01*
X138574999Y-102279957D01*
X138564916Y-102229263D01*
X138536551Y-102086664D01*
X138494241Y-101984520D01*
X138477219Y-101943425D01*
X138461135Y-101904593D01*
X138461134Y-101904592D01*
X138461132Y-101904586D01*
X138351639Y-101740718D01*
X138212282Y-101601361D01*
X138212281Y-101601360D01*
X137227760Y-100616839D01*
X137194275Y-100555516D01*
X137199259Y-100485824D01*
X137241131Y-100429891D01*
X137259141Y-100418675D01*
X137446816Y-100323051D01*
X137548581Y-100249115D01*
X137618786Y-100198109D01*
X137618788Y-100198106D01*
X137618792Y-100198104D01*
X137769104Y-100047792D01*
X137769106Y-100047788D01*
X137769109Y-100047786D01*
X137894048Y-99875820D01*
X137894047Y-99875820D01*
X137894051Y-99875816D01*
X137990557Y-99686412D01*
X138056246Y-99484243D01*
X138089500Y-99274287D01*
X138089500Y-98811713D01*
X138056246Y-98601757D01*
X137990557Y-98399588D01*
X137894051Y-98210184D01*
X137894049Y-98210181D01*
X137894048Y-98210179D01*
X137769109Y-98038213D01*
X137618786Y-97887890D01*
X137446820Y-97762951D01*
X137257414Y-97666444D01*
X137257413Y-97666443D01*
X137257412Y-97666443D01*
X137055243Y-97600754D01*
X137055241Y-97600753D01*
X137055240Y-97600753D01*
X136893957Y-97575208D01*
X136845287Y-97567500D01*
X136632713Y-97567500D01*
X136584042Y-97575208D01*
X136422760Y-97600753D01*
X136220585Y-97666444D01*
X136031179Y-97762951D01*
X135859213Y-97887890D01*
X135708894Y-98038209D01*
X135708890Y-98038214D01*
X135589318Y-98202793D01*
X135533989Y-98245459D01*
X135464375Y-98251438D01*
X135402580Y-98218833D01*
X135388682Y-98202793D01*
X135269109Y-98038214D01*
X135269105Y-98038209D01*
X135118786Y-97887890D01*
X134946820Y-97762951D01*
X134757414Y-97666444D01*
X134757413Y-97666443D01*
X134757412Y-97666443D01*
X134555243Y-97600754D01*
X134555241Y-97600753D01*
X134555240Y-97600753D01*
X134393957Y-97575208D01*
X134345287Y-97567500D01*
X134132713Y-97567500D01*
X134084042Y-97575208D01*
X133922760Y-97600753D01*
X133720585Y-97666444D01*
X133531179Y-97762951D01*
X133359215Y-97887889D01*
X133220398Y-98026706D01*
X133159075Y-98060190D01*
X133089383Y-98055206D01*
X133033450Y-98013334D01*
X133027178Y-98004120D01*
X132931712Y-97849344D01*
X132807657Y-97725289D01*
X132807656Y-97725288D01*
X132658334Y-97633186D01*
X132491797Y-97578001D01*
X132491795Y-97578000D01*
X132389010Y-97567500D01*
X131088998Y-97567500D01*
X131088981Y-97567501D01*
X130986203Y-97578000D01*
X130986200Y-97578001D01*
X130819668Y-97633185D01*
X130819663Y-97633187D01*
X130670342Y-97725289D01*
X130546289Y-97849342D01*
X130454187Y-97998663D01*
X130454185Y-97998668D01*
X130444894Y-98026706D01*
X130399001Y-98165203D01*
X130399001Y-98165204D01*
X130399000Y-98165204D01*
X130388500Y-98267983D01*
X130388500Y-99818001D01*
X130388501Y-99818018D01*
X130399000Y-99920796D01*
X130399001Y-99920799D01*
X130444894Y-100059294D01*
X130454186Y-100087334D01*
X130546288Y-100236656D01*
X130670344Y-100360712D01*
X130819666Y-100452814D01*
X130986203Y-100507999D01*
X131088991Y-100518500D01*
X132389008Y-100518499D01*
X132491797Y-100507999D01*
X132658334Y-100452814D01*
X132807656Y-100360712D01*
X132931712Y-100236656D01*
X133023814Y-100087334D01*
X133023814Y-100087331D01*
X133027178Y-100081879D01*
X133079126Y-100035154D01*
X133148088Y-100023931D01*
X133212170Y-100051774D01*
X133220398Y-100059294D01*
X133359213Y-100198109D01*
X133531179Y-100323048D01*
X133531181Y-100323049D01*
X133531184Y-100323051D01*
X133720588Y-100419557D01*
X133922757Y-100485246D01*
X134132713Y-100518500D01*
X134248218Y-100518500D01*
X134315257Y-100538185D01*
X134335899Y-100554819D01*
X136537681Y-102756601D01*
X136571166Y-102817924D01*
X136574000Y-102844282D01*
X136574000Y-104247931D01*
X136554315Y-104314970D01*
X136501511Y-104360725D01*
X136432353Y-104370669D01*
X136415407Y-104367008D01*
X136389570Y-104359502D01*
X136389567Y-104359501D01*
X136352701Y-104356600D01*
X136352694Y-104356600D01*
X136339933Y-104356600D01*
X136272894Y-104336915D01*
X136271078Y-104335726D01*
X136173414Y-104270469D01*
X136173415Y-104270469D01*
X136173413Y-104270468D01*
X135991335Y-104195049D01*
X135991327Y-104195047D01*
X135798043Y-104156600D01*
X135798040Y-104156600D01*
X135600959Y-104156600D01*
X135600958Y-104156600D01*
X135598897Y-104156803D01*
X135586744Y-104157400D01*
X131712677Y-104157400D01*
X131645638Y-104137715D01*
X131618387Y-104113932D01*
X131604860Y-104098095D01*
X131538824Y-104020776D01*
X131412171Y-103912604D01*
X131347256Y-103857161D01*
X131347253Y-103857160D01*
X131132459Y-103725533D01*
X130899710Y-103629126D01*
X130654751Y-103570317D01*
X130403600Y-103550551D01*
X130152448Y-103570317D01*
X129907489Y-103629126D01*
X129674740Y-103725533D01*
X129459946Y-103857160D01*
X129459943Y-103857161D01*
X129268376Y-104020776D01*
X129104761Y-104212343D01*
X129104760Y-104212346D01*
X128973133Y-104427140D01*
X128876726Y-104659889D01*
X128817917Y-104904848D01*
X128798151Y-105156000D01*
X126992157Y-105156000D01*
X126992298Y-97535999D01*
X141887922Y-97535999D01*
X141887922Y-97536000D01*
X141908219Y-97923287D01*
X141968886Y-98306323D01*
X141968887Y-98306330D01*
X142069262Y-98680936D01*
X142208244Y-99042994D01*
X142384310Y-99388543D01*
X142595531Y-99713793D01*
X142804095Y-99971350D01*
X142804096Y-99971350D01*
X144298748Y-98476698D01*
X144372588Y-98578330D01*
X144550670Y-98756412D01*
X144652300Y-98830251D01*
X143157648Y-100324903D01*
X143157649Y-100324904D01*
X143415206Y-100533468D01*
X143740456Y-100744689D01*
X144086005Y-100920755D01*
X144448063Y-101059737D01*
X144822669Y-101160112D01*
X144822676Y-101160113D01*
X145205712Y-101220780D01*
X145592999Y-101241078D01*
X145593001Y-101241078D01*
X145980287Y-101220780D01*
X146363323Y-101160113D01*
X146363330Y-101160112D01*
X146737936Y-101059737D01*
X146805062Y-101033970D01*
X146874703Y-101028322D01*
X146936342Y-101061222D01*
X146970410Y-101122223D01*
X146973500Y-101149734D01*
X146973500Y-103137030D01*
X146973499Y-103137048D01*
X146973499Y-103302754D01*
X146973498Y-103302754D01*
X147014423Y-103455485D01*
X147043358Y-103505600D01*
X147043359Y-103505604D01*
X147043360Y-103505604D01*
X147093479Y-103592414D01*
X147093481Y-103592417D01*
X147212349Y-103711285D01*
X147212355Y-103711290D01*
X153282581Y-109781516D01*
X153316066Y-109842839D01*
X153318900Y-109869197D01*
X153318900Y-110370269D01*
X153318901Y-110370287D01*
X153329225Y-110471352D01*
X153383492Y-110635115D01*
X153383493Y-110635118D01*
X153401133Y-110663716D01*
X153474059Y-110781949D01*
X153474061Y-110781951D01*
X153475429Y-110783319D01*
X153476068Y-110784489D01*
X153478538Y-110787613D01*
X153478004Y-110788035D01*
X153508914Y-110844642D01*
X153503930Y-110914334D01*
X153478306Y-110954203D01*
X153478538Y-110954387D01*
X153476672Y-110956746D01*
X153475429Y-110958681D01*
X153474061Y-110960048D01*
X153383493Y-111106881D01*
X153383491Y-111106886D01*
X153365562Y-111160994D01*
X153329226Y-111270647D01*
X153329226Y-111270648D01*
X153329225Y-111270648D01*
X153318900Y-111371715D01*
X153318900Y-111945069D01*
X153318901Y-111945087D01*
X153329225Y-112046152D01*
X153365509Y-112155649D01*
X153381760Y-112204690D01*
X153383492Y-112209915D01*
X153383493Y-112209918D01*
X153413706Y-112258900D01*
X153474060Y-112356750D01*
X153596050Y-112478740D01*
X153742884Y-112569308D01*
X153795565Y-112586765D01*
X153853009Y-112626537D01*
X153879832Y-112691052D01*
X153867517Y-112759828D01*
X153850274Y-112785672D01*
X153762414Y-112887069D01*
X153684631Y-113008105D01*
X153684623Y-113008118D01*
X153627663Y-113132843D01*
X153625415Y-113137139D01*
X153584366Y-113276938D01*
X153584365Y-113276944D01*
X153563903Y-113419259D01*
X153563903Y-113475599D01*
X153563900Y-113475609D01*
X153563900Y-114006773D01*
X153563903Y-114006801D01*
X153563903Y-114063144D01*
X153564293Y-114065855D01*
X153564162Y-114066764D01*
X153564219Y-114067557D01*
X153564046Y-114067569D01*
X153554349Y-114135013D01*
X153508593Y-114187816D01*
X153441555Y-114207500D01*
X147975697Y-114207500D01*
X147908658Y-114187815D01*
X147888016Y-114171181D01*
X147332818Y-113615983D01*
X147299333Y-113554660D01*
X147296499Y-113528302D01*
X147296499Y-111880529D01*
X147296498Y-111880523D01*
X147296497Y-111880516D01*
X147290091Y-111820917D01*
X147280907Y-111796294D01*
X147239797Y-111686071D01*
X147239793Y-111686064D01*
X147153547Y-111570855D01*
X147153544Y-111570852D01*
X147038335Y-111484606D01*
X147038328Y-111484602D01*
X146903482Y-111434308D01*
X146903483Y-111434308D01*
X146843883Y-111427901D01*
X146843881Y-111427900D01*
X146843873Y-111427900D01*
X146843864Y-111427900D01*
X144748129Y-111427900D01*
X144748123Y-111427901D01*
X144688516Y-111434308D01*
X144553671Y-111484602D01*
X144553664Y-111484606D01*
X144438455Y-111570852D01*
X144438452Y-111570855D01*
X144352206Y-111686064D01*
X144352202Y-111686071D01*
X144301908Y-111820917D01*
X144295814Y-111877606D01*
X144295501Y-111880523D01*
X144295500Y-111880535D01*
X144295500Y-113976270D01*
X144295501Y-113976276D01*
X144301908Y-114035883D01*
X144352202Y-114170728D01*
X144352206Y-114170735D01*
X144438452Y-114285944D01*
X144438455Y-114285947D01*
X144553664Y-114372193D01*
X144553671Y-114372197D01*
X144688517Y-114422491D01*
X144688516Y-114422491D01*
X144695444Y-114423235D01*
X144748127Y-114428900D01*
X146395902Y-114428899D01*
X146462941Y-114448584D01*
X146483583Y-114465218D01*
X147190739Y-115172374D01*
X147190749Y-115172385D01*
X147195079Y-115176715D01*
X147195080Y-115176716D01*
X147306884Y-115288520D01*
X147393695Y-115338639D01*
X147393697Y-115338641D01*
X147430983Y-115360168D01*
X147443815Y-115367577D01*
X147596543Y-115408501D01*
X147596546Y-115408501D01*
X147762253Y-115408501D01*
X147762269Y-115408500D01*
X153195486Y-115408500D01*
X153262525Y-115428185D01*
X153308280Y-115480989D01*
X153318451Y-115534196D01*
X153319400Y-115534196D01*
X153319400Y-115574000D01*
X154432900Y-115574000D01*
X154499939Y-115593685D01*
X154545694Y-115646489D01*
X154556900Y-115698000D01*
X154556900Y-116798999D01*
X154606040Y-116798999D01*
X154606054Y-116798998D01*
X154707052Y-116788680D01*
X154870700Y-116734453D01*
X154870711Y-116734448D01*
X155017433Y-116643948D01*
X155131364Y-116530017D01*
X155192687Y-116496532D01*
X155262379Y-116501516D01*
X155306727Y-116530017D01*
X155421050Y-116644340D01*
X155567884Y-116734908D01*
X155731647Y-116789174D01*
X155832723Y-116799500D01*
X156431076Y-116799499D01*
X156431084Y-116799498D01*
X156431087Y-116799498D01*
X156486430Y-116793844D01*
X156532153Y-116789174D01*
X156695916Y-116734908D01*
X156842750Y-116644340D01*
X156964740Y-116522350D01*
X157055308Y-116375516D01*
X157109574Y-116211753D01*
X157119900Y-116110677D01*
X157119899Y-115872899D01*
X157139583Y-115805861D01*
X157192387Y-115760106D01*
X157243899Y-115748900D01*
X159550992Y-115748900D01*
X159618031Y-115768585D01*
X159638674Y-115785220D01*
X159669929Y-115816476D01*
X159669933Y-115816479D01*
X159669935Y-115816481D01*
X159811402Y-115900144D01*
X159853024Y-115912236D01*
X159969226Y-115945997D01*
X159969229Y-115945997D01*
X159969231Y-115945998D01*
X160006106Y-115948900D01*
X160006114Y-115948900D01*
X161162486Y-115948900D01*
X161162494Y-115948900D01*
X161199369Y-115945998D01*
X161199371Y-115945997D01*
X161199373Y-115945997D01*
X161240991Y-115933905D01*
X161357198Y-115900144D01*
X161498665Y-115816481D01*
X161529926Y-115785220D01*
X161591248Y-115751734D01*
X161617608Y-115748900D01*
X161825992Y-115748900D01*
X161893031Y-115768585D01*
X161913674Y-115785220D01*
X161944929Y-115816476D01*
X161944933Y-115816479D01*
X161944935Y-115816481D01*
X162086402Y-115900144D01*
X162128024Y-115912236D01*
X162244226Y-115945997D01*
X162244229Y-115945997D01*
X162244231Y-115945998D01*
X162281106Y-115948900D01*
X162281114Y-115948900D01*
X163437486Y-115948900D01*
X163437494Y-115948900D01*
X163474369Y-115945998D01*
X163474371Y-115945997D01*
X163474373Y-115945997D01*
X163515991Y-115933905D01*
X163632198Y-115900144D01*
X163773665Y-115816481D01*
X163889881Y-115700265D01*
X163973544Y-115558798D01*
X164019398Y-115400969D01*
X164022300Y-115364094D01*
X164022300Y-114932706D01*
X164019398Y-114895831D01*
X163973544Y-114738002D01*
X163889881Y-114596535D01*
X163889879Y-114596533D01*
X163889876Y-114596529D01*
X163773670Y-114480323D01*
X163773662Y-114480317D01*
X163632196Y-114396655D01*
X163632193Y-114396654D01*
X163474373Y-114350802D01*
X163474367Y-114350801D01*
X163437501Y-114347900D01*
X163437494Y-114347900D01*
X162281106Y-114347900D01*
X162281098Y-114347900D01*
X162244232Y-114350801D01*
X162244226Y-114350802D01*
X162086406Y-114396654D01*
X162086403Y-114396655D01*
X161944937Y-114480317D01*
X161938769Y-114485102D01*
X161937464Y-114483419D01*
X161885754Y-114511646D01*
X161816063Y-114506651D01*
X161768358Y-114474647D01*
X161744096Y-114448400D01*
X161478615Y-114448400D01*
X161415494Y-114431132D01*
X161357196Y-114396655D01*
X161357193Y-114396654D01*
X161199373Y-114350802D01*
X161199367Y-114350801D01*
X161162501Y-114347900D01*
X161162494Y-114347900D01*
X160006106Y-114347900D01*
X160006098Y-114347900D01*
X159969232Y-114350801D01*
X159969226Y-114350802D01*
X159811406Y-114396654D01*
X159811403Y-114396655D01*
X159753106Y-114431132D01*
X159689985Y-114448400D01*
X159424505Y-114448400D01*
X159411712Y-114462238D01*
X159407445Y-114482552D01*
X159358391Y-114532307D01*
X159298193Y-114547900D01*
X157576697Y-114547900D01*
X157509658Y-114528215D01*
X157489016Y-114511581D01*
X156911219Y-113933784D01*
X156877734Y-113872461D01*
X156874900Y-113846103D01*
X156874900Y-113475626D01*
X156874897Y-113475599D01*
X156874897Y-113419260D01*
X156854435Y-113276944D01*
X156854434Y-113276939D01*
X156813898Y-113138892D01*
X156813898Y-113138891D01*
X156765405Y-113032706D01*
X156754176Y-113008118D01*
X156754173Y-113008114D01*
X156754170Y-113008106D01*
X156676386Y-112887070D01*
X156676385Y-112887069D01*
X156676384Y-112887067D01*
X156676381Y-112887063D01*
X156588526Y-112785672D01*
X156559501Y-112722116D01*
X156569445Y-112652958D01*
X156615200Y-112600154D01*
X156643232Y-112586765D01*
X156695916Y-112569308D01*
X156842750Y-112478740D01*
X156964740Y-112356750D01*
X156988762Y-112317804D01*
X157040710Y-112271079D01*
X157094301Y-112258900D01*
X159440499Y-112258900D01*
X159507538Y-112278585D01*
X159546038Y-112317804D01*
X159570059Y-112356749D01*
X159644100Y-112430790D01*
X159677585Y-112492113D01*
X159672601Y-112561805D01*
X159644101Y-112606152D01*
X159553720Y-112696533D01*
X159553717Y-112696537D01*
X159470055Y-112838003D01*
X159470054Y-112838006D01*
X159424202Y-112995826D01*
X159424201Y-112995832D01*
X159421300Y-113032698D01*
X159421300Y-113464101D01*
X159424201Y-113500967D01*
X159424202Y-113500973D01*
X159470054Y-113658793D01*
X159470056Y-113658799D01*
X159471226Y-113660777D01*
X159471669Y-113662526D01*
X159473153Y-113665954D01*
X159472599Y-113666193D01*
X159488403Y-113728502D01*
X159473049Y-113780795D01*
X159473617Y-113781041D01*
X159471627Y-113785639D01*
X159471228Y-113786999D01*
X159470522Y-113788191D01*
X159470516Y-113788206D01*
X159424700Y-113945905D01*
X159424699Y-113945911D01*
X159424504Y-113948398D01*
X159424505Y-113948400D01*
X159689985Y-113948400D01*
X159753106Y-113965668D01*
X159811402Y-114000144D01*
X159853024Y-114012236D01*
X159969226Y-114045997D01*
X159969229Y-114045997D01*
X159969231Y-114045998D01*
X160006106Y-114048900D01*
X160006114Y-114048900D01*
X161162486Y-114048900D01*
X161162494Y-114048900D01*
X161199369Y-114045998D01*
X161199371Y-114045997D01*
X161199373Y-114045997D01*
X161240991Y-114033905D01*
X161357198Y-114000144D01*
X161415494Y-113965668D01*
X161478615Y-113948400D01*
X161744094Y-113948400D01*
X161768357Y-113922152D01*
X161828318Y-113886285D01*
X161898152Y-113888529D01*
X161937812Y-113912930D01*
X161938769Y-113911698D01*
X161944932Y-113916478D01*
X161944935Y-113916481D01*
X162086402Y-114000144D01*
X162128024Y-114012236D01*
X162244226Y-114045997D01*
X162244229Y-114045997D01*
X162244231Y-114045998D01*
X162281106Y-114048900D01*
X162281114Y-114048900D01*
X163437486Y-114048900D01*
X163437494Y-114048900D01*
X163474369Y-114045998D01*
X163474371Y-114045997D01*
X163474373Y-114045997D01*
X163515991Y-114033905D01*
X163632198Y-114000144D01*
X163773665Y-113916481D01*
X163889881Y-113800265D01*
X163973544Y-113658798D01*
X164019398Y-113500969D01*
X164022300Y-113464094D01*
X164022300Y-113032706D01*
X164019629Y-112998775D01*
X164033992Y-112930402D01*
X164055563Y-112901370D01*
X164493306Y-112463628D01*
X164493311Y-112463624D01*
X164503514Y-112453420D01*
X164503516Y-112453420D01*
X164615320Y-112341616D01*
X164694377Y-112204684D01*
X164735300Y-112051957D01*
X164735300Y-111160994D01*
X166237157Y-111160994D01*
X166237157Y-111161005D01*
X166257690Y-111408812D01*
X166257692Y-111408824D01*
X166318736Y-111649881D01*
X166418626Y-111877606D01*
X166554633Y-112085782D01*
X166554636Y-112085785D01*
X166723056Y-112268738D01*
X166919291Y-112421474D01*
X166968122Y-112447900D01*
X167108594Y-112523920D01*
X167137990Y-112539828D01*
X167373186Y-112620571D01*
X167618465Y-112661500D01*
X167867135Y-112661500D01*
X168112414Y-112620571D01*
X168347610Y-112539828D01*
X168566309Y-112421474D01*
X168762544Y-112268738D01*
X168930964Y-112085785D01*
X169066973Y-111877607D01*
X169081452Y-111844596D01*
X169085360Y-111835689D01*
X169130317Y-111782204D01*
X169197053Y-111761514D01*
X169198916Y-111761500D01*
X172786684Y-111761500D01*
X172853723Y-111781185D01*
X172899478Y-111833989D01*
X172900240Y-111835689D01*
X172918627Y-111877608D01*
X173054633Y-112085782D01*
X173054636Y-112085785D01*
X173223056Y-112268738D01*
X173419291Y-112421474D01*
X173468122Y-112447900D01*
X173608594Y-112523920D01*
X173637990Y-112539828D01*
X173873186Y-112620571D01*
X174118465Y-112661500D01*
X174367135Y-112661500D01*
X174612414Y-112620571D01*
X174847610Y-112539828D01*
X175066309Y-112421474D01*
X175262544Y-112268738D01*
X175430964Y-112085785D01*
X175566973Y-111877607D01*
X175666863Y-111649881D01*
X175727908Y-111408821D01*
X175739349Y-111270747D01*
X175748443Y-111161005D01*
X175748443Y-111160994D01*
X175727909Y-110913187D01*
X175727907Y-110913175D01*
X175666863Y-110672118D01*
X175566973Y-110444393D01*
X175430966Y-110236217D01*
X175373215Y-110173483D01*
X175262544Y-110053262D01*
X175066309Y-109900526D01*
X175066307Y-109900525D01*
X175066306Y-109900524D01*
X174847611Y-109782172D01*
X174847602Y-109782169D01*
X174612416Y-109701429D01*
X174367135Y-109660500D01*
X174118465Y-109660500D01*
X173873183Y-109701429D01*
X173637997Y-109782169D01*
X173637988Y-109782172D01*
X173419293Y-109900524D01*
X173223057Y-110053261D01*
X173054633Y-110236217D01*
X172918627Y-110444391D01*
X172900240Y-110486311D01*
X172855283Y-110539796D01*
X172788547Y-110560486D01*
X172786684Y-110560500D01*
X169198916Y-110560500D01*
X169131877Y-110540815D01*
X169086122Y-110488011D01*
X169085360Y-110486311D01*
X169066972Y-110444391D01*
X168930966Y-110236217D01*
X168873215Y-110173483D01*
X168762544Y-110053262D01*
X168566309Y-109900526D01*
X168566307Y-109900525D01*
X168566306Y-109900524D01*
X168347611Y-109782172D01*
X168347602Y-109782169D01*
X168112416Y-109701429D01*
X167867135Y-109660500D01*
X167618465Y-109660500D01*
X167373183Y-109701429D01*
X167137997Y-109782169D01*
X167137988Y-109782172D01*
X166919293Y-109900524D01*
X166723057Y-110053261D01*
X166554633Y-110236217D01*
X166418626Y-110444393D01*
X166318736Y-110672118D01*
X166257692Y-110913175D01*
X166257690Y-110913187D01*
X166237157Y-111160994D01*
X164735300Y-111160994D01*
X164735300Y-109902943D01*
X164734652Y-109900526D01*
X164706629Y-109795941D01*
X164694377Y-109750216D01*
X164694373Y-109750209D01*
X164615324Y-109613290D01*
X164615321Y-109613286D01*
X164615320Y-109613284D01*
X164503516Y-109501480D01*
X164503515Y-109501479D01*
X164499185Y-109497149D01*
X164499174Y-109497139D01*
X163199990Y-108197955D01*
X163199988Y-108197952D01*
X163143261Y-108141225D01*
X163109776Y-108079902D01*
X163114760Y-108010210D01*
X163124212Y-107990420D01*
X163136881Y-107968998D01*
X163182700Y-107811286D01*
X163182895Y-107808801D01*
X163182895Y-107808800D01*
X161822100Y-107808800D01*
X161755061Y-107789115D01*
X161709306Y-107736311D01*
X161698100Y-107684800D01*
X161698100Y-107308800D01*
X162198100Y-107308800D01*
X163182895Y-107308800D01*
X163182895Y-107308798D01*
X163182700Y-107306313D01*
X163136881Y-107148601D01*
X163053285Y-107007247D01*
X163053278Y-107007238D01*
X162937161Y-106891121D01*
X162937152Y-106891114D01*
X162795796Y-106807517D01*
X162795793Y-106807516D01*
X162638095Y-106761700D01*
X162638089Y-106761699D01*
X162601249Y-106758800D01*
X162198100Y-106758800D01*
X162198100Y-107308800D01*
X161698100Y-107308800D01*
X161698100Y-106758800D01*
X161294950Y-106758800D01*
X161258110Y-106761699D01*
X161258104Y-106761700D01*
X161100406Y-106807516D01*
X161100403Y-106807517D01*
X160959047Y-106891114D01*
X160959036Y-106891122D01*
X160943000Y-106907159D01*
X160881676Y-106940643D01*
X160811985Y-106935657D01*
X160767640Y-106907157D01*
X159645438Y-105784955D01*
X159645436Y-105784952D01*
X159526565Y-105666081D01*
X159526564Y-105666080D01*
X159439752Y-105615960D01*
X159439752Y-105615959D01*
X159439748Y-105615958D01*
X159389633Y-105587023D01*
X159236905Y-105546099D01*
X159078791Y-105546099D01*
X159071195Y-105546099D01*
X159071179Y-105546100D01*
X157311896Y-105546100D01*
X157244857Y-105526415D01*
X157199102Y-105473611D01*
X157189158Y-105404453D01*
X157218183Y-105340897D01*
X157224215Y-105334419D01*
X158533416Y-104025218D01*
X158594739Y-103991733D01*
X158621097Y-103988899D01*
X159868871Y-103988899D01*
X159868872Y-103988899D01*
X159928483Y-103982491D01*
X160063331Y-103932196D01*
X160178546Y-103845946D01*
X160264796Y-103730731D01*
X160315091Y-103595883D01*
X160321500Y-103536273D01*
X160321499Y-102807542D01*
X160341183Y-102740505D01*
X160393987Y-102694750D01*
X160463146Y-102684806D01*
X160526702Y-102713831D01*
X160533180Y-102719863D01*
X160564361Y-102751044D01*
X160564365Y-102751047D01*
X160711088Y-102841548D01*
X160711099Y-102841553D01*
X160874747Y-102895780D01*
X160975752Y-102906099D01*
X161012400Y-102906099D01*
X161512400Y-102906099D01*
X161549040Y-102906099D01*
X161549054Y-102906098D01*
X161650052Y-102895780D01*
X161813700Y-102841553D01*
X161813711Y-102841548D01*
X161960434Y-102751047D01*
X161960438Y-102751044D01*
X162082344Y-102629138D01*
X162082347Y-102629134D01*
X162172848Y-102482411D01*
X162172853Y-102482400D01*
X162227080Y-102318752D01*
X162237399Y-102217754D01*
X162237400Y-102217741D01*
X162237400Y-102118600D01*
X161512400Y-102118600D01*
X161512400Y-102906099D01*
X161012400Y-102906099D01*
X161012400Y-101742600D01*
X161032085Y-101675561D01*
X161084889Y-101629806D01*
X161136400Y-101618600D01*
X162237399Y-101618600D01*
X162237399Y-101519460D01*
X162237398Y-101519445D01*
X162227080Y-101418447D01*
X162172853Y-101254799D01*
X162172848Y-101254788D01*
X162082347Y-101108065D01*
X162082344Y-101108061D01*
X162068417Y-101094134D01*
X162034932Y-101032811D01*
X162039916Y-100963119D01*
X162068417Y-100918772D01*
X162082740Y-100904450D01*
X162124072Y-100837441D01*
X162145314Y-100803003D01*
X162197262Y-100756278D01*
X162250852Y-100744100D01*
X162941817Y-100744100D01*
X163008856Y-100763785D01*
X163029498Y-100780419D01*
X164131181Y-101882102D01*
X164164666Y-101943425D01*
X164167500Y-101969783D01*
X164167500Y-107023330D01*
X164167499Y-107023348D01*
X164167499Y-107189054D01*
X164167498Y-107189054D01*
X164175974Y-107220687D01*
X164208423Y-107341785D01*
X164226847Y-107373696D01*
X164237358Y-107391900D01*
X164237359Y-107391904D01*
X164237360Y-107391904D01*
X164281003Y-107467498D01*
X164287479Y-107478714D01*
X164287481Y-107478717D01*
X164406349Y-107597585D01*
X164406354Y-107597589D01*
X165975284Y-109166520D01*
X165975286Y-109166521D01*
X165975290Y-109166524D01*
X166112209Y-109245573D01*
X166112216Y-109245577D01*
X166264943Y-109286501D01*
X166264945Y-109286501D01*
X166430654Y-109286501D01*
X166430670Y-109286500D01*
X169531331Y-109286500D01*
X169531347Y-109286501D01*
X169538943Y-109286501D01*
X169697054Y-109286501D01*
X169697057Y-109286501D01*
X169849785Y-109245577D01*
X169899904Y-109216639D01*
X169986716Y-109166520D01*
X170098520Y-109054716D01*
X170098520Y-109054714D01*
X170108728Y-109044507D01*
X170108730Y-109044504D01*
X170267696Y-108885537D01*
X170329017Y-108852054D01*
X170398708Y-108857038D01*
X170460517Y-108880091D01*
X170460516Y-108880091D01*
X170467444Y-108880835D01*
X170520127Y-108886500D01*
X171815872Y-108886499D01*
X171875483Y-108880091D01*
X172010331Y-108829796D01*
X172125546Y-108743546D01*
X172211796Y-108628331D01*
X172262091Y-108493483D01*
X172268500Y-108433873D01*
X172268499Y-105838135D01*
X173067500Y-105838135D01*
X173067500Y-108433870D01*
X173067501Y-108433876D01*
X173073908Y-108493483D01*
X173124202Y-108628328D01*
X173124206Y-108628335D01*
X173210452Y-108743544D01*
X173210455Y-108743547D01*
X173325664Y-108829793D01*
X173325671Y-108829797D01*
X173460517Y-108880091D01*
X173460516Y-108880091D01*
X173467444Y-108880835D01*
X173520127Y-108886500D01*
X174815872Y-108886499D01*
X174875483Y-108880091D01*
X175010331Y-108829796D01*
X175125546Y-108743546D01*
X175211796Y-108628331D01*
X175262091Y-108493483D01*
X175268500Y-108433873D01*
X175268499Y-105838128D01*
X175262091Y-105778517D01*
X175250318Y-105746953D01*
X175211797Y-105643671D01*
X175211793Y-105643664D01*
X175125547Y-105528455D01*
X175125544Y-105528452D01*
X175010335Y-105442206D01*
X175010328Y-105442202D01*
X174875482Y-105391908D01*
X174875483Y-105391908D01*
X174815883Y-105385501D01*
X174815881Y-105385500D01*
X174815873Y-105385500D01*
X174815864Y-105385500D01*
X173520129Y-105385500D01*
X173520123Y-105385501D01*
X173460516Y-105391908D01*
X173325671Y-105442202D01*
X173325664Y-105442206D01*
X173210455Y-105528452D01*
X173210452Y-105528455D01*
X173124206Y-105643664D01*
X173124202Y-105643671D01*
X173073908Y-105778517D01*
X173067501Y-105838116D01*
X173067501Y-105838123D01*
X173067500Y-105838135D01*
X172268499Y-105838135D01*
X172268499Y-105838128D01*
X172262091Y-105778517D01*
X172250318Y-105746953D01*
X172211797Y-105643671D01*
X172211793Y-105643664D01*
X172125547Y-105528455D01*
X172125544Y-105528452D01*
X172010335Y-105442206D01*
X172010328Y-105442202D01*
X171875482Y-105391908D01*
X171875483Y-105391908D01*
X171815883Y-105385501D01*
X171815881Y-105385500D01*
X171815873Y-105385500D01*
X171815864Y-105385500D01*
X170520129Y-105385500D01*
X170520123Y-105385501D01*
X170460516Y-105391908D01*
X170325671Y-105442202D01*
X170325664Y-105442206D01*
X170210455Y-105528452D01*
X170210452Y-105528455D01*
X170124206Y-105643664D01*
X170124202Y-105643671D01*
X170073908Y-105778517D01*
X170067501Y-105838116D01*
X170067501Y-105838123D01*
X170067500Y-105838135D01*
X170067500Y-107335902D01*
X170047815Y-107402941D01*
X170031181Y-107423583D01*
X169405584Y-108049181D01*
X169344261Y-108082666D01*
X169317903Y-108085500D01*
X168392500Y-108085500D01*
X168325461Y-108065815D01*
X168279706Y-108013011D01*
X168268500Y-107961500D01*
X168268499Y-105838129D01*
X168268498Y-105838123D01*
X168268497Y-105838116D01*
X168262091Y-105778517D01*
X168250318Y-105746953D01*
X168211797Y-105643671D01*
X168211793Y-105643664D01*
X168125547Y-105528455D01*
X168125544Y-105528452D01*
X168010335Y-105442206D01*
X168010328Y-105442202D01*
X167875482Y-105391908D01*
X167875483Y-105391908D01*
X167815883Y-105385501D01*
X167815881Y-105385500D01*
X167815873Y-105385500D01*
X167815864Y-105385500D01*
X166520129Y-105385500D01*
X166520123Y-105385501D01*
X166460515Y-105391909D01*
X166398708Y-105414961D01*
X166329016Y-105419945D01*
X166267695Y-105386460D01*
X165804819Y-104923584D01*
X165771334Y-104862261D01*
X165768500Y-104835903D01*
X165768500Y-103984543D01*
X167767499Y-103984543D01*
X167805947Y-104177829D01*
X167805950Y-104177839D01*
X167881364Y-104359907D01*
X167881371Y-104359920D01*
X167990860Y-104523781D01*
X167990863Y-104523785D01*
X168130214Y-104663136D01*
X168130218Y-104663139D01*
X168294079Y-104772628D01*
X168294092Y-104772635D01*
X168446837Y-104835903D01*
X168476165Y-104848051D01*
X168476169Y-104848051D01*
X168476170Y-104848052D01*
X168669456Y-104886500D01*
X168669459Y-104886500D01*
X168866543Y-104886500D01*
X168996582Y-104860632D01*
X169059835Y-104848051D01*
X169241914Y-104772632D01*
X169405782Y-104663139D01*
X169545139Y-104523782D01*
X169654632Y-104359914D01*
X169730051Y-104177835D01*
X169760409Y-104025218D01*
X169768500Y-103984543D01*
X169768500Y-103787456D01*
X169730052Y-103594170D01*
X169730051Y-103594169D01*
X169730051Y-103594165D01*
X169693368Y-103505604D01*
X169654635Y-103412092D01*
X169654628Y-103412079D01*
X169545139Y-103248218D01*
X169545136Y-103248214D01*
X169405785Y-103108863D01*
X169405781Y-103108860D01*
X169241920Y-102999371D01*
X169241907Y-102999364D01*
X169059839Y-102923950D01*
X169059829Y-102923947D01*
X168866543Y-102885500D01*
X168866541Y-102885500D01*
X168669459Y-102885500D01*
X168669457Y-102885500D01*
X168476170Y-102923947D01*
X168476160Y-102923950D01*
X168294092Y-102999364D01*
X168294079Y-102999371D01*
X168130218Y-103108860D01*
X168130214Y-103108863D01*
X167990863Y-103248214D01*
X167990860Y-103248218D01*
X167881371Y-103412079D01*
X167881364Y-103412092D01*
X167805950Y-103594160D01*
X167805947Y-103594170D01*
X167767500Y-103787456D01*
X167767500Y-103787459D01*
X167767500Y-103984541D01*
X167767500Y-103984543D01*
X167767499Y-103984543D01*
X165768500Y-103984543D01*
X165768500Y-102486862D01*
X165788185Y-102419823D01*
X165804819Y-102399181D01*
X165818000Y-102386000D01*
X166318000Y-102386000D01*
X166715828Y-102386000D01*
X166715844Y-102385999D01*
X166775372Y-102379598D01*
X166775379Y-102379596D01*
X166910086Y-102329354D01*
X166910093Y-102329350D01*
X167025187Y-102243190D01*
X167025190Y-102243187D01*
X167111350Y-102128093D01*
X167111354Y-102128086D01*
X167161596Y-101993379D01*
X167161598Y-101993372D01*
X167167999Y-101933844D01*
X167168000Y-101933827D01*
X167168000Y-100886000D01*
X166318000Y-100886000D01*
X166318000Y-102386000D01*
X165818000Y-102386000D01*
X165818000Y-100386000D01*
X166318000Y-100386000D01*
X167168000Y-100386000D01*
X167168000Y-99338172D01*
X167167999Y-99338155D01*
X167161598Y-99278627D01*
X167161596Y-99278620D01*
X167111354Y-99143913D01*
X167111350Y-99143906D01*
X167025190Y-99028812D01*
X167025187Y-99028809D01*
X166910093Y-98942649D01*
X166910086Y-98942645D01*
X166775379Y-98892403D01*
X166775372Y-98892401D01*
X166715844Y-98886000D01*
X166318000Y-98886000D01*
X166318000Y-100386000D01*
X165818000Y-100386000D01*
X165818000Y-98886000D01*
X165420155Y-98886000D01*
X165360627Y-98892401D01*
X165360620Y-98892403D01*
X165225913Y-98942645D01*
X165225906Y-98942649D01*
X165110812Y-99028809D01*
X165110809Y-99028812D01*
X165024649Y-99143906D01*
X165024645Y-99143913D01*
X164974403Y-99278620D01*
X164974401Y-99278627D01*
X164968000Y-99338155D01*
X164968000Y-100155402D01*
X164948315Y-100222441D01*
X164895511Y-100268196D01*
X164826353Y-100278140D01*
X164762797Y-100249115D01*
X164756319Y-100243083D01*
X164048957Y-99535721D01*
X163330316Y-98817081D01*
X163296832Y-98755759D01*
X163301816Y-98686067D01*
X163343688Y-98630134D01*
X163405397Y-98606043D01*
X163473551Y-98599080D01*
X163637200Y-98544853D01*
X163637211Y-98544848D01*
X163783934Y-98454347D01*
X163783938Y-98454344D01*
X163905844Y-98332438D01*
X163905847Y-98332434D01*
X163996348Y-98185711D01*
X163996353Y-98185700D01*
X164050580Y-98022052D01*
X164060899Y-97921054D01*
X164060900Y-97921041D01*
X164060900Y-97884400D01*
X162897400Y-97884400D01*
X162830361Y-97864715D01*
X162784606Y-97811911D01*
X162773400Y-97760400D01*
X162773400Y-97384400D01*
X163273400Y-97384400D01*
X164060899Y-97384400D01*
X164060899Y-97347760D01*
X164060898Y-97347745D01*
X164050580Y-97246747D01*
X163996353Y-97083099D01*
X163996348Y-97083088D01*
X163905847Y-96936365D01*
X163905844Y-96936361D01*
X163783938Y-96814455D01*
X163783934Y-96814452D01*
X163637211Y-96723951D01*
X163637200Y-96723946D01*
X163473552Y-96669719D01*
X163372554Y-96659400D01*
X163273400Y-96659400D01*
X163273400Y-97384400D01*
X162773400Y-97384400D01*
X162773400Y-96659399D01*
X162674260Y-96659400D01*
X162674244Y-96659401D01*
X162573247Y-96669719D01*
X162409599Y-96723946D01*
X162409588Y-96723951D01*
X162262865Y-96814452D01*
X162248932Y-96828385D01*
X162187608Y-96861868D01*
X162117916Y-96856882D01*
X162073572Y-96828382D01*
X162059251Y-96814061D01*
X162059250Y-96814060D01*
X161968029Y-96757795D01*
X161912418Y-96723493D01*
X161912413Y-96723491D01*
X161910969Y-96723012D01*
X161748653Y-96669226D01*
X161748651Y-96669225D01*
X161647578Y-96658900D01*
X160949230Y-96658900D01*
X160949212Y-96658901D01*
X160848147Y-96669225D01*
X160684384Y-96723492D01*
X160684381Y-96723493D01*
X160537548Y-96814061D01*
X160415561Y-96936048D01*
X160407574Y-96948998D01*
X160355625Y-96995722D01*
X160302036Y-97007900D01*
X160252692Y-97007900D01*
X160185653Y-96988215D01*
X160151119Y-96955025D01*
X160021047Y-96769261D01*
X160021045Y-96769258D01*
X159860141Y-96608354D01*
X159673734Y-96477832D01*
X159673732Y-96477831D01*
X159615725Y-96450782D01*
X159615132Y-96450505D01*
X159562694Y-96404334D01*
X159543542Y-96337140D01*
X159563758Y-96270259D01*
X159615134Y-96225741D01*
X159673484Y-96198532D01*
X159859820Y-96068057D01*
X160020657Y-95907220D01*
X160151134Y-95720882D01*
X160247265Y-95514726D01*
X160247269Y-95514717D01*
X160299872Y-95318400D01*
X159336686Y-95318400D01*
X159341080Y-95314006D01*
X159393741Y-95222794D01*
X159421000Y-95121061D01*
X159421000Y-95015739D01*
X159393741Y-94914006D01*
X159341080Y-94822794D01*
X159336686Y-94818400D01*
X160299872Y-94818400D01*
X160299872Y-94818399D01*
X160250729Y-94634993D01*
X160252392Y-94565143D01*
X160291555Y-94507281D01*
X160355783Y-94479777D01*
X160370504Y-94478900D01*
X163009232Y-94478900D01*
X163076271Y-94498585D01*
X163096912Y-94515218D01*
X166649013Y-98067320D01*
X166649015Y-98067321D01*
X166649019Y-98067324D01*
X166771983Y-98138316D01*
X166785945Y-98146377D01*
X166938672Y-98187301D01*
X166938674Y-98187301D01*
X167104383Y-98187301D01*
X167104399Y-98187300D01*
X167443399Y-98187300D01*
X167510438Y-98206985D01*
X167548938Y-98246204D01*
X167558543Y-98261777D01*
X167572960Y-98285150D01*
X167694950Y-98407140D01*
X167841784Y-98497708D01*
X168005547Y-98551974D01*
X168106623Y-98562300D01*
X168704976Y-98562299D01*
X168704984Y-98562298D01*
X168704987Y-98562298D01*
X168760330Y-98556644D01*
X168806053Y-98551974D01*
X168969816Y-98497708D01*
X169116650Y-98407140D01*
X169230619Y-98293171D01*
X169291942Y-98259686D01*
X169361634Y-98264670D01*
X169405981Y-98293171D01*
X169519950Y-98407140D01*
X169666784Y-98497708D01*
X169830547Y-98551974D01*
X169931623Y-98562300D01*
X170529976Y-98562299D01*
X170529984Y-98562298D01*
X170529987Y-98562298D01*
X170585330Y-98556644D01*
X170631053Y-98551974D01*
X170794816Y-98497708D01*
X170941650Y-98407140D01*
X171063640Y-98285150D01*
X171087662Y-98246204D01*
X171139610Y-98199479D01*
X171193201Y-98187300D01*
X171759499Y-98187300D01*
X171826538Y-98206985D01*
X171865038Y-98246204D01*
X171874643Y-98261777D01*
X171889060Y-98285150D01*
X172011050Y-98407140D01*
X172157884Y-98497708D01*
X172321647Y-98551974D01*
X172422723Y-98562300D01*
X173096076Y-98562299D01*
X173096084Y-98562298D01*
X173096087Y-98562298D01*
X173151430Y-98556644D01*
X173197153Y-98551974D01*
X173360916Y-98497708D01*
X173507750Y-98407140D01*
X173546719Y-98368171D01*
X173608042Y-98334686D01*
X173677734Y-98339670D01*
X173722081Y-98368171D01*
X173761050Y-98407140D01*
X173907884Y-98497708D01*
X174071647Y-98551974D01*
X174172723Y-98562300D01*
X174846076Y-98562299D01*
X174846084Y-98562298D01*
X174846087Y-98562298D01*
X174901430Y-98556644D01*
X174947153Y-98551974D01*
X175110916Y-98497708D01*
X175257750Y-98407140D01*
X175379740Y-98285150D01*
X175470308Y-98138316D01*
X175524574Y-97974553D01*
X175534900Y-97873477D01*
X175534899Y-97300124D01*
X175524574Y-97199047D01*
X175470308Y-97035284D01*
X175379740Y-96888450D01*
X175257750Y-96766460D01*
X175110916Y-96675892D01*
X174947153Y-96621626D01*
X174947151Y-96621625D01*
X174846084Y-96611300D01*
X174846077Y-96611300D01*
X174434497Y-96611300D01*
X174367458Y-96591615D01*
X174346816Y-96574981D01*
X174170015Y-96398180D01*
X174136530Y-96336857D01*
X174141514Y-96267165D01*
X174183386Y-96211232D01*
X174248850Y-96186815D01*
X174257696Y-96186499D01*
X174815871Y-96186499D01*
X174815872Y-96186499D01*
X174875483Y-96180091D01*
X175010331Y-96129796D01*
X175125546Y-96043546D01*
X175211796Y-95928331D01*
X175262091Y-95793483D01*
X175268500Y-95733873D01*
X175268499Y-93138128D01*
X175262091Y-93078517D01*
X175257504Y-93066219D01*
X175211797Y-92943671D01*
X175211793Y-92943664D01*
X175125547Y-92828455D01*
X175125544Y-92828452D01*
X175010335Y-92742206D01*
X175010328Y-92742202D01*
X174875482Y-92691908D01*
X174875483Y-92691908D01*
X174815883Y-92685501D01*
X174815881Y-92685500D01*
X174815873Y-92685500D01*
X174815864Y-92685500D01*
X173520129Y-92685500D01*
X173520123Y-92685501D01*
X173460516Y-92691908D01*
X173325671Y-92742202D01*
X173325664Y-92742206D01*
X173210455Y-92828452D01*
X173210452Y-92828455D01*
X173124206Y-92943664D01*
X173124202Y-92943671D01*
X173073908Y-93078517D01*
X173067501Y-93138116D01*
X173067501Y-93138123D01*
X173067500Y-93138135D01*
X173067500Y-95733870D01*
X173067501Y-95733876D01*
X173073908Y-95793483D01*
X173124202Y-95928328D01*
X173128454Y-95936114D01*
X173126104Y-95937396D01*
X173145670Y-95989855D01*
X173130818Y-96058128D01*
X173081412Y-96107533D01*
X173021986Y-96122700D01*
X172314014Y-96122700D01*
X172246975Y-96103015D01*
X172201220Y-96050211D01*
X172191276Y-95981053D01*
X172209457Y-95937157D01*
X172207546Y-95936114D01*
X172211793Y-95928334D01*
X172211796Y-95928331D01*
X172262091Y-95793483D01*
X172268500Y-95733873D01*
X172268499Y-93138128D01*
X172262091Y-93078517D01*
X172257504Y-93066219D01*
X172211797Y-92943671D01*
X172211793Y-92943664D01*
X172125547Y-92828455D01*
X172125544Y-92828452D01*
X172010335Y-92742206D01*
X172010328Y-92742202D01*
X171875482Y-92691908D01*
X171875483Y-92691908D01*
X171815883Y-92685501D01*
X171815881Y-92685500D01*
X171815873Y-92685500D01*
X171815864Y-92685500D01*
X170520129Y-92685500D01*
X170520123Y-92685501D01*
X170460516Y-92691908D01*
X170325671Y-92742202D01*
X170325664Y-92742206D01*
X170210455Y-92828452D01*
X170210452Y-92828455D01*
X170124206Y-92943664D01*
X170124202Y-92943671D01*
X170073908Y-93078517D01*
X170067501Y-93138116D01*
X170067501Y-93138123D01*
X170067500Y-93138135D01*
X170067500Y-95733870D01*
X170067501Y-95733876D01*
X170073908Y-95793483D01*
X170124202Y-95928328D01*
X170128454Y-95936114D01*
X170126104Y-95937396D01*
X170145670Y-95989855D01*
X170130818Y-96058128D01*
X170081412Y-96107533D01*
X170021986Y-96122700D01*
X168314014Y-96122700D01*
X168246975Y-96103015D01*
X168201220Y-96050211D01*
X168191276Y-95981053D01*
X168209457Y-95937157D01*
X168207546Y-95936114D01*
X168211793Y-95928334D01*
X168211796Y-95928331D01*
X168262091Y-95793483D01*
X168268500Y-95733873D01*
X168268499Y-93138128D01*
X168262091Y-93078517D01*
X168257504Y-93066219D01*
X168211797Y-92943671D01*
X168211793Y-92943664D01*
X168125547Y-92828455D01*
X168125544Y-92828452D01*
X168010335Y-92742206D01*
X168010328Y-92742202D01*
X167875482Y-92691908D01*
X167875483Y-92691908D01*
X167815883Y-92685501D01*
X167815881Y-92685500D01*
X167815873Y-92685500D01*
X167815864Y-92685500D01*
X166520129Y-92685500D01*
X166520123Y-92685501D01*
X166460516Y-92691908D01*
X166325671Y-92742202D01*
X166325664Y-92742206D01*
X166210455Y-92828452D01*
X166210452Y-92828455D01*
X166124206Y-92943664D01*
X166124202Y-92943671D01*
X166073908Y-93078517D01*
X166067501Y-93138116D01*
X166067501Y-93138123D01*
X166067500Y-93138135D01*
X166067500Y-93711500D01*
X166047815Y-93778539D01*
X165995011Y-93824294D01*
X165943500Y-93835500D01*
X165298397Y-93835500D01*
X165231358Y-93815815D01*
X165210716Y-93799181D01*
X162696078Y-91284543D01*
X167767499Y-91284543D01*
X167805947Y-91477829D01*
X167805950Y-91477839D01*
X167881364Y-91659907D01*
X167881371Y-91659920D01*
X167990860Y-91823781D01*
X167990863Y-91823785D01*
X168130214Y-91963136D01*
X168130218Y-91963139D01*
X168294079Y-92072628D01*
X168294092Y-92072635D01*
X168476160Y-92148049D01*
X168476165Y-92148051D01*
X168476169Y-92148051D01*
X168476170Y-92148052D01*
X168669456Y-92186500D01*
X168669459Y-92186500D01*
X168866543Y-92186500D01*
X168996582Y-92160632D01*
X169059835Y-92148051D01*
X169241914Y-92072632D01*
X169405782Y-91963139D01*
X169545139Y-91823782D01*
X169654632Y-91659914D01*
X169654971Y-91659097D01*
X169708784Y-91529178D01*
X169730051Y-91477835D01*
X169754052Y-91357174D01*
X169768500Y-91284543D01*
X169768500Y-91087456D01*
X169730052Y-90894170D01*
X169730051Y-90894169D01*
X169730051Y-90894165D01*
X169695915Y-90811752D01*
X169654635Y-90712092D01*
X169654628Y-90712079D01*
X169545139Y-90548218D01*
X169545136Y-90548214D01*
X169405785Y-90408863D01*
X169405781Y-90408860D01*
X169241920Y-90299371D01*
X169241907Y-90299364D01*
X169059839Y-90223950D01*
X169059829Y-90223947D01*
X168866543Y-90185500D01*
X168866541Y-90185500D01*
X168669459Y-90185500D01*
X168669457Y-90185500D01*
X168476170Y-90223947D01*
X168476160Y-90223950D01*
X168294092Y-90299364D01*
X168294079Y-90299371D01*
X168130218Y-90408860D01*
X168130214Y-90408863D01*
X167990863Y-90548214D01*
X167990860Y-90548218D01*
X167881371Y-90712079D01*
X167881364Y-90712092D01*
X167805950Y-90894160D01*
X167805947Y-90894170D01*
X167767500Y-91087456D01*
X167767500Y-91087459D01*
X167767500Y-91284541D01*
X167767500Y-91284543D01*
X167767499Y-91284543D01*
X162696078Y-91284543D01*
X161900617Y-90489082D01*
X161867132Y-90427759D01*
X161872116Y-90358067D01*
X161913988Y-90302134D01*
X161975697Y-90278043D01*
X162043851Y-90271080D01*
X162207500Y-90216853D01*
X162207511Y-90216848D01*
X162354234Y-90126347D01*
X162354238Y-90126344D01*
X162476144Y-90004438D01*
X162476147Y-90004434D01*
X162566648Y-89857711D01*
X162566653Y-89857700D01*
X162620880Y-89694052D01*
X162631199Y-89593054D01*
X162631200Y-89593041D01*
X162631200Y-89556400D01*
X161467700Y-89556400D01*
X161400661Y-89536715D01*
X161354906Y-89483911D01*
X161343700Y-89432400D01*
X161343700Y-89233844D01*
X164968000Y-89233844D01*
X164974401Y-89293372D01*
X164974403Y-89293379D01*
X165024645Y-89428086D01*
X165024649Y-89428093D01*
X165110809Y-89543187D01*
X165110812Y-89543190D01*
X165225906Y-89629350D01*
X165225913Y-89629354D01*
X165360620Y-89679596D01*
X165360627Y-89679598D01*
X165420155Y-89685999D01*
X165420172Y-89686000D01*
X165818000Y-89686000D01*
X166318000Y-89686000D01*
X166715828Y-89686000D01*
X166715844Y-89685999D01*
X166775372Y-89679598D01*
X166775379Y-89679596D01*
X166910086Y-89629354D01*
X166910093Y-89629350D01*
X167025187Y-89543190D01*
X167025190Y-89543187D01*
X167111350Y-89428093D01*
X167111354Y-89428086D01*
X167161596Y-89293379D01*
X167161598Y-89293372D01*
X167167999Y-89233844D01*
X167168000Y-89233827D01*
X167168000Y-88186000D01*
X166318000Y-88186000D01*
X166318000Y-89686000D01*
X165818000Y-89686000D01*
X165818000Y-88186000D01*
X164968000Y-88186000D01*
X164968000Y-89233844D01*
X161343700Y-89233844D01*
X161343700Y-89056400D01*
X161843700Y-89056400D01*
X162631199Y-89056400D01*
X162631199Y-89019760D01*
X162631198Y-89019745D01*
X162620880Y-88918747D01*
X162566653Y-88755099D01*
X162566648Y-88755088D01*
X162476147Y-88608365D01*
X162476144Y-88608361D01*
X162354238Y-88486455D01*
X162354234Y-88486452D01*
X162207511Y-88395951D01*
X162207500Y-88395946D01*
X162043852Y-88341719D01*
X161942854Y-88331400D01*
X161843700Y-88331400D01*
X161843700Y-89056400D01*
X161343700Y-89056400D01*
X161343700Y-88331399D01*
X161244560Y-88331400D01*
X161244544Y-88331401D01*
X161143547Y-88341719D01*
X160979899Y-88395946D01*
X160979888Y-88395951D01*
X160833165Y-88486452D01*
X160819232Y-88500385D01*
X160757908Y-88533868D01*
X160688216Y-88528882D01*
X160643872Y-88500382D01*
X160629551Y-88486061D01*
X160629550Y-88486060D01*
X160538329Y-88429795D01*
X160482718Y-88395493D01*
X160482713Y-88395491D01*
X160481269Y-88395012D01*
X160318953Y-88341226D01*
X160318951Y-88341225D01*
X160217878Y-88330900D01*
X159519530Y-88330900D01*
X159519512Y-88330901D01*
X159418447Y-88341225D01*
X159254684Y-88395492D01*
X159254681Y-88395493D01*
X159107848Y-88486061D01*
X158985859Y-88608050D01*
X158961838Y-88646996D01*
X158909890Y-88693721D01*
X158856299Y-88705900D01*
X147108205Y-88705900D01*
X146950091Y-88705900D01*
X146797363Y-88746823D01*
X146797362Y-88746823D01*
X146797360Y-88746824D01*
X146797357Y-88746825D01*
X146747244Y-88775759D01*
X146747243Y-88775760D01*
X146703837Y-88800820D01*
X146660433Y-88825879D01*
X146660430Y-88825881D01*
X146548626Y-88937686D01*
X146142006Y-89344304D01*
X146080683Y-89377789D01*
X146010991Y-89372805D01*
X145966644Y-89344304D01*
X145941161Y-89318821D01*
X145941152Y-89318814D01*
X145799796Y-89235217D01*
X145799793Y-89235216D01*
X145642094Y-89189400D01*
X145642097Y-89189400D01*
X145639600Y-89189203D01*
X145639600Y-91329684D01*
X145622333Y-91392804D01*
X145587854Y-91451105D01*
X145587854Y-91451106D01*
X145542002Y-91608926D01*
X145542001Y-91608932D01*
X145539100Y-91645798D01*
X145539100Y-92952201D01*
X145542001Y-92989067D01*
X145542002Y-92989073D01*
X145587854Y-93146893D01*
X145587855Y-93146896D01*
X145671517Y-93288362D01*
X145671523Y-93288370D01*
X145787729Y-93404576D01*
X145787733Y-93404579D01*
X145787735Y-93404581D01*
X145929202Y-93488244D01*
X145970824Y-93500336D01*
X146087026Y-93534097D01*
X146087029Y-93534097D01*
X146087031Y-93534098D01*
X146123906Y-93537000D01*
X146123914Y-93537000D01*
X146555286Y-93537000D01*
X146555294Y-93537000D01*
X146592169Y-93534098D01*
X146592171Y-93534097D01*
X146592173Y-93534097D01*
X146661690Y-93513900D01*
X146749998Y-93488244D01*
X146891465Y-93404581D01*
X147007681Y-93288365D01*
X147091344Y-93146898D01*
X147125105Y-93030691D01*
X147137197Y-92989073D01*
X147137198Y-92989067D01*
X147140100Y-92952194D01*
X147140100Y-91786000D01*
X147159785Y-91718961D01*
X147212589Y-91673206D01*
X147264100Y-91662000D01*
X147505286Y-91662000D01*
X147505294Y-91662000D01*
X147542169Y-91659098D01*
X147575032Y-91649550D01*
X147644898Y-91649747D01*
X147697309Y-91680944D01*
X148684339Y-92667974D01*
X148684349Y-92667985D01*
X148688679Y-92672315D01*
X148688680Y-92672316D01*
X148800484Y-92784120D01*
X148886320Y-92833677D01*
X148886321Y-92833678D01*
X148937409Y-92863174D01*
X148937410Y-92863175D01*
X148937412Y-92863175D01*
X148937415Y-92863177D01*
X149090143Y-92904101D01*
X149090146Y-92904101D01*
X149255853Y-92904101D01*
X149255869Y-92904100D01*
X149940599Y-92904100D01*
X150007638Y-92923785D01*
X150046138Y-92963004D01*
X150062213Y-92989067D01*
X150070160Y-93001950D01*
X150192150Y-93123940D01*
X150338984Y-93214508D01*
X150502747Y-93268774D01*
X150603823Y-93279100D01*
X150711901Y-93279099D01*
X150778939Y-93298783D01*
X150824694Y-93351587D01*
X150834638Y-93420745D01*
X150831675Y-93435192D01*
X150800499Y-93551543D01*
X150800499Y-93719646D01*
X150800500Y-93719659D01*
X150800500Y-93836706D01*
X150780815Y-93903745D01*
X150747623Y-93938281D01*
X150561859Y-94068353D01*
X150400954Y-94229258D01*
X150270432Y-94415665D01*
X150270431Y-94415667D01*
X150174261Y-94621902D01*
X150174258Y-94621911D01*
X150115366Y-94841702D01*
X150115364Y-94841713D01*
X150095532Y-95068398D01*
X150095532Y-95068401D01*
X150115364Y-95295086D01*
X150115366Y-95295097D01*
X150174258Y-95514888D01*
X150174261Y-95514897D01*
X150270431Y-95721132D01*
X150270432Y-95721134D01*
X150400954Y-95907541D01*
X150561858Y-96068445D01*
X150561861Y-96068447D01*
X150748266Y-96198968D01*
X150805681Y-96225741D01*
X150806275Y-96226018D01*
X150858714Y-96272191D01*
X150877866Y-96339384D01*
X150857650Y-96406265D01*
X150806275Y-96450782D01*
X150748267Y-96477831D01*
X150748265Y-96477832D01*
X150561858Y-96608354D01*
X150400954Y-96769258D01*
X150270432Y-96955664D01*
X150270430Y-96955668D01*
X150239249Y-97022533D01*
X150193075Y-97074972D01*
X150188869Y-97077513D01*
X150101632Y-97127880D01*
X150101629Y-97127882D01*
X149989829Y-97239682D01*
X149989823Y-97239690D01*
X149910774Y-97376609D01*
X149910771Y-97376614D01*
X149867887Y-97536662D01*
X149835793Y-97592249D01*
X149493644Y-97934397D01*
X149432321Y-97967882D01*
X149362629Y-97962898D01*
X149306696Y-97921026D01*
X149282279Y-97855562D01*
X149282133Y-97840226D01*
X149298078Y-97536000D01*
X149298078Y-97535999D01*
X149277780Y-97148712D01*
X149217113Y-96765676D01*
X149217112Y-96765669D01*
X149116737Y-96391063D01*
X148977755Y-96029005D01*
X148801689Y-95683456D01*
X148590468Y-95358206D01*
X148381904Y-95100649D01*
X148381903Y-95100648D01*
X146887251Y-96595300D01*
X146813412Y-96493670D01*
X146635330Y-96315588D01*
X146533698Y-96241748D01*
X148028350Y-94747096D01*
X148028350Y-94747095D01*
X147770793Y-94538531D01*
X147445543Y-94327310D01*
X147099994Y-94151244D01*
X146737936Y-94012262D01*
X146363330Y-93911887D01*
X146363323Y-93911886D01*
X145980287Y-93851219D01*
X145593001Y-93830922D01*
X145592999Y-93830922D01*
X145205712Y-93851219D01*
X144822676Y-93911886D01*
X144822669Y-93911887D01*
X144448063Y-94012262D01*
X144086005Y-94151244D01*
X143740456Y-94327310D01*
X143415206Y-94538531D01*
X143157648Y-94747095D01*
X143157648Y-94747096D01*
X144652301Y-96241748D01*
X144550670Y-96315588D01*
X144372588Y-96493670D01*
X144298748Y-96595300D01*
X142804096Y-95100648D01*
X142804095Y-95100648D01*
X142595531Y-95358206D01*
X142384310Y-95683456D01*
X142208244Y-96029005D01*
X142069262Y-96391063D01*
X141968887Y-96765669D01*
X141968886Y-96765676D01*
X141908219Y-97148712D01*
X141887922Y-97535999D01*
X126992298Y-97535999D01*
X126992426Y-90622983D01*
X132908500Y-90622983D01*
X132908500Y-92223001D01*
X132908501Y-92223018D01*
X132919000Y-92325796D01*
X132919001Y-92325799D01*
X132974185Y-92492331D01*
X132974187Y-92492336D01*
X133009069Y-92548888D01*
X133066288Y-92641656D01*
X133190344Y-92765712D01*
X133339666Y-92857814D01*
X133506203Y-92912999D01*
X133608991Y-92923500D01*
X134909008Y-92923499D01*
X135011797Y-92912999D01*
X135178334Y-92857814D01*
X135327656Y-92765712D01*
X135451712Y-92641656D01*
X135543814Y-92492334D01*
X135543814Y-92492331D01*
X135547448Y-92486441D01*
X135599395Y-92439716D01*
X135668358Y-92428493D01*
X135732440Y-92456336D01*
X135740668Y-92463856D01*
X135879535Y-92602723D01*
X135879540Y-92602727D01*
X136051442Y-92727620D01*
X136240782Y-92824095D01*
X136442871Y-92889757D01*
X136509000Y-92900231D01*
X136509000Y-91856012D01*
X136566007Y-91888925D01*
X136693174Y-91923000D01*
X136824826Y-91923000D01*
X136951993Y-91888925D01*
X137009000Y-91856012D01*
X137009000Y-92900230D01*
X137075126Y-92889757D01*
X137075129Y-92889757D01*
X137277217Y-92824095D01*
X137466557Y-92727620D01*
X137638459Y-92602727D01*
X137638464Y-92602723D01*
X137788723Y-92452464D01*
X137788727Y-92452459D01*
X137913620Y-92280557D01*
X138010095Y-92091217D01*
X138075757Y-91889130D01*
X138075757Y-91889127D01*
X138109000Y-91679246D01*
X138109000Y-91673000D01*
X137192012Y-91673000D01*
X137224925Y-91615993D01*
X137259000Y-91488826D01*
X137259000Y-91357174D01*
X137224925Y-91230007D01*
X137192012Y-91173000D01*
X138109000Y-91173000D01*
X138109000Y-91166753D01*
X138094808Y-91077149D01*
X144589600Y-91077149D01*
X144592499Y-91113989D01*
X144592500Y-91113995D01*
X144638316Y-91271693D01*
X144638317Y-91271696D01*
X144721914Y-91413052D01*
X144721921Y-91413061D01*
X144838038Y-91529178D01*
X144838047Y-91529185D01*
X144979401Y-91612781D01*
X145137114Y-91658600D01*
X145137111Y-91658600D01*
X145139598Y-91658795D01*
X145139600Y-91658795D01*
X145139600Y-90674000D01*
X144589600Y-90674000D01*
X144589600Y-91077149D01*
X138094808Y-91077149D01*
X138075757Y-90956872D01*
X138075757Y-90956869D01*
X138010095Y-90754782D01*
X137913620Y-90565442D01*
X137788727Y-90393540D01*
X137788723Y-90393535D01*
X137638464Y-90243276D01*
X137638459Y-90243272D01*
X137466557Y-90118379D01*
X137277215Y-90021903D01*
X137075124Y-89956241D01*
X137009000Y-89945768D01*
X137009000Y-90989988D01*
X136951993Y-90957075D01*
X136824826Y-90923000D01*
X136693174Y-90923000D01*
X136566007Y-90957075D01*
X136509000Y-90989988D01*
X136509000Y-89945768D01*
X136508999Y-89945768D01*
X136442875Y-89956241D01*
X136240784Y-90021903D01*
X136051442Y-90118379D01*
X135879541Y-90243271D01*
X135740668Y-90382144D01*
X135679345Y-90415628D01*
X135609653Y-90410644D01*
X135553720Y-90368772D01*
X135547448Y-90359558D01*
X135497182Y-90278064D01*
X135451712Y-90204344D01*
X135327656Y-90080288D01*
X135204683Y-90004438D01*
X135178336Y-89988187D01*
X135178331Y-89988185D01*
X135151786Y-89979389D01*
X135011797Y-89933001D01*
X135011795Y-89933000D01*
X134909010Y-89922500D01*
X133608998Y-89922500D01*
X133608981Y-89922501D01*
X133506203Y-89933000D01*
X133506200Y-89933001D01*
X133339668Y-89988185D01*
X133339663Y-89988187D01*
X133190342Y-90080289D01*
X133066289Y-90204342D01*
X132974187Y-90353663D01*
X132974185Y-90353668D01*
X132969180Y-90368772D01*
X132919001Y-90520203D01*
X132919001Y-90520204D01*
X132919000Y-90520204D01*
X132908500Y-90622983D01*
X126992426Y-90622983D01*
X126992442Y-89770850D01*
X144589600Y-89770850D01*
X144589600Y-90174000D01*
X145139600Y-90174000D01*
X145139600Y-89189203D01*
X145137103Y-89189400D01*
X144979406Y-89235216D01*
X144979403Y-89235217D01*
X144838047Y-89318814D01*
X144838038Y-89318821D01*
X144721921Y-89434938D01*
X144721914Y-89434947D01*
X144638317Y-89576303D01*
X144638316Y-89576306D01*
X144592500Y-89734004D01*
X144592499Y-89734010D01*
X144589600Y-89770850D01*
X126992442Y-89770850D01*
X126992497Y-86818726D01*
X126992500Y-86818709D01*
X126992500Y-86753210D01*
X126994883Y-86729019D01*
X126997926Y-86713721D01*
X127016411Y-86669066D01*
X127016463Y-86668987D01*
X127018164Y-86666441D01*
X127052441Y-86632164D01*
X127055066Y-86630411D01*
X127099718Y-86611926D01*
X127115028Y-86608881D01*
X127139211Y-86606500D01*
X127192892Y-86606500D01*
X164844000Y-86606500D01*
X164911039Y-86626185D01*
G37*
%TD.AperFunction*%
%TD*%
M02*
