%TF.GenerationSoftware,KiCad,Pcbnew,8.0.4-1.fc40*%
%TF.CreationDate,2024-08-14T09:28:28-05:00*%
%TF.ProjectId,K9QW_ATTiny_CW_Keyer,4b395157-5f41-4545-9469-6e795f43575f,rev?*%
%TF.SameCoordinates,Original*%
%TF.FileFunction,Legend,Top*%
%TF.FilePolarity,Positive*%
%FSLAX46Y46*%
G04 Gerber Fmt 4.6, Leading zero omitted, Abs format (unit mm)*
G04 Created by KiCad (PCBNEW 8.0.4-1.fc40) date 2024-08-14 09:28:28*
%MOMM*%
%LPD*%
G01*
G04 APERTURE LIST*
%ADD10C,0.100000*%
%ADD11C,0.187500*%
%ADD12C,0.300000*%
%ADD13C,0.150000*%
%ADD14C,0.120000*%
G04 APERTURE END LIST*
D10*
X167375493Y-88353438D02*
X167280255Y-88305819D01*
X167280255Y-88305819D02*
X167137398Y-88305819D01*
X167137398Y-88305819D02*
X166994541Y-88353438D01*
X166994541Y-88353438D02*
X166899303Y-88448676D01*
X166899303Y-88448676D02*
X166851684Y-88543914D01*
X166851684Y-88543914D02*
X166804065Y-88734390D01*
X166804065Y-88734390D02*
X166804065Y-88877247D01*
X166804065Y-88877247D02*
X166851684Y-89067723D01*
X166851684Y-89067723D02*
X166899303Y-89162961D01*
X166899303Y-89162961D02*
X166994541Y-89258200D01*
X166994541Y-89258200D02*
X167137398Y-89305819D01*
X167137398Y-89305819D02*
X167232636Y-89305819D01*
X167232636Y-89305819D02*
X167375493Y-89258200D01*
X167375493Y-89258200D02*
X167423112Y-89210580D01*
X167423112Y-89210580D02*
X167423112Y-88877247D01*
X167423112Y-88877247D02*
X167232636Y-88877247D01*
X167851684Y-89305819D02*
X167851684Y-88305819D01*
X167851684Y-88305819D02*
X168423112Y-89305819D01*
X168423112Y-89305819D02*
X168423112Y-88305819D01*
X168899303Y-89305819D02*
X168899303Y-88305819D01*
X168899303Y-88305819D02*
X169137398Y-88305819D01*
X169137398Y-88305819D02*
X169280255Y-88353438D01*
X169280255Y-88353438D02*
X169375493Y-88448676D01*
X169375493Y-88448676D02*
X169423112Y-88543914D01*
X169423112Y-88543914D02*
X169470731Y-88734390D01*
X169470731Y-88734390D02*
X169470731Y-88877247D01*
X169470731Y-88877247D02*
X169423112Y-89067723D01*
X169423112Y-89067723D02*
X169375493Y-89162961D01*
X169375493Y-89162961D02*
X169280255Y-89258200D01*
X169280255Y-89258200D02*
X169137398Y-89305819D01*
X169137398Y-89305819D02*
X168899303Y-89305819D01*
X167400893Y-101104238D02*
X167305655Y-101056619D01*
X167305655Y-101056619D02*
X167162798Y-101056619D01*
X167162798Y-101056619D02*
X167019941Y-101104238D01*
X167019941Y-101104238D02*
X166924703Y-101199476D01*
X166924703Y-101199476D02*
X166877084Y-101294714D01*
X166877084Y-101294714D02*
X166829465Y-101485190D01*
X166829465Y-101485190D02*
X166829465Y-101628047D01*
X166829465Y-101628047D02*
X166877084Y-101818523D01*
X166877084Y-101818523D02*
X166924703Y-101913761D01*
X166924703Y-101913761D02*
X167019941Y-102009000D01*
X167019941Y-102009000D02*
X167162798Y-102056619D01*
X167162798Y-102056619D02*
X167258036Y-102056619D01*
X167258036Y-102056619D02*
X167400893Y-102009000D01*
X167400893Y-102009000D02*
X167448512Y-101961380D01*
X167448512Y-101961380D02*
X167448512Y-101628047D01*
X167448512Y-101628047D02*
X167258036Y-101628047D01*
X167877084Y-102056619D02*
X167877084Y-101056619D01*
X167877084Y-101056619D02*
X168448512Y-102056619D01*
X168448512Y-102056619D02*
X168448512Y-101056619D01*
X168924703Y-102056619D02*
X168924703Y-101056619D01*
X168924703Y-101056619D02*
X169162798Y-101056619D01*
X169162798Y-101056619D02*
X169305655Y-101104238D01*
X169305655Y-101104238D02*
X169400893Y-101199476D01*
X169400893Y-101199476D02*
X169448512Y-101294714D01*
X169448512Y-101294714D02*
X169496131Y-101485190D01*
X169496131Y-101485190D02*
X169496131Y-101628047D01*
X169496131Y-101628047D02*
X169448512Y-101818523D01*
X169448512Y-101818523D02*
X169400893Y-101913761D01*
X169400893Y-101913761D02*
X169305655Y-102009000D01*
X169305655Y-102009000D02*
X169162798Y-102056619D01*
X169162798Y-102056619D02*
X168924703Y-102056619D01*
X170245693Y-115201238D02*
X170150455Y-115153619D01*
X170150455Y-115153619D02*
X170007598Y-115153619D01*
X170007598Y-115153619D02*
X169864741Y-115201238D01*
X169864741Y-115201238D02*
X169769503Y-115296476D01*
X169769503Y-115296476D02*
X169721884Y-115391714D01*
X169721884Y-115391714D02*
X169674265Y-115582190D01*
X169674265Y-115582190D02*
X169674265Y-115725047D01*
X169674265Y-115725047D02*
X169721884Y-115915523D01*
X169721884Y-115915523D02*
X169769503Y-116010761D01*
X169769503Y-116010761D02*
X169864741Y-116106000D01*
X169864741Y-116106000D02*
X170007598Y-116153619D01*
X170007598Y-116153619D02*
X170102836Y-116153619D01*
X170102836Y-116153619D02*
X170245693Y-116106000D01*
X170245693Y-116106000D02*
X170293312Y-116058380D01*
X170293312Y-116058380D02*
X170293312Y-115725047D01*
X170293312Y-115725047D02*
X170102836Y-115725047D01*
X170721884Y-116153619D02*
X170721884Y-115153619D01*
X170721884Y-115153619D02*
X171293312Y-116153619D01*
X171293312Y-116153619D02*
X171293312Y-115153619D01*
X171769503Y-116153619D02*
X171769503Y-115153619D01*
X171769503Y-115153619D02*
X172007598Y-115153619D01*
X172007598Y-115153619D02*
X172150455Y-115201238D01*
X172150455Y-115201238D02*
X172245693Y-115296476D01*
X172245693Y-115296476D02*
X172293312Y-115391714D01*
X172293312Y-115391714D02*
X172340931Y-115582190D01*
X172340931Y-115582190D02*
X172340931Y-115725047D01*
X172340931Y-115725047D02*
X172293312Y-115915523D01*
X172293312Y-115915523D02*
X172245693Y-116010761D01*
X172245693Y-116010761D02*
X172150455Y-116106000D01*
X172150455Y-116106000D02*
X172007598Y-116153619D01*
X172007598Y-116153619D02*
X171769503Y-116153619D01*
X171245884Y-98068819D02*
X171245884Y-97068819D01*
X171817312Y-98068819D02*
X171388741Y-97497390D01*
X171817312Y-97068819D02*
X171245884Y-97640247D01*
X165918580Y-116320287D02*
X165966200Y-116367906D01*
X165966200Y-116367906D02*
X166013819Y-116510763D01*
X166013819Y-116510763D02*
X166013819Y-116606001D01*
X166013819Y-116606001D02*
X165966200Y-116748858D01*
X165966200Y-116748858D02*
X165870961Y-116844096D01*
X165870961Y-116844096D02*
X165775723Y-116891715D01*
X165775723Y-116891715D02*
X165585247Y-116939334D01*
X165585247Y-116939334D02*
X165442390Y-116939334D01*
X165442390Y-116939334D02*
X165251914Y-116891715D01*
X165251914Y-116891715D02*
X165156676Y-116844096D01*
X165156676Y-116844096D02*
X165061438Y-116748858D01*
X165061438Y-116748858D02*
X165013819Y-116606001D01*
X165013819Y-116606001D02*
X165013819Y-116510763D01*
X165013819Y-116510763D02*
X165061438Y-116367906D01*
X165061438Y-116367906D02*
X165109057Y-116320287D01*
X166013819Y-115748858D02*
X165966200Y-115844096D01*
X165966200Y-115844096D02*
X165918580Y-115891715D01*
X165918580Y-115891715D02*
X165823342Y-115939334D01*
X165823342Y-115939334D02*
X165537628Y-115939334D01*
X165537628Y-115939334D02*
X165442390Y-115891715D01*
X165442390Y-115891715D02*
X165394771Y-115844096D01*
X165394771Y-115844096D02*
X165347152Y-115748858D01*
X165347152Y-115748858D02*
X165347152Y-115606001D01*
X165347152Y-115606001D02*
X165394771Y-115510763D01*
X165394771Y-115510763D02*
X165442390Y-115463144D01*
X165442390Y-115463144D02*
X165537628Y-115415525D01*
X165537628Y-115415525D02*
X165823342Y-115415525D01*
X165823342Y-115415525D02*
X165918580Y-115463144D01*
X165918580Y-115463144D02*
X165966200Y-115510763D01*
X165966200Y-115510763D02*
X166013819Y-115606001D01*
X166013819Y-115606001D02*
X166013819Y-115748858D01*
X166013819Y-114986953D02*
X165347152Y-114986953D01*
X165442390Y-114986953D02*
X165394771Y-114939334D01*
X165394771Y-114939334D02*
X165347152Y-114844096D01*
X165347152Y-114844096D02*
X165347152Y-114701239D01*
X165347152Y-114701239D02*
X165394771Y-114606001D01*
X165394771Y-114606001D02*
X165490009Y-114558382D01*
X165490009Y-114558382D02*
X166013819Y-114558382D01*
X165490009Y-114558382D02*
X165394771Y-114510763D01*
X165394771Y-114510763D02*
X165347152Y-114415525D01*
X165347152Y-114415525D02*
X165347152Y-114272668D01*
X165347152Y-114272668D02*
X165394771Y-114177429D01*
X165394771Y-114177429D02*
X165490009Y-114129810D01*
X165490009Y-114129810D02*
X166013819Y-114129810D01*
X166013819Y-113653620D02*
X165347152Y-113653620D01*
X165442390Y-113653620D02*
X165394771Y-113606001D01*
X165394771Y-113606001D02*
X165347152Y-113510763D01*
X165347152Y-113510763D02*
X165347152Y-113367906D01*
X165347152Y-113367906D02*
X165394771Y-113272668D01*
X165394771Y-113272668D02*
X165490009Y-113225049D01*
X165490009Y-113225049D02*
X166013819Y-113225049D01*
X165490009Y-113225049D02*
X165394771Y-113177430D01*
X165394771Y-113177430D02*
X165347152Y-113082192D01*
X165347152Y-113082192D02*
X165347152Y-112939335D01*
X165347152Y-112939335D02*
X165394771Y-112844096D01*
X165394771Y-112844096D02*
X165490009Y-112796477D01*
X165490009Y-112796477D02*
X166013819Y-112796477D01*
X166013819Y-111891716D02*
X165490009Y-111891716D01*
X165490009Y-111891716D02*
X165394771Y-111939335D01*
X165394771Y-111939335D02*
X165347152Y-112034573D01*
X165347152Y-112034573D02*
X165347152Y-112225049D01*
X165347152Y-112225049D02*
X165394771Y-112320287D01*
X165966200Y-111891716D02*
X166013819Y-111986954D01*
X166013819Y-111986954D02*
X166013819Y-112225049D01*
X166013819Y-112225049D02*
X165966200Y-112320287D01*
X165966200Y-112320287D02*
X165870961Y-112367906D01*
X165870961Y-112367906D02*
X165775723Y-112367906D01*
X165775723Y-112367906D02*
X165680485Y-112320287D01*
X165680485Y-112320287D02*
X165632866Y-112225049D01*
X165632866Y-112225049D02*
X165632866Y-111986954D01*
X165632866Y-111986954D02*
X165585247Y-111891716D01*
X165347152Y-111415525D02*
X166013819Y-111415525D01*
X165442390Y-111415525D02*
X165394771Y-111367906D01*
X165394771Y-111367906D02*
X165347152Y-111272668D01*
X165347152Y-111272668D02*
X165347152Y-111129811D01*
X165347152Y-111129811D02*
X165394771Y-111034573D01*
X165394771Y-111034573D02*
X165490009Y-110986954D01*
X165490009Y-110986954D02*
X166013819Y-110986954D01*
X166013819Y-110082192D02*
X165013819Y-110082192D01*
X165966200Y-110082192D02*
X166013819Y-110177430D01*
X166013819Y-110177430D02*
X166013819Y-110367906D01*
X166013819Y-110367906D02*
X165966200Y-110463144D01*
X165966200Y-110463144D02*
X165918580Y-110510763D01*
X165918580Y-110510763D02*
X165823342Y-110558382D01*
X165823342Y-110558382D02*
X165537628Y-110558382D01*
X165537628Y-110558382D02*
X165442390Y-110510763D01*
X165442390Y-110510763D02*
X165394771Y-110463144D01*
X165394771Y-110463144D02*
X165347152Y-110367906D01*
X165347152Y-110367906D02*
X165347152Y-110177430D01*
X165347152Y-110177430D02*
X165394771Y-110082192D01*
X166115084Y-92963419D02*
X166115084Y-91963419D01*
X166686512Y-92963419D02*
X166257941Y-92391990D01*
X166686512Y-91963419D02*
X166115084Y-92534847D01*
X167496036Y-92915800D02*
X167400798Y-92963419D01*
X167400798Y-92963419D02*
X167210322Y-92963419D01*
X167210322Y-92963419D02*
X167115084Y-92915800D01*
X167115084Y-92915800D02*
X167067465Y-92820561D01*
X167067465Y-92820561D02*
X167067465Y-92439609D01*
X167067465Y-92439609D02*
X167115084Y-92344371D01*
X167115084Y-92344371D02*
X167210322Y-92296752D01*
X167210322Y-92296752D02*
X167400798Y-92296752D01*
X167400798Y-92296752D02*
X167496036Y-92344371D01*
X167496036Y-92344371D02*
X167543655Y-92439609D01*
X167543655Y-92439609D02*
X167543655Y-92534847D01*
X167543655Y-92534847D02*
X167067465Y-92630085D01*
X167876989Y-92296752D02*
X168115084Y-92963419D01*
X168353179Y-92296752D02*
X168115084Y-92963419D01*
X168115084Y-92963419D02*
X168019846Y-93201514D01*
X168019846Y-93201514D02*
X167972227Y-93249133D01*
X167972227Y-93249133D02*
X167876989Y-93296752D01*
X164769219Y-108306515D02*
X163769219Y-108306515D01*
X163769219Y-108306515D02*
X163769219Y-107925563D01*
X163769219Y-107925563D02*
X163816838Y-107830325D01*
X163816838Y-107830325D02*
X163864457Y-107782706D01*
X163864457Y-107782706D02*
X163959695Y-107735087D01*
X163959695Y-107735087D02*
X164102552Y-107735087D01*
X164102552Y-107735087D02*
X164197790Y-107782706D01*
X164197790Y-107782706D02*
X164245409Y-107830325D01*
X164245409Y-107830325D02*
X164293028Y-107925563D01*
X164293028Y-107925563D02*
X164293028Y-108306515D01*
X164769219Y-106877944D02*
X164245409Y-106877944D01*
X164245409Y-106877944D02*
X164150171Y-106925563D01*
X164150171Y-106925563D02*
X164102552Y-107020801D01*
X164102552Y-107020801D02*
X164102552Y-107211277D01*
X164102552Y-107211277D02*
X164150171Y-107306515D01*
X164721600Y-106877944D02*
X164769219Y-106973182D01*
X164769219Y-106973182D02*
X164769219Y-107211277D01*
X164769219Y-107211277D02*
X164721600Y-107306515D01*
X164721600Y-107306515D02*
X164626361Y-107354134D01*
X164626361Y-107354134D02*
X164531123Y-107354134D01*
X164531123Y-107354134D02*
X164435885Y-107306515D01*
X164435885Y-107306515D02*
X164388266Y-107211277D01*
X164388266Y-107211277D02*
X164388266Y-106973182D01*
X164388266Y-106973182D02*
X164340647Y-106877944D01*
X164769219Y-105973182D02*
X163769219Y-105973182D01*
X164721600Y-105973182D02*
X164769219Y-106068420D01*
X164769219Y-106068420D02*
X164769219Y-106258896D01*
X164769219Y-106258896D02*
X164721600Y-106354134D01*
X164721600Y-106354134D02*
X164673980Y-106401753D01*
X164673980Y-106401753D02*
X164578742Y-106449372D01*
X164578742Y-106449372D02*
X164293028Y-106449372D01*
X164293028Y-106449372D02*
X164197790Y-106401753D01*
X164197790Y-106401753D02*
X164150171Y-106354134D01*
X164150171Y-106354134D02*
X164102552Y-106258896D01*
X164102552Y-106258896D02*
X164102552Y-106068420D01*
X164102552Y-106068420D02*
X164150171Y-105973182D01*
X164769219Y-105068420D02*
X163769219Y-105068420D01*
X164721600Y-105068420D02*
X164769219Y-105163658D01*
X164769219Y-105163658D02*
X164769219Y-105354134D01*
X164769219Y-105354134D02*
X164721600Y-105449372D01*
X164721600Y-105449372D02*
X164673980Y-105496991D01*
X164673980Y-105496991D02*
X164578742Y-105544610D01*
X164578742Y-105544610D02*
X164293028Y-105544610D01*
X164293028Y-105544610D02*
X164197790Y-105496991D01*
X164197790Y-105496991D02*
X164150171Y-105449372D01*
X164150171Y-105449372D02*
X164102552Y-105354134D01*
X164102552Y-105354134D02*
X164102552Y-105163658D01*
X164102552Y-105163658D02*
X164150171Y-105068420D01*
X164769219Y-104449372D02*
X164721600Y-104544610D01*
X164721600Y-104544610D02*
X164626361Y-104592229D01*
X164626361Y-104592229D02*
X163769219Y-104592229D01*
X164721600Y-103687467D02*
X164769219Y-103782705D01*
X164769219Y-103782705D02*
X164769219Y-103973181D01*
X164769219Y-103973181D02*
X164721600Y-104068419D01*
X164721600Y-104068419D02*
X164626361Y-104116038D01*
X164626361Y-104116038D02*
X164245409Y-104116038D01*
X164245409Y-104116038D02*
X164150171Y-104068419D01*
X164150171Y-104068419D02*
X164102552Y-103973181D01*
X164102552Y-103973181D02*
X164102552Y-103782705D01*
X164102552Y-103782705D02*
X164150171Y-103687467D01*
X164150171Y-103687467D02*
X164245409Y-103639848D01*
X164245409Y-103639848D02*
X164340647Y-103639848D01*
X164340647Y-103639848D02*
X164435885Y-104116038D01*
X164769219Y-102449371D02*
X163769219Y-102449371D01*
X164102552Y-101973181D02*
X164769219Y-101973181D01*
X164197790Y-101973181D02*
X164150171Y-101925562D01*
X164150171Y-101925562D02*
X164102552Y-101830324D01*
X164102552Y-101830324D02*
X164102552Y-101687467D01*
X164102552Y-101687467D02*
X164150171Y-101592229D01*
X164150171Y-101592229D02*
X164245409Y-101544610D01*
X164245409Y-101544610D02*
X164769219Y-101544610D01*
X164102552Y-101068419D02*
X165102552Y-101068419D01*
X164150171Y-101068419D02*
X164102552Y-100973181D01*
X164102552Y-100973181D02*
X164102552Y-100782705D01*
X164102552Y-100782705D02*
X164150171Y-100687467D01*
X164150171Y-100687467D02*
X164197790Y-100639848D01*
X164197790Y-100639848D02*
X164293028Y-100592229D01*
X164293028Y-100592229D02*
X164578742Y-100592229D01*
X164578742Y-100592229D02*
X164673980Y-100639848D01*
X164673980Y-100639848D02*
X164721600Y-100687467D01*
X164721600Y-100687467D02*
X164769219Y-100782705D01*
X164769219Y-100782705D02*
X164769219Y-100973181D01*
X164769219Y-100973181D02*
X164721600Y-101068419D01*
X164102552Y-99735086D02*
X164769219Y-99735086D01*
X164102552Y-100163657D02*
X164626361Y-100163657D01*
X164626361Y-100163657D02*
X164721600Y-100116038D01*
X164721600Y-100116038D02*
X164769219Y-100020800D01*
X164769219Y-100020800D02*
X164769219Y-99877943D01*
X164769219Y-99877943D02*
X164721600Y-99782705D01*
X164721600Y-99782705D02*
X164673980Y-99735086D01*
X164102552Y-99401752D02*
X164102552Y-99020800D01*
X163769219Y-99258895D02*
X164626361Y-99258895D01*
X164626361Y-99258895D02*
X164721600Y-99211276D01*
X164721600Y-99211276D02*
X164769219Y-99116038D01*
X164769219Y-99116038D02*
X164769219Y-99020800D01*
D11*
X143981850Y-114856130D02*
X144053278Y-114641845D01*
X144053278Y-114641845D02*
X144053278Y-114284702D01*
X144053278Y-114284702D02*
X143981850Y-114141845D01*
X143981850Y-114141845D02*
X143910421Y-114070416D01*
X143910421Y-114070416D02*
X143767564Y-113998987D01*
X143767564Y-113998987D02*
X143624707Y-113998987D01*
X143624707Y-113998987D02*
X143481850Y-114070416D01*
X143481850Y-114070416D02*
X143410421Y-114141845D01*
X143410421Y-114141845D02*
X143338992Y-114284702D01*
X143338992Y-114284702D02*
X143267564Y-114570416D01*
X143267564Y-114570416D02*
X143196135Y-114713273D01*
X143196135Y-114713273D02*
X143124707Y-114784702D01*
X143124707Y-114784702D02*
X142981850Y-114856130D01*
X142981850Y-114856130D02*
X142838992Y-114856130D01*
X142838992Y-114856130D02*
X142696135Y-114784702D01*
X142696135Y-114784702D02*
X142624707Y-114713273D01*
X142624707Y-114713273D02*
X142553278Y-114570416D01*
X142553278Y-114570416D02*
X142553278Y-114213273D01*
X142553278Y-114213273D02*
X142624707Y-113998987D01*
X144053278Y-113356131D02*
X143053278Y-113356131D01*
X142553278Y-113356131D02*
X142624707Y-113427559D01*
X142624707Y-113427559D02*
X142696135Y-113356131D01*
X142696135Y-113356131D02*
X142624707Y-113284702D01*
X142624707Y-113284702D02*
X142553278Y-113356131D01*
X142553278Y-113356131D02*
X142696135Y-113356131D01*
X144053278Y-111998988D02*
X142553278Y-111998988D01*
X143981850Y-111998988D02*
X144053278Y-112141845D01*
X144053278Y-112141845D02*
X144053278Y-112427559D01*
X144053278Y-112427559D02*
X143981850Y-112570416D01*
X143981850Y-112570416D02*
X143910421Y-112641845D01*
X143910421Y-112641845D02*
X143767564Y-112713273D01*
X143767564Y-112713273D02*
X143338992Y-112713273D01*
X143338992Y-112713273D02*
X143196135Y-112641845D01*
X143196135Y-112641845D02*
X143124707Y-112570416D01*
X143124707Y-112570416D02*
X143053278Y-112427559D01*
X143053278Y-112427559D02*
X143053278Y-112141845D01*
X143053278Y-112141845D02*
X143124707Y-111998988D01*
X143981850Y-110713273D02*
X144053278Y-110856130D01*
X144053278Y-110856130D02*
X144053278Y-111141845D01*
X144053278Y-111141845D02*
X143981850Y-111284702D01*
X143981850Y-111284702D02*
X143838992Y-111356130D01*
X143838992Y-111356130D02*
X143267564Y-111356130D01*
X143267564Y-111356130D02*
X143124707Y-111284702D01*
X143124707Y-111284702D02*
X143053278Y-111141845D01*
X143053278Y-111141845D02*
X143053278Y-110856130D01*
X143053278Y-110856130D02*
X143124707Y-110713273D01*
X143124707Y-110713273D02*
X143267564Y-110641845D01*
X143267564Y-110641845D02*
X143410421Y-110641845D01*
X143410421Y-110641845D02*
X143553278Y-111356130D01*
X143053278Y-110213273D02*
X143053278Y-109641845D01*
X142553278Y-109998988D02*
X143838992Y-109998988D01*
X143838992Y-109998988D02*
X143981850Y-109927559D01*
X143981850Y-109927559D02*
X144053278Y-109784702D01*
X144053278Y-109784702D02*
X144053278Y-109641845D01*
X144053278Y-108927559D02*
X143981850Y-109070416D01*
X143981850Y-109070416D02*
X143910421Y-109141845D01*
X143910421Y-109141845D02*
X143767564Y-109213273D01*
X143767564Y-109213273D02*
X143338992Y-109213273D01*
X143338992Y-109213273D02*
X143196135Y-109141845D01*
X143196135Y-109141845D02*
X143124707Y-109070416D01*
X143124707Y-109070416D02*
X143053278Y-108927559D01*
X143053278Y-108927559D02*
X143053278Y-108713273D01*
X143053278Y-108713273D02*
X143124707Y-108570416D01*
X143124707Y-108570416D02*
X143196135Y-108498988D01*
X143196135Y-108498988D02*
X143338992Y-108427559D01*
X143338992Y-108427559D02*
X143767564Y-108427559D01*
X143767564Y-108427559D02*
X143910421Y-108498988D01*
X143910421Y-108498988D02*
X143981850Y-108570416D01*
X143981850Y-108570416D02*
X144053278Y-108713273D01*
X144053278Y-108713273D02*
X144053278Y-108927559D01*
X143053278Y-107784702D02*
X144053278Y-107784702D01*
X143196135Y-107784702D02*
X143124707Y-107713273D01*
X143124707Y-107713273D02*
X143053278Y-107570416D01*
X143053278Y-107570416D02*
X143053278Y-107356130D01*
X143053278Y-107356130D02*
X143124707Y-107213273D01*
X143124707Y-107213273D02*
X143267564Y-107141845D01*
X143267564Y-107141845D02*
X144053278Y-107141845D01*
X143981850Y-105856130D02*
X144053278Y-105998987D01*
X144053278Y-105998987D02*
X144053278Y-106284702D01*
X144053278Y-106284702D02*
X143981850Y-106427559D01*
X143981850Y-106427559D02*
X143838992Y-106498987D01*
X143838992Y-106498987D02*
X143267564Y-106498987D01*
X143267564Y-106498987D02*
X143124707Y-106427559D01*
X143124707Y-106427559D02*
X143053278Y-106284702D01*
X143053278Y-106284702D02*
X143053278Y-105998987D01*
X143053278Y-105998987D02*
X143124707Y-105856130D01*
X143124707Y-105856130D02*
X143267564Y-105784702D01*
X143267564Y-105784702D02*
X143410421Y-105784702D01*
X143410421Y-105784702D02*
X143553278Y-106498987D01*
D10*
X140003884Y-89026466D02*
X140765789Y-89026466D01*
X170242512Y-111511780D02*
X170194893Y-111559400D01*
X170194893Y-111559400D02*
X170052036Y-111607019D01*
X170052036Y-111607019D02*
X169956798Y-111607019D01*
X169956798Y-111607019D02*
X169813941Y-111559400D01*
X169813941Y-111559400D02*
X169718703Y-111464161D01*
X169718703Y-111464161D02*
X169671084Y-111368923D01*
X169671084Y-111368923D02*
X169623465Y-111178447D01*
X169623465Y-111178447D02*
X169623465Y-111035590D01*
X169623465Y-111035590D02*
X169671084Y-110845114D01*
X169671084Y-110845114D02*
X169718703Y-110749876D01*
X169718703Y-110749876D02*
X169813941Y-110654638D01*
X169813941Y-110654638D02*
X169956798Y-110607019D01*
X169956798Y-110607019D02*
X170052036Y-110607019D01*
X170052036Y-110607019D02*
X170194893Y-110654638D01*
X170194893Y-110654638D02*
X170242512Y-110702257D01*
X170671084Y-111607019D02*
X170671084Y-110607019D01*
X170671084Y-110607019D02*
X171004417Y-111321304D01*
X171004417Y-111321304D02*
X171337750Y-110607019D01*
X171337750Y-110607019D02*
X171337750Y-111607019D01*
X171813941Y-111607019D02*
X171813941Y-110607019D01*
X171813941Y-110607019D02*
X172052036Y-110607019D01*
X172052036Y-110607019D02*
X172194893Y-110654638D01*
X172194893Y-110654638D02*
X172290131Y-110749876D01*
X172290131Y-110749876D02*
X172337750Y-110845114D01*
X172337750Y-110845114D02*
X172385369Y-111035590D01*
X172385369Y-111035590D02*
X172385369Y-111178447D01*
X172385369Y-111178447D02*
X172337750Y-111368923D01*
X172337750Y-111368923D02*
X172290131Y-111464161D01*
X172290131Y-111464161D02*
X172194893Y-111559400D01*
X172194893Y-111559400D02*
X172052036Y-111607019D01*
X172052036Y-111607019D02*
X171813941Y-111607019D01*
X166394484Y-105739619D02*
X166394484Y-104739619D01*
X166394484Y-104739619D02*
X166632579Y-104739619D01*
X166632579Y-104739619D02*
X166775436Y-104787238D01*
X166775436Y-104787238D02*
X166870674Y-104882476D01*
X166870674Y-104882476D02*
X166918293Y-104977714D01*
X166918293Y-104977714D02*
X166965912Y-105168190D01*
X166965912Y-105168190D02*
X166965912Y-105311047D01*
X166965912Y-105311047D02*
X166918293Y-105501523D01*
X166918293Y-105501523D02*
X166870674Y-105596761D01*
X166870674Y-105596761D02*
X166775436Y-105692000D01*
X166775436Y-105692000D02*
X166632579Y-105739619D01*
X166632579Y-105739619D02*
X166394484Y-105739619D01*
X167394484Y-105739619D02*
X167394484Y-105072952D01*
X167394484Y-104739619D02*
X167346865Y-104787238D01*
X167346865Y-104787238D02*
X167394484Y-104834857D01*
X167394484Y-104834857D02*
X167442103Y-104787238D01*
X167442103Y-104787238D02*
X167394484Y-104739619D01*
X167394484Y-104739619D02*
X167394484Y-104834857D01*
X167727817Y-105072952D02*
X168108769Y-105072952D01*
X167870674Y-104739619D02*
X167870674Y-105596761D01*
X167870674Y-105596761D02*
X167918293Y-105692000D01*
X167918293Y-105692000D02*
X168013531Y-105739619D01*
X168013531Y-105739619D02*
X168108769Y-105739619D01*
X169975884Y-105714219D02*
X169975884Y-104714219D01*
X169975884Y-104714219D02*
X170213979Y-104714219D01*
X170213979Y-104714219D02*
X170356836Y-104761838D01*
X170356836Y-104761838D02*
X170452074Y-104857076D01*
X170452074Y-104857076D02*
X170499693Y-104952314D01*
X170499693Y-104952314D02*
X170547312Y-105142790D01*
X170547312Y-105142790D02*
X170547312Y-105285647D01*
X170547312Y-105285647D02*
X170499693Y-105476123D01*
X170499693Y-105476123D02*
X170452074Y-105571361D01*
X170452074Y-105571361D02*
X170356836Y-105666600D01*
X170356836Y-105666600D02*
X170213979Y-105714219D01*
X170213979Y-105714219D02*
X169975884Y-105714219D01*
X171404455Y-105714219D02*
X171404455Y-105190409D01*
X171404455Y-105190409D02*
X171356836Y-105095171D01*
X171356836Y-105095171D02*
X171261598Y-105047552D01*
X171261598Y-105047552D02*
X171071122Y-105047552D01*
X171071122Y-105047552D02*
X170975884Y-105095171D01*
X171404455Y-105666600D02*
X171309217Y-105714219D01*
X171309217Y-105714219D02*
X171071122Y-105714219D01*
X171071122Y-105714219D02*
X170975884Y-105666600D01*
X170975884Y-105666600D02*
X170928265Y-105571361D01*
X170928265Y-105571361D02*
X170928265Y-105476123D01*
X170928265Y-105476123D02*
X170975884Y-105380885D01*
X170975884Y-105380885D02*
X171071122Y-105333266D01*
X171071122Y-105333266D02*
X171309217Y-105333266D01*
X171309217Y-105333266D02*
X171404455Y-105285647D01*
X171880646Y-105714219D02*
X171880646Y-104714219D01*
X172309217Y-105714219D02*
X172309217Y-105190409D01*
X172309217Y-105190409D02*
X172261598Y-105095171D01*
X172261598Y-105095171D02*
X172166360Y-105047552D01*
X172166360Y-105047552D02*
X172023503Y-105047552D01*
X172023503Y-105047552D02*
X171928265Y-105095171D01*
X171928265Y-105095171D02*
X171880646Y-105142790D01*
X130351884Y-89026466D02*
X131113789Y-89026466D01*
X130732836Y-89407419D02*
X130732836Y-88645514D01*
X164667619Y-95098515D02*
X163667619Y-95098515D01*
X164667619Y-94527087D02*
X164096190Y-94955658D01*
X163667619Y-94527087D02*
X164239047Y-95098515D01*
X164620000Y-93717563D02*
X164667619Y-93812801D01*
X164667619Y-93812801D02*
X164667619Y-94003277D01*
X164667619Y-94003277D02*
X164620000Y-94098515D01*
X164620000Y-94098515D02*
X164524761Y-94146134D01*
X164524761Y-94146134D02*
X164143809Y-94146134D01*
X164143809Y-94146134D02*
X164048571Y-94098515D01*
X164048571Y-94098515D02*
X164000952Y-94003277D01*
X164000952Y-94003277D02*
X164000952Y-93812801D01*
X164000952Y-93812801D02*
X164048571Y-93717563D01*
X164048571Y-93717563D02*
X164143809Y-93669944D01*
X164143809Y-93669944D02*
X164239047Y-93669944D01*
X164239047Y-93669944D02*
X164334285Y-94146134D01*
X164000952Y-93336610D02*
X164667619Y-93098515D01*
X164000952Y-92860420D02*
X164667619Y-93098515D01*
X164667619Y-93098515D02*
X164905714Y-93193753D01*
X164905714Y-93193753D02*
X164953333Y-93241372D01*
X164953333Y-93241372D02*
X165000952Y-93336610D01*
X163667619Y-91527086D02*
X163667619Y-91336610D01*
X163667619Y-91336610D02*
X163715238Y-91241372D01*
X163715238Y-91241372D02*
X163810476Y-91146134D01*
X163810476Y-91146134D02*
X164000952Y-91098515D01*
X164000952Y-91098515D02*
X164334285Y-91098515D01*
X164334285Y-91098515D02*
X164524761Y-91146134D01*
X164524761Y-91146134D02*
X164620000Y-91241372D01*
X164620000Y-91241372D02*
X164667619Y-91336610D01*
X164667619Y-91336610D02*
X164667619Y-91527086D01*
X164667619Y-91527086D02*
X164620000Y-91622324D01*
X164620000Y-91622324D02*
X164524761Y-91717562D01*
X164524761Y-91717562D02*
X164334285Y-91765181D01*
X164334285Y-91765181D02*
X164000952Y-91765181D01*
X164000952Y-91765181D02*
X163810476Y-91717562D01*
X163810476Y-91717562D02*
X163715238Y-91622324D01*
X163715238Y-91622324D02*
X163667619Y-91527086D01*
X164000952Y-90241372D02*
X164667619Y-90241372D01*
X164000952Y-90669943D02*
X164524761Y-90669943D01*
X164524761Y-90669943D02*
X164620000Y-90622324D01*
X164620000Y-90622324D02*
X164667619Y-90527086D01*
X164667619Y-90527086D02*
X164667619Y-90384229D01*
X164667619Y-90384229D02*
X164620000Y-90288991D01*
X164620000Y-90288991D02*
X164572380Y-90241372D01*
X164000952Y-89908038D02*
X164000952Y-89527086D01*
X163667619Y-89765181D02*
X164524761Y-89765181D01*
X164524761Y-89765181D02*
X164620000Y-89717562D01*
X164620000Y-89717562D02*
X164667619Y-89622324D01*
X164667619Y-89622324D02*
X164667619Y-89527086D01*
X164000952Y-89193752D02*
X165000952Y-89193752D01*
X164048571Y-89193752D02*
X164000952Y-89098514D01*
X164000952Y-89098514D02*
X164000952Y-88908038D01*
X164000952Y-88908038D02*
X164048571Y-88812800D01*
X164048571Y-88812800D02*
X164096190Y-88765181D01*
X164096190Y-88765181D02*
X164191428Y-88717562D01*
X164191428Y-88717562D02*
X164477142Y-88717562D01*
X164477142Y-88717562D02*
X164572380Y-88765181D01*
X164572380Y-88765181D02*
X164620000Y-88812800D01*
X164620000Y-88812800D02*
X164667619Y-88908038D01*
X164667619Y-88908038D02*
X164667619Y-89098514D01*
X164667619Y-89098514D02*
X164620000Y-89193752D01*
X164000952Y-87860419D02*
X164667619Y-87860419D01*
X164000952Y-88288990D02*
X164524761Y-88288990D01*
X164524761Y-88288990D02*
X164620000Y-88241371D01*
X164620000Y-88241371D02*
X164667619Y-88146133D01*
X164667619Y-88146133D02*
X164667619Y-88003276D01*
X164667619Y-88003276D02*
X164620000Y-87908038D01*
X164620000Y-87908038D02*
X164572380Y-87860419D01*
X164000952Y-87527085D02*
X164000952Y-87146133D01*
X163667619Y-87384228D02*
X164524761Y-87384228D01*
X164524761Y-87384228D02*
X164620000Y-87336609D01*
X164620000Y-87336609D02*
X164667619Y-87241371D01*
X164667619Y-87241371D02*
X164667619Y-87146133D01*
X157075865Y-108943200D02*
X157218722Y-108990819D01*
X157218722Y-108990819D02*
X157456817Y-108990819D01*
X157456817Y-108990819D02*
X157552055Y-108943200D01*
X157552055Y-108943200D02*
X157599674Y-108895580D01*
X157599674Y-108895580D02*
X157647293Y-108800342D01*
X157647293Y-108800342D02*
X157647293Y-108705104D01*
X157647293Y-108705104D02*
X157599674Y-108609866D01*
X157599674Y-108609866D02*
X157552055Y-108562247D01*
X157552055Y-108562247D02*
X157456817Y-108514628D01*
X157456817Y-108514628D02*
X157266341Y-108467009D01*
X157266341Y-108467009D02*
X157171103Y-108419390D01*
X157171103Y-108419390D02*
X157123484Y-108371771D01*
X157123484Y-108371771D02*
X157075865Y-108276533D01*
X157075865Y-108276533D02*
X157075865Y-108181295D01*
X157075865Y-108181295D02*
X157123484Y-108086057D01*
X157123484Y-108086057D02*
X157171103Y-108038438D01*
X157171103Y-108038438D02*
X157266341Y-107990819D01*
X157266341Y-107990819D02*
X157504436Y-107990819D01*
X157504436Y-107990819D02*
X157647293Y-108038438D01*
D12*
X147264910Y-112970600D02*
X148407768Y-112970600D01*
X147836339Y-113542028D02*
X147836339Y-112399171D01*
D13*
X157599142Y-116278819D02*
X157265809Y-115802628D01*
X157027714Y-116278819D02*
X157027714Y-115278819D01*
X157027714Y-115278819D02*
X157408666Y-115278819D01*
X157408666Y-115278819D02*
X157503904Y-115326438D01*
X157503904Y-115326438D02*
X157551523Y-115374057D01*
X157551523Y-115374057D02*
X157599142Y-115469295D01*
X157599142Y-115469295D02*
X157599142Y-115612152D01*
X157599142Y-115612152D02*
X157551523Y-115707390D01*
X157551523Y-115707390D02*
X157503904Y-115755009D01*
X157503904Y-115755009D02*
X157408666Y-115802628D01*
X157408666Y-115802628D02*
X157027714Y-115802628D01*
X158551523Y-116278819D02*
X157980095Y-116278819D01*
X158265809Y-116278819D02*
X158265809Y-115278819D01*
X158265809Y-115278819D02*
X158170571Y-115421676D01*
X158170571Y-115421676D02*
X158075333Y-115516914D01*
X158075333Y-115516914D02*
X157980095Y-115564533D01*
X159170571Y-115278819D02*
X159265809Y-115278819D01*
X159265809Y-115278819D02*
X159361047Y-115326438D01*
X159361047Y-115326438D02*
X159408666Y-115374057D01*
X159408666Y-115374057D02*
X159456285Y-115469295D01*
X159456285Y-115469295D02*
X159503904Y-115659771D01*
X159503904Y-115659771D02*
X159503904Y-115897866D01*
X159503904Y-115897866D02*
X159456285Y-116088342D01*
X159456285Y-116088342D02*
X159408666Y-116183580D01*
X159408666Y-116183580D02*
X159361047Y-116231200D01*
X159361047Y-116231200D02*
X159265809Y-116278819D01*
X159265809Y-116278819D02*
X159170571Y-116278819D01*
X159170571Y-116278819D02*
X159075333Y-116231200D01*
X159075333Y-116231200D02*
X159027714Y-116183580D01*
X159027714Y-116183580D02*
X158980095Y-116088342D01*
X158980095Y-116088342D02*
X158932476Y-115897866D01*
X158932476Y-115897866D02*
X158932476Y-115659771D01*
X158932476Y-115659771D02*
X158980095Y-115469295D01*
X158980095Y-115469295D02*
X159027714Y-115374057D01*
X159027714Y-115374057D02*
X159075333Y-115326438D01*
X159075333Y-115326438D02*
X159170571Y-115278819D01*
X145727009Y-111309352D02*
X145774628Y-111166495D01*
X145774628Y-111166495D02*
X145822247Y-111118876D01*
X145822247Y-111118876D02*
X145917485Y-111071257D01*
X145917485Y-111071257D02*
X146060342Y-111071257D01*
X146060342Y-111071257D02*
X146155580Y-111118876D01*
X146155580Y-111118876D02*
X146203200Y-111166495D01*
X146203200Y-111166495D02*
X146250819Y-111261733D01*
X146250819Y-111261733D02*
X146250819Y-111642685D01*
X146250819Y-111642685D02*
X145250819Y-111642685D01*
X145250819Y-111642685D02*
X145250819Y-111309352D01*
X145250819Y-111309352D02*
X145298438Y-111214114D01*
X145298438Y-111214114D02*
X145346057Y-111166495D01*
X145346057Y-111166495D02*
X145441295Y-111118876D01*
X145441295Y-111118876D02*
X145536533Y-111118876D01*
X145536533Y-111118876D02*
X145631771Y-111166495D01*
X145631771Y-111166495D02*
X145679390Y-111214114D01*
X145679390Y-111214114D02*
X145727009Y-111309352D01*
X145727009Y-111309352D02*
X145727009Y-111642685D01*
X145250819Y-110737923D02*
X145250819Y-110071257D01*
X145250819Y-110071257D02*
X146250819Y-110737923D01*
X146250819Y-110737923D02*
X146250819Y-110071257D01*
X146250819Y-109166495D02*
X146250819Y-109737923D01*
X146250819Y-109452209D02*
X145250819Y-109452209D01*
X145250819Y-109452209D02*
X145393676Y-109547447D01*
X145393676Y-109547447D02*
X145488914Y-109642685D01*
X145488914Y-109642685D02*
X145536533Y-109737923D01*
X158818557Y-91433638D02*
X158770938Y-91528876D01*
X158770938Y-91528876D02*
X158675700Y-91624114D01*
X158675700Y-91624114D02*
X158532842Y-91766971D01*
X158532842Y-91766971D02*
X158485223Y-91862209D01*
X158485223Y-91862209D02*
X158485223Y-91957447D01*
X158723319Y-91909828D02*
X158675700Y-92005066D01*
X158675700Y-92005066D02*
X158580461Y-92100304D01*
X158580461Y-92100304D02*
X158389985Y-92147923D01*
X158389985Y-92147923D02*
X158056652Y-92147923D01*
X158056652Y-92147923D02*
X157866176Y-92100304D01*
X157866176Y-92100304D02*
X157770938Y-92005066D01*
X157770938Y-92005066D02*
X157723319Y-91909828D01*
X157723319Y-91909828D02*
X157723319Y-91719352D01*
X157723319Y-91719352D02*
X157770938Y-91624114D01*
X157770938Y-91624114D02*
X157866176Y-91528876D01*
X157866176Y-91528876D02*
X158056652Y-91481257D01*
X158056652Y-91481257D02*
X158389985Y-91481257D01*
X158389985Y-91481257D02*
X158580461Y-91528876D01*
X158580461Y-91528876D02*
X158675700Y-91624114D01*
X158675700Y-91624114D02*
X158723319Y-91719352D01*
X158723319Y-91719352D02*
X158723319Y-91909828D01*
X157723319Y-91147923D02*
X157723319Y-90528876D01*
X157723319Y-90528876D02*
X158104271Y-90862209D01*
X158104271Y-90862209D02*
X158104271Y-90719352D01*
X158104271Y-90719352D02*
X158151890Y-90624114D01*
X158151890Y-90624114D02*
X158199509Y-90576495D01*
X158199509Y-90576495D02*
X158294747Y-90528876D01*
X158294747Y-90528876D02*
X158532842Y-90528876D01*
X158532842Y-90528876D02*
X158628080Y-90576495D01*
X158628080Y-90576495D02*
X158675700Y-90624114D01*
X158675700Y-90624114D02*
X158723319Y-90719352D01*
X158723319Y-90719352D02*
X158723319Y-91005066D01*
X158723319Y-91005066D02*
X158675700Y-91100304D01*
X158675700Y-91100304D02*
X158628080Y-91147923D01*
X157668933Y-112113219D02*
X157335600Y-111637028D01*
X157097505Y-112113219D02*
X157097505Y-111113219D01*
X157097505Y-111113219D02*
X157478457Y-111113219D01*
X157478457Y-111113219D02*
X157573695Y-111160838D01*
X157573695Y-111160838D02*
X157621314Y-111208457D01*
X157621314Y-111208457D02*
X157668933Y-111303695D01*
X157668933Y-111303695D02*
X157668933Y-111446552D01*
X157668933Y-111446552D02*
X157621314Y-111541790D01*
X157621314Y-111541790D02*
X157573695Y-111589409D01*
X157573695Y-111589409D02*
X157478457Y-111637028D01*
X157478457Y-111637028D02*
X157097505Y-111637028D01*
X158002267Y-111113219D02*
X158668933Y-111113219D01*
X158668933Y-111113219D02*
X158240362Y-112113219D01*
X149787780Y-103798666D02*
X149835400Y-103846285D01*
X149835400Y-103846285D02*
X149883019Y-103989142D01*
X149883019Y-103989142D02*
X149883019Y-104084380D01*
X149883019Y-104084380D02*
X149835400Y-104227237D01*
X149835400Y-104227237D02*
X149740161Y-104322475D01*
X149740161Y-104322475D02*
X149644923Y-104370094D01*
X149644923Y-104370094D02*
X149454447Y-104417713D01*
X149454447Y-104417713D02*
X149311590Y-104417713D01*
X149311590Y-104417713D02*
X149121114Y-104370094D01*
X149121114Y-104370094D02*
X149025876Y-104322475D01*
X149025876Y-104322475D02*
X148930638Y-104227237D01*
X148930638Y-104227237D02*
X148883019Y-104084380D01*
X148883019Y-104084380D02*
X148883019Y-103989142D01*
X148883019Y-103989142D02*
X148930638Y-103846285D01*
X148930638Y-103846285D02*
X148978257Y-103798666D01*
X148883019Y-102893904D02*
X148883019Y-103370094D01*
X148883019Y-103370094D02*
X149359209Y-103417713D01*
X149359209Y-103417713D02*
X149311590Y-103370094D01*
X149311590Y-103370094D02*
X149263971Y-103274856D01*
X149263971Y-103274856D02*
X149263971Y-103036761D01*
X149263971Y-103036761D02*
X149311590Y-102941523D01*
X149311590Y-102941523D02*
X149359209Y-102893904D01*
X149359209Y-102893904D02*
X149454447Y-102846285D01*
X149454447Y-102846285D02*
X149692542Y-102846285D01*
X149692542Y-102846285D02*
X149787780Y-102893904D01*
X149787780Y-102893904D02*
X149835400Y-102941523D01*
X149835400Y-102941523D02*
X149883019Y-103036761D01*
X149883019Y-103036761D02*
X149883019Y-103274856D01*
X149883019Y-103274856D02*
X149835400Y-103370094D01*
X149835400Y-103370094D02*
X149787780Y-103417713D01*
X171421466Y-90640819D02*
X171421466Y-91355104D01*
X171421466Y-91355104D02*
X171373847Y-91497961D01*
X171373847Y-91497961D02*
X171278609Y-91593200D01*
X171278609Y-91593200D02*
X171135752Y-91640819D01*
X171135752Y-91640819D02*
X171040514Y-91640819D01*
X171850038Y-90736057D02*
X171897657Y-90688438D01*
X171897657Y-90688438D02*
X171992895Y-90640819D01*
X171992895Y-90640819D02*
X172230990Y-90640819D01*
X172230990Y-90640819D02*
X172326228Y-90688438D01*
X172326228Y-90688438D02*
X172373847Y-90736057D01*
X172373847Y-90736057D02*
X172421466Y-90831295D01*
X172421466Y-90831295D02*
X172421466Y-90926533D01*
X172421466Y-90926533D02*
X172373847Y-91069390D01*
X172373847Y-91069390D02*
X171802419Y-91640819D01*
X171802419Y-91640819D02*
X172421466Y-91640819D01*
X133310333Y-104264619D02*
X132977000Y-103788428D01*
X132738905Y-104264619D02*
X132738905Y-103264619D01*
X132738905Y-103264619D02*
X133119857Y-103264619D01*
X133119857Y-103264619D02*
X133215095Y-103312238D01*
X133215095Y-103312238D02*
X133262714Y-103359857D01*
X133262714Y-103359857D02*
X133310333Y-103455095D01*
X133310333Y-103455095D02*
X133310333Y-103597952D01*
X133310333Y-103597952D02*
X133262714Y-103693190D01*
X133262714Y-103693190D02*
X133215095Y-103740809D01*
X133215095Y-103740809D02*
X133119857Y-103788428D01*
X133119857Y-103788428D02*
X132738905Y-103788428D01*
X133691286Y-103359857D02*
X133738905Y-103312238D01*
X133738905Y-103312238D02*
X133834143Y-103264619D01*
X133834143Y-103264619D02*
X134072238Y-103264619D01*
X134072238Y-103264619D02*
X134167476Y-103312238D01*
X134167476Y-103312238D02*
X134215095Y-103359857D01*
X134215095Y-103359857D02*
X134262714Y-103455095D01*
X134262714Y-103455095D02*
X134262714Y-103550333D01*
X134262714Y-103550333D02*
X134215095Y-103693190D01*
X134215095Y-103693190D02*
X133643667Y-104264619D01*
X133643667Y-104264619D02*
X134262714Y-104264619D01*
X163764933Y-112017980D02*
X163717314Y-112065600D01*
X163717314Y-112065600D02*
X163574457Y-112113219D01*
X163574457Y-112113219D02*
X163479219Y-112113219D01*
X163479219Y-112113219D02*
X163336362Y-112065600D01*
X163336362Y-112065600D02*
X163241124Y-111970361D01*
X163241124Y-111970361D02*
X163193505Y-111875123D01*
X163193505Y-111875123D02*
X163145886Y-111684647D01*
X163145886Y-111684647D02*
X163145886Y-111541790D01*
X163145886Y-111541790D02*
X163193505Y-111351314D01*
X163193505Y-111351314D02*
X163241124Y-111256076D01*
X163241124Y-111256076D02*
X163336362Y-111160838D01*
X163336362Y-111160838D02*
X163479219Y-111113219D01*
X163479219Y-111113219D02*
X163574457Y-111113219D01*
X163574457Y-111113219D02*
X163717314Y-111160838D01*
X163717314Y-111160838D02*
X163764933Y-111208457D01*
X164098267Y-111113219D02*
X164764933Y-111113219D01*
X164764933Y-111113219D02*
X164336362Y-112113219D01*
X160915361Y-106579857D02*
X160820123Y-106532238D01*
X160820123Y-106532238D02*
X160724885Y-106437000D01*
X160724885Y-106437000D02*
X160582028Y-106294142D01*
X160582028Y-106294142D02*
X160486790Y-106246523D01*
X160486790Y-106246523D02*
X160391552Y-106246523D01*
X160439171Y-106484619D02*
X160343933Y-106437000D01*
X160343933Y-106437000D02*
X160248695Y-106341761D01*
X160248695Y-106341761D02*
X160201076Y-106151285D01*
X160201076Y-106151285D02*
X160201076Y-105817952D01*
X160201076Y-105817952D02*
X160248695Y-105627476D01*
X160248695Y-105627476D02*
X160343933Y-105532238D01*
X160343933Y-105532238D02*
X160439171Y-105484619D01*
X160439171Y-105484619D02*
X160629647Y-105484619D01*
X160629647Y-105484619D02*
X160724885Y-105532238D01*
X160724885Y-105532238D02*
X160820123Y-105627476D01*
X160820123Y-105627476D02*
X160867742Y-105817952D01*
X160867742Y-105817952D02*
X160867742Y-106151285D01*
X160867742Y-106151285D02*
X160820123Y-106341761D01*
X160820123Y-106341761D02*
X160724885Y-106437000D01*
X160724885Y-106437000D02*
X160629647Y-106484619D01*
X160629647Y-106484619D02*
X160439171Y-106484619D01*
X161724885Y-105817952D02*
X161724885Y-106484619D01*
X161486790Y-105437000D02*
X161248695Y-106151285D01*
X161248695Y-106151285D02*
X161867742Y-106151285D01*
X163097380Y-101157066D02*
X163145000Y-101204685D01*
X163145000Y-101204685D02*
X163192619Y-101347542D01*
X163192619Y-101347542D02*
X163192619Y-101442780D01*
X163192619Y-101442780D02*
X163145000Y-101585637D01*
X163145000Y-101585637D02*
X163049761Y-101680875D01*
X163049761Y-101680875D02*
X162954523Y-101728494D01*
X162954523Y-101728494D02*
X162764047Y-101776113D01*
X162764047Y-101776113D02*
X162621190Y-101776113D01*
X162621190Y-101776113D02*
X162430714Y-101728494D01*
X162430714Y-101728494D02*
X162335476Y-101680875D01*
X162335476Y-101680875D02*
X162240238Y-101585637D01*
X162240238Y-101585637D02*
X162192619Y-101442780D01*
X162192619Y-101442780D02*
X162192619Y-101347542D01*
X162192619Y-101347542D02*
X162240238Y-101204685D01*
X162240238Y-101204685D02*
X162287857Y-101157066D01*
X162621190Y-100585637D02*
X162573571Y-100680875D01*
X162573571Y-100680875D02*
X162525952Y-100728494D01*
X162525952Y-100728494D02*
X162430714Y-100776113D01*
X162430714Y-100776113D02*
X162383095Y-100776113D01*
X162383095Y-100776113D02*
X162287857Y-100728494D01*
X162287857Y-100728494D02*
X162240238Y-100680875D01*
X162240238Y-100680875D02*
X162192619Y-100585637D01*
X162192619Y-100585637D02*
X162192619Y-100395161D01*
X162192619Y-100395161D02*
X162240238Y-100299923D01*
X162240238Y-100299923D02*
X162287857Y-100252304D01*
X162287857Y-100252304D02*
X162383095Y-100204685D01*
X162383095Y-100204685D02*
X162430714Y-100204685D01*
X162430714Y-100204685D02*
X162525952Y-100252304D01*
X162525952Y-100252304D02*
X162573571Y-100299923D01*
X162573571Y-100299923D02*
X162621190Y-100395161D01*
X162621190Y-100395161D02*
X162621190Y-100585637D01*
X162621190Y-100585637D02*
X162668809Y-100680875D01*
X162668809Y-100680875D02*
X162716428Y-100728494D01*
X162716428Y-100728494D02*
X162811666Y-100776113D01*
X162811666Y-100776113D02*
X163002142Y-100776113D01*
X163002142Y-100776113D02*
X163097380Y-100728494D01*
X163097380Y-100728494D02*
X163145000Y-100680875D01*
X163145000Y-100680875D02*
X163192619Y-100585637D01*
X163192619Y-100585637D02*
X163192619Y-100395161D01*
X163192619Y-100395161D02*
X163145000Y-100299923D01*
X163145000Y-100299923D02*
X163097380Y-100252304D01*
X163097380Y-100252304D02*
X163002142Y-100204685D01*
X163002142Y-100204685D02*
X162811666Y-100204685D01*
X162811666Y-100204685D02*
X162716428Y-100252304D01*
X162716428Y-100252304D02*
X162668809Y-100299923D01*
X162668809Y-100299923D02*
X162621190Y-100395161D01*
X134135667Y-101355200D02*
X134278524Y-101402819D01*
X134278524Y-101402819D02*
X134516619Y-101402819D01*
X134516619Y-101402819D02*
X134611857Y-101355200D01*
X134611857Y-101355200D02*
X134659476Y-101307580D01*
X134659476Y-101307580D02*
X134707095Y-101212342D01*
X134707095Y-101212342D02*
X134707095Y-101117104D01*
X134707095Y-101117104D02*
X134659476Y-101021866D01*
X134659476Y-101021866D02*
X134611857Y-100974247D01*
X134611857Y-100974247D02*
X134516619Y-100926628D01*
X134516619Y-100926628D02*
X134326143Y-100879009D01*
X134326143Y-100879009D02*
X134230905Y-100831390D01*
X134230905Y-100831390D02*
X134183286Y-100783771D01*
X134183286Y-100783771D02*
X134135667Y-100688533D01*
X134135667Y-100688533D02*
X134135667Y-100593295D01*
X134135667Y-100593295D02*
X134183286Y-100498057D01*
X134183286Y-100498057D02*
X134230905Y-100450438D01*
X134230905Y-100450438D02*
X134326143Y-100402819D01*
X134326143Y-100402819D02*
X134564238Y-100402819D01*
X134564238Y-100402819D02*
X134707095Y-100450438D01*
X135040429Y-100402819D02*
X135278524Y-101402819D01*
X135278524Y-101402819D02*
X135469000Y-100688533D01*
X135469000Y-100688533D02*
X135659476Y-101402819D01*
X135659476Y-101402819D02*
X135897572Y-100402819D01*
X136802333Y-101402819D02*
X136230905Y-101402819D01*
X136516619Y-101402819D02*
X136516619Y-100402819D01*
X136516619Y-100402819D02*
X136421381Y-100545676D01*
X136421381Y-100545676D02*
X136326143Y-100640914D01*
X136326143Y-100640914D02*
X136230905Y-100688533D01*
X166406533Y-98041619D02*
X166073200Y-97565428D01*
X165835105Y-98041619D02*
X165835105Y-97041619D01*
X165835105Y-97041619D02*
X166216057Y-97041619D01*
X166216057Y-97041619D02*
X166311295Y-97089238D01*
X166311295Y-97089238D02*
X166358914Y-97136857D01*
X166358914Y-97136857D02*
X166406533Y-97232095D01*
X166406533Y-97232095D02*
X166406533Y-97374952D01*
X166406533Y-97374952D02*
X166358914Y-97470190D01*
X166358914Y-97470190D02*
X166311295Y-97517809D01*
X166311295Y-97517809D02*
X166216057Y-97565428D01*
X166216057Y-97565428D02*
X165835105Y-97565428D01*
X167263676Y-97041619D02*
X167073200Y-97041619D01*
X167073200Y-97041619D02*
X166977962Y-97089238D01*
X166977962Y-97089238D02*
X166930343Y-97136857D01*
X166930343Y-97136857D02*
X166835105Y-97279714D01*
X166835105Y-97279714D02*
X166787486Y-97470190D01*
X166787486Y-97470190D02*
X166787486Y-97851142D01*
X166787486Y-97851142D02*
X166835105Y-97946380D01*
X166835105Y-97946380D02*
X166882724Y-97994000D01*
X166882724Y-97994000D02*
X166977962Y-98041619D01*
X166977962Y-98041619D02*
X167168438Y-98041619D01*
X167168438Y-98041619D02*
X167263676Y-97994000D01*
X167263676Y-97994000D02*
X167311295Y-97946380D01*
X167311295Y-97946380D02*
X167358914Y-97851142D01*
X167358914Y-97851142D02*
X167358914Y-97613047D01*
X167358914Y-97613047D02*
X167311295Y-97517809D01*
X167311295Y-97517809D02*
X167263676Y-97470190D01*
X167263676Y-97470190D02*
X167168438Y-97422571D01*
X167168438Y-97422571D02*
X166977962Y-97422571D01*
X166977962Y-97422571D02*
X166882724Y-97470190D01*
X166882724Y-97470190D02*
X166835105Y-97517809D01*
X166835105Y-97517809D02*
X166787486Y-97613047D01*
X160965395Y-116132219D02*
X160965395Y-116941742D01*
X160965395Y-116941742D02*
X161013014Y-117036980D01*
X161013014Y-117036980D02*
X161060633Y-117084600D01*
X161060633Y-117084600D02*
X161155871Y-117132219D01*
X161155871Y-117132219D02*
X161346347Y-117132219D01*
X161346347Y-117132219D02*
X161441585Y-117084600D01*
X161441585Y-117084600D02*
X161489204Y-117036980D01*
X161489204Y-117036980D02*
X161536823Y-116941742D01*
X161536823Y-116941742D02*
X161536823Y-116132219D01*
X161917776Y-116132219D02*
X162536823Y-116132219D01*
X162536823Y-116132219D02*
X162203490Y-116513171D01*
X162203490Y-116513171D02*
X162346347Y-116513171D01*
X162346347Y-116513171D02*
X162441585Y-116560790D01*
X162441585Y-116560790D02*
X162489204Y-116608409D01*
X162489204Y-116608409D02*
X162536823Y-116703647D01*
X162536823Y-116703647D02*
X162536823Y-116941742D01*
X162536823Y-116941742D02*
X162489204Y-117036980D01*
X162489204Y-117036980D02*
X162441585Y-117084600D01*
X162441585Y-117084600D02*
X162346347Y-117132219D01*
X162346347Y-117132219D02*
X162060633Y-117132219D01*
X162060633Y-117132219D02*
X161965395Y-117084600D01*
X161965395Y-117084600D02*
X161917776Y-117036980D01*
X169564467Y-113765200D02*
X169707324Y-113812819D01*
X169707324Y-113812819D02*
X169945419Y-113812819D01*
X169945419Y-113812819D02*
X170040657Y-113765200D01*
X170040657Y-113765200D02*
X170088276Y-113717580D01*
X170088276Y-113717580D02*
X170135895Y-113622342D01*
X170135895Y-113622342D02*
X170135895Y-113527104D01*
X170135895Y-113527104D02*
X170088276Y-113431866D01*
X170088276Y-113431866D02*
X170040657Y-113384247D01*
X170040657Y-113384247D02*
X169945419Y-113336628D01*
X169945419Y-113336628D02*
X169754943Y-113289009D01*
X169754943Y-113289009D02*
X169659705Y-113241390D01*
X169659705Y-113241390D02*
X169612086Y-113193771D01*
X169612086Y-113193771D02*
X169564467Y-113098533D01*
X169564467Y-113098533D02*
X169564467Y-113003295D01*
X169564467Y-113003295D02*
X169612086Y-112908057D01*
X169612086Y-112908057D02*
X169659705Y-112860438D01*
X169659705Y-112860438D02*
X169754943Y-112812819D01*
X169754943Y-112812819D02*
X169993038Y-112812819D01*
X169993038Y-112812819D02*
X170135895Y-112860438D01*
X170469229Y-112812819D02*
X170707324Y-113812819D01*
X170707324Y-113812819D02*
X170897800Y-113098533D01*
X170897800Y-113098533D02*
X171088276Y-113812819D01*
X171088276Y-113812819D02*
X171326372Y-112812819D01*
X171659705Y-112908057D02*
X171707324Y-112860438D01*
X171707324Y-112860438D02*
X171802562Y-112812819D01*
X171802562Y-112812819D02*
X172040657Y-112812819D01*
X172040657Y-112812819D02*
X172135895Y-112860438D01*
X172135895Y-112860438D02*
X172183514Y-112908057D01*
X172183514Y-112908057D02*
X172231133Y-113003295D01*
X172231133Y-113003295D02*
X172231133Y-113098533D01*
X172231133Y-113098533D02*
X172183514Y-113241390D01*
X172183514Y-113241390D02*
X171612086Y-113812819D01*
X171612086Y-113812819D02*
X172231133Y-113812819D01*
X157643533Y-107388819D02*
X157310200Y-106912628D01*
X157072105Y-107388819D02*
X157072105Y-106388819D01*
X157072105Y-106388819D02*
X157453057Y-106388819D01*
X157453057Y-106388819D02*
X157548295Y-106436438D01*
X157548295Y-106436438D02*
X157595914Y-106484057D01*
X157595914Y-106484057D02*
X157643533Y-106579295D01*
X157643533Y-106579295D02*
X157643533Y-106722152D01*
X157643533Y-106722152D02*
X157595914Y-106817390D01*
X157595914Y-106817390D02*
X157548295Y-106865009D01*
X157548295Y-106865009D02*
X157453057Y-106912628D01*
X157453057Y-106912628D02*
X157072105Y-106912628D01*
X158119724Y-107388819D02*
X158310200Y-107388819D01*
X158310200Y-107388819D02*
X158405438Y-107341200D01*
X158405438Y-107341200D02*
X158453057Y-107293580D01*
X158453057Y-107293580D02*
X158548295Y-107150723D01*
X158548295Y-107150723D02*
X158595914Y-106960247D01*
X158595914Y-106960247D02*
X158595914Y-106579295D01*
X158595914Y-106579295D02*
X158548295Y-106484057D01*
X158548295Y-106484057D02*
X158500676Y-106436438D01*
X158500676Y-106436438D02*
X158405438Y-106388819D01*
X158405438Y-106388819D02*
X158214962Y-106388819D01*
X158214962Y-106388819D02*
X158119724Y-106436438D01*
X158119724Y-106436438D02*
X158072105Y-106484057D01*
X158072105Y-106484057D02*
X158024486Y-106579295D01*
X158024486Y-106579295D02*
X158024486Y-106817390D01*
X158024486Y-106817390D02*
X158072105Y-106912628D01*
X158072105Y-106912628D02*
X158119724Y-106960247D01*
X158119724Y-106960247D02*
X158214962Y-107007866D01*
X158214962Y-107007866D02*
X158405438Y-107007866D01*
X158405438Y-107007866D02*
X158500676Y-106960247D01*
X158500676Y-106960247D02*
X158548295Y-106912628D01*
X158548295Y-106912628D02*
X158595914Y-106817390D01*
X128107784Y-107799094D02*
X127107784Y-107799094D01*
X127107784Y-107799094D02*
X127107784Y-107560999D01*
X127107784Y-107560999D02*
X127155403Y-107418142D01*
X127155403Y-107418142D02*
X127250641Y-107322904D01*
X127250641Y-107322904D02*
X127345879Y-107275285D01*
X127345879Y-107275285D02*
X127536355Y-107227666D01*
X127536355Y-107227666D02*
X127679212Y-107227666D01*
X127679212Y-107227666D02*
X127869688Y-107275285D01*
X127869688Y-107275285D02*
X127964926Y-107322904D01*
X127964926Y-107322904D02*
X128060165Y-107418142D01*
X128060165Y-107418142D02*
X128107784Y-107560999D01*
X128107784Y-107560999D02*
X128107784Y-107799094D01*
X128107784Y-106275285D02*
X128107784Y-106846713D01*
X128107784Y-106560999D02*
X127107784Y-106560999D01*
X127107784Y-106560999D02*
X127250641Y-106656237D01*
X127250641Y-106656237D02*
X127345879Y-106751475D01*
X127345879Y-106751475D02*
X127393498Y-106846713D01*
X131874419Y-107653104D02*
X130874419Y-107653104D01*
X131874419Y-107081676D02*
X131302990Y-107510247D01*
X130874419Y-107081676D02*
X131445847Y-107653104D01*
X144364857Y-91484438D02*
X144317238Y-91579676D01*
X144317238Y-91579676D02*
X144222000Y-91674914D01*
X144222000Y-91674914D02*
X144079142Y-91817771D01*
X144079142Y-91817771D02*
X144031523Y-91913009D01*
X144031523Y-91913009D02*
X144031523Y-92008247D01*
X144269619Y-91960628D02*
X144222000Y-92055866D01*
X144222000Y-92055866D02*
X144126761Y-92151104D01*
X144126761Y-92151104D02*
X143936285Y-92198723D01*
X143936285Y-92198723D02*
X143602952Y-92198723D01*
X143602952Y-92198723D02*
X143412476Y-92151104D01*
X143412476Y-92151104D02*
X143317238Y-92055866D01*
X143317238Y-92055866D02*
X143269619Y-91960628D01*
X143269619Y-91960628D02*
X143269619Y-91770152D01*
X143269619Y-91770152D02*
X143317238Y-91674914D01*
X143317238Y-91674914D02*
X143412476Y-91579676D01*
X143412476Y-91579676D02*
X143602952Y-91532057D01*
X143602952Y-91532057D02*
X143936285Y-91532057D01*
X143936285Y-91532057D02*
X144126761Y-91579676D01*
X144126761Y-91579676D02*
X144222000Y-91674914D01*
X144222000Y-91674914D02*
X144269619Y-91770152D01*
X144269619Y-91770152D02*
X144269619Y-91960628D01*
X143364857Y-91151104D02*
X143317238Y-91103485D01*
X143317238Y-91103485D02*
X143269619Y-91008247D01*
X143269619Y-91008247D02*
X143269619Y-90770152D01*
X143269619Y-90770152D02*
X143317238Y-90674914D01*
X143317238Y-90674914D02*
X143364857Y-90627295D01*
X143364857Y-90627295D02*
X143460095Y-90579676D01*
X143460095Y-90579676D02*
X143555333Y-90579676D01*
X143555333Y-90579676D02*
X143698190Y-90627295D01*
X143698190Y-90627295D02*
X144269619Y-91198723D01*
X144269619Y-91198723D02*
X144269619Y-90579676D01*
X157643533Y-110513019D02*
X157310200Y-110036828D01*
X157072105Y-110513019D02*
X157072105Y-109513019D01*
X157072105Y-109513019D02*
X157453057Y-109513019D01*
X157453057Y-109513019D02*
X157548295Y-109560638D01*
X157548295Y-109560638D02*
X157595914Y-109608257D01*
X157595914Y-109608257D02*
X157643533Y-109703495D01*
X157643533Y-109703495D02*
X157643533Y-109846352D01*
X157643533Y-109846352D02*
X157595914Y-109941590D01*
X157595914Y-109941590D02*
X157548295Y-109989209D01*
X157548295Y-109989209D02*
X157453057Y-110036828D01*
X157453057Y-110036828D02*
X157072105Y-110036828D01*
X158214962Y-109941590D02*
X158119724Y-109893971D01*
X158119724Y-109893971D02*
X158072105Y-109846352D01*
X158072105Y-109846352D02*
X158024486Y-109751114D01*
X158024486Y-109751114D02*
X158024486Y-109703495D01*
X158024486Y-109703495D02*
X158072105Y-109608257D01*
X158072105Y-109608257D02*
X158119724Y-109560638D01*
X158119724Y-109560638D02*
X158214962Y-109513019D01*
X158214962Y-109513019D02*
X158405438Y-109513019D01*
X158405438Y-109513019D02*
X158500676Y-109560638D01*
X158500676Y-109560638D02*
X158548295Y-109608257D01*
X158548295Y-109608257D02*
X158595914Y-109703495D01*
X158595914Y-109703495D02*
X158595914Y-109751114D01*
X158595914Y-109751114D02*
X158548295Y-109846352D01*
X158548295Y-109846352D02*
X158500676Y-109893971D01*
X158500676Y-109893971D02*
X158405438Y-109941590D01*
X158405438Y-109941590D02*
X158214962Y-109941590D01*
X158214962Y-109941590D02*
X158119724Y-109989209D01*
X158119724Y-109989209D02*
X158072105Y-110036828D01*
X158072105Y-110036828D02*
X158024486Y-110132066D01*
X158024486Y-110132066D02*
X158024486Y-110322542D01*
X158024486Y-110322542D02*
X158072105Y-110417780D01*
X158072105Y-110417780D02*
X158119724Y-110465400D01*
X158119724Y-110465400D02*
X158214962Y-110513019D01*
X158214962Y-110513019D02*
X158405438Y-110513019D01*
X158405438Y-110513019D02*
X158500676Y-110465400D01*
X158500676Y-110465400D02*
X158548295Y-110417780D01*
X158548295Y-110417780D02*
X158595914Y-110322542D01*
X158595914Y-110322542D02*
X158595914Y-110132066D01*
X158595914Y-110132066D02*
X158548295Y-110036828D01*
X158548295Y-110036828D02*
X158500676Y-109989209D01*
X158500676Y-109989209D02*
X158405438Y-109941590D01*
X136541761Y-104257157D02*
X136446523Y-104209538D01*
X136446523Y-104209538D02*
X136351285Y-104114300D01*
X136351285Y-104114300D02*
X136208428Y-103971442D01*
X136208428Y-103971442D02*
X136113190Y-103923823D01*
X136113190Y-103923823D02*
X136017952Y-103923823D01*
X136065571Y-104161919D02*
X135970333Y-104114300D01*
X135970333Y-104114300D02*
X135875095Y-104019061D01*
X135875095Y-104019061D02*
X135827476Y-103828585D01*
X135827476Y-103828585D02*
X135827476Y-103495252D01*
X135827476Y-103495252D02*
X135875095Y-103304776D01*
X135875095Y-103304776D02*
X135970333Y-103209538D01*
X135970333Y-103209538D02*
X136065571Y-103161919D01*
X136065571Y-103161919D02*
X136256047Y-103161919D01*
X136256047Y-103161919D02*
X136351285Y-103209538D01*
X136351285Y-103209538D02*
X136446523Y-103304776D01*
X136446523Y-103304776D02*
X136494142Y-103495252D01*
X136494142Y-103495252D02*
X136494142Y-103828585D01*
X136494142Y-103828585D02*
X136446523Y-104019061D01*
X136446523Y-104019061D02*
X136351285Y-104114300D01*
X136351285Y-104114300D02*
X136256047Y-104161919D01*
X136256047Y-104161919D02*
X136065571Y-104161919D01*
X137446523Y-104161919D02*
X136875095Y-104161919D01*
X137160809Y-104161919D02*
X137160809Y-103161919D01*
X137160809Y-103161919D02*
X137065571Y-103304776D01*
X137065571Y-103304776D02*
X136970333Y-103400014D01*
X136970333Y-103400014D02*
X136875095Y-103447633D01*
X161986933Y-96574780D02*
X161939314Y-96622400D01*
X161939314Y-96622400D02*
X161796457Y-96670019D01*
X161796457Y-96670019D02*
X161701219Y-96670019D01*
X161701219Y-96670019D02*
X161558362Y-96622400D01*
X161558362Y-96622400D02*
X161463124Y-96527161D01*
X161463124Y-96527161D02*
X161415505Y-96431923D01*
X161415505Y-96431923D02*
X161367886Y-96241447D01*
X161367886Y-96241447D02*
X161367886Y-96098590D01*
X161367886Y-96098590D02*
X161415505Y-95908114D01*
X161415505Y-95908114D02*
X161463124Y-95812876D01*
X161463124Y-95812876D02*
X161558362Y-95717638D01*
X161558362Y-95717638D02*
X161701219Y-95670019D01*
X161701219Y-95670019D02*
X161796457Y-95670019D01*
X161796457Y-95670019D02*
X161939314Y-95717638D01*
X161939314Y-95717638D02*
X161986933Y-95765257D01*
X162463124Y-96670019D02*
X162653600Y-96670019D01*
X162653600Y-96670019D02*
X162748838Y-96622400D01*
X162748838Y-96622400D02*
X162796457Y-96574780D01*
X162796457Y-96574780D02*
X162891695Y-96431923D01*
X162891695Y-96431923D02*
X162939314Y-96241447D01*
X162939314Y-96241447D02*
X162939314Y-95860495D01*
X162939314Y-95860495D02*
X162891695Y-95765257D01*
X162891695Y-95765257D02*
X162844076Y-95717638D01*
X162844076Y-95717638D02*
X162748838Y-95670019D01*
X162748838Y-95670019D02*
X162558362Y-95670019D01*
X162558362Y-95670019D02*
X162463124Y-95717638D01*
X162463124Y-95717638D02*
X162415505Y-95765257D01*
X162415505Y-95765257D02*
X162367886Y-95860495D01*
X162367886Y-95860495D02*
X162367886Y-96098590D01*
X162367886Y-96098590D02*
X162415505Y-96193828D01*
X162415505Y-96193828D02*
X162463124Y-96241447D01*
X162463124Y-96241447D02*
X162558362Y-96289066D01*
X162558362Y-96289066D02*
X162748838Y-96289066D01*
X162748838Y-96289066D02*
X162844076Y-96241447D01*
X162844076Y-96241447D02*
X162891695Y-96193828D01*
X162891695Y-96193828D02*
X162939314Y-96098590D01*
X157408666Y-113196019D02*
X157408666Y-113910304D01*
X157408666Y-113910304D02*
X157361047Y-114053161D01*
X157361047Y-114053161D02*
X157265809Y-114148400D01*
X157265809Y-114148400D02*
X157122952Y-114196019D01*
X157122952Y-114196019D02*
X157027714Y-114196019D01*
X157884857Y-114196019D02*
X157884857Y-113196019D01*
X157884857Y-113196019D02*
X158265809Y-113196019D01*
X158265809Y-113196019D02*
X158361047Y-113243638D01*
X158361047Y-113243638D02*
X158408666Y-113291257D01*
X158408666Y-113291257D02*
X158456285Y-113386495D01*
X158456285Y-113386495D02*
X158456285Y-113529352D01*
X158456285Y-113529352D02*
X158408666Y-113624590D01*
X158408666Y-113624590D02*
X158361047Y-113672209D01*
X158361047Y-113672209D02*
X158265809Y-113719828D01*
X158265809Y-113719828D02*
X157884857Y-113719828D01*
X159313428Y-113529352D02*
X159313428Y-114196019D01*
X159075333Y-113148400D02*
X158837238Y-113862685D01*
X158837238Y-113862685D02*
X159456285Y-113862685D01*
X148931333Y-92809219D02*
X148598000Y-92333028D01*
X148359905Y-92809219D02*
X148359905Y-91809219D01*
X148359905Y-91809219D02*
X148740857Y-91809219D01*
X148740857Y-91809219D02*
X148836095Y-91856838D01*
X148836095Y-91856838D02*
X148883714Y-91904457D01*
X148883714Y-91904457D02*
X148931333Y-91999695D01*
X148931333Y-91999695D02*
X148931333Y-92142552D01*
X148931333Y-92142552D02*
X148883714Y-92237790D01*
X148883714Y-92237790D02*
X148836095Y-92285409D01*
X148836095Y-92285409D02*
X148740857Y-92333028D01*
X148740857Y-92333028D02*
X148359905Y-92333028D01*
X149788476Y-92142552D02*
X149788476Y-92809219D01*
X149550381Y-91761600D02*
X149312286Y-92475885D01*
X149312286Y-92475885D02*
X149931333Y-92475885D01*
X157668933Y-105814019D02*
X157335600Y-105337828D01*
X157097505Y-105814019D02*
X157097505Y-104814019D01*
X157097505Y-104814019D02*
X157478457Y-104814019D01*
X157478457Y-104814019D02*
X157573695Y-104861638D01*
X157573695Y-104861638D02*
X157621314Y-104909257D01*
X157621314Y-104909257D02*
X157668933Y-105004495D01*
X157668933Y-105004495D02*
X157668933Y-105147352D01*
X157668933Y-105147352D02*
X157621314Y-105242590D01*
X157621314Y-105242590D02*
X157573695Y-105290209D01*
X157573695Y-105290209D02*
X157478457Y-105337828D01*
X157478457Y-105337828D02*
X157097505Y-105337828D01*
X158002267Y-104814019D02*
X158621314Y-104814019D01*
X158621314Y-104814019D02*
X158287981Y-105194971D01*
X158287981Y-105194971D02*
X158430838Y-105194971D01*
X158430838Y-105194971D02*
X158526076Y-105242590D01*
X158526076Y-105242590D02*
X158573695Y-105290209D01*
X158573695Y-105290209D02*
X158621314Y-105385447D01*
X158621314Y-105385447D02*
X158621314Y-105623542D01*
X158621314Y-105623542D02*
X158573695Y-105718780D01*
X158573695Y-105718780D02*
X158526076Y-105766400D01*
X158526076Y-105766400D02*
X158430838Y-105814019D01*
X158430838Y-105814019D02*
X158145124Y-105814019D01*
X158145124Y-105814019D02*
X158049886Y-105766400D01*
X158049886Y-105766400D02*
X158002267Y-105718780D01*
X136973666Y-92655819D02*
X136973666Y-93370104D01*
X136973666Y-93370104D02*
X136926047Y-93512961D01*
X136926047Y-93512961D02*
X136830809Y-93608200D01*
X136830809Y-93608200D02*
X136687952Y-93655819D01*
X136687952Y-93655819D02*
X136592714Y-93655819D01*
X137973666Y-93655819D02*
X137402238Y-93655819D01*
X137687952Y-93655819D02*
X137687952Y-92655819D01*
X137687952Y-92655819D02*
X137592714Y-92798676D01*
X137592714Y-92798676D02*
X137497476Y-92893914D01*
X137497476Y-92893914D02*
X137402238Y-92941533D01*
X148931333Y-90878819D02*
X148598000Y-90402628D01*
X148359905Y-90878819D02*
X148359905Y-89878819D01*
X148359905Y-89878819D02*
X148740857Y-89878819D01*
X148740857Y-89878819D02*
X148836095Y-89926438D01*
X148836095Y-89926438D02*
X148883714Y-89974057D01*
X148883714Y-89974057D02*
X148931333Y-90069295D01*
X148931333Y-90069295D02*
X148931333Y-90212152D01*
X148931333Y-90212152D02*
X148883714Y-90307390D01*
X148883714Y-90307390D02*
X148836095Y-90355009D01*
X148836095Y-90355009D02*
X148740857Y-90402628D01*
X148740857Y-90402628D02*
X148359905Y-90402628D01*
X149836095Y-89878819D02*
X149359905Y-89878819D01*
X149359905Y-89878819D02*
X149312286Y-90355009D01*
X149312286Y-90355009D02*
X149359905Y-90307390D01*
X149359905Y-90307390D02*
X149455143Y-90259771D01*
X149455143Y-90259771D02*
X149693238Y-90259771D01*
X149693238Y-90259771D02*
X149788476Y-90307390D01*
X149788476Y-90307390D02*
X149836095Y-90355009D01*
X149836095Y-90355009D02*
X149883714Y-90450247D01*
X149883714Y-90450247D02*
X149883714Y-90688342D01*
X149883714Y-90688342D02*
X149836095Y-90783580D01*
X149836095Y-90783580D02*
X149788476Y-90831200D01*
X149788476Y-90831200D02*
X149693238Y-90878819D01*
X149693238Y-90878819D02*
X149455143Y-90878819D01*
X149455143Y-90878819D02*
X149359905Y-90831200D01*
X149359905Y-90831200D02*
X149312286Y-90783580D01*
X128781980Y-110961467D02*
X128829600Y-111009086D01*
X128829600Y-111009086D02*
X128877219Y-111151943D01*
X128877219Y-111151943D02*
X128877219Y-111247181D01*
X128877219Y-111247181D02*
X128829600Y-111390038D01*
X128829600Y-111390038D02*
X128734361Y-111485276D01*
X128734361Y-111485276D02*
X128639123Y-111532895D01*
X128639123Y-111532895D02*
X128448647Y-111580514D01*
X128448647Y-111580514D02*
X128305790Y-111580514D01*
X128305790Y-111580514D02*
X128115314Y-111532895D01*
X128115314Y-111532895D02*
X128020076Y-111485276D01*
X128020076Y-111485276D02*
X127924838Y-111390038D01*
X127924838Y-111390038D02*
X127877219Y-111247181D01*
X127877219Y-111247181D02*
X127877219Y-111151943D01*
X127877219Y-111151943D02*
X127924838Y-111009086D01*
X127924838Y-111009086D02*
X127972457Y-110961467D01*
X127972457Y-110580514D02*
X127924838Y-110532895D01*
X127924838Y-110532895D02*
X127877219Y-110437657D01*
X127877219Y-110437657D02*
X127877219Y-110199562D01*
X127877219Y-110199562D02*
X127924838Y-110104324D01*
X127924838Y-110104324D02*
X127972457Y-110056705D01*
X127972457Y-110056705D02*
X128067695Y-110009086D01*
X128067695Y-110009086D02*
X128162933Y-110009086D01*
X128162933Y-110009086D02*
X128305790Y-110056705D01*
X128305790Y-110056705D02*
X128877219Y-110628133D01*
X128877219Y-110628133D02*
X128877219Y-110009086D01*
X135691666Y-110728819D02*
X135691666Y-111443104D01*
X135691666Y-111443104D02*
X135644047Y-111585961D01*
X135644047Y-111585961D02*
X135548809Y-111681200D01*
X135548809Y-111681200D02*
X135405952Y-111728819D01*
X135405952Y-111728819D02*
X135310714Y-111728819D01*
X136167857Y-111728819D02*
X136167857Y-110728819D01*
X136167857Y-110728819D02*
X136548809Y-110728819D01*
X136548809Y-110728819D02*
X136644047Y-110776438D01*
X136644047Y-110776438D02*
X136691666Y-110824057D01*
X136691666Y-110824057D02*
X136739285Y-110919295D01*
X136739285Y-110919295D02*
X136739285Y-111062152D01*
X136739285Y-111062152D02*
X136691666Y-111157390D01*
X136691666Y-111157390D02*
X136644047Y-111205009D01*
X136644047Y-111205009D02*
X136548809Y-111252628D01*
X136548809Y-111252628D02*
X136167857Y-111252628D01*
X137120238Y-110824057D02*
X137167857Y-110776438D01*
X137167857Y-110776438D02*
X137263095Y-110728819D01*
X137263095Y-110728819D02*
X137501190Y-110728819D01*
X137501190Y-110728819D02*
X137596428Y-110776438D01*
X137596428Y-110776438D02*
X137644047Y-110824057D01*
X137644047Y-110824057D02*
X137691666Y-110919295D01*
X137691666Y-110919295D02*
X137691666Y-111014533D01*
X137691666Y-111014533D02*
X137644047Y-111157390D01*
X137644047Y-111157390D02*
X137072619Y-111728819D01*
X137072619Y-111728819D02*
X137691666Y-111728819D01*
X170659466Y-103340819D02*
X170659466Y-104055104D01*
X170659466Y-104055104D02*
X170611847Y-104197961D01*
X170611847Y-104197961D02*
X170516609Y-104293200D01*
X170516609Y-104293200D02*
X170373752Y-104340819D01*
X170373752Y-104340819D02*
X170278514Y-104340819D01*
X171040419Y-103340819D02*
X171659466Y-103340819D01*
X171659466Y-103340819D02*
X171326133Y-103721771D01*
X171326133Y-103721771D02*
X171468990Y-103721771D01*
X171468990Y-103721771D02*
X171564228Y-103769390D01*
X171564228Y-103769390D02*
X171611847Y-103817009D01*
X171611847Y-103817009D02*
X171659466Y-103912247D01*
X171659466Y-103912247D02*
X171659466Y-104150342D01*
X171659466Y-104150342D02*
X171611847Y-104245580D01*
X171611847Y-104245580D02*
X171564228Y-104293200D01*
X171564228Y-104293200D02*
X171468990Y-104340819D01*
X171468990Y-104340819D02*
X171183276Y-104340819D01*
X171183276Y-104340819D02*
X171088038Y-104293200D01*
X171088038Y-104293200D02*
X171040419Y-104245580D01*
X160565633Y-88243580D02*
X160518014Y-88291200D01*
X160518014Y-88291200D02*
X160375157Y-88338819D01*
X160375157Y-88338819D02*
X160279919Y-88338819D01*
X160279919Y-88338819D02*
X160137062Y-88291200D01*
X160137062Y-88291200D02*
X160041824Y-88195961D01*
X160041824Y-88195961D02*
X159994205Y-88100723D01*
X159994205Y-88100723D02*
X159946586Y-87910247D01*
X159946586Y-87910247D02*
X159946586Y-87767390D01*
X159946586Y-87767390D02*
X159994205Y-87576914D01*
X159994205Y-87576914D02*
X160041824Y-87481676D01*
X160041824Y-87481676D02*
X160137062Y-87386438D01*
X160137062Y-87386438D02*
X160279919Y-87338819D01*
X160279919Y-87338819D02*
X160375157Y-87338819D01*
X160375157Y-87338819D02*
X160518014Y-87386438D01*
X160518014Y-87386438D02*
X160565633Y-87434057D01*
X161422776Y-87338819D02*
X161232300Y-87338819D01*
X161232300Y-87338819D02*
X161137062Y-87386438D01*
X161137062Y-87386438D02*
X161089443Y-87434057D01*
X161089443Y-87434057D02*
X160994205Y-87576914D01*
X160994205Y-87576914D02*
X160946586Y-87767390D01*
X160946586Y-87767390D02*
X160946586Y-88148342D01*
X160946586Y-88148342D02*
X160994205Y-88243580D01*
X160994205Y-88243580D02*
X161041824Y-88291200D01*
X161041824Y-88291200D02*
X161137062Y-88338819D01*
X161137062Y-88338819D02*
X161327538Y-88338819D01*
X161327538Y-88338819D02*
X161422776Y-88291200D01*
X161422776Y-88291200D02*
X161470395Y-88243580D01*
X161470395Y-88243580D02*
X161518014Y-88148342D01*
X161518014Y-88148342D02*
X161518014Y-87910247D01*
X161518014Y-87910247D02*
X161470395Y-87815009D01*
X161470395Y-87815009D02*
X161422776Y-87767390D01*
X161422776Y-87767390D02*
X161327538Y-87719771D01*
X161327538Y-87719771D02*
X161137062Y-87719771D01*
X161137062Y-87719771D02*
X161041824Y-87767390D01*
X161041824Y-87767390D02*
X160994205Y-87815009D01*
X160994205Y-87815009D02*
X160946586Y-87910247D01*
D14*
%TO.C,R10*%
X155474124Y-116346500D02*
X154964676Y-116346500D01*
X155474124Y-115301500D02*
X154964676Y-115301500D01*
%TO.C,BZ1*%
X147295999Y-116828400D02*
G75*
G02*
X144296000Y-116828400I-1499999J6400000D01*
G01*
X152026000Y-110428400D02*
G75*
G02*
X139566000Y-110428400I-6230000J0D01*
G01*
X139566000Y-110428400D02*
G75*
G02*
X152026000Y-110428400I6230000J0D01*
G01*
%TO.C,Q3*%
X154229500Y-91338400D02*
X154229500Y-90688400D01*
X154229500Y-91338400D02*
X154229500Y-91988400D01*
X157349500Y-91338400D02*
X157349500Y-90688400D01*
X157349500Y-91338400D02*
X157349500Y-91988400D01*
X154279500Y-92500900D02*
X153949500Y-92740900D01*
X153949500Y-92260900D01*
X154279500Y-92500900D01*
G36*
X154279500Y-92500900D02*
G01*
X153949500Y-92740900D01*
X153949500Y-92260900D01*
X154279500Y-92500900D01*
G37*
%TO.C,R7*%
X155474124Y-111135900D02*
X154964676Y-111135900D01*
X155474124Y-112180900D02*
X154964676Y-112180900D01*
%TO.C,C5*%
X148918200Y-100869533D02*
X148918200Y-101162067D01*
X149938200Y-100869533D02*
X149938200Y-101162067D01*
%TO.C,J2*%
X165268000Y-88086000D02*
X165268000Y-94286000D01*
X166393000Y-94286000D02*
X165268000Y-94286000D01*
X166393000Y-94286000D02*
X166393000Y-95686000D01*
X166843000Y-88086000D02*
X177368000Y-88086000D01*
X167943000Y-94286000D02*
X167943000Y-95686000D01*
X170343000Y-94286000D02*
X167943000Y-94286000D01*
X173343000Y-94286000D02*
X171993000Y-94286000D01*
X177368000Y-88686000D02*
X177368000Y-88086000D01*
X177368000Y-88686000D02*
X179368000Y-88686000D01*
X177368000Y-93686000D02*
X179368000Y-93686000D01*
X177368000Y-94286000D02*
X174993000Y-94286000D01*
X177368000Y-94286000D02*
X177368000Y-93686000D01*
X179368000Y-93686000D02*
X179368000Y-88686000D01*
%TO.C,R2*%
X132954500Y-105815676D02*
X132954500Y-106325124D01*
X133999500Y-105815676D02*
X133999500Y-106325124D01*
%TO.C,C7*%
X161169133Y-111148400D02*
X161461667Y-111148400D01*
X161169133Y-112168400D02*
X161461667Y-112168400D01*
%TO.C,Q4*%
X161010600Y-106948800D02*
X160360600Y-106948800D01*
X161010600Y-106948800D02*
X161660600Y-106948800D01*
X161010600Y-110068800D02*
X160360600Y-110068800D01*
X161010600Y-110068800D02*
X161660600Y-110068800D01*
X162413100Y-110348800D02*
X161933100Y-110348800D01*
X162173100Y-110018800D01*
X162413100Y-110348800D01*
G36*
X162413100Y-110348800D02*
G01*
X161933100Y-110348800D01*
X162173100Y-110018800D01*
X162413100Y-110348800D01*
G37*
%TO.C,C8*%
X160752400Y-100859833D02*
X160752400Y-101152367D01*
X161772400Y-100859833D02*
X161772400Y-101152367D01*
%TO.C,SW1*%
X128889000Y-96293000D02*
X128889000Y-97543000D01*
X129179000Y-96583000D02*
X129179000Y-102553000D01*
X129179000Y-102553000D02*
X139299000Y-102553000D01*
X129189000Y-96593000D02*
X129189000Y-97343000D01*
X129189000Y-97343000D02*
X130989000Y-97343000D01*
X129189000Y-98843000D02*
X129939000Y-98843000D01*
X129939000Y-98843000D02*
X129939000Y-101793000D01*
X129939000Y-101793000D02*
X134239000Y-101793000D01*
X130139000Y-96293000D02*
X128889000Y-96293000D01*
X130989000Y-96593000D02*
X129189000Y-96593000D01*
X130989000Y-97343000D02*
X130989000Y-96593000D01*
X132489000Y-96593000D02*
X132489000Y-97343000D01*
X132489000Y-97343000D02*
X135989000Y-97343000D01*
X135989000Y-96593000D02*
X132489000Y-96593000D01*
X135989000Y-97343000D02*
X135989000Y-96593000D01*
X137489000Y-96593000D02*
X137489000Y-97343000D01*
X137489000Y-97343000D02*
X139289000Y-97343000D01*
X138539000Y-98843000D02*
X138539000Y-101793000D01*
X138539000Y-101793000D02*
X134239000Y-101793000D01*
X139289000Y-96593000D02*
X137489000Y-96593000D01*
X139289000Y-97343000D02*
X139289000Y-96593000D01*
X139289000Y-98843000D02*
X138539000Y-98843000D01*
X139299000Y-96583000D02*
X129179000Y-96583000D01*
X139299000Y-102553000D02*
X139299000Y-96583000D01*
%TO.C,R6*%
X169063576Y-97064300D02*
X169573024Y-97064300D01*
X169063576Y-98109300D02*
X169573024Y-98109300D01*
%TO.C,U3*%
X161721800Y-112638400D02*
X160921800Y-112638400D01*
X161721800Y-112638400D02*
X162521800Y-112638400D01*
X161721800Y-115758400D02*
X160921800Y-115758400D01*
X161721800Y-115758400D02*
X162521800Y-115758400D01*
X160421800Y-112688400D02*
X160181800Y-112358400D01*
X160661800Y-112358400D01*
X160421800Y-112688400D01*
G36*
X160421800Y-112688400D02*
G01*
X160181800Y-112358400D01*
X160661800Y-112358400D01*
X160421800Y-112688400D01*
G37*
%TO.C,SW2*%
X167492800Y-112661000D02*
X167492800Y-114161000D01*
X168742800Y-116661000D02*
X173242800Y-116661000D01*
X173242800Y-110161000D02*
X168742800Y-110161000D01*
X174492800Y-114161000D02*
X174492800Y-112661000D01*
%TO.C,R9*%
X155474124Y-106411500D02*
X154964676Y-106411500D01*
X155474124Y-107456500D02*
X154964676Y-107456500D01*
%TO.C,D1*%
X130403600Y-106906635D02*
X130403600Y-107566000D01*
X132154235Y-105156000D02*
G75*
G02*
X128652965Y-105156000I-1750635J0D01*
G01*
X128652965Y-105156000D02*
G75*
G02*
X132154235Y-105156000I1750635J0D01*
G01*
%TO.C,Q2*%
X144779600Y-91361500D02*
X144779600Y-90711500D01*
X144779600Y-91361500D02*
X144779600Y-92011500D01*
X147899600Y-91361500D02*
X147899600Y-90711500D01*
X147899600Y-91361500D02*
X147899600Y-92011500D01*
X148179600Y-90439000D02*
X147849600Y-90199000D01*
X148179600Y-89959000D01*
X148179600Y-90439000D01*
G36*
X148179600Y-90439000D02*
G01*
X147849600Y-90199000D01*
X148179600Y-89959000D01*
X148179600Y-90439000D01*
G37*
%TO.C,R8*%
X154964676Y-109561100D02*
X155474124Y-109561100D01*
X154964676Y-110606100D02*
X155474124Y-110606100D01*
%TO.C,Q1*%
X136637000Y-104547100D02*
X135987000Y-104547100D01*
X136637000Y-104547100D02*
X137287000Y-104547100D01*
X136637000Y-107667100D02*
X135987000Y-107667100D01*
X136637000Y-107667100D02*
X137287000Y-107667100D01*
X135474500Y-104597100D02*
X135234500Y-104267100D01*
X135714500Y-104267100D01*
X135474500Y-104597100D01*
G36*
X135474500Y-104597100D02*
G01*
X135234500Y-104267100D01*
X135714500Y-104267100D01*
X135474500Y-104597100D01*
G37*
%TO.C,C9*%
X162014633Y-97124400D02*
X162307167Y-97124400D01*
X162014633Y-98144400D02*
X162307167Y-98144400D01*
%TO.C,JP4*%
X153819400Y-114041200D02*
X153819400Y-113441200D01*
X154519400Y-112741200D02*
X155919400Y-112741200D01*
X155919400Y-114741200D02*
X154519400Y-114741200D01*
X156619400Y-113441200D02*
X156619400Y-114041200D01*
X153819400Y-113441200D02*
G75*
G02*
X154519400Y-112741200I699999J1D01*
G01*
X154519400Y-114741200D02*
G75*
G02*
X153819400Y-114041200I-1J699999D01*
G01*
X155919400Y-112741200D02*
G75*
G02*
X156619400Y-113441200I0J-700000D01*
G01*
X156619400Y-114041200D02*
G75*
G02*
X155919400Y-114741200I-700000J0D01*
G01*
%TO.C,R4*%
X152070224Y-91781100D02*
X151560776Y-91781100D01*
X152070224Y-92826100D02*
X151560776Y-92826100D01*
%TO.C,R3*%
X154966576Y-104836700D02*
X155476024Y-104836700D01*
X154966576Y-105881700D02*
X155476024Y-105881700D01*
%TO.C,J1*%
X131409000Y-88673000D02*
X131409000Y-89923000D01*
X131699000Y-88963000D02*
X131699000Y-94933000D01*
X131699000Y-94933000D02*
X139319000Y-94933000D01*
X131709000Y-88973000D02*
X131709000Y-89723000D01*
X131709000Y-89723000D02*
X133509000Y-89723000D01*
X131709000Y-91223000D02*
X132459000Y-91223000D01*
X132459000Y-91223000D02*
X132459000Y-94173000D01*
X132459000Y-94173000D02*
X135509000Y-94173000D01*
X132659000Y-88673000D02*
X131409000Y-88673000D01*
X133509000Y-88973000D02*
X131709000Y-88973000D01*
X133509000Y-89723000D02*
X133509000Y-88973000D01*
X135009000Y-88973000D02*
X135009000Y-89723000D01*
X135009000Y-89723000D02*
X136009000Y-89723000D01*
X136009000Y-88973000D02*
X135009000Y-88973000D01*
X136009000Y-89723000D02*
X136009000Y-88973000D01*
X137509000Y-88973000D02*
X137509000Y-89723000D01*
X137509000Y-89723000D02*
X139309000Y-89723000D01*
X138559000Y-91223000D02*
X138559000Y-94173000D01*
X138559000Y-94173000D02*
X135509000Y-94173000D01*
X139309000Y-88973000D02*
X137509000Y-88973000D01*
X139309000Y-89723000D02*
X139309000Y-88973000D01*
X139309000Y-91223000D02*
X138559000Y-91223000D01*
X139319000Y-88963000D02*
X131699000Y-88963000D01*
X139319000Y-94933000D02*
X139319000Y-88963000D01*
%TO.C,R5*%
X151535676Y-89901500D02*
X152045124Y-89901500D01*
X151535676Y-90946500D02*
X152045124Y-90946500D01*
%TO.C,U1*%
X152561000Y-93738400D02*
X152561000Y-104018400D01*
X152561000Y-104018400D02*
X154211000Y-104018400D01*
X156211000Y-104018400D02*
X157861000Y-104018400D01*
X157861000Y-93738400D02*
X152561000Y-93738400D01*
X157861000Y-104018400D02*
X157861000Y-93738400D01*
X154211000Y-104018400D02*
G75*
G02*
X156211000Y-104018400I1000000J0D01*
G01*
%TO.C,C2*%
X129363600Y-114040088D02*
X127823600Y-114040088D01*
X129363600Y-114080088D02*
X127823600Y-114080088D01*
X129363600Y-114120088D02*
X127824600Y-114120088D01*
X129363600Y-114160088D02*
X127825600Y-114160088D01*
X129363600Y-114200088D02*
X127827600Y-114200088D01*
X129363600Y-114240088D02*
X127830600Y-114240088D01*
X129363600Y-114280088D02*
X127834600Y-114280088D01*
X129363600Y-114320088D02*
X127838600Y-114320088D01*
X129363600Y-114360088D02*
X127842600Y-114360088D01*
X129363600Y-114400088D02*
X127847600Y-114400088D01*
X129363600Y-114440088D02*
X127853600Y-114440088D01*
X129363600Y-114480088D02*
X127860600Y-114480088D01*
X129363600Y-114520088D02*
X127867600Y-114520088D01*
X129363600Y-114560088D02*
X127875600Y-114560088D01*
X129363600Y-114600088D02*
X127883600Y-114600088D01*
X129363600Y-114640088D02*
X127892600Y-114640088D01*
X129363600Y-114680088D02*
X127902600Y-114680088D01*
X129363600Y-114720088D02*
X127912600Y-114720088D01*
X129363600Y-114761088D02*
X127923600Y-114761088D01*
X129363600Y-114801088D02*
X127935600Y-114801088D01*
X129363600Y-114841088D02*
X127948600Y-114841088D01*
X129363600Y-114881088D02*
X127961600Y-114881088D01*
X129363600Y-114921088D02*
X127975600Y-114921088D01*
X129363600Y-114961088D02*
X127989600Y-114961088D01*
X129363600Y-115001088D02*
X128005600Y-115001088D01*
X129363600Y-115041088D02*
X128021600Y-115041088D01*
X129363600Y-115081088D02*
X128038600Y-115081088D01*
X129363600Y-115121088D02*
X128055600Y-115121088D01*
X129363600Y-115161088D02*
X128074600Y-115161088D01*
X129363600Y-115201088D02*
X128093600Y-115201088D01*
X129363600Y-115241088D02*
X128113600Y-115241088D01*
X129363600Y-115281088D02*
X128135600Y-115281088D01*
X129363600Y-115321088D02*
X128156600Y-115321088D01*
X129363600Y-115361088D02*
X128179600Y-115361088D01*
X129363600Y-115401088D02*
X128203600Y-115401088D01*
X129363600Y-115441088D02*
X128228600Y-115441088D01*
X129363600Y-115481088D02*
X128254600Y-115481088D01*
X129363600Y-115521088D02*
X128281600Y-115521088D01*
X129363600Y-115561088D02*
X128308600Y-115561088D01*
X129363600Y-115601088D02*
X128338600Y-115601088D01*
X129363600Y-115641088D02*
X128368600Y-115641088D01*
X129363600Y-115681088D02*
X128399600Y-115681088D01*
X129363600Y-115721088D02*
X128432600Y-115721088D01*
X129363600Y-115761088D02*
X128466600Y-115761088D01*
X129363600Y-115801088D02*
X128502600Y-115801088D01*
X129363600Y-115841088D02*
X128539600Y-115841088D01*
X129363600Y-115881088D02*
X128577600Y-115881088D01*
X129363600Y-115921088D02*
X128618600Y-115921088D01*
X129363600Y-115961088D02*
X128660600Y-115961088D01*
X129363600Y-116001088D02*
X128704600Y-116001088D01*
X129363600Y-116041088D02*
X128750600Y-116041088D01*
X130687600Y-116641088D02*
X130119600Y-116641088D01*
X130921600Y-116601088D02*
X129885600Y-116601088D01*
X131080600Y-116561088D02*
X129726600Y-116561088D01*
X131208600Y-116521088D02*
X129598600Y-116521088D01*
X131318600Y-116481088D02*
X129488600Y-116481088D01*
X131414600Y-116441088D02*
X129392600Y-116441088D01*
X131501600Y-116401088D02*
X129305600Y-116401088D01*
X131581600Y-116361088D02*
X129225600Y-116361088D01*
X131654600Y-116321088D02*
X129152600Y-116321088D01*
X131722600Y-116281088D02*
X129084600Y-116281088D01*
X131786600Y-116241088D02*
X129020600Y-116241088D01*
X131846600Y-116201088D02*
X128960600Y-116201088D01*
X131878600Y-111235313D02*
X131878600Y-111735313D01*
X131903600Y-116161088D02*
X128903600Y-116161088D01*
X131957600Y-116121088D02*
X128849600Y-116121088D01*
X132008600Y-116081088D02*
X128798600Y-116081088D01*
X132056600Y-116041088D02*
X131443600Y-116041088D01*
X132102600Y-116001088D02*
X131443600Y-116001088D01*
X132128600Y-111485313D02*
X131628600Y-111485313D01*
X132146600Y-115961088D02*
X131443600Y-115961088D01*
X132188600Y-115921088D02*
X131443600Y-115921088D01*
X132229600Y-115881088D02*
X131443600Y-115881088D01*
X132267600Y-115841088D02*
X131443600Y-115841088D01*
X132304600Y-115801088D02*
X131443600Y-115801088D01*
X132340600Y-115761088D02*
X131443600Y-115761088D01*
X132374600Y-115721088D02*
X131443600Y-115721088D01*
X132407600Y-115681088D02*
X131443600Y-115681088D01*
X132438600Y-115641088D02*
X131443600Y-115641088D01*
X132468600Y-115601088D02*
X131443600Y-115601088D01*
X132498600Y-115561088D02*
X131443600Y-115561088D01*
X132525600Y-115521088D02*
X131443600Y-115521088D01*
X132552600Y-115481088D02*
X131443600Y-115481088D01*
X132578600Y-115441088D02*
X131443600Y-115441088D01*
X132603600Y-115401088D02*
X131443600Y-115401088D01*
X132627600Y-115361088D02*
X131443600Y-115361088D01*
X132650600Y-115321088D02*
X131443600Y-115321088D01*
X132671600Y-115281088D02*
X131443600Y-115281088D01*
X132693600Y-115241088D02*
X131443600Y-115241088D01*
X132713600Y-115201088D02*
X131443600Y-115201088D01*
X132732600Y-115161088D02*
X131443600Y-115161088D01*
X132751600Y-115121088D02*
X131443600Y-115121088D01*
X132768600Y-115081088D02*
X131443600Y-115081088D01*
X132785600Y-115041088D02*
X131443600Y-115041088D01*
X132801600Y-115001088D02*
X131443600Y-115001088D01*
X132817600Y-114961088D02*
X131443600Y-114961088D01*
X132831600Y-114921088D02*
X131443600Y-114921088D01*
X132845600Y-114881088D02*
X131443600Y-114881088D01*
X132858600Y-114841088D02*
X131443600Y-114841088D01*
X132871600Y-114801088D02*
X131443600Y-114801088D01*
X132883600Y-114761088D02*
X131443600Y-114761088D01*
X132894600Y-114720088D02*
X131443600Y-114720088D01*
X132904600Y-114680088D02*
X131443600Y-114680088D01*
X132914600Y-114640088D02*
X131443600Y-114640088D01*
X132923600Y-114600088D02*
X131443600Y-114600088D01*
X132931600Y-114560088D02*
X131443600Y-114560088D01*
X132939600Y-114520088D02*
X131443600Y-114520088D01*
X132946600Y-114480088D02*
X131443600Y-114480088D01*
X132953600Y-114440088D02*
X131443600Y-114440088D01*
X132959600Y-114400088D02*
X131443600Y-114400088D01*
X132964600Y-114360088D02*
X131443600Y-114360088D01*
X132968600Y-114320088D02*
X131443600Y-114320088D01*
X132972600Y-114280088D02*
X131443600Y-114280088D01*
X132976600Y-114240088D02*
X131443600Y-114240088D01*
X132979600Y-114200088D02*
X131443600Y-114200088D01*
X132981600Y-114160088D02*
X131443600Y-114160088D01*
X132982600Y-114120088D02*
X131443600Y-114120088D01*
X132983600Y-114040088D02*
X131443600Y-114040088D01*
X132983600Y-114080088D02*
X131443600Y-114080088D01*
X133023600Y-114040088D02*
G75*
G02*
X127783600Y-114040088I-2620000J0D01*
G01*
X127783600Y-114040088D02*
G75*
G02*
X133023600Y-114040088I2620000J0D01*
G01*
%TO.C,JP2*%
X135125000Y-109774000D02*
X135125000Y-109174000D01*
X135825000Y-108474000D02*
X137225000Y-108474000D01*
X137225000Y-110474000D02*
X135825000Y-110474000D01*
X137925000Y-109174000D02*
X137925000Y-109774000D01*
X135125000Y-109174000D02*
G75*
G02*
X135825000Y-108474000I700000J0D01*
G01*
X135825000Y-110474000D02*
G75*
G02*
X135125000Y-109774000I0J700000D01*
G01*
X137225000Y-108474000D02*
G75*
G02*
X137925000Y-109174000I1J-699999D01*
G01*
X137925000Y-109774000D02*
G75*
G02*
X137225000Y-110474000I-699999J-1D01*
G01*
%TO.C,J3*%
X165268000Y-100786000D02*
X165268000Y-106986000D01*
X166393000Y-106986000D02*
X165268000Y-106986000D01*
X166393000Y-106986000D02*
X166393000Y-108386000D01*
X166843000Y-100786000D02*
X177368000Y-100786000D01*
X167943000Y-106986000D02*
X167943000Y-108386000D01*
X170343000Y-106986000D02*
X167943000Y-106986000D01*
X173343000Y-106986000D02*
X171993000Y-106986000D01*
X177368000Y-101386000D02*
X177368000Y-100786000D01*
X177368000Y-101386000D02*
X179368000Y-101386000D01*
X177368000Y-106386000D02*
X179368000Y-106386000D01*
X177368000Y-106986000D02*
X174993000Y-106986000D01*
X177368000Y-106986000D02*
X177368000Y-106386000D01*
X179368000Y-106386000D02*
X179368000Y-101386000D01*
%TO.C,D2*%
X172834400Y-98321800D02*
X175294400Y-98321800D01*
X175294400Y-96851800D02*
X172834400Y-96851800D01*
X175294400Y-98321800D02*
X175294400Y-96851800D01*
%TO.C,C6*%
X160584933Y-88796400D02*
X160877467Y-88796400D01*
X160584933Y-89816400D02*
X160877467Y-89816400D01*
%TO.C,D3*%
X153559400Y-107773800D02*
X153559400Y-109243800D01*
X153559400Y-109243800D02*
X156019400Y-109243800D01*
X156019400Y-107773800D02*
X153559400Y-107773800D01*
%TD*%
M02*
