%TF.GenerationSoftware,KiCad,Pcbnew,8.0.4-1.fc40*%
%TF.CreationDate,2024-08-13T13:21:04-05:00*%
%TF.ProjectId,K9QW_ATTiny_CW_Keyer,4b395157-5f41-4545-9469-6e795f43575f,rev?*%
%TF.SameCoordinates,Original*%
%TF.FileFunction,Copper,L1,Top*%
%TF.FilePolarity,Positive*%
%FSLAX46Y46*%
G04 Gerber Fmt 4.6, Leading zero omitted, Abs format (unit mm)*
G04 Created by KiCad (PCBNEW 8.0.4-1.fc40) date 2024-08-13 13:21:04*
%MOMM*%
%LPD*%
G01*
G04 APERTURE LIST*
G04 Aperture macros list*
%AMRoundRect*
0 Rectangle with rounded corners*
0 $1 Rounding radius*
0 $2 $3 $4 $5 $6 $7 $8 $9 X,Y pos of 4 corners*
0 Add a 4 corners polygon primitive as box body*
4,1,4,$2,$3,$4,$5,$6,$7,$8,$9,$2,$3,0*
0 Add four circle primitives for the rounded corners*
1,1,$1+$1,$2,$3*
1,1,$1+$1,$4,$5*
1,1,$1+$1,$6,$7*
1,1,$1+$1,$8,$9*
0 Add four rect primitives between the rounded corners*
20,1,$1+$1,$2,$3,$4,$5,0*
20,1,$1+$1,$4,$5,$6,$7,0*
20,1,$1+$1,$6,$7,$8,$9,0*
20,1,$1+$1,$8,$9,$2,$3,0*%
%AMFreePoly0*
4,1,19,0.000000,0.744911,0.071157,0.744911,0.207708,0.704816,0.327430,0.627875,0.420627,0.520320,0.479746,0.390866,0.500000,0.250000,0.500000,-0.250000,0.479746,-0.390866,0.420627,-0.520320,0.327430,-0.627875,0.207708,-0.704816,0.071157,-0.744911,0.000000,-0.744911,0.000000,-0.750000,-0.500000,-0.750000,-0.500000,0.750000,0.000000,0.750000,0.000000,0.744911,0.000000,0.744911,
$1*%
%AMFreePoly1*
4,1,19,0.500000,-0.750000,0.000000,-0.750000,0.000000,-0.744911,-0.071157,-0.744911,-0.207708,-0.704816,-0.327430,-0.627875,-0.420627,-0.520320,-0.479746,-0.390866,-0.500000,-0.250000,-0.500000,0.250000,-0.479746,0.390866,-0.420627,0.520320,-0.327430,0.627875,-0.207708,0.704816,-0.071157,0.744911,0.000000,0.744911,0.000000,0.750000,0.500000,0.750000,0.500000,-0.750000,0.500000,-0.750000,
$1*%
G04 Aperture macros list end*
%TA.AperFunction,SMDPad,CuDef*%
%ADD10RoundRect,0.237500X0.300000X0.237500X-0.300000X0.237500X-0.300000X-0.237500X0.300000X-0.237500X0*%
%TD*%
%TA.AperFunction,SMDPad,CuDef*%
%ADD11RoundRect,0.237500X-0.237500X0.250000X-0.237500X-0.250000X0.237500X-0.250000X0.237500X0.250000X0*%
%TD*%
%TA.AperFunction,SMDPad,CuDef*%
%ADD12RoundRect,0.150000X-0.587500X-0.150000X0.587500X-0.150000X0.587500X0.150000X-0.587500X0.150000X0*%
%TD*%
%TA.AperFunction,SMDPad,CuDef*%
%ADD13FreePoly0,180.000000*%
%TD*%
%TA.AperFunction,SMDPad,CuDef*%
%ADD14FreePoly1,180.000000*%
%TD*%
%TA.AperFunction,SMDPad,CuDef*%
%ADD15R,1.200000X2.500000*%
%TD*%
%TA.AperFunction,ComponentPad*%
%ADD16O,2.200000X2.200000*%
%TD*%
%TA.AperFunction,ComponentPad*%
%ADD17R,2.200000X2.200000*%
%TD*%
%TA.AperFunction,SMDPad,CuDef*%
%ADD18RoundRect,0.375000X-0.625000X-0.375000X0.625000X-0.375000X0.625000X0.375000X-0.625000X0.375000X0*%
%TD*%
%TA.AperFunction,SMDPad,CuDef*%
%ADD19RoundRect,0.500000X-0.500000X-1.400000X0.500000X-1.400000X0.500000X1.400000X-0.500000X1.400000X0*%
%TD*%
%TA.AperFunction,SMDPad,CuDef*%
%ADD20RoundRect,0.237500X-0.237500X0.300000X-0.237500X-0.300000X0.237500X-0.300000X0.237500X0.300000X0*%
%TD*%
%TA.AperFunction,ComponentPad*%
%ADD21O,1.700000X1.950000*%
%TD*%
%TA.AperFunction,ComponentPad*%
%ADD22RoundRect,0.250000X-0.600000X-0.725000X0.600000X-0.725000X0.600000X0.725000X-0.600000X0.725000X0*%
%TD*%
%TA.AperFunction,SMDPad,CuDef*%
%ADD23RoundRect,0.237500X-0.250000X-0.237500X0.250000X-0.237500X0.250000X0.237500X-0.250000X0.237500X0*%
%TD*%
%TA.AperFunction,SMDPad,CuDef*%
%ADD24RoundRect,0.237500X0.237500X-0.250000X0.237500X0.250000X-0.237500X0.250000X-0.237500X-0.250000X0*%
%TD*%
%TA.AperFunction,SMDPad,CuDef*%
%ADD25RoundRect,0.237500X0.250000X0.237500X-0.250000X0.237500X-0.250000X-0.237500X0.250000X-0.237500X0*%
%TD*%
%TA.AperFunction,SMDPad,CuDef*%
%ADD26RoundRect,0.150000X-0.150000X0.587500X-0.150000X-0.587500X0.150000X-0.587500X0.150000X0.587500X0*%
%TD*%
%TA.AperFunction,SMDPad,CuDef*%
%ADD27RoundRect,0.237500X-0.300000X-0.237500X0.300000X-0.237500X0.300000X0.237500X-0.300000X0.237500X0*%
%TD*%
%TA.AperFunction,ComponentPad*%
%ADD28C,3.600000*%
%TD*%
%TA.AperFunction,ConnectorPad*%
%ADD29C,6.400000*%
%TD*%
%TA.AperFunction,ComponentPad*%
%ADD30O,1.700000X2.000000*%
%TD*%
%TA.AperFunction,ComponentPad*%
%ADD31RoundRect,0.250000X-0.600000X-0.750000X0.600000X-0.750000X0.600000X0.750000X-0.600000X0.750000X0*%
%TD*%
%TA.AperFunction,SMDPad,CuDef*%
%ADD32FreePoly1,90.000000*%
%TD*%
%TA.AperFunction,SMDPad,CuDef*%
%ADD33FreePoly0,90.000000*%
%TD*%
%TA.AperFunction,SMDPad,CuDef*%
%ADD34FreePoly1,0.000000*%
%TD*%
%TA.AperFunction,SMDPad,CuDef*%
%ADD35FreePoly0,0.000000*%
%TD*%
%TA.AperFunction,SMDPad,CuDef*%
%ADD36RoundRect,0.237500X0.287500X0.237500X-0.287500X0.237500X-0.287500X-0.237500X0.287500X-0.237500X0*%
%TD*%
%TA.AperFunction,SMDPad,CuDef*%
%ADD37RoundRect,0.237500X0.237500X-0.287500X0.237500X0.287500X-0.237500X0.287500X-0.237500X-0.287500X0*%
%TD*%
%TA.AperFunction,ComponentPad*%
%ADD38C,2.000000*%
%TD*%
%TA.AperFunction,SMDPad,CuDef*%
%ADD39RoundRect,0.150000X0.150000X-0.587500X0.150000X0.587500X-0.150000X0.587500X-0.150000X-0.587500X0*%
%TD*%
%TA.AperFunction,SMDPad,CuDef*%
%ADD40RoundRect,0.237500X0.237500X-0.300000X0.237500X0.300000X-0.237500X0.300000X-0.237500X-0.300000X0*%
%TD*%
%TA.AperFunction,ComponentPad*%
%ADD41O,1.600000X1.600000*%
%TD*%
%TA.AperFunction,ComponentPad*%
%ADD42R,1.600000X1.600000*%
%TD*%
%TA.AperFunction,ViaPad*%
%ADD43C,0.600000*%
%TD*%
%TA.AperFunction,Conductor*%
%ADD44C,0.200000*%
%TD*%
%TA.AperFunction,Conductor*%
%ADD45C,1.000000*%
%TD*%
G04 APERTURE END LIST*
D10*
%TO.P,C4,1*%
%TO.N,COMMAND*%
X146506100Y-102565200D03*
%TO.P,C4,2*%
%TO.N,GND*%
X144781100Y-102565200D03*
%TD*%
D11*
%TO.P,R2,2*%
%TO.N,GND*%
X133477000Y-106982900D03*
%TO.P,R2,1*%
%TO.N,Net-(D1-A)*%
X133477000Y-105157900D03*
%TD*%
D12*
%TO.P,Q1,3,D*%
%TO.N,Net-(JP1-A)*%
X137574500Y-106107100D03*
%TO.P,Q1,2,S*%
%TO.N,Net-(D1-K)*%
X135699500Y-107057100D03*
%TO.P,Q1,1,G*%
%TO.N,Net-(D1-A)*%
X135699500Y-105157100D03*
%TD*%
D13*
%TO.P,JP2,2,B*%
%TO.N,Net-(D1-K)*%
X135875000Y-109474000D03*
D14*
%TO.P,JP2,1,A*%
%TO.N,Net-(JP1-A)*%
X137175000Y-109474000D03*
%TD*%
D15*
%TO.P,J2,R1*%
%TO.N,unconnected-(J2-PadR1)*%
X171168000Y-94436000D03*
%TO.P,J2,R2*%
%TO.N,unconnected-(J2-PadR2)*%
X174168000Y-94436000D03*
%TO.P,J2,S*%
%TO.N,GND*%
X166068000Y-87936000D03*
%TO.P,J2,T*%
%TO.N,Net-(Q2-C)*%
X167168000Y-94436000D03*
%TD*%
%TO.P,J3,R1*%
%TO.N,DAH*%
X171168000Y-107136000D03*
%TO.P,J3,R2*%
%TO.N,unconnected-(J3-PadR2)*%
X174168000Y-107136000D03*
%TO.P,J3,S*%
%TO.N,GND*%
X166068000Y-100636000D03*
%TO.P,J3,T*%
%TO.N,DIT*%
X167168000Y-107136000D03*
%TD*%
D16*
%TO.P,D1,2,A*%
%TO.N,Net-(D1-A)*%
X130429000Y-105156000D03*
D17*
%TO.P,D1,1,K*%
%TO.N,Net-(D1-K)*%
X130429000Y-115316000D03*
%TD*%
D18*
%TO.P,U2,3,VI*%
%TO.N,Net-(D1-K)*%
X140233000Y-113044000D03*
D19*
%TO.P,U2,2,VO*%
%TO.N,VCC*%
X146533000Y-110744000D03*
D18*
X140233000Y-110744000D03*
%TO.P,U2,1,GND*%
%TO.N,GND*%
X140233000Y-108444000D03*
%TD*%
D20*
%TO.P,C6,2*%
%TO.N,GND*%
X161262400Y-101868600D03*
%TO.P,C6,1*%
%TO.N,DAH*%
X161262400Y-100143600D03*
%TD*%
D10*
%TO.P,C3,2*%
%TO.N,GND*%
X144806500Y-115316000D03*
%TO.P,C3,1*%
%TO.N,VCC*%
X146531500Y-115316000D03*
%TD*%
D21*
%TO.P,SW1,3,C*%
%TO.N,VDC*%
X136739000Y-99043000D03*
%TO.P,SW1,2,B*%
%TO.N,Net-(JP1-A)*%
X134239000Y-99043000D03*
D22*
%TO.P,SW1,1,A*%
%TO.N,Net-(SW1-A)*%
X131739000Y-99043000D03*
%TD*%
D23*
%TO.P,R6,1*%
%TO.N,VCC*%
X168405800Y-97586800D03*
%TO.P,R6,2*%
%TO.N,Net-(D2-A)*%
X170230800Y-97586800D03*
%TD*%
D24*
%TO.P,R1,1*%
%TO.N,Net-(SW1-A)*%
X129921000Y-94615000D03*
%TO.P,R1,2*%
%TO.N,GND*%
X129921000Y-92790000D03*
%TD*%
D25*
%TO.P,R9,2*%
%TO.N,VCC*%
X154433900Y-107137200D03*
%TO.P,R9,1*%
%TO.N,Net-(D3-A)*%
X156258900Y-107137200D03*
%TD*%
D26*
%TO.P,Q2,3,C*%
%TO.N,Net-(Q2-C)*%
X146339600Y-92299000D03*
%TO.P,Q2,2,E*%
%TO.N,GND*%
X145389600Y-90424000D03*
%TO.P,Q2,1,B*%
%TO.N,Net-(Q2-B)*%
X147289600Y-90424000D03*
%TD*%
D27*
%TO.P,C7,2*%
%TO.N,GND*%
X163023400Y-97634400D03*
%TO.P,C7,1*%
%TO.N,DIT*%
X161298400Y-97634400D03*
%TD*%
D25*
%TO.P,R4,2*%
%TO.N,Net-(Q2-B)*%
X150903000Y-92303600D03*
%TO.P,R4,1*%
%TO.N,KEY*%
X152728000Y-92303600D03*
%TD*%
D20*
%TO.P,C1,1*%
%TO.N,VCC*%
X151409400Y-105182500D03*
%TO.P,C1,2*%
%TO.N,GND*%
X151409400Y-106907500D03*
%TD*%
%TO.P,C2,1*%
%TO.N,Net-(D1-K)*%
X133477000Y-110897500D03*
%TO.P,C2,2*%
%TO.N,GND*%
X133477000Y-112622500D03*
%TD*%
D28*
%TO.P,J5,1,Pin_1*%
%TO.N,GND*%
X145593000Y-97536000D03*
D29*
X145593000Y-97536000D03*
%TD*%
D23*
%TO.P,R3,1*%
%TO.N,VCC*%
X154435800Y-105359200D03*
%TO.P,R3,2*%
%TO.N,Net-(U1-~{RESET}{slash}PB5)*%
X156260800Y-105359200D03*
%TD*%
D30*
%TO.P,J1,2,Pin_2*%
%TO.N,GND*%
X136759000Y-91423000D03*
D31*
%TO.P,J1,1,Pin_1*%
%TO.N,VDC*%
X134259000Y-91423000D03*
%TD*%
D23*
%TO.P,R5,1*%
%TO.N,KEY*%
X150877900Y-90424000D03*
%TO.P,R5,2*%
%TO.N,Net-(Q3-B)*%
X152702900Y-90424000D03*
%TD*%
D32*
%TO.P,JP1,1,A*%
%TO.N,Net-(JP1-A)*%
X140081000Y-105694000D03*
D33*
%TO.P,JP1,2,B*%
%TO.N,VDC*%
X140081000Y-104394000D03*
%TD*%
D34*
%TO.P,JP3,1,A*%
%TO.N,Net-(D1-K)*%
X135875000Y-113030000D03*
D35*
%TO.P,JP3,2,B*%
%TO.N,VCC*%
X137175000Y-113030000D03*
%TD*%
D36*
%TO.P,D2,2,A*%
%TO.N,Net-(D2-A)*%
X172759400Y-97586800D03*
%TO.P,D2,1,K*%
%TO.N,Net-(D2-K)*%
X174509400Y-97586800D03*
%TD*%
D27*
%TO.P,C5,2*%
%TO.N,GND*%
X161593700Y-89306400D03*
%TO.P,C5,1*%
%TO.N,Net-(Q2-C)*%
X159868700Y-89306400D03*
%TD*%
D26*
%TO.P,Q4,3,C*%
%TO.N,Net-(D3-K)*%
X151033200Y-114621000D03*
%TO.P,Q4,2,E*%
%TO.N,GND*%
X150083200Y-112746000D03*
%TO.P,Q4,1,B*%
%TO.N,Net-(Q4-B)*%
X151983200Y-112746000D03*
%TD*%
D24*
%TO.P,R7,2*%
%TO.N,Net-(Q4-B)*%
X153873200Y-112729000D03*
%TO.P,R7,1*%
%TO.N,SIDETONE*%
X153873200Y-114554000D03*
%TD*%
D37*
%TO.P,D3,1,K*%
%TO.N,Net-(D3-K)*%
X153928800Y-110806200D03*
%TO.P,D3,2,A*%
%TO.N,Net-(D3-A)*%
X153928800Y-109056200D03*
%TD*%
D38*
%TO.P,SW2,1,1*%
%TO.N,COMMAND*%
X167742800Y-111161000D03*
X174242800Y-111161000D03*
%TO.P,SW2,2,2*%
%TO.N,GND*%
X167742800Y-115661000D03*
X174242800Y-115661000D03*
%TD*%
D39*
%TO.P,Q3,1,B*%
%TO.N,Net-(Q3-B)*%
X154839500Y-92275900D03*
%TO.P,Q3,2,E*%
%TO.N,GND*%
X156739500Y-92275900D03*
%TO.P,Q3,3,C*%
%TO.N,Net-(D2-K)*%
X155789500Y-90400900D03*
%TD*%
D40*
%TO.P,C8,1*%
%TO.N,Net-(J4-Pin_1)*%
X162788600Y-107542500D03*
%TO.P,C8,2*%
%TO.N,GND*%
X162788600Y-105817500D03*
%TD*%
D30*
%TO.P,J4,2,Pin_2*%
%TO.N,GND*%
X160970600Y-111328200D03*
D31*
%TO.P,J4,1,Pin_1*%
%TO.N,Net-(J4-Pin_1)*%
X158470600Y-111328200D03*
%TD*%
D41*
%TO.P,U1,8,VCC*%
%TO.N,VCC*%
X151401000Y-102688400D03*
%TO.P,U1,7,PB2*%
%TO.N,COMMAND*%
X151401000Y-100148400D03*
%TO.P,U1,6,PB1*%
%TO.N,SIDETONE*%
X151401000Y-97608400D03*
%TO.P,U1,5,AREF/PB0*%
%TO.N,KEY*%
X151401000Y-95068400D03*
%TO.P,U1,4,GND*%
%TO.N,GND*%
X159021000Y-95068400D03*
%TO.P,U1,3,XTAL2/PB4*%
%TO.N,DIT*%
X159021000Y-97608400D03*
%TO.P,U1,2,XTAL1/PB3*%
%TO.N,DAH*%
X159021000Y-100148400D03*
D42*
%TO.P,U1,1,~{RESET}/PB5*%
%TO.N,Net-(U1-~{RESET}{slash}PB5)*%
X159021000Y-102688400D03*
%TD*%
D24*
%TO.P,R8,1*%
%TO.N,Net-(J4-Pin_1)*%
X161264600Y-107592500D03*
%TO.P,R8,2*%
%TO.N,SIDETONE*%
X161264600Y-105767500D03*
%TD*%
D43*
%TO.N,SIDETONE*%
X160172400Y-105765600D03*
%TO.N,GND*%
X149402800Y-91135200D03*
X154584400Y-90424000D03*
X165709600Y-106883200D03*
X153949400Y-96520000D03*
%TO.N,Net-(J4-Pin_1)*%
X162763200Y-108483400D03*
%TO.N,GND*%
X156718000Y-99034600D03*
%TD*%
D44*
%TO.N,Net-(J4-Pin_1)*%
X162763200Y-108483400D02*
X162763200Y-107567900D01*
X162763200Y-107567900D02*
X162788600Y-107542500D01*
X162788600Y-107542500D02*
X161314600Y-107542500D01*
X161314600Y-107542500D02*
X161264600Y-107592500D01*
%TO.N,SIDETONE*%
X160172400Y-105765600D02*
X161262700Y-105765600D01*
X161262700Y-105765600D02*
X161264600Y-105767500D01*
X160172400Y-105765600D02*
X160172400Y-107137200D01*
X160172400Y-107137200D02*
X154648200Y-112661400D01*
X154648200Y-112661400D02*
X154648200Y-113779000D01*
X154648200Y-113779000D02*
X153873200Y-114554000D01*
%TO.N,VCC*%
X168405800Y-97586800D02*
X167017729Y-97586800D01*
X167017729Y-97586800D02*
X163309329Y-93878400D01*
X163309329Y-93878400D02*
X157784800Y-93878400D01*
X157784800Y-93878400D02*
X155549600Y-96113600D01*
X155549600Y-96113600D02*
X155549600Y-100838000D01*
X155549600Y-100838000D02*
X153699200Y-102688400D01*
X153699200Y-102688400D02*
X151401000Y-102688400D01*
%TO.N,SIDETONE*%
X160174300Y-105767500D02*
X160172400Y-105765600D01*
%TO.N,Net-(J4-Pin_1)*%
X161264600Y-107592500D02*
X158470600Y-110386500D01*
X158470600Y-110386500D02*
X158470600Y-111328200D01*
%TO.N,DAH*%
X171168000Y-107136000D02*
X169618000Y-108686000D01*
X169618000Y-108686000D02*
X166344000Y-108686000D01*
X166344000Y-108686000D02*
X164768000Y-107110000D01*
X164768000Y-107110000D02*
X164768000Y-101669686D01*
X164768000Y-101669686D02*
X163241914Y-100143600D01*
X163241914Y-100143600D02*
X161262400Y-100143600D01*
%TO.N,DIT*%
X167168000Y-107136000D02*
X165168000Y-105136000D01*
X165168000Y-105136000D02*
X165168000Y-101504000D01*
X165168000Y-101504000D02*
X161298400Y-97634400D01*
%TO.N,Net-(Q2-C)*%
X159868700Y-89306400D02*
X147029148Y-89306400D01*
X147029148Y-89306400D02*
X146339600Y-89995948D01*
X146339600Y-89995948D02*
X146339600Y-92299000D01*
X167168000Y-94436000D02*
X164998300Y-94436000D01*
X164998300Y-94436000D02*
X159868700Y-89306400D01*
%TO.N,Net-(D2-K)*%
X155789500Y-90400900D02*
X160397514Y-90400900D01*
X160397514Y-90400900D02*
X166110214Y-96113600D01*
X166110214Y-96113600D02*
X173036200Y-96113600D01*
X173036200Y-96113600D02*
X174509400Y-97586800D01*
D45*
%TO.N,Net-(D1-A)*%
X133477000Y-105157900D02*
X130430900Y-105157900D01*
X130430900Y-105157900D02*
X130429000Y-105156000D01*
%TO.N,Net-(D1-K)*%
X133477000Y-110897500D02*
X131926500Y-110897500D01*
X131926500Y-110897500D02*
X130429000Y-112395000D01*
X130429000Y-112395000D02*
X130429000Y-115316000D01*
D44*
%TO.N,COMMAND*%
X151401000Y-100148400D02*
X149736800Y-100148400D01*
X149736800Y-100148400D02*
X147320000Y-102565200D01*
X147320000Y-102565200D02*
X146709300Y-102565200D01*
D45*
%TO.N,VCC*%
X151401000Y-102688400D02*
X151401000Y-105174100D01*
X151401000Y-105174100D02*
X151409400Y-105182500D01*
D44*
X154435800Y-105359200D02*
X154432000Y-105359200D01*
X154432000Y-105359200D02*
X151761200Y-102688400D01*
X151761200Y-102688400D02*
X151401000Y-102688400D01*
%TO.N,COMMAND*%
X167742800Y-111161000D02*
X174242800Y-111161000D01*
%TO.N,VCC*%
X154433900Y-107137200D02*
X154433900Y-105361100D01*
X154433900Y-105361100D02*
X154435800Y-105359200D01*
%TO.N,Net-(D3-A)*%
X156258900Y-107137200D02*
X155847800Y-107137200D01*
X155847800Y-107137200D02*
X153928800Y-109056200D01*
%TO.N,Net-(D3-K)*%
X151033200Y-114621000D02*
X151033200Y-112317948D01*
X151033200Y-112317948D02*
X152544948Y-110806200D01*
X152544948Y-110806200D02*
X153928800Y-110806200D01*
%TO.N,Net-(Q4-B)*%
X153873200Y-112729000D02*
X152000200Y-112729000D01*
X152000200Y-112729000D02*
X151983200Y-112746000D01*
D45*
%TO.N,Net-(JP1-A)*%
X134239000Y-99043000D02*
X137574500Y-102378500D01*
X137574500Y-102378500D02*
X137574500Y-106107100D01*
X140081000Y-105694000D02*
X137987600Y-105694000D01*
X137987600Y-105694000D02*
X137574500Y-106107100D01*
X137175000Y-109474000D02*
X137175000Y-106506600D01*
X137175000Y-106506600D02*
X137574500Y-106107100D01*
D44*
%TO.N,Net-(D2-A)*%
X172759400Y-97586800D02*
X170230800Y-97586800D01*
%TO.N,Net-(D1-A)*%
X133475100Y-105156000D02*
X133477000Y-105157900D01*
D45*
%TO.N,Net-(D1-K)*%
X133477000Y-110897500D02*
X134451500Y-110897500D01*
X134451500Y-110897500D02*
X135875000Y-109474000D01*
X135875000Y-112507000D02*
X135875000Y-113030000D01*
D44*
%TO.N,Net-(Q2-B)*%
X150903000Y-92303600D02*
X149169200Y-92303600D01*
X149169200Y-92303600D02*
X147289600Y-90424000D01*
%TO.N,Net-(Q3-B)*%
X152702900Y-90424000D02*
X152987600Y-90424000D01*
X152987600Y-90424000D02*
X154839500Y-92275900D01*
%TO.N,KEY*%
X152728000Y-92303600D02*
X152728000Y-92274100D01*
X152728000Y-92274100D02*
X150877900Y-90424000D01*
X151401000Y-95068400D02*
X151401000Y-93630600D01*
X151401000Y-93630600D02*
X152728000Y-92303600D01*
%TO.N,DIT*%
X167166800Y-107137200D02*
X167168000Y-107136000D01*
%TO.N,Net-(Q2-B)*%
X150917000Y-92289600D02*
X150903000Y-92303600D01*
%TO.N,Net-(U1-~{RESET}{slash}PB5)*%
X156260800Y-105359200D02*
X158931600Y-102688400D01*
X158931600Y-102688400D02*
X159021000Y-102688400D01*
D45*
%TO.N,Net-(D1-K)*%
X135875000Y-109474000D02*
X135875000Y-107232600D01*
X135875000Y-107232600D02*
X135699500Y-107057100D01*
%TO.N,Net-(SW1-A)*%
X129921000Y-94615000D02*
X129921000Y-97225000D01*
X129921000Y-97225000D02*
X131739000Y-99043000D01*
%TO.N,VDC*%
X134259000Y-91423000D02*
X134259000Y-96563000D01*
X134259000Y-96563000D02*
X136739000Y-99043000D01*
%TO.N,Net-(D1-A)*%
X133477000Y-105157900D02*
X135698700Y-105157900D01*
X135698700Y-105157900D02*
X135699500Y-105157100D01*
%TO.N,VDC*%
X140081000Y-104394000D02*
X140081000Y-102385000D01*
X140081000Y-102385000D02*
X136739000Y-99043000D01*
%TO.N,Net-(D1-K)*%
X135875000Y-113030000D02*
X135875000Y-109474000D01*
X140233000Y-113044000D02*
X138792000Y-114485000D01*
X138792000Y-114485000D02*
X136125800Y-114485000D01*
X136125800Y-114485000D02*
X135875000Y-114234200D01*
X135875000Y-114234200D02*
X135875000Y-113030000D01*
D44*
X135875000Y-113421400D02*
X135875000Y-113030000D01*
D45*
%TO.N,VCC*%
X140233000Y-110744000D02*
X139461000Y-110744000D01*
X139461000Y-110744000D02*
X137175000Y-113030000D01*
X146531500Y-115316000D02*
X146531500Y-110745500D01*
X146531500Y-110745500D02*
X146533000Y-110744000D01*
X146533000Y-110744000D02*
X140233000Y-110744000D01*
X146533000Y-110744000D02*
X146533000Y-106425030D01*
X146533000Y-106425030D02*
X150269630Y-102688400D01*
X150269630Y-102688400D02*
X151401000Y-102688400D01*
D44*
X154433600Y-105361400D02*
X154435800Y-105359200D01*
%TO.N,Net-(U1-~{RESET}{slash}PB5)*%
X156265400Y-105254400D02*
X156455000Y-105254400D01*
%TO.N,DAH*%
X159021000Y-100148400D02*
X161257600Y-100148400D01*
X161257600Y-100148400D02*
X161262400Y-100143600D01*
%TO.N,DIT*%
X159021000Y-97608400D02*
X161272400Y-97608400D01*
X161272400Y-97608400D02*
X161298400Y-97634400D01*
%TO.N,Net-(U1-~{RESET}{slash}PB5)*%
X156265400Y-105254400D02*
X156596400Y-105254400D01*
D45*
%TO.N,VCC*%
X151536400Y-102823800D02*
X151401000Y-102688400D01*
%TD*%
%TA.AperFunction,Conductor*%
%TO.N,GND*%
G36*
X165573703Y-106391384D02*
G01*
X165580181Y-106397416D01*
X166031181Y-106848416D01*
X166064666Y-106909739D01*
X166067500Y-106936097D01*
X166067500Y-107260902D01*
X166047815Y-107327941D01*
X165995011Y-107373696D01*
X165925853Y-107383640D01*
X165862297Y-107354615D01*
X165855819Y-107348583D01*
X165404819Y-106897583D01*
X165371334Y-106836260D01*
X165368500Y-106809902D01*
X165368500Y-106485097D01*
X165388185Y-106418058D01*
X165440989Y-106372303D01*
X165510147Y-106362359D01*
X165573703Y-106391384D01*
G37*
%TD.AperFunction*%
%TA.AperFunction,Conductor*%
G36*
X158700920Y-94822794D02*
G01*
X158648259Y-94914006D01*
X158621000Y-95015739D01*
X158621000Y-95121061D01*
X158648259Y-95222794D01*
X158700920Y-95314006D01*
X158705314Y-95318400D01*
X157742128Y-95318400D01*
X157794730Y-95514717D01*
X157794734Y-95514726D01*
X157890865Y-95720882D01*
X158021342Y-95907220D01*
X158182179Y-96068057D01*
X158368518Y-96198534D01*
X158368520Y-96198535D01*
X158426865Y-96225742D01*
X158479305Y-96271914D01*
X158498457Y-96339107D01*
X158478242Y-96405989D01*
X158426867Y-96450505D01*
X158368268Y-96477831D01*
X158368264Y-96477833D01*
X158181858Y-96608354D01*
X158020954Y-96769258D01*
X157890432Y-96955665D01*
X157890431Y-96955667D01*
X157794261Y-97161902D01*
X157794258Y-97161911D01*
X157735366Y-97381702D01*
X157735364Y-97381713D01*
X157715532Y-97608398D01*
X157715532Y-97608401D01*
X157735364Y-97835086D01*
X157735366Y-97835097D01*
X157794258Y-98054888D01*
X157794261Y-98054897D01*
X157890431Y-98261132D01*
X157890432Y-98261134D01*
X158020954Y-98447541D01*
X158181858Y-98608445D01*
X158228693Y-98641239D01*
X158368266Y-98738968D01*
X158405675Y-98756412D01*
X158426275Y-98766018D01*
X158478714Y-98812191D01*
X158497866Y-98879384D01*
X158477650Y-98946265D01*
X158426275Y-98990782D01*
X158368267Y-99017831D01*
X158368265Y-99017832D01*
X158181858Y-99148354D01*
X158020954Y-99309258D01*
X157890432Y-99495665D01*
X157890431Y-99495667D01*
X157794261Y-99701902D01*
X157794258Y-99701911D01*
X157735366Y-99921702D01*
X157735364Y-99921713D01*
X157715532Y-100148398D01*
X157715532Y-100148401D01*
X157735364Y-100375086D01*
X157735366Y-100375097D01*
X157794258Y-100594888D01*
X157794261Y-100594897D01*
X157890431Y-100801132D01*
X157890432Y-100801134D01*
X158020954Y-100987541D01*
X158181858Y-101148445D01*
X158206462Y-101165673D01*
X158250087Y-101220249D01*
X158257281Y-101289748D01*
X158225758Y-101352103D01*
X158165529Y-101387517D01*
X158148593Y-101390538D01*
X158113516Y-101394308D01*
X157978671Y-101444602D01*
X157978664Y-101444606D01*
X157863455Y-101530852D01*
X157863452Y-101530855D01*
X157777206Y-101646064D01*
X157777202Y-101646071D01*
X157726908Y-101780917D01*
X157720501Y-101840516D01*
X157720500Y-101840535D01*
X157720500Y-102998901D01*
X157700815Y-103065940D01*
X157684181Y-103086582D01*
X156423382Y-104347381D01*
X156362059Y-104380866D01*
X156335701Y-104383700D01*
X155961630Y-104383700D01*
X155961612Y-104383701D01*
X155860547Y-104394025D01*
X155696784Y-104448292D01*
X155696781Y-104448293D01*
X155549948Y-104538861D01*
X155435981Y-104652829D01*
X155374658Y-104686314D01*
X155304966Y-104681330D01*
X155260619Y-104652829D01*
X155146651Y-104538861D01*
X155146650Y-104538860D01*
X154999816Y-104448292D01*
X154836053Y-104394026D01*
X154836051Y-104394025D01*
X154734984Y-104383700D01*
X154734977Y-104383700D01*
X154357098Y-104383700D01*
X154290059Y-104364015D01*
X154269417Y-104347381D01*
X153854229Y-103932193D01*
X153422615Y-103500580D01*
X153389131Y-103439258D01*
X153394115Y-103369567D01*
X153435987Y-103313633D01*
X153501451Y-103289216D01*
X153510297Y-103288900D01*
X153612531Y-103288900D01*
X153612547Y-103288901D01*
X153620143Y-103288901D01*
X153778254Y-103288901D01*
X153778257Y-103288901D01*
X153930985Y-103247977D01*
X153981104Y-103219039D01*
X154067916Y-103168920D01*
X154179720Y-103057116D01*
X154179720Y-103057114D01*
X154189928Y-103046907D01*
X154189929Y-103046904D01*
X156030120Y-101206716D01*
X156109177Y-101069784D01*
X156150101Y-100917057D01*
X156150101Y-100758942D01*
X156150101Y-100751347D01*
X156150100Y-100751329D01*
X156150100Y-96413696D01*
X156169785Y-96346657D01*
X156186414Y-96326020D01*
X157657717Y-94854717D01*
X157719038Y-94821234D01*
X157745396Y-94818400D01*
X158705314Y-94818400D01*
X158700920Y-94822794D01*
G37*
%TD.AperFunction*%
%TA.AperFunction,Conductor*%
G36*
X160164456Y-91021085D02*
G01*
X160185098Y-91037719D01*
X162213598Y-93066219D01*
X162247083Y-93127542D01*
X162242099Y-93197234D01*
X162200227Y-93253167D01*
X162134763Y-93277584D01*
X162125917Y-93277900D01*
X157705743Y-93277900D01*
X157634822Y-93296903D01*
X157564972Y-93295240D01*
X157507110Y-93256077D01*
X157479606Y-93191848D01*
X157488932Y-93127872D01*
X157490783Y-93123593D01*
X157536599Y-92965895D01*
X157536600Y-92965889D01*
X157539499Y-92929049D01*
X157539500Y-92929034D01*
X157539500Y-92525900D01*
X156989500Y-92525900D01*
X156989500Y-93510695D01*
X156994993Y-93510263D01*
X157063370Y-93524628D01*
X157113126Y-93573680D01*
X157128464Y-93641845D01*
X157104514Y-93707482D01*
X157092401Y-93721562D01*
X155180886Y-95633078D01*
X155069081Y-95744882D01*
X155069077Y-95744887D01*
X155041023Y-95793481D01*
X155041022Y-95793483D01*
X154990023Y-95881815D01*
X154949099Y-96034543D01*
X154949099Y-96034545D01*
X154949099Y-96202646D01*
X154949100Y-96202659D01*
X154949100Y-100537902D01*
X154929415Y-100604941D01*
X154912781Y-100625583D01*
X153486784Y-102051581D01*
X153425461Y-102085066D01*
X153399103Y-102087900D01*
X152632692Y-102087900D01*
X152565653Y-102068215D01*
X152531119Y-102035025D01*
X152401047Y-101849261D01*
X152401045Y-101849258D01*
X152240141Y-101688354D01*
X152053734Y-101557832D01*
X152053728Y-101557829D01*
X151995882Y-101530855D01*
X151995724Y-101530781D01*
X151943285Y-101484610D01*
X151924133Y-101417417D01*
X151944348Y-101350535D01*
X151995725Y-101306018D01*
X152053734Y-101278968D01*
X152240139Y-101148447D01*
X152401047Y-100987539D01*
X152531568Y-100801134D01*
X152627739Y-100594896D01*
X152686635Y-100375092D01*
X152706468Y-100148400D01*
X152686635Y-99921708D01*
X152630925Y-99713793D01*
X152627741Y-99701911D01*
X152627738Y-99701902D01*
X152611871Y-99667875D01*
X152531568Y-99495666D01*
X152401047Y-99309261D01*
X152401045Y-99309258D01*
X152240141Y-99148354D01*
X152053734Y-99017832D01*
X152053728Y-99017829D01*
X151995725Y-98990782D01*
X151943285Y-98944610D01*
X151924133Y-98877417D01*
X151944348Y-98810535D01*
X151995725Y-98766018D01*
X152016325Y-98756412D01*
X152053734Y-98738968D01*
X152240139Y-98608447D01*
X152401047Y-98447539D01*
X152531568Y-98261134D01*
X152627739Y-98054896D01*
X152686635Y-97835092D01*
X152706468Y-97608400D01*
X152705748Y-97600175D01*
X152698457Y-97516835D01*
X152686635Y-97381708D01*
X152637691Y-97199047D01*
X152627741Y-97161911D01*
X152627738Y-97161902D01*
X152590891Y-97082884D01*
X152531568Y-96955666D01*
X152401047Y-96769261D01*
X152401045Y-96769258D01*
X152240141Y-96608354D01*
X152053734Y-96477832D01*
X152053728Y-96477829D01*
X151995725Y-96450782D01*
X151943285Y-96404610D01*
X151924133Y-96337417D01*
X151944348Y-96270535D01*
X151995725Y-96226018D01*
X151996319Y-96225741D01*
X152053734Y-96198968D01*
X152240139Y-96068447D01*
X152401047Y-95907539D01*
X152531568Y-95721134D01*
X152627739Y-95514896D01*
X152686635Y-95295092D01*
X152706468Y-95068400D01*
X152686635Y-94841708D01*
X152627739Y-94621904D01*
X152531568Y-94415666D01*
X152401047Y-94229261D01*
X152401045Y-94229258D01*
X152240141Y-94068354D01*
X152109658Y-93976990D01*
X152066033Y-93922414D01*
X152058839Y-93852915D01*
X152090361Y-93790560D01*
X152093073Y-93787761D01*
X152565416Y-93315417D01*
X152626739Y-93281933D01*
X152653097Y-93279099D01*
X153027170Y-93279099D01*
X153027176Y-93279099D01*
X153128253Y-93268774D01*
X153292016Y-93214508D01*
X153438850Y-93123940D01*
X153560840Y-93001950D01*
X153651408Y-92855116D01*
X153705674Y-92691353D01*
X153716000Y-92590277D01*
X153715999Y-92300994D01*
X153735683Y-92233957D01*
X153788487Y-92188202D01*
X153857646Y-92178258D01*
X153921201Y-92207283D01*
X153927680Y-92213315D01*
X154002681Y-92288316D01*
X154036166Y-92349639D01*
X154039000Y-92375997D01*
X154039000Y-92929101D01*
X154041901Y-92965967D01*
X154041902Y-92965973D01*
X154087754Y-93123793D01*
X154087755Y-93123796D01*
X154087756Y-93123798D01*
X154096224Y-93138116D01*
X154171417Y-93265262D01*
X154171423Y-93265270D01*
X154287629Y-93381476D01*
X154287633Y-93381479D01*
X154287635Y-93381481D01*
X154429102Y-93465144D01*
X154470724Y-93477236D01*
X154586926Y-93510997D01*
X154586929Y-93510997D01*
X154586931Y-93510998D01*
X154623806Y-93513900D01*
X154623814Y-93513900D01*
X155055186Y-93513900D01*
X155055194Y-93513900D01*
X155092069Y-93510998D01*
X155092071Y-93510997D01*
X155092073Y-93510997D01*
X155133691Y-93498905D01*
X155249898Y-93465144D01*
X155391365Y-93381481D01*
X155507581Y-93265265D01*
X155591244Y-93123798D01*
X155637098Y-92965969D01*
X155640000Y-92929094D01*
X155640000Y-92929049D01*
X155939500Y-92929049D01*
X155942399Y-92965889D01*
X155942400Y-92965895D01*
X155988216Y-93123593D01*
X155988217Y-93123596D01*
X156071814Y-93264952D01*
X156071821Y-93264961D01*
X156187938Y-93381078D01*
X156187947Y-93381085D01*
X156329301Y-93464681D01*
X156487014Y-93510500D01*
X156487011Y-93510500D01*
X156489498Y-93510695D01*
X156489500Y-93510695D01*
X156489500Y-92525900D01*
X155939500Y-92525900D01*
X155939500Y-92929049D01*
X155640000Y-92929049D01*
X155640000Y-91762900D01*
X155659685Y-91695861D01*
X155712489Y-91650106D01*
X155764000Y-91638900D01*
X155815500Y-91638900D01*
X155882539Y-91658585D01*
X155928294Y-91711389D01*
X155939500Y-91762900D01*
X155939500Y-92025900D01*
X157539500Y-92025900D01*
X157539500Y-91622765D01*
X157539499Y-91622750D01*
X157536600Y-91585910D01*
X157536599Y-91585904D01*
X157490783Y-91428206D01*
X157490782Y-91428203D01*
X157407185Y-91286847D01*
X157407178Y-91286838D01*
X157333421Y-91213081D01*
X157299936Y-91151758D01*
X157304920Y-91082066D01*
X157346792Y-91026133D01*
X157412256Y-91001716D01*
X157421102Y-91001400D01*
X160097417Y-91001400D01*
X160164456Y-91021085D01*
G37*
%TD.AperFunction*%
%TA.AperFunction,Conductor*%
G36*
X149843166Y-89926585D02*
G01*
X149888921Y-89979389D01*
X149899485Y-90043503D01*
X149889900Y-90137315D01*
X149889900Y-90710669D01*
X149889901Y-90710687D01*
X149900225Y-90811752D01*
X149954492Y-90975515D01*
X149954493Y-90975518D01*
X150045061Y-91122351D01*
X150167049Y-91244339D01*
X150167054Y-91244343D01*
X150202168Y-91266001D01*
X150248894Y-91317948D01*
X150260117Y-91386910D01*
X150232274Y-91450993D01*
X150202175Y-91477075D01*
X150192155Y-91483255D01*
X150192149Y-91483260D01*
X150070159Y-91605250D01*
X150046138Y-91644196D01*
X149994190Y-91690921D01*
X149940599Y-91703100D01*
X149469297Y-91703100D01*
X149402258Y-91683415D01*
X149381616Y-91666781D01*
X148126419Y-90411584D01*
X148092934Y-90350261D01*
X148090100Y-90323903D01*
X148090100Y-90030900D01*
X148109785Y-89963861D01*
X148162589Y-89918106D01*
X148214100Y-89906900D01*
X149776127Y-89906900D01*
X149843166Y-89926585D01*
G37*
%TD.AperFunction*%
%TA.AperFunction,Conductor*%
G36*
X154932039Y-89926585D02*
G01*
X154977794Y-89979389D01*
X154989000Y-90030900D01*
X154989000Y-90913900D01*
X154969315Y-90980939D01*
X154916511Y-91026694D01*
X154865000Y-91037900D01*
X154623798Y-91037900D01*
X154586936Y-91040801D01*
X154586921Y-91040804D01*
X154554061Y-91050350D01*
X154484192Y-91050149D01*
X154431789Y-91018954D01*
X153727218Y-90314383D01*
X153693733Y-90253060D01*
X153690899Y-90226702D01*
X153690899Y-90137330D01*
X153690898Y-90137313D01*
X153681315Y-90043501D01*
X153694085Y-89974809D01*
X153741966Y-89923924D01*
X153804673Y-89906900D01*
X154865000Y-89906900D01*
X154932039Y-89926585D01*
G37*
%TD.AperFunction*%
%TA.AperFunction,Conductor*%
G36*
X164911039Y-86626185D02*
G01*
X164956794Y-86678989D01*
X164968000Y-86730500D01*
X164968000Y-87686000D01*
X167168000Y-87686000D01*
X167168000Y-86730500D01*
X167187685Y-86663461D01*
X167240489Y-86617706D01*
X167292000Y-86606500D01*
X176591108Y-86606500D01*
X176644789Y-86606500D01*
X176668980Y-86608883D01*
X176684278Y-86611926D01*
X176728933Y-86630411D01*
X176730085Y-86631180D01*
X176731555Y-86632162D01*
X176765837Y-86666444D01*
X176766462Y-86667379D01*
X176767588Y-86669066D01*
X176786072Y-86713713D01*
X176789116Y-86729018D01*
X176791500Y-86753210D01*
X176791500Y-86813002D01*
X176791501Y-86813025D01*
X176791569Y-90508252D01*
X176771886Y-90575292D01*
X176719083Y-90621047D01*
X176649924Y-90630992D01*
X176586368Y-90601968D01*
X176564466Y-90577143D01*
X176545140Y-90548219D01*
X176545136Y-90548214D01*
X176405785Y-90408863D01*
X176405781Y-90408860D01*
X176241920Y-90299371D01*
X176241907Y-90299364D01*
X176059839Y-90223950D01*
X176059829Y-90223947D01*
X175866543Y-90185500D01*
X175866541Y-90185500D01*
X175669459Y-90185500D01*
X175669457Y-90185500D01*
X175476170Y-90223947D01*
X175476160Y-90223950D01*
X175294092Y-90299364D01*
X175294079Y-90299371D01*
X175130218Y-90408860D01*
X175130214Y-90408863D01*
X174990863Y-90548214D01*
X174990860Y-90548218D01*
X174881371Y-90712079D01*
X174881364Y-90712092D01*
X174805950Y-90894160D01*
X174805947Y-90894170D01*
X174767500Y-91087456D01*
X174767500Y-91087459D01*
X174767500Y-91284541D01*
X174767500Y-91284543D01*
X174767499Y-91284543D01*
X174805947Y-91477829D01*
X174805950Y-91477839D01*
X174881364Y-91659907D01*
X174881371Y-91659920D01*
X174990860Y-91823781D01*
X174990863Y-91823785D01*
X175130214Y-91963136D01*
X175130218Y-91963139D01*
X175294079Y-92072628D01*
X175294092Y-92072635D01*
X175476160Y-92148049D01*
X175476165Y-92148051D01*
X175476169Y-92148051D01*
X175476170Y-92148052D01*
X175669456Y-92186500D01*
X175669459Y-92186500D01*
X175866543Y-92186500D01*
X175996582Y-92160632D01*
X176059835Y-92148051D01*
X176241914Y-92072632D01*
X176405782Y-91963139D01*
X176545139Y-91823782D01*
X176564491Y-91794818D01*
X176618101Y-91750013D01*
X176687426Y-91741304D01*
X176750454Y-91771457D01*
X176787175Y-91830900D01*
X176791594Y-91863706D01*
X176791805Y-103208605D01*
X176772122Y-103275645D01*
X176719319Y-103321400D01*
X176650160Y-103331345D01*
X176586604Y-103302321D01*
X176564702Y-103277496D01*
X176545140Y-103248219D01*
X176545136Y-103248214D01*
X176405785Y-103108863D01*
X176405781Y-103108860D01*
X176241920Y-102999371D01*
X176241907Y-102999364D01*
X176059839Y-102923950D01*
X176059829Y-102923947D01*
X175866543Y-102885500D01*
X175866541Y-102885500D01*
X175669459Y-102885500D01*
X175669457Y-102885500D01*
X175476170Y-102923947D01*
X175476160Y-102923950D01*
X175294092Y-102999364D01*
X175294079Y-102999371D01*
X175130218Y-103108860D01*
X175130214Y-103108863D01*
X174990863Y-103248214D01*
X174990860Y-103248218D01*
X174881371Y-103412079D01*
X174881364Y-103412092D01*
X174805950Y-103594160D01*
X174805947Y-103594170D01*
X174767500Y-103787456D01*
X174767500Y-103787459D01*
X174767500Y-103984541D01*
X174767500Y-103984543D01*
X174767499Y-103984543D01*
X174805947Y-104177829D01*
X174805950Y-104177839D01*
X174881364Y-104359907D01*
X174881371Y-104359920D01*
X174990860Y-104523781D01*
X174990863Y-104523785D01*
X175130214Y-104663136D01*
X175130218Y-104663139D01*
X175294079Y-104772628D01*
X175294092Y-104772635D01*
X175466607Y-104844092D01*
X175476165Y-104848051D01*
X175476169Y-104848051D01*
X175476170Y-104848052D01*
X175669456Y-104886500D01*
X175669459Y-104886500D01*
X175866543Y-104886500D01*
X175996582Y-104860632D01*
X176059835Y-104848051D01*
X176241914Y-104772632D01*
X176405782Y-104663139D01*
X176545139Y-104523782D01*
X176564728Y-104494463D01*
X176618338Y-104449660D01*
X176687663Y-104440951D01*
X176750691Y-104471105D01*
X176787411Y-104530547D01*
X176791830Y-104563353D01*
X176792064Y-117149560D01*
X176792063Y-117149582D01*
X176792066Y-117209382D01*
X176789684Y-117233575D01*
X176786644Y-117248861D01*
X176768133Y-117293557D01*
X176766390Y-117296166D01*
X176732166Y-117330390D01*
X176729557Y-117332133D01*
X176684861Y-117350644D01*
X176669575Y-117353684D01*
X176645382Y-117356066D01*
X176624016Y-117356064D01*
X176591701Y-117356063D01*
X176591699Y-117356063D01*
X176583648Y-117356063D01*
X176583586Y-117356067D01*
X174667987Y-117356067D01*
X174600948Y-117336382D01*
X174555193Y-117283578D01*
X174545249Y-117214420D01*
X174574274Y-117150864D01*
X174627724Y-117114786D01*
X174847403Y-117039369D01*
X174847414Y-117039364D01*
X175066028Y-116921057D01*
X175066031Y-116921055D01*
X175112856Y-116884609D01*
X174413034Y-116184787D01*
X174455092Y-116173518D01*
X174580508Y-116101110D01*
X174682910Y-115998708D01*
X174755318Y-115873292D01*
X174766587Y-115831234D01*
X175466234Y-116530882D01*
X175566531Y-116377369D01*
X175666387Y-116149717D01*
X175727412Y-115908738D01*
X175727414Y-115908729D01*
X175747941Y-115661005D01*
X175747941Y-115660994D01*
X175727414Y-115413270D01*
X175727412Y-115413261D01*
X175666387Y-115172282D01*
X175566531Y-114944630D01*
X175466234Y-114791116D01*
X174766587Y-115490764D01*
X174755318Y-115448708D01*
X174682910Y-115323292D01*
X174580508Y-115220890D01*
X174455092Y-115148482D01*
X174413035Y-115137212D01*
X175112857Y-114437390D01*
X175112856Y-114437389D01*
X175066029Y-114400943D01*
X174847414Y-114282635D01*
X174847403Y-114282630D01*
X174612293Y-114201916D01*
X174367093Y-114161000D01*
X174118507Y-114161000D01*
X173873306Y-114201916D01*
X173638196Y-114282630D01*
X173638190Y-114282632D01*
X173419561Y-114400949D01*
X173372742Y-114437388D01*
X173372742Y-114437390D01*
X174072565Y-115137212D01*
X174030508Y-115148482D01*
X173905092Y-115220890D01*
X173802690Y-115323292D01*
X173730282Y-115448708D01*
X173719012Y-115490764D01*
X173019364Y-114791116D01*
X172919067Y-114944632D01*
X172819212Y-115172282D01*
X172758187Y-115413261D01*
X172758185Y-115413270D01*
X172737659Y-115660994D01*
X172737659Y-115661005D01*
X172758185Y-115908729D01*
X172758187Y-115908738D01*
X172819212Y-116149717D01*
X172919066Y-116377364D01*
X173019364Y-116530882D01*
X173719012Y-115831234D01*
X173730282Y-115873292D01*
X173802690Y-115998708D01*
X173905092Y-116101110D01*
X174030508Y-116173518D01*
X174072565Y-116184787D01*
X173372742Y-116884609D01*
X173419568Y-116921055D01*
X173419570Y-116921056D01*
X173638185Y-117039364D01*
X173638196Y-117039369D01*
X173857876Y-117114786D01*
X173914891Y-117155171D01*
X173941022Y-117219971D01*
X173927971Y-117288611D01*
X173879882Y-117339299D01*
X173817613Y-117356067D01*
X168167987Y-117356067D01*
X168100948Y-117336382D01*
X168055193Y-117283578D01*
X168045249Y-117214420D01*
X168074274Y-117150864D01*
X168127724Y-117114786D01*
X168347403Y-117039369D01*
X168347414Y-117039364D01*
X168566028Y-116921057D01*
X168566031Y-116921055D01*
X168612856Y-116884609D01*
X167913034Y-116184787D01*
X167955092Y-116173518D01*
X168080508Y-116101110D01*
X168182910Y-115998708D01*
X168255318Y-115873292D01*
X168266587Y-115831235D01*
X168966234Y-116530882D01*
X169066531Y-116377369D01*
X169166387Y-116149717D01*
X169227412Y-115908738D01*
X169227414Y-115908729D01*
X169247941Y-115661005D01*
X169247941Y-115660994D01*
X169227414Y-115413270D01*
X169227412Y-115413261D01*
X169166387Y-115172282D01*
X169066531Y-114944630D01*
X168966234Y-114791116D01*
X168266587Y-115490764D01*
X168255318Y-115448708D01*
X168182910Y-115323292D01*
X168080508Y-115220890D01*
X167955092Y-115148482D01*
X167913035Y-115137212D01*
X168612857Y-114437390D01*
X168612856Y-114437389D01*
X168566029Y-114400943D01*
X168347414Y-114282635D01*
X168347403Y-114282630D01*
X168112293Y-114201916D01*
X167867093Y-114161000D01*
X167618507Y-114161000D01*
X167373306Y-114201916D01*
X167138196Y-114282630D01*
X167138190Y-114282632D01*
X166919561Y-114400949D01*
X166872742Y-114437388D01*
X166872742Y-114437390D01*
X167572565Y-115137212D01*
X167530508Y-115148482D01*
X167405092Y-115220890D01*
X167302690Y-115323292D01*
X167230282Y-115448708D01*
X167219012Y-115490764D01*
X166519364Y-114791116D01*
X166419067Y-114944632D01*
X166319212Y-115172282D01*
X166258187Y-115413261D01*
X166258185Y-115413270D01*
X166237659Y-115660994D01*
X166237659Y-115661005D01*
X166258185Y-115908729D01*
X166258187Y-115908738D01*
X166319212Y-116149717D01*
X166419066Y-116377364D01*
X166519364Y-116530882D01*
X167219012Y-115831234D01*
X167230282Y-115873292D01*
X167302690Y-115998708D01*
X167405092Y-116101110D01*
X167530508Y-116173518D01*
X167572565Y-116184787D01*
X166872742Y-116884609D01*
X166919568Y-116921055D01*
X166919570Y-116921056D01*
X167138185Y-117039364D01*
X167138196Y-117039369D01*
X167357876Y-117114786D01*
X167414891Y-117155171D01*
X167441022Y-117219971D01*
X167427971Y-117288611D01*
X167379882Y-117339299D01*
X167317613Y-117356067D01*
X127200414Y-117356067D01*
X127200351Y-117356063D01*
X127192300Y-117356063D01*
X127192299Y-117356063D01*
X127159987Y-117356064D01*
X127138617Y-117356066D01*
X127114424Y-117353684D01*
X127099138Y-117350644D01*
X127054442Y-117332133D01*
X127051833Y-117330390D01*
X127017609Y-117296166D01*
X127015866Y-117293557D01*
X126997356Y-117248865D01*
X126994313Y-117233565D01*
X126991933Y-117209386D01*
X126991937Y-117155701D01*
X126991936Y-117155699D01*
X126991937Y-117146680D01*
X126991934Y-117146626D01*
X126991938Y-116916498D01*
X126992117Y-107282054D01*
X132502001Y-107282054D01*
X132512319Y-107383052D01*
X132566546Y-107546700D01*
X132566551Y-107546711D01*
X132657052Y-107693434D01*
X132657055Y-107693438D01*
X132778961Y-107815344D01*
X132778965Y-107815347D01*
X132925688Y-107905848D01*
X132925699Y-107905853D01*
X133089347Y-107960080D01*
X133190352Y-107970399D01*
X133227000Y-107970399D01*
X133227000Y-107232900D01*
X132502001Y-107232900D01*
X132502001Y-107282054D01*
X126992117Y-107282054D01*
X126992156Y-105156000D01*
X128823551Y-105156000D01*
X128843317Y-105407151D01*
X128902126Y-105652110D01*
X128998533Y-105884859D01*
X129130160Y-106099653D01*
X129130161Y-106099656D01*
X129147495Y-106119951D01*
X129293776Y-106291224D01*
X129418111Y-106397416D01*
X129485343Y-106454838D01*
X129485346Y-106454839D01*
X129700140Y-106586466D01*
X129923623Y-106679035D01*
X129932889Y-106682873D01*
X130177852Y-106741683D01*
X130429000Y-106761449D01*
X130680148Y-106741683D01*
X130925111Y-106682873D01*
X131157859Y-106586466D01*
X131372659Y-106454836D01*
X131564224Y-106291224D01*
X131640541Y-106201867D01*
X131699046Y-106163676D01*
X131734830Y-106158400D01*
X132505172Y-106158400D01*
X132572211Y-106178085D01*
X132617966Y-106230889D01*
X132627910Y-106300047D01*
X132610711Y-106347497D01*
X132566548Y-106419094D01*
X132566546Y-106419099D01*
X132512319Y-106582747D01*
X132502000Y-106683745D01*
X132502000Y-106732900D01*
X133603000Y-106732900D01*
X133670039Y-106752585D01*
X133715794Y-106805389D01*
X133727000Y-106856900D01*
X133727000Y-107970399D01*
X133763640Y-107970399D01*
X133763654Y-107970398D01*
X133864652Y-107960080D01*
X134028300Y-107905853D01*
X134028311Y-107905848D01*
X134175034Y-107815347D01*
X134175038Y-107815344D01*
X134296943Y-107693439D01*
X134366287Y-107581016D01*
X134418235Y-107534292D01*
X134487198Y-107523069D01*
X134551280Y-107550913D01*
X134578557Y-107582991D01*
X134593914Y-107608959D01*
X134593923Y-107608970D01*
X134710129Y-107725176D01*
X134710133Y-107725179D01*
X134710135Y-107725181D01*
X134778270Y-107765476D01*
X134813621Y-107786382D01*
X134861304Y-107837451D01*
X134874500Y-107893114D01*
X134874500Y-109008218D01*
X134854815Y-109075257D01*
X134838181Y-109095899D01*
X134073399Y-109860681D01*
X134012076Y-109894166D01*
X133985718Y-109897000D01*
X133966768Y-109897000D01*
X133927764Y-109890706D01*
X133864753Y-109869826D01*
X133864751Y-109869825D01*
X133763678Y-109859500D01*
X133190330Y-109859500D01*
X133190312Y-109859501D01*
X133089247Y-109869825D01*
X133043384Y-109885023D01*
X133026234Y-109890706D01*
X132987232Y-109897000D01*
X131827955Y-109897000D01*
X131731312Y-109916224D01*
X131634667Y-109935447D01*
X131634661Y-109935449D01*
X131581334Y-109957537D01*
X131581334Y-109957538D01*
X131540303Y-109974534D01*
X131452589Y-110010866D01*
X131452579Y-110010871D01*
X131288719Y-110120359D01*
X131219040Y-110190038D01*
X131149361Y-110259718D01*
X131149358Y-110259721D01*
X129791221Y-111617858D01*
X129791218Y-111617861D01*
X129756211Y-111652868D01*
X129651859Y-111757219D01*
X129542371Y-111921080D01*
X129542366Y-111921089D01*
X129491663Y-112043500D01*
X129474148Y-112085785D01*
X129466949Y-112103164D01*
X129458952Y-112143368D01*
X129451339Y-112181640D01*
X129428500Y-112296456D01*
X129428500Y-113591500D01*
X129408815Y-113658539D01*
X129356011Y-113704294D01*
X129304505Y-113715500D01*
X129281132Y-113715500D01*
X129281123Y-113715501D01*
X129221516Y-113721908D01*
X129086671Y-113772202D01*
X129086664Y-113772206D01*
X128971455Y-113858452D01*
X128971452Y-113858455D01*
X128885206Y-113973664D01*
X128885202Y-113973671D01*
X128834908Y-114108517D01*
X128830695Y-114147709D01*
X128828501Y-114168123D01*
X128828500Y-114168135D01*
X128828500Y-116463870D01*
X128828501Y-116463876D01*
X128834908Y-116523483D01*
X128885202Y-116658328D01*
X128885206Y-116658335D01*
X128971452Y-116773544D01*
X128971455Y-116773547D01*
X129086664Y-116859793D01*
X129086671Y-116859797D01*
X129221517Y-116910091D01*
X129221516Y-116910091D01*
X129228444Y-116910835D01*
X129281127Y-116916500D01*
X131576872Y-116916499D01*
X131636483Y-116910091D01*
X131771331Y-116859796D01*
X131886546Y-116773546D01*
X131972796Y-116658331D01*
X132023091Y-116523483D01*
X132029500Y-116463873D01*
X132029500Y-115602654D01*
X143769001Y-115602654D01*
X143779319Y-115703652D01*
X143833546Y-115867300D01*
X143833551Y-115867311D01*
X143924052Y-116014034D01*
X143924055Y-116014038D01*
X144045961Y-116135944D01*
X144045965Y-116135947D01*
X144192688Y-116226448D01*
X144192699Y-116226453D01*
X144356347Y-116280680D01*
X144457351Y-116290999D01*
X144556500Y-116290998D01*
X144556500Y-115566000D01*
X143769001Y-115566000D01*
X143769001Y-115602654D01*
X132029500Y-115602654D01*
X132029499Y-114168128D01*
X132023091Y-114108517D01*
X132022898Y-114108000D01*
X131972797Y-113973671D01*
X131972793Y-113973664D01*
X131886547Y-113858455D01*
X131886544Y-113858452D01*
X131771335Y-113772206D01*
X131771328Y-113772202D01*
X131636482Y-113721908D01*
X131636483Y-113721908D01*
X131576883Y-113715501D01*
X131576881Y-113715500D01*
X131576873Y-113715500D01*
X131576865Y-113715500D01*
X131553500Y-113715500D01*
X131486461Y-113695815D01*
X131440706Y-113643011D01*
X131429500Y-113591500D01*
X131429500Y-112971654D01*
X132502001Y-112971654D01*
X132512319Y-113072652D01*
X132566546Y-113236300D01*
X132566551Y-113236311D01*
X132657052Y-113383034D01*
X132657055Y-113383038D01*
X132778961Y-113504944D01*
X132778965Y-113504947D01*
X132925688Y-113595448D01*
X132925699Y-113595453D01*
X133089347Y-113649680D01*
X133190352Y-113659999D01*
X133227000Y-113659999D01*
X133727000Y-113659999D01*
X133763640Y-113659999D01*
X133763654Y-113659998D01*
X133864652Y-113649680D01*
X134028300Y-113595453D01*
X134028311Y-113595448D01*
X134175034Y-113504947D01*
X134175038Y-113504944D01*
X134296944Y-113383038D01*
X134296947Y-113383034D01*
X134387448Y-113236311D01*
X134387453Y-113236300D01*
X134441680Y-113072652D01*
X134451999Y-112971654D01*
X134452000Y-112971641D01*
X134452000Y-112872500D01*
X133727000Y-112872500D01*
X133727000Y-113659999D01*
X133227000Y-113659999D01*
X133227000Y-112872500D01*
X132502001Y-112872500D01*
X132502001Y-112971654D01*
X131429500Y-112971654D01*
X131429500Y-112860782D01*
X131449185Y-112793743D01*
X131465819Y-112773101D01*
X132304601Y-111934319D01*
X132365924Y-111900834D01*
X132392282Y-111898000D01*
X132431509Y-111898000D01*
X132498548Y-111917685D01*
X132544303Y-111970489D01*
X132554247Y-112039647D01*
X132549215Y-112061004D01*
X132512319Y-112172348D01*
X132502000Y-112273345D01*
X132502000Y-112372500D01*
X134451999Y-112372500D01*
X134451999Y-112273360D01*
X134451998Y-112273345D01*
X134441680Y-112172347D01*
X134404785Y-112061004D01*
X134402383Y-111991176D01*
X134438115Y-111931134D01*
X134500635Y-111899941D01*
X134522491Y-111898000D01*
X134550043Y-111898000D01*
X134579332Y-111892173D01*
X134652562Y-111877607D01*
X134726312Y-111862937D01*
X134795902Y-111869166D01*
X134851079Y-111912030D01*
X134874322Y-111977920D01*
X134874500Y-111984555D01*
X134874500Y-112664434D01*
X134873238Y-112682079D01*
X134869503Y-112708055D01*
X134869503Y-112764399D01*
X134869500Y-112764409D01*
X134869500Y-113295573D01*
X134869503Y-113295601D01*
X134869503Y-113351939D01*
X134873238Y-113377917D01*
X134874500Y-113395564D01*
X134874500Y-114332741D01*
X134874500Y-114332743D01*
X134874499Y-114332743D01*
X134912947Y-114526029D01*
X134912950Y-114526039D01*
X134988364Y-114708107D01*
X134988371Y-114708120D01*
X135097859Y-114871980D01*
X135097860Y-114871981D01*
X135097861Y-114871982D01*
X135237218Y-115011339D01*
X135488019Y-115262140D01*
X135488018Y-115262140D01*
X135492076Y-115264851D01*
X135528843Y-115289417D01*
X135528845Y-115289419D01*
X135528846Y-115289419D01*
X135651886Y-115371632D01*
X135767366Y-115419465D01*
X135833964Y-115447051D01*
X135930612Y-115466275D01*
X135978935Y-115475887D01*
X136027258Y-115485500D01*
X136027259Y-115485500D01*
X138890542Y-115485500D01*
X138909870Y-115481655D01*
X138987188Y-115466275D01*
X139083836Y-115447051D01*
X139150434Y-115419465D01*
X139265914Y-115371632D01*
X139429782Y-115262139D01*
X139569139Y-115122782D01*
X139569139Y-115122780D01*
X139579347Y-115112573D01*
X139579348Y-115112570D01*
X139662573Y-115029345D01*
X143769000Y-115029345D01*
X143769000Y-115066000D01*
X144556500Y-115066000D01*
X144556500Y-114340999D01*
X144457360Y-114341000D01*
X144457344Y-114341001D01*
X144356347Y-114351319D01*
X144192699Y-114405546D01*
X144192688Y-114405551D01*
X144045965Y-114496052D01*
X144045961Y-114496055D01*
X143924055Y-114617961D01*
X143924052Y-114617965D01*
X143833551Y-114764688D01*
X143833546Y-114764699D01*
X143779319Y-114928347D01*
X143769000Y-115029345D01*
X139662573Y-115029345D01*
X140361102Y-114330818D01*
X140422425Y-114297333D01*
X140448783Y-114294499D01*
X140934123Y-114294499D01*
X140934123Y-114294498D01*
X140976889Y-114291600D01*
X141161693Y-114245641D01*
X141332296Y-114161030D01*
X141480722Y-114041722D01*
X141600030Y-113893296D01*
X141684641Y-113722693D01*
X141730600Y-113537889D01*
X141733500Y-113495123D01*
X141733499Y-112592878D01*
X141730600Y-112550111D01*
X141684641Y-112365307D01*
X141639032Y-112273345D01*
X141600032Y-112194707D01*
X141600030Y-112194704D01*
X141537024Y-112116321D01*
X141480722Y-112046278D01*
X141411513Y-111990646D01*
X141371595Y-111933302D01*
X141369015Y-111863480D01*
X141404594Y-111803347D01*
X141411497Y-111797365D01*
X141443239Y-111771851D01*
X141507822Y-111745194D01*
X141520924Y-111744500D01*
X144908501Y-111744500D01*
X144975540Y-111764185D01*
X145021295Y-111816989D01*
X145032501Y-111868500D01*
X145032501Y-112202034D01*
X145043113Y-112321415D01*
X145099089Y-112517045D01*
X145099090Y-112517048D01*
X145099091Y-112517049D01*
X145193302Y-112697407D01*
X145201988Y-112708059D01*
X145321890Y-112855109D01*
X145484467Y-112987672D01*
X145482779Y-112989741D01*
X145520372Y-113034137D01*
X145531000Y-113084363D01*
X145531000Y-114270508D01*
X145511315Y-114337547D01*
X145458511Y-114383302D01*
X145389353Y-114393246D01*
X145367997Y-114388214D01*
X145256653Y-114351319D01*
X145155654Y-114341000D01*
X145056500Y-114341000D01*
X145056500Y-116290999D01*
X145155640Y-116290999D01*
X145155654Y-116290998D01*
X145256652Y-116280680D01*
X145420300Y-116226453D01*
X145420311Y-116226448D01*
X145567035Y-116135947D01*
X145580960Y-116122021D01*
X145642282Y-116088533D01*
X145711973Y-116093514D01*
X145756327Y-116122017D01*
X145770650Y-116136340D01*
X145917484Y-116226908D01*
X146081247Y-116281174D01*
X146182323Y-116291500D01*
X146295062Y-116291499D01*
X146319256Y-116293882D01*
X146432958Y-116316500D01*
X146432959Y-116316500D01*
X146630043Y-116316500D01*
X146743747Y-116293882D01*
X146767939Y-116291499D01*
X146880670Y-116291499D01*
X146880676Y-116291499D01*
X146981753Y-116281174D01*
X147145516Y-116226908D01*
X147292350Y-116136340D01*
X147414340Y-116014350D01*
X147504908Y-115867516D01*
X147559174Y-115703753D01*
X147569500Y-115602677D01*
X147569499Y-115029324D01*
X147559174Y-114928247D01*
X147538294Y-114865234D01*
X147532000Y-114826230D01*
X147532000Y-113399149D01*
X149283200Y-113399149D01*
X149286099Y-113435989D01*
X149286100Y-113435995D01*
X149331916Y-113593693D01*
X149331917Y-113593696D01*
X149415514Y-113735052D01*
X149415521Y-113735061D01*
X149531638Y-113851178D01*
X149531647Y-113851185D01*
X149673001Y-113934781D01*
X149830714Y-113980600D01*
X149830711Y-113980600D01*
X149833198Y-113980795D01*
X149833200Y-113980795D01*
X149833200Y-112996000D01*
X149283200Y-112996000D01*
X149283200Y-113399149D01*
X147532000Y-113399149D01*
X147532000Y-113086340D01*
X147551685Y-113019301D01*
X147582174Y-112988458D01*
X147581533Y-112987672D01*
X147744109Y-112855109D01*
X147872698Y-112697407D01*
X147966909Y-112517049D01*
X148022886Y-112321418D01*
X148033500Y-112202037D01*
X148033500Y-112092850D01*
X149283200Y-112092850D01*
X149283200Y-112496000D01*
X149833200Y-112496000D01*
X149833200Y-111511203D01*
X149830703Y-111511400D01*
X149673006Y-111557216D01*
X149673003Y-111557217D01*
X149531647Y-111640814D01*
X149531638Y-111640821D01*
X149415521Y-111756938D01*
X149415514Y-111756947D01*
X149331917Y-111898303D01*
X149331916Y-111898306D01*
X149286100Y-112056004D01*
X149286099Y-112056010D01*
X149283200Y-112092850D01*
X148033500Y-112092850D01*
X148033499Y-109285964D01*
X148022886Y-109166582D01*
X147966909Y-108970951D01*
X147872698Y-108790593D01*
X147793937Y-108694000D01*
X147744109Y-108632890D01*
X147581533Y-108500328D01*
X147582892Y-108498660D01*
X147544117Y-108452850D01*
X147533500Y-108402648D01*
X147533500Y-107256654D01*
X150434401Y-107256654D01*
X150444719Y-107357652D01*
X150498946Y-107521300D01*
X150498951Y-107521311D01*
X150589452Y-107668034D01*
X150589455Y-107668038D01*
X150711361Y-107789944D01*
X150711365Y-107789947D01*
X150858088Y-107880448D01*
X150858099Y-107880453D01*
X151021747Y-107934680D01*
X151122752Y-107944999D01*
X151159400Y-107944999D01*
X151659400Y-107944999D01*
X151696040Y-107944999D01*
X151696054Y-107944998D01*
X151797052Y-107934680D01*
X151960700Y-107880453D01*
X151960711Y-107880448D01*
X152107434Y-107789947D01*
X152107438Y-107789944D01*
X152229344Y-107668038D01*
X152229347Y-107668034D01*
X152319848Y-107521311D01*
X152319853Y-107521300D01*
X152374080Y-107357652D01*
X152384399Y-107256654D01*
X152384400Y-107256641D01*
X152384400Y-107157500D01*
X151659400Y-107157500D01*
X151659400Y-107944999D01*
X151159400Y-107944999D01*
X151159400Y-107157500D01*
X150434401Y-107157500D01*
X150434401Y-107256654D01*
X147533500Y-107256654D01*
X147533500Y-106890812D01*
X147553185Y-106823773D01*
X147569819Y-106803131D01*
X150188819Y-104184131D01*
X150250142Y-104150646D01*
X150319834Y-104155630D01*
X150375767Y-104197502D01*
X150400184Y-104262966D01*
X150400500Y-104271812D01*
X150400500Y-105272645D01*
X150416952Y-105355354D01*
X150416952Y-105355356D01*
X150416953Y-105355356D01*
X150431518Y-105428582D01*
X150433900Y-105452770D01*
X150433900Y-105531668D01*
X150433901Y-105531687D01*
X150444225Y-105632752D01*
X150480509Y-105742249D01*
X150492527Y-105778516D01*
X150498492Y-105796515D01*
X150498493Y-105796518D01*
X150524159Y-105838129D01*
X150589059Y-105943349D01*
X150589061Y-105943351D01*
X150603382Y-105957672D01*
X150636867Y-106018995D01*
X150631883Y-106088687D01*
X150603385Y-106133032D01*
X150589452Y-106146965D01*
X150498951Y-106293688D01*
X150498946Y-106293699D01*
X150444719Y-106457347D01*
X150434400Y-106558345D01*
X150434400Y-106657500D01*
X152384399Y-106657500D01*
X152384399Y-106558360D01*
X152384398Y-106558345D01*
X152374080Y-106457347D01*
X152319853Y-106293699D01*
X152319848Y-106293688D01*
X152229347Y-106146965D01*
X152229344Y-106146961D01*
X152215417Y-106133034D01*
X152181932Y-106071711D01*
X152186916Y-106002019D01*
X152215417Y-105957672D01*
X152229740Y-105943350D01*
X152320308Y-105796516D01*
X152374574Y-105632753D01*
X152384900Y-105531677D01*
X152384899Y-105418935D01*
X152387282Y-105394742D01*
X152388930Y-105386460D01*
X152409900Y-105281040D01*
X152409900Y-105083959D01*
X152403883Y-105053709D01*
X152401500Y-105029517D01*
X152401500Y-104477297D01*
X152421185Y-104410258D01*
X152473989Y-104364503D01*
X152543147Y-104354559D01*
X152606703Y-104383584D01*
X152613178Y-104389613D01*
X153013389Y-104789825D01*
X153411481Y-105187917D01*
X153444966Y-105249240D01*
X153447800Y-105275598D01*
X153447800Y-105645869D01*
X153447801Y-105645887D01*
X153458125Y-105746952D01*
X153512392Y-105910715D01*
X153512393Y-105910718D01*
X153533449Y-105944855D01*
X153596955Y-106047815D01*
X153602961Y-106057551D01*
X153704979Y-106159569D01*
X153738464Y-106220892D01*
X153733480Y-106290584D01*
X153704979Y-106334931D01*
X153601061Y-106438848D01*
X153510493Y-106585681D01*
X153510491Y-106585686D01*
X153486694Y-106657500D01*
X153456226Y-106749447D01*
X153456226Y-106749448D01*
X153456225Y-106749448D01*
X153445900Y-106850515D01*
X153445900Y-107423869D01*
X153445901Y-107423887D01*
X153456225Y-107524952D01*
X153510492Y-107688715D01*
X153510493Y-107688718D01*
X153601061Y-107835552D01*
X153605538Y-107841213D01*
X153603762Y-107842616D01*
X153631998Y-107894326D01*
X153627014Y-107964018D01*
X153585142Y-108019951D01*
X153546952Y-108037319D01*
X153547475Y-108038896D01*
X153377284Y-108095292D01*
X153377281Y-108095293D01*
X153230448Y-108185861D01*
X153108461Y-108307848D01*
X153017893Y-108454681D01*
X153017891Y-108454686D01*
X152997604Y-108515908D01*
X152963626Y-108618447D01*
X152963626Y-108618448D01*
X152963625Y-108618448D01*
X152953300Y-108719515D01*
X152953300Y-109392869D01*
X152953301Y-109392887D01*
X152963625Y-109493952D01*
X152979666Y-109542359D01*
X153017892Y-109657716D01*
X153103149Y-109795940D01*
X153108461Y-109804551D01*
X153147429Y-109843519D01*
X153180914Y-109904842D01*
X153175930Y-109974534D01*
X153147429Y-110018881D01*
X153108460Y-110057849D01*
X153108459Y-110057850D01*
X153053598Y-110146796D01*
X153001650Y-110193521D01*
X152948059Y-110205700D01*
X152631618Y-110205700D01*
X152631602Y-110205699D01*
X152624006Y-110205699D01*
X152465891Y-110205699D01*
X152389527Y-110226161D01*
X152313162Y-110246623D01*
X152313157Y-110246626D01*
X152176238Y-110325675D01*
X152176230Y-110325681D01*
X150835606Y-111666304D01*
X150774283Y-111699789D01*
X150704591Y-111694805D01*
X150660244Y-111666304D01*
X150634761Y-111640821D01*
X150634752Y-111640814D01*
X150493396Y-111557217D01*
X150493393Y-111557216D01*
X150335694Y-111511400D01*
X150335697Y-111511400D01*
X150333200Y-111511203D01*
X150333200Y-113651684D01*
X150315933Y-113714804D01*
X150281454Y-113773105D01*
X150281454Y-113773106D01*
X150235602Y-113930926D01*
X150235601Y-113930932D01*
X150232700Y-113967798D01*
X150232700Y-115274201D01*
X150235601Y-115311067D01*
X150235602Y-115311073D01*
X150281454Y-115468893D01*
X150281455Y-115468896D01*
X150365117Y-115610362D01*
X150365123Y-115610370D01*
X150481329Y-115726576D01*
X150481333Y-115726579D01*
X150481335Y-115726581D01*
X150622802Y-115810244D01*
X150664424Y-115822336D01*
X150780626Y-115856097D01*
X150780629Y-115856097D01*
X150780631Y-115856098D01*
X150817506Y-115859000D01*
X150817514Y-115859000D01*
X151248886Y-115859000D01*
X151248894Y-115859000D01*
X151285769Y-115856098D01*
X151285771Y-115856097D01*
X151285773Y-115856097D01*
X151327391Y-115844005D01*
X151443598Y-115810244D01*
X151585065Y-115726581D01*
X151701281Y-115610365D01*
X151784944Y-115468898D01*
X151830798Y-115311069D01*
X151833700Y-115274194D01*
X151833700Y-114108000D01*
X151853385Y-114040961D01*
X151906189Y-113995206D01*
X151957700Y-113984000D01*
X152198886Y-113984000D01*
X152198894Y-113984000D01*
X152235769Y-113981098D01*
X152235771Y-113981097D01*
X152235773Y-113981097D01*
X152281547Y-113967798D01*
X152393598Y-113935244D01*
X152535065Y-113851581D01*
X152651281Y-113735365D01*
X152734944Y-113593898D01*
X152780798Y-113436069D01*
X152780798Y-113436060D01*
X152781684Y-113431217D01*
X152813095Y-113368807D01*
X152873262Y-113333285D01*
X152903666Y-113329500D01*
X152915589Y-113329500D01*
X152982628Y-113349185D01*
X153021128Y-113388404D01*
X153052859Y-113439849D01*
X153166829Y-113553819D01*
X153200314Y-113615142D01*
X153195330Y-113684834D01*
X153166829Y-113729181D01*
X153052861Y-113843148D01*
X152962293Y-113989981D01*
X152962291Y-113989986D01*
X152934919Y-114072588D01*
X152908026Y-114153747D01*
X152908026Y-114153748D01*
X152908025Y-114153748D01*
X152897700Y-114254815D01*
X152897700Y-114853169D01*
X152897701Y-114853187D01*
X152908025Y-114954252D01*
X152926943Y-115011340D01*
X152960488Y-115112573D01*
X152962292Y-115118015D01*
X152962293Y-115118018D01*
X152995764Y-115172282D01*
X153052860Y-115264850D01*
X153174850Y-115386840D01*
X153321684Y-115477408D01*
X153485447Y-115531674D01*
X153586523Y-115542000D01*
X154159876Y-115541999D01*
X154159884Y-115541998D01*
X154159887Y-115541998D01*
X154215230Y-115536344D01*
X154260953Y-115531674D01*
X154424716Y-115477408D01*
X154571550Y-115386840D01*
X154693540Y-115264850D01*
X154784108Y-115118016D01*
X154838374Y-114954253D01*
X154848700Y-114853177D01*
X154848699Y-114479097D01*
X154868383Y-114412059D01*
X154885018Y-114391417D01*
X154984835Y-114291600D01*
X155128720Y-114147716D01*
X155207777Y-114010784D01*
X155248701Y-113858057D01*
X155248701Y-113699942D01*
X155248701Y-113692347D01*
X155248700Y-113692329D01*
X155248700Y-112961497D01*
X155268385Y-112894458D01*
X155285019Y-112873816D01*
X156089239Y-112069596D01*
X156908421Y-111250413D01*
X156969742Y-111216930D01*
X157039434Y-111221914D01*
X157095367Y-111263786D01*
X157119784Y-111329250D01*
X157120100Y-111338096D01*
X157120100Y-112128201D01*
X157120101Y-112128219D01*
X157130600Y-112230996D01*
X157130601Y-112230999D01*
X157183833Y-112391641D01*
X157185786Y-112397534D01*
X157277888Y-112546856D01*
X157401944Y-112670912D01*
X157551266Y-112763014D01*
X157717803Y-112818199D01*
X157820591Y-112828700D01*
X159120608Y-112828699D01*
X159223397Y-112818199D01*
X159389934Y-112763014D01*
X159539256Y-112670912D01*
X159663312Y-112546856D01*
X159755414Y-112397534D01*
X159755414Y-112397531D01*
X159759048Y-112391641D01*
X159810995Y-112344916D01*
X159879958Y-112333693D01*
X159944040Y-112361536D01*
X159952268Y-112369056D01*
X160091135Y-112507923D01*
X160091140Y-112507927D01*
X160263042Y-112632820D01*
X160452382Y-112729295D01*
X160654471Y-112794957D01*
X160720600Y-112805431D01*
X160720600Y-111761212D01*
X160777607Y-111794125D01*
X160904774Y-111828200D01*
X161036426Y-111828200D01*
X161163593Y-111794125D01*
X161220600Y-111761212D01*
X161220600Y-112805430D01*
X161286726Y-112794957D01*
X161286729Y-112794957D01*
X161488817Y-112729295D01*
X161678157Y-112632820D01*
X161850059Y-112507927D01*
X161850064Y-112507923D01*
X162000323Y-112357664D01*
X162000327Y-112357659D01*
X162125220Y-112185757D01*
X162221695Y-111996417D01*
X162287357Y-111794330D01*
X162287357Y-111794327D01*
X162320600Y-111584446D01*
X162320600Y-111578200D01*
X161403612Y-111578200D01*
X161436525Y-111521193D01*
X161470600Y-111394026D01*
X161470600Y-111262374D01*
X161443435Y-111160994D01*
X166237157Y-111160994D01*
X166237157Y-111161005D01*
X166257690Y-111408812D01*
X166257692Y-111408824D01*
X166318736Y-111649881D01*
X166418626Y-111877606D01*
X166554633Y-112085782D01*
X166570634Y-112103164D01*
X166723056Y-112268738D01*
X166919291Y-112421474D01*
X167137990Y-112539828D01*
X167373186Y-112620571D01*
X167618465Y-112661500D01*
X167867135Y-112661500D01*
X168112414Y-112620571D01*
X168347610Y-112539828D01*
X168566309Y-112421474D01*
X168762544Y-112268738D01*
X168930964Y-112085785D01*
X169066973Y-111877607D01*
X169085360Y-111835689D01*
X169130317Y-111782204D01*
X169197053Y-111761514D01*
X169198916Y-111761500D01*
X172786684Y-111761500D01*
X172853723Y-111781185D01*
X172899478Y-111833989D01*
X172900240Y-111835689D01*
X172918627Y-111877607D01*
X173054633Y-112085782D01*
X173070634Y-112103164D01*
X173223056Y-112268738D01*
X173419291Y-112421474D01*
X173637990Y-112539828D01*
X173873186Y-112620571D01*
X174118465Y-112661500D01*
X174367135Y-112661500D01*
X174612414Y-112620571D01*
X174847610Y-112539828D01*
X175066309Y-112421474D01*
X175262544Y-112268738D01*
X175430964Y-112085785D01*
X175566973Y-111877607D01*
X175666863Y-111649881D01*
X175727908Y-111408821D01*
X175729806Y-111385920D01*
X175748443Y-111161005D01*
X175748443Y-111160994D01*
X175727909Y-110913187D01*
X175727907Y-110913175D01*
X175666863Y-110672118D01*
X175566973Y-110444393D01*
X175430966Y-110236217D01*
X175391661Y-110193521D01*
X175262544Y-110053262D01*
X175066309Y-109900526D01*
X175066307Y-109900525D01*
X175066306Y-109900524D01*
X174847611Y-109782172D01*
X174847602Y-109782169D01*
X174612416Y-109701429D01*
X174367135Y-109660500D01*
X174118465Y-109660500D01*
X173873183Y-109701429D01*
X173637997Y-109782169D01*
X173637988Y-109782172D01*
X173419293Y-109900524D01*
X173223057Y-110053261D01*
X173054633Y-110236217D01*
X172918627Y-110444391D01*
X172900240Y-110486311D01*
X172855283Y-110539796D01*
X172788547Y-110560486D01*
X172786684Y-110560500D01*
X169198916Y-110560500D01*
X169131877Y-110540815D01*
X169086122Y-110488011D01*
X169085360Y-110486311D01*
X169066972Y-110444391D01*
X168930966Y-110236217D01*
X168891661Y-110193521D01*
X168762544Y-110053262D01*
X168566309Y-109900526D01*
X168566307Y-109900525D01*
X168566306Y-109900524D01*
X168347611Y-109782172D01*
X168347602Y-109782169D01*
X168112416Y-109701429D01*
X167867135Y-109660500D01*
X167618465Y-109660500D01*
X167373183Y-109701429D01*
X167137997Y-109782169D01*
X167137988Y-109782172D01*
X166919293Y-109900524D01*
X166723057Y-110053261D01*
X166554633Y-110236217D01*
X166418626Y-110444393D01*
X166318736Y-110672118D01*
X166257692Y-110913175D01*
X166257690Y-110913187D01*
X166237157Y-111160994D01*
X161443435Y-111160994D01*
X161436525Y-111135207D01*
X161403612Y-111078200D01*
X162320600Y-111078200D01*
X162320600Y-111071953D01*
X162287357Y-110862072D01*
X162287357Y-110862069D01*
X162221695Y-110659982D01*
X162125220Y-110470642D01*
X162000327Y-110298740D01*
X162000323Y-110298735D01*
X161850064Y-110148476D01*
X161850059Y-110148472D01*
X161678157Y-110023579D01*
X161488815Y-109927103D01*
X161286724Y-109861441D01*
X161220600Y-109850968D01*
X161220600Y-110895188D01*
X161163593Y-110862275D01*
X161036426Y-110828200D01*
X160904774Y-110828200D01*
X160777607Y-110862275D01*
X160720600Y-110895188D01*
X160720600Y-109850968D01*
X160720599Y-109850968D01*
X160654475Y-109861441D01*
X160452384Y-109927103D01*
X160263042Y-110023579D01*
X160091141Y-110148471D01*
X159952268Y-110287344D01*
X159890945Y-110320828D01*
X159821253Y-110315844D01*
X159765320Y-110273972D01*
X159759048Y-110264758D01*
X159747862Y-110246623D01*
X159722621Y-110205699D01*
X159689405Y-110151847D01*
X159670965Y-110084455D01*
X159691888Y-110017791D01*
X159707258Y-109999075D01*
X161089517Y-108616818D01*
X161150840Y-108583333D01*
X161177198Y-108580499D01*
X161551270Y-108580499D01*
X161551276Y-108580499D01*
X161652353Y-108570174D01*
X161810964Y-108517614D01*
X161880791Y-108515213D01*
X161940833Y-108550944D01*
X161972026Y-108613465D01*
X161973187Y-108621437D01*
X161977830Y-108662650D01*
X161977831Y-108662654D01*
X162037411Y-108832923D01*
X162088517Y-108914257D01*
X162133384Y-108985662D01*
X162260938Y-109113216D01*
X162322750Y-109152055D01*
X162413674Y-109209187D01*
X162413678Y-109209189D01*
X162517666Y-109245576D01*
X162583945Y-109268768D01*
X162583950Y-109268769D01*
X162763196Y-109288965D01*
X162763200Y-109288965D01*
X162763204Y-109288965D01*
X162942449Y-109268769D01*
X162942452Y-109268768D01*
X162942455Y-109268768D01*
X163112722Y-109209189D01*
X163265462Y-109113216D01*
X163393016Y-108985662D01*
X163488989Y-108832922D01*
X163548568Y-108662655D01*
X163552436Y-108628331D01*
X163568765Y-108483402D01*
X163568765Y-108483399D01*
X163567220Y-108469687D01*
X163561286Y-108417028D01*
X163573340Y-108348208D01*
X163596828Y-108315461D01*
X163608940Y-108303350D01*
X163699508Y-108156516D01*
X163753774Y-107992753D01*
X163764100Y-107891677D01*
X163764099Y-107193324D01*
X163753774Y-107092247D01*
X163699508Y-106928484D01*
X163608940Y-106781650D01*
X163594617Y-106767327D01*
X163561132Y-106706004D01*
X163566116Y-106636312D01*
X163594621Y-106591960D01*
X163608547Y-106578035D01*
X163699048Y-106431311D01*
X163699053Y-106431300D01*
X163753280Y-106267652D01*
X163763599Y-106166654D01*
X163763600Y-106166641D01*
X163763600Y-106067500D01*
X162662600Y-106067500D01*
X162595561Y-106047815D01*
X162549806Y-105995011D01*
X162538600Y-105943500D01*
X162538600Y-105567500D01*
X163038600Y-105567500D01*
X163763599Y-105567500D01*
X163763599Y-105468360D01*
X163763598Y-105468345D01*
X163753280Y-105367347D01*
X163699053Y-105203699D01*
X163699048Y-105203688D01*
X163608547Y-105056965D01*
X163608544Y-105056961D01*
X163486638Y-104935055D01*
X163486634Y-104935052D01*
X163339911Y-104844551D01*
X163339900Y-104844546D01*
X163176252Y-104790319D01*
X163075254Y-104780000D01*
X163038600Y-104780000D01*
X163038600Y-105567500D01*
X162538600Y-105567500D01*
X162538600Y-104780000D01*
X162501961Y-104780000D01*
X162501943Y-104780001D01*
X162400947Y-104790319D01*
X162237299Y-104844546D01*
X162237294Y-104844548D01*
X162092173Y-104934061D01*
X162024781Y-104952501D01*
X161961979Y-104934061D01*
X161816118Y-104844093D01*
X161816113Y-104844091D01*
X161791403Y-104835903D01*
X161652353Y-104789826D01*
X161652351Y-104789825D01*
X161551278Y-104779500D01*
X160977930Y-104779500D01*
X160977912Y-104779501D01*
X160876847Y-104789825D01*
X160713084Y-104844092D01*
X160713081Y-104844093D01*
X160566248Y-104934661D01*
X160531956Y-104968952D01*
X160470632Y-105002436D01*
X160403323Y-104998311D01*
X160351652Y-104980231D01*
X160172404Y-104960035D01*
X160172396Y-104960035D01*
X159993150Y-104980230D01*
X159993145Y-104980231D01*
X159822876Y-105039811D01*
X159670137Y-105135784D01*
X159542584Y-105263337D01*
X159446611Y-105416076D01*
X159387031Y-105586345D01*
X159387030Y-105586350D01*
X159366835Y-105765596D01*
X159366835Y-105765603D01*
X159387030Y-105944849D01*
X159387031Y-105944854D01*
X159446611Y-106115123D01*
X159490980Y-106185735D01*
X159530603Y-106248795D01*
X159542585Y-106267863D01*
X159544845Y-106270697D01*
X159545734Y-106272875D01*
X159546289Y-106273758D01*
X159546134Y-106273855D01*
X159571255Y-106335383D01*
X159571900Y-106348012D01*
X159571900Y-106837102D01*
X159552215Y-106904141D01*
X159535581Y-106924783D01*
X155102944Y-111357419D01*
X155041621Y-111390904D01*
X154971929Y-111385920D01*
X154915996Y-111344048D01*
X154891579Y-111278584D01*
X154893527Y-111250711D01*
X154893286Y-111250687D01*
X154893974Y-111243953D01*
X154904300Y-111142877D01*
X154904299Y-110469524D01*
X154900955Y-110436792D01*
X154893974Y-110368447D01*
X154880614Y-110328130D01*
X154839708Y-110204684D01*
X154749140Y-110057850D01*
X154710171Y-110018881D01*
X154676686Y-109957558D01*
X154681670Y-109887866D01*
X154710171Y-109843519D01*
X154749140Y-109804550D01*
X154839708Y-109657716D01*
X154893974Y-109493953D01*
X154904300Y-109392877D01*
X154904299Y-108981295D01*
X154923983Y-108914257D01*
X154940613Y-108893620D01*
X155709335Y-108124898D01*
X155770656Y-108091415D01*
X155836017Y-108094874D01*
X155858647Y-108102374D01*
X155959723Y-108112700D01*
X156558076Y-108112699D01*
X156558084Y-108112698D01*
X156558087Y-108112698D01*
X156613430Y-108107044D01*
X156659153Y-108102374D01*
X156822916Y-108048108D01*
X156969750Y-107957540D01*
X157091740Y-107835550D01*
X157182308Y-107688716D01*
X157236574Y-107524953D01*
X157246900Y-107423877D01*
X157246899Y-106850524D01*
X157244166Y-106823773D01*
X157236574Y-106749447D01*
X157231091Y-106732900D01*
X157182308Y-106585684D01*
X157091740Y-106438850D01*
X156989721Y-106336831D01*
X156956236Y-106275508D01*
X156961220Y-106205816D01*
X156989721Y-106161469D01*
X157036068Y-106115122D01*
X157093640Y-106057550D01*
X157184208Y-105910716D01*
X157238474Y-105746953D01*
X157248800Y-105645877D01*
X157248799Y-105271795D01*
X157268483Y-105204757D01*
X157285113Y-105184120D01*
X158444016Y-104025218D01*
X158505339Y-103991733D01*
X158531697Y-103988899D01*
X159868871Y-103988899D01*
X159868872Y-103988899D01*
X159928483Y-103982491D01*
X160063331Y-103932196D01*
X160178546Y-103845946D01*
X160264796Y-103730731D01*
X160315091Y-103595883D01*
X160321500Y-103536273D01*
X160321499Y-102807542D01*
X160341183Y-102740505D01*
X160393987Y-102694750D01*
X160463146Y-102684806D01*
X160526702Y-102713831D01*
X160533180Y-102719863D01*
X160564361Y-102751044D01*
X160564365Y-102751047D01*
X160711088Y-102841548D01*
X160711099Y-102841553D01*
X160874747Y-102895780D01*
X160975752Y-102906099D01*
X161012400Y-102906099D01*
X161512400Y-102906099D01*
X161549040Y-102906099D01*
X161549054Y-102906098D01*
X161650052Y-102895780D01*
X161813700Y-102841553D01*
X161813711Y-102841548D01*
X161960434Y-102751047D01*
X161960438Y-102751044D01*
X162082344Y-102629138D01*
X162082347Y-102629134D01*
X162172848Y-102482411D01*
X162172853Y-102482400D01*
X162227080Y-102318752D01*
X162237399Y-102217754D01*
X162237400Y-102217741D01*
X162237400Y-102118600D01*
X161512400Y-102118600D01*
X161512400Y-102906099D01*
X161012400Y-102906099D01*
X161012400Y-101742600D01*
X161032085Y-101675561D01*
X161084889Y-101629806D01*
X161136400Y-101618600D01*
X162237399Y-101618600D01*
X162237399Y-101519460D01*
X162237398Y-101519445D01*
X162227080Y-101418447D01*
X162172853Y-101254799D01*
X162172848Y-101254788D01*
X162082347Y-101108065D01*
X162082344Y-101108061D01*
X162068417Y-101094134D01*
X162034932Y-101032811D01*
X162039916Y-100963119D01*
X162068417Y-100918772D01*
X162082740Y-100904450D01*
X162094120Y-100886000D01*
X162145314Y-100803003D01*
X162197262Y-100756278D01*
X162250852Y-100744100D01*
X162941817Y-100744100D01*
X163008856Y-100763785D01*
X163029498Y-100780419D01*
X164131181Y-101882102D01*
X164164666Y-101943425D01*
X164167500Y-101969783D01*
X164167500Y-107023330D01*
X164167499Y-107023348D01*
X164167499Y-107189054D01*
X164167498Y-107189054D01*
X164167499Y-107189057D01*
X164208423Y-107341785D01*
X164224127Y-107368984D01*
X164255819Y-107423876D01*
X164287479Y-107478715D01*
X164406349Y-107597585D01*
X164406354Y-107597589D01*
X165975284Y-109166520D01*
X165975286Y-109166521D01*
X165975290Y-109166524D01*
X166049196Y-109209193D01*
X166112216Y-109245577D01*
X166264943Y-109286501D01*
X166264945Y-109286501D01*
X166430654Y-109286501D01*
X166430670Y-109286500D01*
X169531331Y-109286500D01*
X169531347Y-109286501D01*
X169538943Y-109286501D01*
X169697054Y-109286501D01*
X169697057Y-109286501D01*
X169849785Y-109245577D01*
X169912810Y-109209189D01*
X169986716Y-109166520D01*
X170098520Y-109054716D01*
X170098520Y-109054714D01*
X170108724Y-109044511D01*
X170108728Y-109044506D01*
X170267696Y-108885537D01*
X170329017Y-108852054D01*
X170398708Y-108857038D01*
X170460517Y-108880091D01*
X170460516Y-108880091D01*
X170467444Y-108880835D01*
X170520127Y-108886500D01*
X171815872Y-108886499D01*
X171875483Y-108880091D01*
X172010331Y-108829796D01*
X172125546Y-108743546D01*
X172211796Y-108628331D01*
X172262091Y-108493483D01*
X172268500Y-108433873D01*
X172268499Y-105838135D01*
X173067500Y-105838135D01*
X173067500Y-108433870D01*
X173067501Y-108433876D01*
X173073908Y-108493483D01*
X173124202Y-108628328D01*
X173124206Y-108628335D01*
X173210452Y-108743544D01*
X173210455Y-108743547D01*
X173325664Y-108829793D01*
X173325671Y-108829797D01*
X173460517Y-108880091D01*
X173460516Y-108880091D01*
X173467444Y-108880835D01*
X173520127Y-108886500D01*
X174815872Y-108886499D01*
X174875483Y-108880091D01*
X175010331Y-108829796D01*
X175125546Y-108743546D01*
X175211796Y-108628331D01*
X175262091Y-108493483D01*
X175268500Y-108433873D01*
X175268499Y-105838128D01*
X175262091Y-105778517D01*
X175257274Y-105765603D01*
X175211797Y-105643671D01*
X175211793Y-105643664D01*
X175125547Y-105528455D01*
X175125544Y-105528452D01*
X175010335Y-105442206D01*
X175010328Y-105442202D01*
X174875482Y-105391908D01*
X174875483Y-105391908D01*
X174815883Y-105385501D01*
X174815881Y-105385500D01*
X174815873Y-105385500D01*
X174815864Y-105385500D01*
X173520129Y-105385500D01*
X173520123Y-105385501D01*
X173460516Y-105391908D01*
X173325671Y-105442202D01*
X173325664Y-105442206D01*
X173210455Y-105528452D01*
X173210452Y-105528455D01*
X173124206Y-105643664D01*
X173124202Y-105643671D01*
X173073908Y-105778517D01*
X173067501Y-105838116D01*
X173067501Y-105838123D01*
X173067500Y-105838135D01*
X172268499Y-105838135D01*
X172268499Y-105838128D01*
X172262091Y-105778517D01*
X172257274Y-105765603D01*
X172211797Y-105643671D01*
X172211793Y-105643664D01*
X172125547Y-105528455D01*
X172125544Y-105528452D01*
X172010335Y-105442206D01*
X172010328Y-105442202D01*
X171875482Y-105391908D01*
X171875483Y-105391908D01*
X171815883Y-105385501D01*
X171815881Y-105385500D01*
X171815873Y-105385500D01*
X171815864Y-105385500D01*
X170520129Y-105385500D01*
X170520123Y-105385501D01*
X170460516Y-105391908D01*
X170325671Y-105442202D01*
X170325664Y-105442206D01*
X170210455Y-105528452D01*
X170210452Y-105528455D01*
X170124206Y-105643664D01*
X170124202Y-105643671D01*
X170073908Y-105778517D01*
X170067501Y-105838116D01*
X170067501Y-105838123D01*
X170067500Y-105838135D01*
X170067500Y-107335902D01*
X170047815Y-107402941D01*
X170031181Y-107423583D01*
X169405584Y-108049181D01*
X169344261Y-108082666D01*
X169317903Y-108085500D01*
X168392500Y-108085500D01*
X168325461Y-108065815D01*
X168279706Y-108013011D01*
X168268500Y-107961500D01*
X168268499Y-105838129D01*
X168268498Y-105838123D01*
X168268497Y-105838116D01*
X168262091Y-105778517D01*
X168257274Y-105765603D01*
X168211797Y-105643671D01*
X168211793Y-105643664D01*
X168125547Y-105528455D01*
X168125544Y-105528452D01*
X168010335Y-105442206D01*
X168010328Y-105442202D01*
X167875482Y-105391908D01*
X167875483Y-105391908D01*
X167815883Y-105385501D01*
X167815881Y-105385500D01*
X167815873Y-105385500D01*
X167815864Y-105385500D01*
X166520129Y-105385500D01*
X166520123Y-105385501D01*
X166460515Y-105391909D01*
X166398708Y-105414961D01*
X166329016Y-105419945D01*
X166267695Y-105386460D01*
X165804819Y-104923584D01*
X165771334Y-104862261D01*
X165768500Y-104835903D01*
X165768500Y-103984543D01*
X167767499Y-103984543D01*
X167805947Y-104177829D01*
X167805950Y-104177839D01*
X167881364Y-104359907D01*
X167881371Y-104359920D01*
X167990860Y-104523781D01*
X167990863Y-104523785D01*
X168130214Y-104663136D01*
X168130218Y-104663139D01*
X168294079Y-104772628D01*
X168294092Y-104772635D01*
X168466607Y-104844092D01*
X168476165Y-104848051D01*
X168476169Y-104848051D01*
X168476170Y-104848052D01*
X168669456Y-104886500D01*
X168669459Y-104886500D01*
X168866543Y-104886500D01*
X168996582Y-104860632D01*
X169059835Y-104848051D01*
X169241914Y-104772632D01*
X169405782Y-104663139D01*
X169545139Y-104523782D01*
X169654632Y-104359914D01*
X169730051Y-104177835D01*
X169760409Y-104025218D01*
X169768500Y-103984543D01*
X169768500Y-103787456D01*
X169730052Y-103594170D01*
X169730051Y-103594169D01*
X169730051Y-103594165D01*
X169707905Y-103540699D01*
X169654635Y-103412092D01*
X169654628Y-103412079D01*
X169545139Y-103248218D01*
X169545136Y-103248214D01*
X169405785Y-103108863D01*
X169405781Y-103108860D01*
X169241920Y-102999371D01*
X169241907Y-102999364D01*
X169059839Y-102923950D01*
X169059829Y-102923947D01*
X168866543Y-102885500D01*
X168866541Y-102885500D01*
X168669459Y-102885500D01*
X168669457Y-102885500D01*
X168476170Y-102923947D01*
X168476160Y-102923950D01*
X168294092Y-102999364D01*
X168294079Y-102999371D01*
X168130218Y-103108860D01*
X168130214Y-103108863D01*
X167990863Y-103248214D01*
X167990860Y-103248218D01*
X167881371Y-103412079D01*
X167881364Y-103412092D01*
X167805950Y-103594160D01*
X167805947Y-103594170D01*
X167767500Y-103787456D01*
X167767500Y-103787459D01*
X167767500Y-103984541D01*
X167767500Y-103984543D01*
X167767499Y-103984543D01*
X165768500Y-103984543D01*
X165768500Y-102486862D01*
X165788185Y-102419823D01*
X165804819Y-102399181D01*
X165818000Y-102386000D01*
X166318000Y-102386000D01*
X166715828Y-102386000D01*
X166715844Y-102385999D01*
X166775372Y-102379598D01*
X166775379Y-102379596D01*
X166910086Y-102329354D01*
X166910093Y-102329350D01*
X167025187Y-102243190D01*
X167025190Y-102243187D01*
X167111350Y-102128093D01*
X167111354Y-102128086D01*
X167161596Y-101993379D01*
X167161598Y-101993372D01*
X167167999Y-101933844D01*
X167168000Y-101933827D01*
X167168000Y-100886000D01*
X166318000Y-100886000D01*
X166318000Y-102386000D01*
X165818000Y-102386000D01*
X165818000Y-100386000D01*
X166318000Y-100386000D01*
X167168000Y-100386000D01*
X167168000Y-99338172D01*
X167167999Y-99338155D01*
X167161598Y-99278627D01*
X167161596Y-99278620D01*
X167111354Y-99143913D01*
X167111350Y-99143906D01*
X167025190Y-99028812D01*
X167025187Y-99028809D01*
X166910093Y-98942649D01*
X166910086Y-98942645D01*
X166775379Y-98892403D01*
X166775372Y-98892401D01*
X166715844Y-98886000D01*
X166318000Y-98886000D01*
X166318000Y-100386000D01*
X165818000Y-100386000D01*
X165818000Y-98886000D01*
X165420155Y-98886000D01*
X165360627Y-98892401D01*
X165360620Y-98892403D01*
X165225913Y-98942645D01*
X165225906Y-98942649D01*
X165110812Y-99028809D01*
X165110809Y-99028812D01*
X165024649Y-99143906D01*
X165024645Y-99143913D01*
X164974403Y-99278620D01*
X164974401Y-99278627D01*
X164968000Y-99338155D01*
X164968000Y-100155402D01*
X164948315Y-100222441D01*
X164895511Y-100268196D01*
X164826353Y-100278140D01*
X164762797Y-100249115D01*
X164756319Y-100243083D01*
X164048957Y-99535721D01*
X163330316Y-98817081D01*
X163296832Y-98755759D01*
X163301816Y-98686067D01*
X163343688Y-98630134D01*
X163405397Y-98606043D01*
X163473551Y-98599080D01*
X163637200Y-98544853D01*
X163637211Y-98544848D01*
X163783934Y-98454347D01*
X163783938Y-98454344D01*
X163905844Y-98332438D01*
X163905847Y-98332434D01*
X163996348Y-98185711D01*
X163996353Y-98185700D01*
X164050580Y-98022052D01*
X164060899Y-97921054D01*
X164060900Y-97921041D01*
X164060900Y-97884400D01*
X162897400Y-97884400D01*
X162830361Y-97864715D01*
X162784606Y-97811911D01*
X162773400Y-97760400D01*
X162773400Y-97384400D01*
X163273400Y-97384400D01*
X164060899Y-97384400D01*
X164060899Y-97347760D01*
X164060898Y-97347745D01*
X164050580Y-97246747D01*
X163996353Y-97083099D01*
X163996348Y-97083088D01*
X163905847Y-96936365D01*
X163905844Y-96936361D01*
X163783938Y-96814455D01*
X163783934Y-96814452D01*
X163637211Y-96723951D01*
X163637200Y-96723946D01*
X163473552Y-96669719D01*
X163372554Y-96659400D01*
X163273400Y-96659400D01*
X163273400Y-97384400D01*
X162773400Y-97384400D01*
X162773400Y-96659399D01*
X162674260Y-96659400D01*
X162674244Y-96659401D01*
X162573247Y-96669719D01*
X162409599Y-96723946D01*
X162409588Y-96723951D01*
X162262865Y-96814452D01*
X162248932Y-96828385D01*
X162187608Y-96861868D01*
X162117916Y-96856882D01*
X162073572Y-96828382D01*
X162059251Y-96814061D01*
X162059250Y-96814060D01*
X161913843Y-96724372D01*
X161912418Y-96723493D01*
X161912413Y-96723491D01*
X161884073Y-96714100D01*
X161748653Y-96669226D01*
X161748651Y-96669225D01*
X161647578Y-96658900D01*
X160949230Y-96658900D01*
X160949212Y-96658901D01*
X160848147Y-96669225D01*
X160684384Y-96723492D01*
X160684381Y-96723493D01*
X160537548Y-96814061D01*
X160415561Y-96936048D01*
X160407574Y-96948998D01*
X160355625Y-96995722D01*
X160302036Y-97007900D01*
X160252692Y-97007900D01*
X160185653Y-96988215D01*
X160151119Y-96955025D01*
X160021047Y-96769261D01*
X160021045Y-96769258D01*
X159860141Y-96608354D01*
X159673734Y-96477832D01*
X159673732Y-96477831D01*
X159615725Y-96450782D01*
X159615132Y-96450505D01*
X159562694Y-96404334D01*
X159543542Y-96337140D01*
X159563758Y-96270259D01*
X159615134Y-96225741D01*
X159673484Y-96198532D01*
X159859820Y-96068057D01*
X160020657Y-95907220D01*
X160151134Y-95720882D01*
X160247265Y-95514726D01*
X160247269Y-95514717D01*
X160299872Y-95318400D01*
X159336686Y-95318400D01*
X159341080Y-95314006D01*
X159393741Y-95222794D01*
X159421000Y-95121061D01*
X159421000Y-95015739D01*
X159393741Y-94914006D01*
X159341080Y-94822794D01*
X159336686Y-94818400D01*
X160299872Y-94818400D01*
X160299872Y-94818399D01*
X160250729Y-94634993D01*
X160252392Y-94565143D01*
X160291555Y-94507281D01*
X160355783Y-94479777D01*
X160370504Y-94478900D01*
X163009232Y-94478900D01*
X163076271Y-94498585D01*
X163096912Y-94515218D01*
X166649013Y-98067320D01*
X166649015Y-98067321D01*
X166649019Y-98067324D01*
X166771983Y-98138316D01*
X166785945Y-98146377D01*
X166938672Y-98187301D01*
X166938674Y-98187301D01*
X167104383Y-98187301D01*
X167104399Y-98187300D01*
X167443399Y-98187300D01*
X167510438Y-98206985D01*
X167548938Y-98246204D01*
X167558543Y-98261777D01*
X167572960Y-98285150D01*
X167694950Y-98407140D01*
X167841784Y-98497708D01*
X168005547Y-98551974D01*
X168106623Y-98562300D01*
X168704976Y-98562299D01*
X168704984Y-98562298D01*
X168704987Y-98562298D01*
X168760330Y-98556644D01*
X168806053Y-98551974D01*
X168969816Y-98497708D01*
X169116650Y-98407140D01*
X169230619Y-98293171D01*
X169291942Y-98259686D01*
X169361634Y-98264670D01*
X169405981Y-98293171D01*
X169519950Y-98407140D01*
X169666784Y-98497708D01*
X169830547Y-98551974D01*
X169931623Y-98562300D01*
X170529976Y-98562299D01*
X170529984Y-98562298D01*
X170529987Y-98562298D01*
X170585330Y-98556644D01*
X170631053Y-98551974D01*
X170794816Y-98497708D01*
X170941650Y-98407140D01*
X171063640Y-98285150D01*
X171087662Y-98246204D01*
X171139610Y-98199479D01*
X171193201Y-98187300D01*
X171759499Y-98187300D01*
X171826538Y-98206985D01*
X171865038Y-98246204D01*
X171874643Y-98261777D01*
X171889060Y-98285150D01*
X172011050Y-98407140D01*
X172157884Y-98497708D01*
X172321647Y-98551974D01*
X172422723Y-98562300D01*
X173096076Y-98562299D01*
X173096084Y-98562298D01*
X173096087Y-98562298D01*
X173151430Y-98556644D01*
X173197153Y-98551974D01*
X173360916Y-98497708D01*
X173507750Y-98407140D01*
X173546719Y-98368171D01*
X173608042Y-98334686D01*
X173677734Y-98339670D01*
X173722081Y-98368171D01*
X173761050Y-98407140D01*
X173907884Y-98497708D01*
X174071647Y-98551974D01*
X174172723Y-98562300D01*
X174846076Y-98562299D01*
X174846084Y-98562298D01*
X174846087Y-98562298D01*
X174901430Y-98556644D01*
X174947153Y-98551974D01*
X175110916Y-98497708D01*
X175257750Y-98407140D01*
X175379740Y-98285150D01*
X175470308Y-98138316D01*
X175524574Y-97974553D01*
X175534900Y-97873477D01*
X175534899Y-97300124D01*
X175524574Y-97199047D01*
X175470308Y-97035284D01*
X175379740Y-96888450D01*
X175257750Y-96766460D01*
X175110916Y-96675892D01*
X174947153Y-96621626D01*
X174947151Y-96621625D01*
X174846084Y-96611300D01*
X174846077Y-96611300D01*
X174434497Y-96611300D01*
X174367458Y-96591615D01*
X174346816Y-96574981D01*
X174170015Y-96398180D01*
X174136530Y-96336857D01*
X174141514Y-96267165D01*
X174183386Y-96211232D01*
X174248850Y-96186815D01*
X174257696Y-96186499D01*
X174815871Y-96186499D01*
X174815872Y-96186499D01*
X174875483Y-96180091D01*
X175010331Y-96129796D01*
X175125546Y-96043546D01*
X175211796Y-95928331D01*
X175262091Y-95793483D01*
X175268500Y-95733873D01*
X175268499Y-93138128D01*
X175262091Y-93078517D01*
X175257504Y-93066219D01*
X175211797Y-92943671D01*
X175211793Y-92943664D01*
X175125547Y-92828455D01*
X175125544Y-92828452D01*
X175010335Y-92742206D01*
X175010328Y-92742202D01*
X174875482Y-92691908D01*
X174875483Y-92691908D01*
X174815883Y-92685501D01*
X174815881Y-92685500D01*
X174815873Y-92685500D01*
X174815864Y-92685500D01*
X173520129Y-92685500D01*
X173520123Y-92685501D01*
X173460516Y-92691908D01*
X173325671Y-92742202D01*
X173325664Y-92742206D01*
X173210455Y-92828452D01*
X173210452Y-92828455D01*
X173124206Y-92943664D01*
X173124202Y-92943671D01*
X173073908Y-93078517D01*
X173067501Y-93138116D01*
X173067500Y-93138127D01*
X173067500Y-94315830D01*
X173067501Y-95389100D01*
X173047816Y-95456139D01*
X172995013Y-95501894D01*
X172943501Y-95513100D01*
X172392500Y-95513100D01*
X172325461Y-95493415D01*
X172279706Y-95440611D01*
X172268500Y-95389100D01*
X172268499Y-93138129D01*
X172268498Y-93138123D01*
X172268497Y-93138116D01*
X172262091Y-93078517D01*
X172257504Y-93066219D01*
X172211797Y-92943671D01*
X172211793Y-92943664D01*
X172125547Y-92828455D01*
X172125544Y-92828452D01*
X172010335Y-92742206D01*
X172010328Y-92742202D01*
X171875482Y-92691908D01*
X171875483Y-92691908D01*
X171815883Y-92685501D01*
X171815881Y-92685500D01*
X171815873Y-92685500D01*
X171815864Y-92685500D01*
X170520129Y-92685500D01*
X170520123Y-92685501D01*
X170460516Y-92691908D01*
X170325671Y-92742202D01*
X170325664Y-92742206D01*
X170210455Y-92828452D01*
X170210452Y-92828455D01*
X170124206Y-92943664D01*
X170124202Y-92943671D01*
X170073908Y-93078517D01*
X170067501Y-93138116D01*
X170067500Y-93138127D01*
X170067500Y-94315830D01*
X170067501Y-95389100D01*
X170047816Y-95456139D01*
X169995013Y-95501894D01*
X169943501Y-95513100D01*
X168392500Y-95513100D01*
X168325461Y-95493415D01*
X168279706Y-95440611D01*
X168268500Y-95389100D01*
X168268499Y-93138129D01*
X168268498Y-93138123D01*
X168268497Y-93138116D01*
X168262091Y-93078517D01*
X168257504Y-93066219D01*
X168211797Y-92943671D01*
X168211793Y-92943664D01*
X168125547Y-92828455D01*
X168125544Y-92828452D01*
X168010335Y-92742206D01*
X168010328Y-92742202D01*
X167875482Y-92691908D01*
X167875483Y-92691908D01*
X167815883Y-92685501D01*
X167815881Y-92685500D01*
X167815873Y-92685500D01*
X167815864Y-92685500D01*
X166520129Y-92685500D01*
X166520123Y-92685501D01*
X166460516Y-92691908D01*
X166325671Y-92742202D01*
X166325664Y-92742206D01*
X166210455Y-92828452D01*
X166210452Y-92828455D01*
X166124206Y-92943664D01*
X166124202Y-92943671D01*
X166073908Y-93078517D01*
X166067501Y-93138116D01*
X166067501Y-93138123D01*
X166067500Y-93138135D01*
X166067500Y-93711500D01*
X166047815Y-93778539D01*
X165995011Y-93824294D01*
X165943500Y-93835500D01*
X165298397Y-93835500D01*
X165231358Y-93815815D01*
X165210716Y-93799181D01*
X162696078Y-91284543D01*
X167767499Y-91284543D01*
X167805947Y-91477829D01*
X167805950Y-91477839D01*
X167881364Y-91659907D01*
X167881371Y-91659920D01*
X167990860Y-91823781D01*
X167990863Y-91823785D01*
X168130214Y-91963136D01*
X168130218Y-91963139D01*
X168294079Y-92072628D01*
X168294092Y-92072635D01*
X168476160Y-92148049D01*
X168476165Y-92148051D01*
X168476169Y-92148051D01*
X168476170Y-92148052D01*
X168669456Y-92186500D01*
X168669459Y-92186500D01*
X168866543Y-92186500D01*
X168996582Y-92160632D01*
X169059835Y-92148051D01*
X169241914Y-92072632D01*
X169405782Y-91963139D01*
X169545139Y-91823782D01*
X169654632Y-91659914D01*
X169654971Y-91659097D01*
X169708784Y-91529178D01*
X169730051Y-91477835D01*
X169754052Y-91357174D01*
X169768500Y-91284543D01*
X169768500Y-91087456D01*
X169730052Y-90894170D01*
X169730051Y-90894169D01*
X169730051Y-90894165D01*
X169695915Y-90811752D01*
X169654635Y-90712092D01*
X169654628Y-90712079D01*
X169545139Y-90548218D01*
X169545136Y-90548214D01*
X169405785Y-90408863D01*
X169405781Y-90408860D01*
X169241920Y-90299371D01*
X169241907Y-90299364D01*
X169059839Y-90223950D01*
X169059829Y-90223947D01*
X168866543Y-90185500D01*
X168866541Y-90185500D01*
X168669459Y-90185500D01*
X168669457Y-90185500D01*
X168476170Y-90223947D01*
X168476160Y-90223950D01*
X168294092Y-90299364D01*
X168294079Y-90299371D01*
X168130218Y-90408860D01*
X168130214Y-90408863D01*
X167990863Y-90548214D01*
X167990860Y-90548218D01*
X167881371Y-90712079D01*
X167881364Y-90712092D01*
X167805950Y-90894160D01*
X167805947Y-90894170D01*
X167767500Y-91087456D01*
X167767500Y-91087459D01*
X167767500Y-91284541D01*
X167767500Y-91284543D01*
X167767499Y-91284543D01*
X162696078Y-91284543D01*
X161900617Y-90489082D01*
X161867132Y-90427759D01*
X161872116Y-90358067D01*
X161913988Y-90302134D01*
X161975697Y-90278043D01*
X162043851Y-90271080D01*
X162207500Y-90216853D01*
X162207511Y-90216848D01*
X162354234Y-90126347D01*
X162354238Y-90126344D01*
X162476144Y-90004438D01*
X162476147Y-90004434D01*
X162566648Y-89857711D01*
X162566653Y-89857700D01*
X162620880Y-89694052D01*
X162631199Y-89593054D01*
X162631200Y-89593041D01*
X162631200Y-89556400D01*
X161467700Y-89556400D01*
X161400661Y-89536715D01*
X161354906Y-89483911D01*
X161343700Y-89432400D01*
X161343700Y-89233844D01*
X164968000Y-89233844D01*
X164974401Y-89293372D01*
X164974403Y-89293379D01*
X165024645Y-89428086D01*
X165024649Y-89428093D01*
X165110809Y-89543187D01*
X165110812Y-89543190D01*
X165225906Y-89629350D01*
X165225913Y-89629354D01*
X165360620Y-89679596D01*
X165360627Y-89679598D01*
X165420155Y-89685999D01*
X165420172Y-89686000D01*
X165818000Y-89686000D01*
X166318000Y-89686000D01*
X166715828Y-89686000D01*
X166715844Y-89685999D01*
X166775372Y-89679598D01*
X166775379Y-89679596D01*
X166910086Y-89629354D01*
X166910093Y-89629350D01*
X167025187Y-89543190D01*
X167025190Y-89543187D01*
X167111350Y-89428093D01*
X167111354Y-89428086D01*
X167161596Y-89293379D01*
X167161598Y-89293372D01*
X167167999Y-89233844D01*
X167168000Y-89233827D01*
X167168000Y-88186000D01*
X166318000Y-88186000D01*
X166318000Y-89686000D01*
X165818000Y-89686000D01*
X165818000Y-88186000D01*
X164968000Y-88186000D01*
X164968000Y-89233844D01*
X161343700Y-89233844D01*
X161343700Y-89056400D01*
X161843700Y-89056400D01*
X162631199Y-89056400D01*
X162631199Y-89019760D01*
X162631198Y-89019745D01*
X162620880Y-88918747D01*
X162566653Y-88755099D01*
X162566648Y-88755088D01*
X162476147Y-88608365D01*
X162476144Y-88608361D01*
X162354238Y-88486455D01*
X162354234Y-88486452D01*
X162207511Y-88395951D01*
X162207500Y-88395946D01*
X162043852Y-88341719D01*
X161942854Y-88331400D01*
X161843700Y-88331400D01*
X161843700Y-89056400D01*
X161343700Y-89056400D01*
X161343700Y-88331399D01*
X161244560Y-88331400D01*
X161244544Y-88331401D01*
X161143547Y-88341719D01*
X160979899Y-88395946D01*
X160979888Y-88395951D01*
X160833165Y-88486452D01*
X160819232Y-88500385D01*
X160757908Y-88533868D01*
X160688216Y-88528882D01*
X160643872Y-88500382D01*
X160629551Y-88486061D01*
X160629550Y-88486060D01*
X160538329Y-88429795D01*
X160482718Y-88395493D01*
X160482713Y-88395491D01*
X160481269Y-88395012D01*
X160318953Y-88341226D01*
X160318951Y-88341225D01*
X160217878Y-88330900D01*
X159519530Y-88330900D01*
X159519512Y-88330901D01*
X159418447Y-88341225D01*
X159254684Y-88395492D01*
X159254681Y-88395493D01*
X159107848Y-88486061D01*
X158985859Y-88608050D01*
X158961838Y-88646996D01*
X158909890Y-88693721D01*
X158856299Y-88705900D01*
X147108205Y-88705900D01*
X146950091Y-88705900D01*
X146797363Y-88746823D01*
X146797362Y-88746823D01*
X146797360Y-88746824D01*
X146797357Y-88746825D01*
X146747244Y-88775759D01*
X146747243Y-88775760D01*
X146703837Y-88800820D01*
X146660433Y-88825879D01*
X146660430Y-88825881D01*
X146548626Y-88937686D01*
X146142006Y-89344304D01*
X146080683Y-89377789D01*
X146010991Y-89372805D01*
X145966644Y-89344304D01*
X145941161Y-89318821D01*
X145941152Y-89318814D01*
X145799796Y-89235217D01*
X145799793Y-89235216D01*
X145642094Y-89189400D01*
X145642097Y-89189400D01*
X145639600Y-89189203D01*
X145639600Y-91329684D01*
X145622333Y-91392804D01*
X145587854Y-91451105D01*
X145587854Y-91451106D01*
X145542002Y-91608926D01*
X145542001Y-91608932D01*
X145539100Y-91645798D01*
X145539100Y-92952201D01*
X145542001Y-92989067D01*
X145542002Y-92989073D01*
X145587854Y-93146893D01*
X145587855Y-93146896D01*
X145671517Y-93288362D01*
X145671523Y-93288370D01*
X145787729Y-93404576D01*
X145787733Y-93404579D01*
X145787735Y-93404581D01*
X145929202Y-93488244D01*
X145970824Y-93500336D01*
X146087026Y-93534097D01*
X146087029Y-93534097D01*
X146087031Y-93534098D01*
X146123906Y-93537000D01*
X146123914Y-93537000D01*
X146555286Y-93537000D01*
X146555294Y-93537000D01*
X146592169Y-93534098D01*
X146592171Y-93534097D01*
X146592173Y-93534097D01*
X146661690Y-93513900D01*
X146749998Y-93488244D01*
X146891465Y-93404581D01*
X147007681Y-93288365D01*
X147091344Y-93146898D01*
X147125105Y-93030691D01*
X147137197Y-92989073D01*
X147137198Y-92989067D01*
X147140100Y-92952194D01*
X147140100Y-91786000D01*
X147159785Y-91718961D01*
X147212589Y-91673206D01*
X147264100Y-91662000D01*
X147505286Y-91662000D01*
X147505294Y-91662000D01*
X147542169Y-91659098D01*
X147575032Y-91649550D01*
X147644898Y-91649747D01*
X147697309Y-91680944D01*
X148684339Y-92667974D01*
X148684349Y-92667985D01*
X148688679Y-92672315D01*
X148688680Y-92672316D01*
X148800484Y-92784120D01*
X148886320Y-92833677D01*
X148886321Y-92833678D01*
X148937409Y-92863174D01*
X148937410Y-92863175D01*
X148937412Y-92863175D01*
X148937415Y-92863177D01*
X149090143Y-92904101D01*
X149090146Y-92904101D01*
X149255853Y-92904101D01*
X149255869Y-92904100D01*
X149940599Y-92904100D01*
X150007638Y-92923785D01*
X150046138Y-92963004D01*
X150062213Y-92989067D01*
X150070160Y-93001950D01*
X150192150Y-93123940D01*
X150338984Y-93214508D01*
X150502747Y-93268774D01*
X150603823Y-93279100D01*
X150711901Y-93279099D01*
X150778939Y-93298783D01*
X150824694Y-93351587D01*
X150834638Y-93420745D01*
X150831675Y-93435192D01*
X150800499Y-93551543D01*
X150800499Y-93719646D01*
X150800500Y-93719659D01*
X150800500Y-93836706D01*
X150780815Y-93903745D01*
X150747623Y-93938281D01*
X150561859Y-94068353D01*
X150400954Y-94229258D01*
X150270432Y-94415665D01*
X150270431Y-94415667D01*
X150174261Y-94621902D01*
X150174258Y-94621911D01*
X150115366Y-94841702D01*
X150115364Y-94841713D01*
X150095532Y-95068398D01*
X150095532Y-95068401D01*
X150115364Y-95295086D01*
X150115366Y-95295097D01*
X150174258Y-95514888D01*
X150174261Y-95514897D01*
X150270431Y-95721132D01*
X150270432Y-95721134D01*
X150400954Y-95907541D01*
X150561858Y-96068445D01*
X150561861Y-96068447D01*
X150748266Y-96198968D01*
X150805681Y-96225741D01*
X150806275Y-96226018D01*
X150858714Y-96272191D01*
X150877866Y-96339384D01*
X150857650Y-96406265D01*
X150806275Y-96450782D01*
X150748267Y-96477831D01*
X150748265Y-96477832D01*
X150561858Y-96608354D01*
X150400954Y-96769258D01*
X150270432Y-96955665D01*
X150270431Y-96955667D01*
X150174261Y-97161902D01*
X150174258Y-97161911D01*
X150115366Y-97381702D01*
X150115364Y-97381713D01*
X150095532Y-97608398D01*
X150095532Y-97608401D01*
X150115364Y-97835086D01*
X150115366Y-97835097D01*
X150174258Y-98054888D01*
X150174261Y-98054897D01*
X150270431Y-98261132D01*
X150270432Y-98261134D01*
X150400954Y-98447541D01*
X150561858Y-98608445D01*
X150608693Y-98641239D01*
X150748266Y-98738968D01*
X150785675Y-98756412D01*
X150806275Y-98766018D01*
X150858714Y-98812191D01*
X150877866Y-98879384D01*
X150857650Y-98946265D01*
X150806275Y-98990782D01*
X150748267Y-99017831D01*
X150748265Y-99017832D01*
X150561858Y-99148354D01*
X150400954Y-99309258D01*
X150324450Y-99418518D01*
X150270881Y-99495024D01*
X150216307Y-99538648D01*
X150169308Y-99547900D01*
X149657740Y-99547900D01*
X149616819Y-99558864D01*
X149616819Y-99558865D01*
X149579551Y-99568851D01*
X149505014Y-99588823D01*
X149505009Y-99588826D01*
X149368090Y-99667875D01*
X149368082Y-99667881D01*
X149256278Y-99779686D01*
X147351218Y-101684745D01*
X147289895Y-101718230D01*
X147220203Y-101713246D01*
X147198442Y-101702604D01*
X147138247Y-101665475D01*
X147120118Y-101654293D01*
X147120113Y-101654291D01*
X147095307Y-101646071D01*
X146956353Y-101600026D01*
X146956351Y-101600025D01*
X146855278Y-101589700D01*
X146156930Y-101589700D01*
X146156912Y-101589701D01*
X146055847Y-101600025D01*
X145892084Y-101654292D01*
X145892081Y-101654293D01*
X145745248Y-101744861D01*
X145730925Y-101759184D01*
X145669601Y-101792668D01*
X145599909Y-101787682D01*
X145555565Y-101759182D01*
X145541638Y-101745255D01*
X145541634Y-101745252D01*
X145394911Y-101654751D01*
X145394900Y-101654746D01*
X145231252Y-101600519D01*
X145130254Y-101590200D01*
X145031100Y-101590200D01*
X145031100Y-103540199D01*
X145130240Y-103540199D01*
X145130254Y-103540198D01*
X145231252Y-103529880D01*
X145394900Y-103475653D01*
X145394911Y-103475648D01*
X145541635Y-103385147D01*
X145555560Y-103371221D01*
X145616882Y-103337733D01*
X145686573Y-103342714D01*
X145730927Y-103371217D01*
X145745250Y-103385540D01*
X145892084Y-103476108D01*
X146055847Y-103530374D01*
X146156923Y-103540700D01*
X146855276Y-103540699D01*
X146855284Y-103540698D01*
X146855287Y-103540698D01*
X146910630Y-103535044D01*
X146956353Y-103530374D01*
X147120116Y-103476108D01*
X147266950Y-103385540D01*
X147388940Y-103263550D01*
X147433378Y-103191502D01*
X147485326Y-103144778D01*
X147506824Y-103136824D01*
X147551785Y-103124777D01*
X147601904Y-103095839D01*
X147688716Y-103045720D01*
X147800520Y-102933916D01*
X147800520Y-102933914D01*
X147810728Y-102923707D01*
X147810729Y-102923704D01*
X149949216Y-100785219D01*
X150010539Y-100751734D01*
X150036897Y-100748900D01*
X150169308Y-100748900D01*
X150236347Y-100768585D01*
X150270880Y-100801774D01*
X150342772Y-100904447D01*
X150400954Y-100987541D01*
X150561858Y-101148445D01*
X150594462Y-101171274D01*
X150748266Y-101278968D01*
X150771384Y-101289748D01*
X150806275Y-101306018D01*
X150858714Y-101352191D01*
X150877866Y-101419384D01*
X150857650Y-101486265D01*
X150806275Y-101530781D01*
X150806118Y-101530855D01*
X150748267Y-101557831D01*
X150748265Y-101557832D01*
X150645595Y-101629722D01*
X150609858Y-101654746D01*
X150594535Y-101665475D01*
X150528329Y-101687802D01*
X150523412Y-101687900D01*
X150171085Y-101687900D01*
X150074442Y-101707124D01*
X149977800Y-101726347D01*
X149977792Y-101726349D01*
X149955013Y-101735785D01*
X149795718Y-101801766D01*
X149795709Y-101801771D01*
X149631849Y-101911259D01*
X149578412Y-101964697D01*
X149492491Y-102050618D01*
X149492488Y-102050621D01*
X145895221Y-105647888D01*
X145895218Y-105647891D01*
X145825538Y-105717570D01*
X145755859Y-105787249D01*
X145646371Y-105951109D01*
X145646364Y-105951122D01*
X145599055Y-106065340D01*
X145597485Y-106069131D01*
X145584840Y-106099659D01*
X145576435Y-106119951D01*
X145570950Y-106133191D01*
X145570947Y-106133199D01*
X145532500Y-106326486D01*
X145532500Y-108402648D01*
X145512815Y-108469687D01*
X145483590Y-108499252D01*
X145484467Y-108500328D01*
X145321890Y-108632890D01*
X145193304Y-108790590D01*
X145099089Y-108970954D01*
X145073731Y-109059580D01*
X145043133Y-109166518D01*
X145043114Y-109166583D01*
X145043113Y-109166586D01*
X145032500Y-109285966D01*
X145032500Y-109619500D01*
X145012815Y-109686539D01*
X144960011Y-109732294D01*
X144908500Y-109743500D01*
X141520924Y-109743500D01*
X141453885Y-109723815D01*
X141443251Y-109716158D01*
X141411112Y-109690324D01*
X141371196Y-109632985D01*
X141368616Y-109563163D01*
X141404194Y-109503030D01*
X141411115Y-109497033D01*
X141480366Y-109441367D01*
X141480367Y-109441366D01*
X141599607Y-109293025D01*
X141599609Y-109293022D01*
X141684168Y-109122523D01*
X141730102Y-108937824D01*
X141733000Y-108895096D01*
X141733000Y-108694000D01*
X138733000Y-108694000D01*
X138733000Y-108895096D01*
X138735897Y-108937824D01*
X138781831Y-109122523D01*
X138866390Y-109293022D01*
X138866392Y-109293025D01*
X138985630Y-109441364D01*
X139054884Y-109497031D01*
X139094803Y-109554375D01*
X139097383Y-109624197D01*
X139061805Y-109684329D01*
X139054885Y-109690326D01*
X139022761Y-109716148D01*
X138993599Y-109739590D01*
X138985276Y-109746280D01*
X138865970Y-109894703D01*
X138846066Y-109934834D01*
X138822661Y-109967417D01*
X138779213Y-110010866D01*
X138683861Y-110106218D01*
X137087181Y-111702898D01*
X137025858Y-111736383D01*
X136956166Y-111731399D01*
X136900233Y-111689527D01*
X136875816Y-111624063D01*
X136875500Y-111615217D01*
X136875500Y-110853500D01*
X136895185Y-110786461D01*
X136947989Y-110740706D01*
X136999500Y-110729500D01*
X137246886Y-110729500D01*
X137246889Y-110729500D01*
X137389304Y-110709024D01*
X137527259Y-110668517D01*
X137658137Y-110608747D01*
X137773477Y-110534622D01*
X137774915Y-110533804D01*
X137779098Y-110531011D01*
X137828017Y-110488620D01*
X137887832Y-110436791D01*
X137981986Y-110328130D01*
X138059770Y-110207094D01*
X138116742Y-110082342D01*
X138118986Y-110078053D01*
X138119498Y-110076308D01*
X138119499Y-110076308D01*
X138160035Y-109938256D01*
X138160380Y-109935860D01*
X138167280Y-109887866D01*
X138180497Y-109795941D01*
X138180497Y-109739601D01*
X138180500Y-109739590D01*
X138180500Y-109208426D01*
X138180497Y-109208399D01*
X138180497Y-109152062D01*
X138180496Y-109152055D01*
X138176762Y-109126079D01*
X138175500Y-109108434D01*
X138175500Y-107992903D01*
X138733000Y-107992903D01*
X138733000Y-108194000D01*
X139983000Y-108194000D01*
X140483000Y-108194000D01*
X141733000Y-108194000D01*
X141733000Y-107992903D01*
X141730102Y-107950175D01*
X141684168Y-107765476D01*
X141599609Y-107594977D01*
X141599607Y-107594974D01*
X141480367Y-107446633D01*
X141480366Y-107446632D01*
X141332025Y-107327392D01*
X141332022Y-107327390D01*
X141161523Y-107242831D01*
X140976824Y-107196897D01*
X140934097Y-107194000D01*
X140483000Y-107194000D01*
X140483000Y-108194000D01*
X139983000Y-108194000D01*
X139983000Y-107194000D01*
X139531903Y-107194000D01*
X139489175Y-107196897D01*
X139304476Y-107242831D01*
X139133977Y-107327390D01*
X139133974Y-107327392D01*
X138985633Y-107446632D01*
X138985632Y-107446633D01*
X138866392Y-107594974D01*
X138866390Y-107594977D01*
X138781831Y-107765476D01*
X138735897Y-107950175D01*
X138733000Y-107992903D01*
X138175500Y-107992903D01*
X138175500Y-107023676D01*
X138195185Y-106956637D01*
X138247989Y-106910882D01*
X138264887Y-106904605D01*
X138422398Y-106858844D01*
X138563865Y-106775181D01*
X138608226Y-106730820D01*
X138669549Y-106697334D01*
X138695908Y-106694500D01*
X139715435Y-106694500D01*
X139733081Y-106695762D01*
X139759059Y-106699497D01*
X139815399Y-106699497D01*
X139815409Y-106699500D01*
X139866764Y-106699500D01*
X140346573Y-106699500D01*
X140346601Y-106699497D01*
X140402940Y-106699497D01*
X140402941Y-106699497D01*
X140536479Y-106680297D01*
X140536481Y-106680297D01*
X140542612Y-106679415D01*
X140545256Y-106679035D01*
X140545257Y-106679035D01*
X140683309Y-106638498D01*
X140814094Y-106578770D01*
X140935130Y-106500986D01*
X141043791Y-106406832D01*
X141043794Y-106406829D01*
X141138015Y-106298091D01*
X141206059Y-106192210D01*
X141215744Y-106177142D01*
X141215744Y-106177140D01*
X141215747Y-106177137D01*
X141275517Y-106046259D01*
X141316024Y-105908304D01*
X141336500Y-105765889D01*
X141336500Y-105194000D01*
X141331355Y-105122060D01*
X141320396Y-105084740D01*
X141316636Y-105032158D01*
X141317803Y-105024044D01*
X141336500Y-104894000D01*
X141336500Y-104322111D01*
X141316024Y-104179696D01*
X141275517Y-104041741D01*
X141215747Y-103910863D01*
X141181234Y-103857160D01*
X141141623Y-103795523D01*
X141140802Y-103794081D01*
X141138014Y-103789906D01*
X141111786Y-103759637D01*
X141082762Y-103696081D01*
X141081500Y-103678435D01*
X141081500Y-102851854D01*
X143743601Y-102851854D01*
X143753919Y-102952852D01*
X143808146Y-103116500D01*
X143808151Y-103116511D01*
X143898652Y-103263234D01*
X143898655Y-103263238D01*
X144020561Y-103385144D01*
X144020565Y-103385147D01*
X144167288Y-103475648D01*
X144167299Y-103475653D01*
X144330947Y-103529880D01*
X144431951Y-103540199D01*
X144531100Y-103540198D01*
X144531100Y-102815200D01*
X143743601Y-102815200D01*
X143743601Y-102851854D01*
X141081500Y-102851854D01*
X141081500Y-102286456D01*
X141081499Y-102286454D01*
X141079926Y-102278545D01*
X143743600Y-102278545D01*
X143743600Y-102315200D01*
X144531100Y-102315200D01*
X144531100Y-101590199D01*
X144431960Y-101590200D01*
X144431944Y-101590201D01*
X144330947Y-101600519D01*
X144167299Y-101654746D01*
X144167288Y-101654751D01*
X144020565Y-101745252D01*
X144020561Y-101745255D01*
X143898655Y-101867161D01*
X143898652Y-101867165D01*
X143808151Y-102013888D01*
X143808146Y-102013899D01*
X143753919Y-102177547D01*
X143743600Y-102278545D01*
X141079926Y-102278545D01*
X141043053Y-102093173D01*
X141043052Y-102093170D01*
X141043051Y-102093165D01*
X141040870Y-102087900D01*
X140989839Y-101964700D01*
X140967632Y-101911086D01*
X140938282Y-101867161D01*
X140858140Y-101747219D01*
X140795666Y-101684745D01*
X140718782Y-101607861D01*
X140718781Y-101607860D01*
X138125819Y-99014898D01*
X138092334Y-98953575D01*
X138089500Y-98927217D01*
X138089500Y-98811713D01*
X138089313Y-98810535D01*
X138056246Y-98601757D01*
X137990557Y-98399588D01*
X137894051Y-98210184D01*
X137894049Y-98210181D01*
X137894048Y-98210179D01*
X137769109Y-98038213D01*
X137618786Y-97887890D01*
X137446820Y-97762951D01*
X137257414Y-97666444D01*
X137257413Y-97666443D01*
X137257412Y-97666443D01*
X137055243Y-97600754D01*
X137055241Y-97600753D01*
X137055240Y-97600753D01*
X136893957Y-97575208D01*
X136845287Y-97567500D01*
X136845286Y-97567500D01*
X136729783Y-97567500D01*
X136662744Y-97547815D01*
X136648081Y-97535999D01*
X141887922Y-97535999D01*
X141887922Y-97536000D01*
X141908219Y-97923287D01*
X141968886Y-98306323D01*
X141968887Y-98306330D01*
X142069262Y-98680936D01*
X142208244Y-99042994D01*
X142384310Y-99388543D01*
X142595531Y-99713793D01*
X142804095Y-99971350D01*
X142804096Y-99971350D01*
X144298748Y-98476698D01*
X144372588Y-98578330D01*
X144550670Y-98756412D01*
X144652300Y-98830251D01*
X143157648Y-100324903D01*
X143157649Y-100324904D01*
X143415206Y-100533468D01*
X143740456Y-100744689D01*
X144086005Y-100920755D01*
X144448063Y-101059737D01*
X144822669Y-101160112D01*
X144822676Y-101160113D01*
X145205712Y-101220780D01*
X145592999Y-101241078D01*
X145593001Y-101241078D01*
X145980287Y-101220780D01*
X146363323Y-101160113D01*
X146363330Y-101160112D01*
X146737936Y-101059737D01*
X147099994Y-100920755D01*
X147445543Y-100744689D01*
X147770783Y-100533476D01*
X147770785Y-100533475D01*
X148028349Y-100324902D01*
X146533698Y-98830251D01*
X146635330Y-98756412D01*
X146813412Y-98578330D01*
X146887251Y-98476698D01*
X148381902Y-99971349D01*
X148590475Y-99713785D01*
X148590476Y-99713783D01*
X148801689Y-99388543D01*
X148977755Y-99042994D01*
X149116737Y-98680936D01*
X149217112Y-98306330D01*
X149217113Y-98306323D01*
X149277780Y-97923287D01*
X149298078Y-97536000D01*
X149298078Y-97535999D01*
X149277780Y-97148712D01*
X149217113Y-96765676D01*
X149217112Y-96765669D01*
X149116737Y-96391063D01*
X148977755Y-96029005D01*
X148801689Y-95683456D01*
X148590468Y-95358206D01*
X148381904Y-95100649D01*
X148381903Y-95100648D01*
X146887251Y-96595300D01*
X146813412Y-96493670D01*
X146635330Y-96315588D01*
X146533698Y-96241748D01*
X148028350Y-94747096D01*
X148028350Y-94747095D01*
X147770793Y-94538531D01*
X147445543Y-94327310D01*
X147099994Y-94151244D01*
X146737936Y-94012262D01*
X146363330Y-93911887D01*
X146363323Y-93911886D01*
X145980287Y-93851219D01*
X145593001Y-93830922D01*
X145592999Y-93830922D01*
X145205712Y-93851219D01*
X144822676Y-93911886D01*
X144822669Y-93911887D01*
X144448063Y-94012262D01*
X144086005Y-94151244D01*
X143740456Y-94327310D01*
X143415206Y-94538531D01*
X143157648Y-94747095D01*
X143157648Y-94747096D01*
X144652301Y-96241748D01*
X144550670Y-96315588D01*
X144372588Y-96493670D01*
X144298748Y-96595300D01*
X142804096Y-95100648D01*
X142804095Y-95100648D01*
X142595531Y-95358206D01*
X142384310Y-95683456D01*
X142208244Y-96029005D01*
X142069262Y-96391063D01*
X141968887Y-96765669D01*
X141968886Y-96765676D01*
X141908219Y-97148712D01*
X141887922Y-97535999D01*
X136648081Y-97535999D01*
X136642102Y-97531181D01*
X135295819Y-96184898D01*
X135262334Y-96123575D01*
X135259500Y-96097217D01*
X135259500Y-92876957D01*
X135279185Y-92809918D01*
X135318407Y-92771416D01*
X135327656Y-92765712D01*
X135451712Y-92641656D01*
X135543814Y-92492334D01*
X135543814Y-92492331D01*
X135547448Y-92486441D01*
X135599395Y-92439716D01*
X135668358Y-92428493D01*
X135732440Y-92456336D01*
X135740668Y-92463856D01*
X135879535Y-92602723D01*
X135879540Y-92602727D01*
X136051442Y-92727620D01*
X136240782Y-92824095D01*
X136442871Y-92889757D01*
X136509000Y-92900231D01*
X136509000Y-91856012D01*
X136566007Y-91888925D01*
X136693174Y-91923000D01*
X136824826Y-91923000D01*
X136951993Y-91888925D01*
X137009000Y-91856012D01*
X137009000Y-92900230D01*
X137075126Y-92889757D01*
X137075129Y-92889757D01*
X137277217Y-92824095D01*
X137466557Y-92727620D01*
X137638459Y-92602727D01*
X137638464Y-92602723D01*
X137788723Y-92452464D01*
X137788727Y-92452459D01*
X137913620Y-92280557D01*
X138010095Y-92091217D01*
X138075757Y-91889130D01*
X138075757Y-91889127D01*
X138109000Y-91679246D01*
X138109000Y-91673000D01*
X137192012Y-91673000D01*
X137224925Y-91615993D01*
X137259000Y-91488826D01*
X137259000Y-91357174D01*
X137224925Y-91230007D01*
X137192012Y-91173000D01*
X138109000Y-91173000D01*
X138109000Y-91166753D01*
X138094808Y-91077149D01*
X144589600Y-91077149D01*
X144592499Y-91113989D01*
X144592500Y-91113995D01*
X144638316Y-91271693D01*
X144638317Y-91271696D01*
X144721914Y-91413052D01*
X144721921Y-91413061D01*
X144838038Y-91529178D01*
X144838047Y-91529185D01*
X144979401Y-91612781D01*
X145137114Y-91658600D01*
X145137111Y-91658600D01*
X145139598Y-91658795D01*
X145139600Y-91658795D01*
X145139600Y-90674000D01*
X144589600Y-90674000D01*
X144589600Y-91077149D01*
X138094808Y-91077149D01*
X138075757Y-90956872D01*
X138075757Y-90956869D01*
X138010095Y-90754782D01*
X137913620Y-90565442D01*
X137788727Y-90393540D01*
X137788723Y-90393535D01*
X137638464Y-90243276D01*
X137638459Y-90243272D01*
X137466557Y-90118379D01*
X137277215Y-90021903D01*
X137075124Y-89956241D01*
X137009000Y-89945768D01*
X137009000Y-90989988D01*
X136951993Y-90957075D01*
X136824826Y-90923000D01*
X136693174Y-90923000D01*
X136566007Y-90957075D01*
X136509000Y-90989988D01*
X136509000Y-89945768D01*
X136508999Y-89945768D01*
X136442875Y-89956241D01*
X136240784Y-90021903D01*
X136051442Y-90118379D01*
X135879541Y-90243271D01*
X135740668Y-90382144D01*
X135679345Y-90415628D01*
X135609653Y-90410644D01*
X135553720Y-90368772D01*
X135547448Y-90359558D01*
X135497182Y-90278064D01*
X135451712Y-90204344D01*
X135327656Y-90080288D01*
X135204683Y-90004438D01*
X135178336Y-89988187D01*
X135178331Y-89988185D01*
X135151786Y-89979389D01*
X135011797Y-89933001D01*
X135011795Y-89933000D01*
X134909010Y-89922500D01*
X133608998Y-89922500D01*
X133608981Y-89922501D01*
X133506203Y-89933000D01*
X133506200Y-89933001D01*
X133339668Y-89988185D01*
X133339663Y-89988187D01*
X133190342Y-90080289D01*
X133066289Y-90204342D01*
X132974187Y-90353663D01*
X132974185Y-90353668D01*
X132969180Y-90368772D01*
X132919001Y-90520203D01*
X132919001Y-90520204D01*
X132919000Y-90520204D01*
X132908500Y-90622983D01*
X132908500Y-92223001D01*
X132908501Y-92223018D01*
X132919000Y-92325796D01*
X132919001Y-92325799D01*
X132974185Y-92492331D01*
X132974187Y-92492336D01*
X133003586Y-92540000D01*
X133066288Y-92641656D01*
X133190344Y-92765712D01*
X133199591Y-92771416D01*
X133246318Y-92823360D01*
X133258500Y-92876957D01*
X133258500Y-96661541D01*
X133258500Y-96661543D01*
X133258499Y-96661543D01*
X133296947Y-96854829D01*
X133296950Y-96854839D01*
X133372364Y-97036907D01*
X133372371Y-97036920D01*
X133481859Y-97200780D01*
X133481860Y-97200781D01*
X133481861Y-97200782D01*
X133621218Y-97340139D01*
X133621219Y-97340139D01*
X133628286Y-97347206D01*
X133628285Y-97347206D01*
X133628289Y-97347209D01*
X133750240Y-97469160D01*
X133783725Y-97530483D01*
X133778741Y-97600175D01*
X133736869Y-97656108D01*
X133718854Y-97667326D01*
X133531180Y-97762951D01*
X133359215Y-97887889D01*
X133220398Y-98026706D01*
X133159075Y-98060190D01*
X133089383Y-98055206D01*
X133033450Y-98013334D01*
X133027178Y-98004120D01*
X132931712Y-97849344D01*
X132807657Y-97725289D01*
X132807656Y-97725288D01*
X132658334Y-97633186D01*
X132491797Y-97578001D01*
X132491795Y-97578000D01*
X132389016Y-97567500D01*
X132389009Y-97567500D01*
X131729783Y-97567500D01*
X131662744Y-97547815D01*
X131642102Y-97531181D01*
X130957819Y-96846898D01*
X130924334Y-96785575D01*
X130921500Y-96759217D01*
X130921500Y-94516456D01*
X130898882Y-94402752D01*
X130896499Y-94378560D01*
X130896499Y-94315830D01*
X130896498Y-94315813D01*
X130886174Y-94214747D01*
X130865131Y-94151244D01*
X130831908Y-94050984D01*
X130741340Y-93904150D01*
X130627017Y-93789827D01*
X130593532Y-93728504D01*
X130598516Y-93658812D01*
X130627017Y-93614464D01*
X130740948Y-93500533D01*
X130831448Y-93353811D01*
X130831453Y-93353800D01*
X130885680Y-93190152D01*
X130895999Y-93089154D01*
X130896000Y-93089141D01*
X130896000Y-93040000D01*
X128946001Y-93040000D01*
X128946001Y-93089154D01*
X128956319Y-93190152D01*
X129010546Y-93353800D01*
X129010551Y-93353811D01*
X129101052Y-93500534D01*
X129101055Y-93500538D01*
X129214982Y-93614465D01*
X129248467Y-93675788D01*
X129243483Y-93745480D01*
X129214983Y-93789827D01*
X129100659Y-93904151D01*
X129010093Y-94050981D01*
X129010092Y-94050984D01*
X128955826Y-94214747D01*
X128955826Y-94214748D01*
X128955825Y-94214748D01*
X128945500Y-94315815D01*
X128945500Y-94378564D01*
X128943117Y-94402756D01*
X128920500Y-94516456D01*
X128920500Y-94516459D01*
X128920500Y-97323541D01*
X128920500Y-97323543D01*
X128920499Y-97323543D01*
X128958947Y-97516829D01*
X128958950Y-97516839D01*
X129034364Y-97698907D01*
X129034371Y-97698920D01*
X129143859Y-97862780D01*
X129143860Y-97862781D01*
X129143861Y-97862782D01*
X129283218Y-98002139D01*
X129283219Y-98002139D01*
X129290286Y-98009206D01*
X129290285Y-98009206D01*
X129290289Y-98009209D01*
X130352181Y-99071102D01*
X130385666Y-99132425D01*
X130388500Y-99158783D01*
X130388500Y-99818001D01*
X130388501Y-99818019D01*
X130399000Y-99920796D01*
X130399001Y-99920799D01*
X130444894Y-100059294D01*
X130454186Y-100087334D01*
X130546288Y-100236656D01*
X130670344Y-100360712D01*
X130819666Y-100452814D01*
X130986203Y-100507999D01*
X131088991Y-100518500D01*
X132389008Y-100518499D01*
X132491797Y-100507999D01*
X132658334Y-100452814D01*
X132807656Y-100360712D01*
X132931712Y-100236656D01*
X133023814Y-100087334D01*
X133023814Y-100087331D01*
X133027178Y-100081879D01*
X133079126Y-100035154D01*
X133148088Y-100023931D01*
X133212170Y-100051774D01*
X133220398Y-100059294D01*
X133359213Y-100198109D01*
X133531179Y-100323048D01*
X133531181Y-100323049D01*
X133531184Y-100323051D01*
X133720588Y-100419557D01*
X133922757Y-100485246D01*
X134132713Y-100518500D01*
X134248218Y-100518500D01*
X134315257Y-100538185D01*
X134335899Y-100554819D01*
X136537681Y-102756601D01*
X136571166Y-102817924D01*
X136574000Y-102844282D01*
X136574000Y-104247931D01*
X136554315Y-104314970D01*
X136501511Y-104360725D01*
X136432353Y-104370669D01*
X136415407Y-104367008D01*
X136389570Y-104359502D01*
X136389567Y-104359501D01*
X136352701Y-104356600D01*
X136352694Y-104356600D01*
X136339933Y-104356600D01*
X136272894Y-104336915D01*
X136271078Y-104335726D01*
X136173414Y-104270469D01*
X136173415Y-104270469D01*
X136173413Y-104270468D01*
X135991335Y-104195049D01*
X135991327Y-104195047D01*
X135798043Y-104156600D01*
X135798040Y-104156600D01*
X135600959Y-104156600D01*
X135600958Y-104156600D01*
X135598897Y-104156803D01*
X135586744Y-104157400D01*
X131738077Y-104157400D01*
X131671038Y-104137715D01*
X131643787Y-104113932D01*
X131630260Y-104098095D01*
X131564224Y-104020776D01*
X131435525Y-103910857D01*
X131372656Y-103857161D01*
X131372653Y-103857160D01*
X131157859Y-103725533D01*
X130925110Y-103629126D01*
X130680151Y-103570317D01*
X130429000Y-103550551D01*
X130177848Y-103570317D01*
X129932889Y-103629126D01*
X129700140Y-103725533D01*
X129485346Y-103857160D01*
X129485343Y-103857161D01*
X129293776Y-104020776D01*
X129130161Y-104212343D01*
X129130160Y-104212346D01*
X128998533Y-104427140D01*
X128902126Y-104659889D01*
X128843317Y-104904848D01*
X128823551Y-105156000D01*
X126992156Y-105156000D01*
X126992392Y-92490845D01*
X128946000Y-92490845D01*
X128946000Y-92540000D01*
X129671000Y-92540000D01*
X130171000Y-92540000D01*
X130895999Y-92540000D01*
X130895999Y-92490860D01*
X130895998Y-92490845D01*
X130885680Y-92389847D01*
X130831453Y-92226199D01*
X130831448Y-92226188D01*
X130740947Y-92079465D01*
X130740944Y-92079461D01*
X130619038Y-91957555D01*
X130619034Y-91957552D01*
X130472311Y-91867051D01*
X130472300Y-91867046D01*
X130308652Y-91812819D01*
X130207654Y-91802500D01*
X130171000Y-91802500D01*
X130171000Y-92540000D01*
X129671000Y-92540000D01*
X129671000Y-91802500D01*
X129634361Y-91802500D01*
X129634343Y-91802501D01*
X129533347Y-91812819D01*
X129369699Y-91867046D01*
X129369688Y-91867051D01*
X129222965Y-91957552D01*
X129222961Y-91957555D01*
X129101055Y-92079461D01*
X129101052Y-92079465D01*
X129010551Y-92226188D01*
X129010546Y-92226199D01*
X128956319Y-92389847D01*
X128946000Y-92490845D01*
X126992392Y-92490845D01*
X126992442Y-89770850D01*
X144589600Y-89770850D01*
X144589600Y-90174000D01*
X145139600Y-90174000D01*
X145139600Y-89189203D01*
X145137103Y-89189400D01*
X144979406Y-89235216D01*
X144979403Y-89235217D01*
X144838047Y-89318814D01*
X144838038Y-89318821D01*
X144721921Y-89434938D01*
X144721914Y-89434947D01*
X144638317Y-89576303D01*
X144638316Y-89576306D01*
X144592500Y-89734004D01*
X144592499Y-89734010D01*
X144589600Y-89770850D01*
X126992442Y-89770850D01*
X126992497Y-86818726D01*
X126992500Y-86818709D01*
X126992500Y-86753210D01*
X126994883Y-86729019D01*
X126997926Y-86713721D01*
X127016411Y-86669066D01*
X127016463Y-86668987D01*
X127018164Y-86666441D01*
X127052441Y-86632164D01*
X127055066Y-86630411D01*
X127099718Y-86611926D01*
X127115028Y-86608881D01*
X127139211Y-86606500D01*
X127192892Y-86606500D01*
X164844000Y-86606500D01*
X164911039Y-86626185D01*
G37*
%TD.AperFunction*%
%TD*%
M02*
