%TF.GenerationSoftware,KiCad,Pcbnew,8.0.4-1.fc40*%
%TF.CreationDate,2024-08-14T09:28:22-05:00*%
%TF.ProjectId,K9QW_ATTiny_CW_Keyer,4b395157-5f41-4545-9469-6e795f43575f,rev?*%
%TF.SameCoordinates,Original*%
%TF.FileFunction,Paste,Top*%
%TF.FilePolarity,Positive*%
%FSLAX46Y46*%
G04 Gerber Fmt 4.6, Leading zero omitted, Abs format (unit mm)*
G04 Created by KiCad (PCBNEW 8.0.4-1.fc40) date 2024-08-14 09:28:22*
%MOMM*%
%LPD*%
G01*
G04 APERTURE LIST*
G04 Aperture macros list*
%AMRoundRect*
0 Rectangle with rounded corners*
0 $1 Rounding radius*
0 $2 $3 $4 $5 $6 $7 $8 $9 X,Y pos of 4 corners*
0 Add a 4 corners polygon primitive as box body*
4,1,4,$2,$3,$4,$5,$6,$7,$8,$9,$2,$3,0*
0 Add four circle primitives for the rounded corners*
1,1,$1+$1,$2,$3*
1,1,$1+$1,$4,$5*
1,1,$1+$1,$6,$7*
1,1,$1+$1,$8,$9*
0 Add four rect primitives between the rounded corners*
20,1,$1+$1,$2,$3,$4,$5,0*
20,1,$1+$1,$4,$5,$6,$7,0*
20,1,$1+$1,$6,$7,$8,$9,0*
20,1,$1+$1,$8,$9,$2,$3,0*%
G04 Aperture macros list end*
%ADD10RoundRect,0.237500X0.250000X0.237500X-0.250000X0.237500X-0.250000X-0.237500X0.250000X-0.237500X0*%
%ADD11RoundRect,0.150000X0.150000X-0.587500X0.150000X0.587500X-0.150000X0.587500X-0.150000X-0.587500X0*%
%ADD12RoundRect,0.237500X-0.237500X0.300000X-0.237500X-0.300000X0.237500X-0.300000X0.237500X0.300000X0*%
%ADD13R,1.200000X2.500000*%
%ADD14RoundRect,0.237500X-0.237500X0.250000X-0.237500X-0.250000X0.237500X-0.250000X0.237500X0.250000X0*%
%ADD15RoundRect,0.237500X-0.300000X-0.237500X0.300000X-0.237500X0.300000X0.237500X-0.300000X0.237500X0*%
%ADD16RoundRect,0.150000X0.587500X0.150000X-0.587500X0.150000X-0.587500X-0.150000X0.587500X-0.150000X0*%
%ADD17RoundRect,0.237500X-0.250000X-0.237500X0.250000X-0.237500X0.250000X0.237500X-0.250000X0.237500X0*%
%ADD18RoundRect,0.150000X-0.512500X-0.150000X0.512500X-0.150000X0.512500X0.150000X-0.512500X0.150000X0*%
%ADD19RoundRect,0.150000X-0.150000X0.587500X-0.150000X-0.587500X0.150000X-0.587500X0.150000X0.587500X0*%
%ADD20RoundRect,0.150000X-0.587500X-0.150000X0.587500X-0.150000X0.587500X0.150000X-0.587500X0.150000X0*%
%ADD21RoundRect,0.237500X0.287500X0.237500X-0.287500X0.237500X-0.287500X-0.237500X0.287500X-0.237500X0*%
%ADD22RoundRect,0.237500X-0.287500X-0.237500X0.287500X-0.237500X0.287500X0.237500X-0.287500X0.237500X0*%
G04 APERTURE END LIST*
D10*
%TO.C,R10*%
X156131900Y-115824000D03*
X154306900Y-115824000D03*
%TD*%
D11*
%TO.C,Q3*%
X154839500Y-92275900D03*
X156739500Y-92275900D03*
X155789500Y-90400900D03*
%TD*%
D10*
%TO.C,R7*%
X156131900Y-111658400D03*
X154306900Y-111658400D03*
%TD*%
D12*
%TO.C,C5*%
X149428200Y-100153300D03*
X149428200Y-101878300D03*
%TD*%
D13*
%TO.C,J2*%
X171168000Y-94436000D03*
X174168000Y-94436000D03*
X166068000Y-87936000D03*
X167168000Y-94436000D03*
%TD*%
D14*
%TO.C,R2*%
X133477000Y-105157900D03*
X133477000Y-106982900D03*
%TD*%
D15*
%TO.C,C7*%
X160452900Y-111658400D03*
X162177900Y-111658400D03*
%TD*%
D16*
%TO.C,Q4*%
X161948100Y-109458800D03*
X161948100Y-107558800D03*
X160073100Y-108508800D03*
%TD*%
D12*
%TO.C,C8*%
X161262400Y-100143600D03*
X161262400Y-101868600D03*
%TD*%
D17*
%TO.C,R6*%
X168405800Y-97586800D03*
X170230800Y-97586800D03*
%TD*%
D18*
%TO.C,U3*%
X160584300Y-113248400D03*
X160584300Y-114198400D03*
X160584300Y-115148400D03*
X162859300Y-115148400D03*
X162859300Y-113248400D03*
%TD*%
D10*
%TO.C,R9*%
X156131900Y-106934000D03*
X154306900Y-106934000D03*
%TD*%
D19*
%TO.C,Q2*%
X147289600Y-90424000D03*
X145389600Y-90424000D03*
X146339600Y-92299000D03*
%TD*%
D17*
%TO.C,R8*%
X154306900Y-110083600D03*
X156131900Y-110083600D03*
%TD*%
D20*
%TO.C,Q1*%
X135699500Y-105157100D03*
X135699500Y-107057100D03*
X137574500Y-106107100D03*
%TD*%
D15*
%TO.C,C9*%
X161298400Y-97634400D03*
X163023400Y-97634400D03*
%TD*%
D10*
%TO.C,R4*%
X152728000Y-92303600D03*
X150903000Y-92303600D03*
%TD*%
D17*
%TO.C,R3*%
X154308800Y-105359200D03*
X156133800Y-105359200D03*
%TD*%
%TO.C,R5*%
X150877900Y-90424000D03*
X152702900Y-90424000D03*
%TD*%
D13*
%TO.C,J3*%
X171168000Y-107136000D03*
X174168000Y-107136000D03*
X166068000Y-100636000D03*
X167168000Y-107136000D03*
%TD*%
D21*
%TO.C,D2*%
X174509400Y-97586800D03*
X172759400Y-97586800D03*
%TD*%
D15*
%TO.C,C6*%
X159868700Y-89306400D03*
X161593700Y-89306400D03*
%TD*%
D22*
%TO.C,D3*%
X154344400Y-108508800D03*
X156094400Y-108508800D03*
%TD*%
M02*
