M48
; DRILL file {KiCad 8.0.4-1.fc40} date 2024-08-14T08:55:55-0500
; FORMAT={-:-/ absolute / inch / decimal}
; #@! TF.CreationDate,2024-08-14T08:55:55-05:00
; #@! TF.GenerationSoftware,Kicad,Pcbnew,8.0.4-1.fc40
; #@! TF.FileFunction,Plated,1,2,PTH
FMAT,2
INCH
; #@! TA.AperFunction,Plated,PTH,ViaDrill
T1C0.0118
; #@! TA.AperFunction,Plated,PTH,ComponentDrill
T2C0.0315
; #@! TA.AperFunction,Plated,PTH,ComponentDrill
T3C0.0374
; #@! TA.AperFunction,Plated,PTH,ComponentDrill
T4C0.0394
; #@! TA.AperFunction,Plated,PTH,ComponentDrill
T5C0.0433
; #@! TA.AperFunction,Plated,PTH,ComponentDrill
T6C0.1260
%
G90
G05
T1
X5.882Y-3.588
X6.019Y-4.18
X6.061Y-3.8
X6.086Y-3.56
X6.182Y-3.899
X6.229Y-4.259
X6.264Y-4.365
X6.317Y-3.893
X6.385Y-4.362
X6.524Y-4.208
T2
X5.134Y-4.4504
X5.134Y-4.5291
X5.9607Y-3.7429
X5.9607Y-3.8429
X5.9607Y-3.9429
X5.9607Y-4.0429
X6.2607Y-3.7429
X6.2607Y-3.8429
X6.2607Y-3.9429
X6.2607Y-4.0429
T3
X5.1866Y-3.8993
X5.285Y-3.8993
X5.3834Y-3.8993
T4
X5.2858Y-3.5993
X5.3842Y-3.5993
X5.74Y-4.2491
X5.74Y-4.446
T5
X5.134Y-4.14
X5.134Y-4.29
X6.604Y-4.3764
X6.604Y-4.5536
X6.86Y-4.3764
X6.86Y-4.5536
T6
X5.732Y-3.84
M30
