%TF.GenerationSoftware,KiCad,Pcbnew,8.0.4-1.fc40*%
%TF.CreationDate,2024-08-13T13:06:20-05:00*%
%TF.ProjectId,K9QW_ATTiny_CW_Keyer,4b395157-5f41-4545-9469-6e795f43575f,rev?*%
%TF.SameCoordinates,Original*%
%TF.FileFunction,Soldermask,Top*%
%TF.FilePolarity,Negative*%
%FSLAX46Y46*%
G04 Gerber Fmt 4.6, Leading zero omitted, Abs format (unit mm)*
G04 Created by KiCad (PCBNEW 8.0.4-1.fc40) date 2024-08-13 13:06:20*
%MOMM*%
%LPD*%
G01*
G04 APERTURE LIST*
G04 Aperture macros list*
%AMRoundRect*
0 Rectangle with rounded corners*
0 $1 Rounding radius*
0 $2 $3 $4 $5 $6 $7 $8 $9 X,Y pos of 4 corners*
0 Add a 4 corners polygon primitive as box body*
4,1,4,$2,$3,$4,$5,$6,$7,$8,$9,$2,$3,0*
0 Add four circle primitives for the rounded corners*
1,1,$1+$1,$2,$3*
1,1,$1+$1,$4,$5*
1,1,$1+$1,$6,$7*
1,1,$1+$1,$8,$9*
0 Add four rect primitives between the rounded corners*
20,1,$1+$1,$2,$3,$4,$5,0*
20,1,$1+$1,$4,$5,$6,$7,0*
20,1,$1+$1,$6,$7,$8,$9,0*
20,1,$1+$1,$8,$9,$2,$3,0*%
%AMFreePoly0*
4,1,19,0.000000,0.744911,0.071157,0.744911,0.207708,0.704816,0.327430,0.627875,0.420627,0.520320,0.479746,0.390866,0.500000,0.250000,0.500000,-0.250000,0.479746,-0.390866,0.420627,-0.520320,0.327430,-0.627875,0.207708,-0.704816,0.071157,-0.744911,0.000000,-0.744911,0.000000,-0.750000,-0.500000,-0.750000,-0.500000,0.750000,0.000000,0.750000,0.000000,0.744911,0.000000,0.744911,
$1*%
%AMFreePoly1*
4,1,19,0.500000,-0.750000,0.000000,-0.750000,0.000000,-0.744911,-0.071157,-0.744911,-0.207708,-0.704816,-0.327430,-0.627875,-0.420627,-0.520320,-0.479746,-0.390866,-0.500000,-0.250000,-0.500000,0.250000,-0.479746,0.390866,-0.420627,0.520320,-0.327430,0.627875,-0.207708,0.704816,-0.071157,0.744911,0.000000,0.744911,0.000000,0.750000,0.500000,0.750000,0.500000,-0.750000,0.500000,-0.750000,
$1*%
G04 Aperture macros list end*
%ADD10RoundRect,0.237500X0.300000X0.237500X-0.300000X0.237500X-0.300000X-0.237500X0.300000X-0.237500X0*%
%ADD11RoundRect,0.237500X-0.237500X0.250000X-0.237500X-0.250000X0.237500X-0.250000X0.237500X0.250000X0*%
%ADD12RoundRect,0.150000X-0.587500X-0.150000X0.587500X-0.150000X0.587500X0.150000X-0.587500X0.150000X0*%
%ADD13FreePoly0,180.000000*%
%ADD14FreePoly1,180.000000*%
%ADD15C,1.500000*%
%ADD16R,1.200000X2.500000*%
%ADD17O,2.200000X2.200000*%
%ADD18R,2.200000X2.200000*%
%ADD19RoundRect,0.375000X-0.625000X-0.375000X0.625000X-0.375000X0.625000X0.375000X-0.625000X0.375000X0*%
%ADD20RoundRect,0.500000X-0.500000X-1.400000X0.500000X-1.400000X0.500000X1.400000X-0.500000X1.400000X0*%
%ADD21RoundRect,0.237500X-0.237500X0.300000X-0.237500X-0.300000X0.237500X-0.300000X0.237500X0.300000X0*%
%ADD22O,1.700000X1.950000*%
%ADD23RoundRect,0.250000X-0.600000X-0.725000X0.600000X-0.725000X0.600000X0.725000X-0.600000X0.725000X0*%
%ADD24RoundRect,0.237500X-0.250000X-0.237500X0.250000X-0.237500X0.250000X0.237500X-0.250000X0.237500X0*%
%ADD25RoundRect,0.237500X0.237500X-0.250000X0.237500X0.250000X-0.237500X0.250000X-0.237500X-0.250000X0*%
%ADD26RoundRect,0.237500X0.250000X0.237500X-0.250000X0.237500X-0.250000X-0.237500X0.250000X-0.237500X0*%
%ADD27RoundRect,0.150000X-0.150000X0.587500X-0.150000X-0.587500X0.150000X-0.587500X0.150000X0.587500X0*%
%ADD28RoundRect,0.237500X-0.300000X-0.237500X0.300000X-0.237500X0.300000X0.237500X-0.300000X0.237500X0*%
%ADD29C,3.600000*%
%ADD30C,6.400000*%
%ADD31O,1.700000X2.000000*%
%ADD32RoundRect,0.250000X-0.600000X-0.750000X0.600000X-0.750000X0.600000X0.750000X-0.600000X0.750000X0*%
%ADD33FreePoly1,90.000000*%
%ADD34FreePoly0,90.000000*%
%ADD35FreePoly1,0.000000*%
%ADD36FreePoly0,0.000000*%
%ADD37RoundRect,0.237500X0.287500X0.237500X-0.287500X0.237500X-0.287500X-0.237500X0.287500X-0.237500X0*%
%ADD38RoundRect,0.237500X0.237500X-0.287500X0.237500X0.287500X-0.237500X0.287500X-0.237500X-0.287500X0*%
%ADD39C,2.000000*%
%ADD40RoundRect,0.150000X0.150000X-0.587500X0.150000X0.587500X-0.150000X0.587500X-0.150000X-0.587500X0*%
%ADD41RoundRect,0.237500X0.237500X-0.300000X0.237500X0.300000X-0.237500X0.300000X-0.237500X-0.300000X0*%
%ADD42O,1.600000X1.600000*%
%ADD43R,1.600000X1.600000*%
G04 APERTURE END LIST*
D10*
%TO.C,C4*%
X146506100Y-102565200D03*
X144781100Y-102565200D03*
%TD*%
D11*
%TO.C,R2*%
X133477000Y-106982900D03*
X133477000Y-105157900D03*
%TD*%
D12*
%TO.C,Q1*%
X137574500Y-106107100D03*
X135699500Y-107057100D03*
X135699500Y-105157100D03*
%TD*%
D13*
%TO.C,JP2*%
X135875000Y-109474000D03*
D14*
X137175000Y-109474000D03*
%TD*%
D15*
%TO.C,J2*%
X175768000Y-91186000D03*
X168768000Y-91186000D03*
D16*
X171168000Y-94436000D03*
X174168000Y-94436000D03*
X166068000Y-87936000D03*
X167168000Y-94436000D03*
%TD*%
D15*
%TO.C,J3*%
X175768000Y-103886000D03*
X168768000Y-103886000D03*
D16*
X171168000Y-107136000D03*
X174168000Y-107136000D03*
X166068000Y-100636000D03*
X167168000Y-107136000D03*
%TD*%
D17*
%TO.C,D1*%
X130429000Y-105156000D03*
D18*
X130429000Y-115316000D03*
%TD*%
D19*
%TO.C,U2*%
X140233000Y-113044000D03*
D20*
X146533000Y-110744000D03*
D19*
X140233000Y-110744000D03*
X140233000Y-108444000D03*
%TD*%
D21*
%TO.C,C6*%
X161262400Y-101868600D03*
X161262400Y-100143600D03*
%TD*%
D10*
%TO.C,C3*%
X144806500Y-115316000D03*
X146531500Y-115316000D03*
%TD*%
D22*
%TO.C,SW1*%
X136739000Y-99043000D03*
X134239000Y-99043000D03*
D23*
X131739000Y-99043000D03*
%TD*%
D24*
%TO.C,R6*%
X168405800Y-97586800D03*
X170230800Y-97586800D03*
%TD*%
D25*
%TO.C,R1*%
X129921000Y-94615000D03*
X129921000Y-92790000D03*
%TD*%
D26*
%TO.C,R9*%
X154433900Y-107137200D03*
X156258900Y-107137200D03*
%TD*%
D27*
%TO.C,Q2*%
X146339600Y-92299000D03*
X145389600Y-90424000D03*
X147289600Y-90424000D03*
%TD*%
D28*
%TO.C,C7*%
X163023400Y-97634400D03*
X161298400Y-97634400D03*
%TD*%
D26*
%TO.C,R4*%
X150903000Y-92303600D03*
X152728000Y-92303600D03*
%TD*%
D21*
%TO.C,C1*%
X151409400Y-105182500D03*
X151409400Y-106907500D03*
%TD*%
%TO.C,C2*%
X133477000Y-110897500D03*
X133477000Y-112622500D03*
%TD*%
D29*
%TO.C,J5*%
X145593000Y-97536000D03*
D30*
X145593000Y-97536000D03*
%TD*%
D24*
%TO.C,R3*%
X154435800Y-105359200D03*
X156260800Y-105359200D03*
%TD*%
D31*
%TO.C,J1*%
X136759000Y-91423000D03*
D32*
X134259000Y-91423000D03*
%TD*%
D24*
%TO.C,R5*%
X150877900Y-90424000D03*
X152702900Y-90424000D03*
%TD*%
D33*
%TO.C,JP1*%
X140081000Y-105694000D03*
D34*
X140081000Y-104394000D03*
%TD*%
D35*
%TO.C,JP3*%
X135875000Y-113030000D03*
D36*
X137175000Y-113030000D03*
%TD*%
D37*
%TO.C,D2*%
X172759400Y-97586800D03*
X174509400Y-97586800D03*
%TD*%
D28*
%TO.C,C5*%
X161593700Y-89306400D03*
X159868700Y-89306400D03*
%TD*%
D27*
%TO.C,Q4*%
X151033200Y-114621000D03*
X150083200Y-112746000D03*
X151983200Y-112746000D03*
%TD*%
D25*
%TO.C,R7*%
X153873200Y-112729000D03*
X153873200Y-114554000D03*
%TD*%
D38*
%TO.C,D3*%
X153928800Y-110806200D03*
X153928800Y-109056200D03*
%TD*%
D39*
%TO.C,SW2*%
X167742800Y-111161000D03*
X174242800Y-111161000D03*
X167742800Y-115661000D03*
X174242800Y-115661000D03*
%TD*%
D40*
%TO.C,Q3*%
X154839500Y-92275900D03*
X156739500Y-92275900D03*
X155789500Y-90400900D03*
%TD*%
D41*
%TO.C,C8*%
X162788600Y-107542500D03*
X162788600Y-105817500D03*
%TD*%
D31*
%TO.C,J4*%
X160970600Y-111328200D03*
D32*
X158470600Y-111328200D03*
%TD*%
D42*
%TO.C,U1*%
X151401000Y-102688400D03*
X151401000Y-100148400D03*
X151401000Y-97608400D03*
X151401000Y-95068400D03*
X159021000Y-95068400D03*
X159021000Y-97608400D03*
X159021000Y-100148400D03*
D43*
X159021000Y-102688400D03*
%TD*%
D25*
%TO.C,R8*%
X161264600Y-107592500D03*
X161264600Y-105767500D03*
%TD*%
M02*
